G04 #@! TF.GenerationSoftware,KiCad,Pcbnew,5.1.2-f72e74a~84~ubuntu18.04.1*
G04 #@! TF.CreationDate,2019-05-28T19:28:17+02:00*
G04 #@! TF.ProjectId,OpenEMG2,4f70656e-454d-4473-922e-6b696361645f,rev?*
G04 #@! TF.SameCoordinates,Original*
G04 #@! TF.FileFunction,Soldermask,Top*
G04 #@! TF.FilePolarity,Negative*
%FSLAX46Y46*%
G04 Gerber Fmt 4.6, Leading zero omitted, Abs format (unit mm)*
G04 Created by KiCad (PCBNEW 5.1.2-f72e74a~84~ubuntu18.04.1) date 2019-05-28 19:28:17*
%MOMM*%
%LPD*%
G04 APERTURE LIST*
%ADD10C,0.100000*%
%ADD11C,1.375000*%
%ADD12R,1.900000X2.000000*%
%ADD13R,1.600000X1.600000*%
%ADD14C,1.050000*%
%ADD15C,1.000000*%
%ADD16C,4.200000*%
%ADD17O,2.100000X2.100000*%
%ADD18R,2.100000X2.100000*%
%ADD19R,2.900000X2.200000*%
%ADD20C,2.000000*%
G04 APERTURE END LIST*
D10*
G36*
X30222443Y-54346655D02*
G01*
X30255812Y-54351605D01*
X30288535Y-54359802D01*
X30320297Y-54371166D01*
X30350793Y-54385590D01*
X30379727Y-54402932D01*
X30406823Y-54423028D01*
X30431818Y-54445682D01*
X30454472Y-54470677D01*
X30474568Y-54497773D01*
X30491910Y-54526707D01*
X30506334Y-54557203D01*
X30517698Y-54588965D01*
X30525895Y-54621688D01*
X30530845Y-54655057D01*
X30532500Y-54688750D01*
X30532500Y-55801250D01*
X30530845Y-55834943D01*
X30525895Y-55868312D01*
X30517698Y-55901035D01*
X30506334Y-55932797D01*
X30491910Y-55963293D01*
X30474568Y-55992227D01*
X30454472Y-56019323D01*
X30431818Y-56044318D01*
X30406823Y-56066972D01*
X30379727Y-56087068D01*
X30350793Y-56104410D01*
X30320297Y-56118834D01*
X30288535Y-56130198D01*
X30255812Y-56138395D01*
X30222443Y-56143345D01*
X30188750Y-56145000D01*
X29501250Y-56145000D01*
X29467557Y-56143345D01*
X29434188Y-56138395D01*
X29401465Y-56130198D01*
X29369703Y-56118834D01*
X29339207Y-56104410D01*
X29310273Y-56087068D01*
X29283177Y-56066972D01*
X29258182Y-56044318D01*
X29235528Y-56019323D01*
X29215432Y-55992227D01*
X29198090Y-55963293D01*
X29183666Y-55932797D01*
X29172302Y-55901035D01*
X29164105Y-55868312D01*
X29159155Y-55834943D01*
X29157500Y-55801250D01*
X29157500Y-54688750D01*
X29159155Y-54655057D01*
X29164105Y-54621688D01*
X29172302Y-54588965D01*
X29183666Y-54557203D01*
X29198090Y-54526707D01*
X29215432Y-54497773D01*
X29235528Y-54470677D01*
X29258182Y-54445682D01*
X29283177Y-54423028D01*
X29310273Y-54402932D01*
X29339207Y-54385590D01*
X29369703Y-54371166D01*
X29401465Y-54359802D01*
X29434188Y-54351605D01*
X29467557Y-54346655D01*
X29501250Y-54345000D01*
X30188750Y-54345000D01*
X30222443Y-54346655D01*
X30222443Y-54346655D01*
G37*
D11*
X29845000Y-55245000D03*
D10*
G36*
X32097443Y-54346655D02*
G01*
X32130812Y-54351605D01*
X32163535Y-54359802D01*
X32195297Y-54371166D01*
X32225793Y-54385590D01*
X32254727Y-54402932D01*
X32281823Y-54423028D01*
X32306818Y-54445682D01*
X32329472Y-54470677D01*
X32349568Y-54497773D01*
X32366910Y-54526707D01*
X32381334Y-54557203D01*
X32392698Y-54588965D01*
X32400895Y-54621688D01*
X32405845Y-54655057D01*
X32407500Y-54688750D01*
X32407500Y-55801250D01*
X32405845Y-55834943D01*
X32400895Y-55868312D01*
X32392698Y-55901035D01*
X32381334Y-55932797D01*
X32366910Y-55963293D01*
X32349568Y-55992227D01*
X32329472Y-56019323D01*
X32306818Y-56044318D01*
X32281823Y-56066972D01*
X32254727Y-56087068D01*
X32225793Y-56104410D01*
X32195297Y-56118834D01*
X32163535Y-56130198D01*
X32130812Y-56138395D01*
X32097443Y-56143345D01*
X32063750Y-56145000D01*
X31376250Y-56145000D01*
X31342557Y-56143345D01*
X31309188Y-56138395D01*
X31276465Y-56130198D01*
X31244703Y-56118834D01*
X31214207Y-56104410D01*
X31185273Y-56087068D01*
X31158177Y-56066972D01*
X31133182Y-56044318D01*
X31110528Y-56019323D01*
X31090432Y-55992227D01*
X31073090Y-55963293D01*
X31058666Y-55932797D01*
X31047302Y-55901035D01*
X31039105Y-55868312D01*
X31034155Y-55834943D01*
X31032500Y-55801250D01*
X31032500Y-54688750D01*
X31034155Y-54655057D01*
X31039105Y-54621688D01*
X31047302Y-54588965D01*
X31058666Y-54557203D01*
X31073090Y-54526707D01*
X31090432Y-54497773D01*
X31110528Y-54470677D01*
X31133182Y-54445682D01*
X31158177Y-54423028D01*
X31185273Y-54402932D01*
X31214207Y-54385590D01*
X31244703Y-54371166D01*
X31276465Y-54359802D01*
X31309188Y-54351605D01*
X31342557Y-54346655D01*
X31376250Y-54345000D01*
X32063750Y-54345000D01*
X32097443Y-54346655D01*
X32097443Y-54346655D01*
G37*
D11*
X31720000Y-55245000D03*
D12*
X46355000Y-60690000D03*
D13*
X43105000Y-61690000D03*
X43105000Y-59690000D03*
D10*
G36*
X37145729Y-47736264D02*
G01*
X37171211Y-47740044D01*
X37196200Y-47746303D01*
X37220454Y-47754982D01*
X37243742Y-47765996D01*
X37265837Y-47779239D01*
X37286528Y-47794585D01*
X37305616Y-47811884D01*
X37322915Y-47830972D01*
X37338261Y-47851663D01*
X37351504Y-47873758D01*
X37362518Y-47897046D01*
X37371197Y-47921300D01*
X37377456Y-47946289D01*
X37381236Y-47971771D01*
X37382500Y-47997500D01*
X37382500Y-48522500D01*
X37381236Y-48548229D01*
X37377456Y-48573711D01*
X37371197Y-48598700D01*
X37362518Y-48622954D01*
X37351504Y-48646242D01*
X37338261Y-48668337D01*
X37322915Y-48689028D01*
X37305616Y-48708116D01*
X37286528Y-48725415D01*
X37265837Y-48740761D01*
X37243742Y-48754004D01*
X37220454Y-48765018D01*
X37196200Y-48773697D01*
X37171211Y-48779956D01*
X37145729Y-48783736D01*
X37120000Y-48785000D01*
X35270000Y-48785000D01*
X35244271Y-48783736D01*
X35218789Y-48779956D01*
X35193800Y-48773697D01*
X35169546Y-48765018D01*
X35146258Y-48754004D01*
X35124163Y-48740761D01*
X35103472Y-48725415D01*
X35084384Y-48708116D01*
X35067085Y-48689028D01*
X35051739Y-48668337D01*
X35038496Y-48646242D01*
X35027482Y-48622954D01*
X35018803Y-48598700D01*
X35012544Y-48573711D01*
X35008764Y-48548229D01*
X35007500Y-48522500D01*
X35007500Y-47997500D01*
X35008764Y-47971771D01*
X35012544Y-47946289D01*
X35018803Y-47921300D01*
X35027482Y-47897046D01*
X35038496Y-47873758D01*
X35051739Y-47851663D01*
X35067085Y-47830972D01*
X35084384Y-47811884D01*
X35103472Y-47794585D01*
X35124163Y-47779239D01*
X35146258Y-47765996D01*
X35169546Y-47754982D01*
X35193800Y-47746303D01*
X35218789Y-47740044D01*
X35244271Y-47736264D01*
X35270000Y-47735000D01*
X37120000Y-47735000D01*
X37145729Y-47736264D01*
X37145729Y-47736264D01*
G37*
D14*
X36195000Y-48260000D03*
D10*
G36*
X37145729Y-46466264D02*
G01*
X37171211Y-46470044D01*
X37196200Y-46476303D01*
X37220454Y-46484982D01*
X37243742Y-46495996D01*
X37265837Y-46509239D01*
X37286528Y-46524585D01*
X37305616Y-46541884D01*
X37322915Y-46560972D01*
X37338261Y-46581663D01*
X37351504Y-46603758D01*
X37362518Y-46627046D01*
X37371197Y-46651300D01*
X37377456Y-46676289D01*
X37381236Y-46701771D01*
X37382500Y-46727500D01*
X37382500Y-47252500D01*
X37381236Y-47278229D01*
X37377456Y-47303711D01*
X37371197Y-47328700D01*
X37362518Y-47352954D01*
X37351504Y-47376242D01*
X37338261Y-47398337D01*
X37322915Y-47419028D01*
X37305616Y-47438116D01*
X37286528Y-47455415D01*
X37265837Y-47470761D01*
X37243742Y-47484004D01*
X37220454Y-47495018D01*
X37196200Y-47503697D01*
X37171211Y-47509956D01*
X37145729Y-47513736D01*
X37120000Y-47515000D01*
X35270000Y-47515000D01*
X35244271Y-47513736D01*
X35218789Y-47509956D01*
X35193800Y-47503697D01*
X35169546Y-47495018D01*
X35146258Y-47484004D01*
X35124163Y-47470761D01*
X35103472Y-47455415D01*
X35084384Y-47438116D01*
X35067085Y-47419028D01*
X35051739Y-47398337D01*
X35038496Y-47376242D01*
X35027482Y-47352954D01*
X35018803Y-47328700D01*
X35012544Y-47303711D01*
X35008764Y-47278229D01*
X35007500Y-47252500D01*
X35007500Y-46727500D01*
X35008764Y-46701771D01*
X35012544Y-46676289D01*
X35018803Y-46651300D01*
X35027482Y-46627046D01*
X35038496Y-46603758D01*
X35051739Y-46581663D01*
X35067085Y-46560972D01*
X35084384Y-46541884D01*
X35103472Y-46524585D01*
X35124163Y-46509239D01*
X35146258Y-46495996D01*
X35169546Y-46484982D01*
X35193800Y-46476303D01*
X35218789Y-46470044D01*
X35244271Y-46466264D01*
X35270000Y-46465000D01*
X37120000Y-46465000D01*
X37145729Y-46466264D01*
X37145729Y-46466264D01*
G37*
D14*
X36195000Y-46990000D03*
D10*
G36*
X37145729Y-45196264D02*
G01*
X37171211Y-45200044D01*
X37196200Y-45206303D01*
X37220454Y-45214982D01*
X37243742Y-45225996D01*
X37265837Y-45239239D01*
X37286528Y-45254585D01*
X37305616Y-45271884D01*
X37322915Y-45290972D01*
X37338261Y-45311663D01*
X37351504Y-45333758D01*
X37362518Y-45357046D01*
X37371197Y-45381300D01*
X37377456Y-45406289D01*
X37381236Y-45431771D01*
X37382500Y-45457500D01*
X37382500Y-45982500D01*
X37381236Y-46008229D01*
X37377456Y-46033711D01*
X37371197Y-46058700D01*
X37362518Y-46082954D01*
X37351504Y-46106242D01*
X37338261Y-46128337D01*
X37322915Y-46149028D01*
X37305616Y-46168116D01*
X37286528Y-46185415D01*
X37265837Y-46200761D01*
X37243742Y-46214004D01*
X37220454Y-46225018D01*
X37196200Y-46233697D01*
X37171211Y-46239956D01*
X37145729Y-46243736D01*
X37120000Y-46245000D01*
X35270000Y-46245000D01*
X35244271Y-46243736D01*
X35218789Y-46239956D01*
X35193800Y-46233697D01*
X35169546Y-46225018D01*
X35146258Y-46214004D01*
X35124163Y-46200761D01*
X35103472Y-46185415D01*
X35084384Y-46168116D01*
X35067085Y-46149028D01*
X35051739Y-46128337D01*
X35038496Y-46106242D01*
X35027482Y-46082954D01*
X35018803Y-46058700D01*
X35012544Y-46033711D01*
X35008764Y-46008229D01*
X35007500Y-45982500D01*
X35007500Y-45457500D01*
X35008764Y-45431771D01*
X35012544Y-45406289D01*
X35018803Y-45381300D01*
X35027482Y-45357046D01*
X35038496Y-45333758D01*
X35051739Y-45311663D01*
X35067085Y-45290972D01*
X35084384Y-45271884D01*
X35103472Y-45254585D01*
X35124163Y-45239239D01*
X35146258Y-45225996D01*
X35169546Y-45214982D01*
X35193800Y-45206303D01*
X35218789Y-45200044D01*
X35244271Y-45196264D01*
X35270000Y-45195000D01*
X37120000Y-45195000D01*
X37145729Y-45196264D01*
X37145729Y-45196264D01*
G37*
D14*
X36195000Y-45720000D03*
D10*
G36*
X37145729Y-43926264D02*
G01*
X37171211Y-43930044D01*
X37196200Y-43936303D01*
X37220454Y-43944982D01*
X37243742Y-43955996D01*
X37265837Y-43969239D01*
X37286528Y-43984585D01*
X37305616Y-44001884D01*
X37322915Y-44020972D01*
X37338261Y-44041663D01*
X37351504Y-44063758D01*
X37362518Y-44087046D01*
X37371197Y-44111300D01*
X37377456Y-44136289D01*
X37381236Y-44161771D01*
X37382500Y-44187500D01*
X37382500Y-44712500D01*
X37381236Y-44738229D01*
X37377456Y-44763711D01*
X37371197Y-44788700D01*
X37362518Y-44812954D01*
X37351504Y-44836242D01*
X37338261Y-44858337D01*
X37322915Y-44879028D01*
X37305616Y-44898116D01*
X37286528Y-44915415D01*
X37265837Y-44930761D01*
X37243742Y-44944004D01*
X37220454Y-44955018D01*
X37196200Y-44963697D01*
X37171211Y-44969956D01*
X37145729Y-44973736D01*
X37120000Y-44975000D01*
X35270000Y-44975000D01*
X35244271Y-44973736D01*
X35218789Y-44969956D01*
X35193800Y-44963697D01*
X35169546Y-44955018D01*
X35146258Y-44944004D01*
X35124163Y-44930761D01*
X35103472Y-44915415D01*
X35084384Y-44898116D01*
X35067085Y-44879028D01*
X35051739Y-44858337D01*
X35038496Y-44836242D01*
X35027482Y-44812954D01*
X35018803Y-44788700D01*
X35012544Y-44763711D01*
X35008764Y-44738229D01*
X35007500Y-44712500D01*
X35007500Y-44187500D01*
X35008764Y-44161771D01*
X35012544Y-44136289D01*
X35018803Y-44111300D01*
X35027482Y-44087046D01*
X35038496Y-44063758D01*
X35051739Y-44041663D01*
X35067085Y-44020972D01*
X35084384Y-44001884D01*
X35103472Y-43984585D01*
X35124163Y-43969239D01*
X35146258Y-43955996D01*
X35169546Y-43944982D01*
X35193800Y-43936303D01*
X35218789Y-43930044D01*
X35244271Y-43926264D01*
X35270000Y-43925000D01*
X37120000Y-43925000D01*
X37145729Y-43926264D01*
X37145729Y-43926264D01*
G37*
D14*
X36195000Y-44450000D03*
D10*
G36*
X42220729Y-43926264D02*
G01*
X42246211Y-43930044D01*
X42271200Y-43936303D01*
X42295454Y-43944982D01*
X42318742Y-43955996D01*
X42340837Y-43969239D01*
X42361528Y-43984585D01*
X42380616Y-44001884D01*
X42397915Y-44020972D01*
X42413261Y-44041663D01*
X42426504Y-44063758D01*
X42437518Y-44087046D01*
X42446197Y-44111300D01*
X42452456Y-44136289D01*
X42456236Y-44161771D01*
X42457500Y-44187500D01*
X42457500Y-44712500D01*
X42456236Y-44738229D01*
X42452456Y-44763711D01*
X42446197Y-44788700D01*
X42437518Y-44812954D01*
X42426504Y-44836242D01*
X42413261Y-44858337D01*
X42397915Y-44879028D01*
X42380616Y-44898116D01*
X42361528Y-44915415D01*
X42340837Y-44930761D01*
X42318742Y-44944004D01*
X42295454Y-44955018D01*
X42271200Y-44963697D01*
X42246211Y-44969956D01*
X42220729Y-44973736D01*
X42195000Y-44975000D01*
X40345000Y-44975000D01*
X40319271Y-44973736D01*
X40293789Y-44969956D01*
X40268800Y-44963697D01*
X40244546Y-44955018D01*
X40221258Y-44944004D01*
X40199163Y-44930761D01*
X40178472Y-44915415D01*
X40159384Y-44898116D01*
X40142085Y-44879028D01*
X40126739Y-44858337D01*
X40113496Y-44836242D01*
X40102482Y-44812954D01*
X40093803Y-44788700D01*
X40087544Y-44763711D01*
X40083764Y-44738229D01*
X40082500Y-44712500D01*
X40082500Y-44187500D01*
X40083764Y-44161771D01*
X40087544Y-44136289D01*
X40093803Y-44111300D01*
X40102482Y-44087046D01*
X40113496Y-44063758D01*
X40126739Y-44041663D01*
X40142085Y-44020972D01*
X40159384Y-44001884D01*
X40178472Y-43984585D01*
X40199163Y-43969239D01*
X40221258Y-43955996D01*
X40244546Y-43944982D01*
X40268800Y-43936303D01*
X40293789Y-43930044D01*
X40319271Y-43926264D01*
X40345000Y-43925000D01*
X42195000Y-43925000D01*
X42220729Y-43926264D01*
X42220729Y-43926264D01*
G37*
D14*
X41270000Y-44450000D03*
D10*
G36*
X42220729Y-45196264D02*
G01*
X42246211Y-45200044D01*
X42271200Y-45206303D01*
X42295454Y-45214982D01*
X42318742Y-45225996D01*
X42340837Y-45239239D01*
X42361528Y-45254585D01*
X42380616Y-45271884D01*
X42397915Y-45290972D01*
X42413261Y-45311663D01*
X42426504Y-45333758D01*
X42437518Y-45357046D01*
X42446197Y-45381300D01*
X42452456Y-45406289D01*
X42456236Y-45431771D01*
X42457500Y-45457500D01*
X42457500Y-45982500D01*
X42456236Y-46008229D01*
X42452456Y-46033711D01*
X42446197Y-46058700D01*
X42437518Y-46082954D01*
X42426504Y-46106242D01*
X42413261Y-46128337D01*
X42397915Y-46149028D01*
X42380616Y-46168116D01*
X42361528Y-46185415D01*
X42340837Y-46200761D01*
X42318742Y-46214004D01*
X42295454Y-46225018D01*
X42271200Y-46233697D01*
X42246211Y-46239956D01*
X42220729Y-46243736D01*
X42195000Y-46245000D01*
X40345000Y-46245000D01*
X40319271Y-46243736D01*
X40293789Y-46239956D01*
X40268800Y-46233697D01*
X40244546Y-46225018D01*
X40221258Y-46214004D01*
X40199163Y-46200761D01*
X40178472Y-46185415D01*
X40159384Y-46168116D01*
X40142085Y-46149028D01*
X40126739Y-46128337D01*
X40113496Y-46106242D01*
X40102482Y-46082954D01*
X40093803Y-46058700D01*
X40087544Y-46033711D01*
X40083764Y-46008229D01*
X40082500Y-45982500D01*
X40082500Y-45457500D01*
X40083764Y-45431771D01*
X40087544Y-45406289D01*
X40093803Y-45381300D01*
X40102482Y-45357046D01*
X40113496Y-45333758D01*
X40126739Y-45311663D01*
X40142085Y-45290972D01*
X40159384Y-45271884D01*
X40178472Y-45254585D01*
X40199163Y-45239239D01*
X40221258Y-45225996D01*
X40244546Y-45214982D01*
X40268800Y-45206303D01*
X40293789Y-45200044D01*
X40319271Y-45196264D01*
X40345000Y-45195000D01*
X42195000Y-45195000D01*
X42220729Y-45196264D01*
X42220729Y-45196264D01*
G37*
D14*
X41270000Y-45720000D03*
D10*
G36*
X42220729Y-46466264D02*
G01*
X42246211Y-46470044D01*
X42271200Y-46476303D01*
X42295454Y-46484982D01*
X42318742Y-46495996D01*
X42340837Y-46509239D01*
X42361528Y-46524585D01*
X42380616Y-46541884D01*
X42397915Y-46560972D01*
X42413261Y-46581663D01*
X42426504Y-46603758D01*
X42437518Y-46627046D01*
X42446197Y-46651300D01*
X42452456Y-46676289D01*
X42456236Y-46701771D01*
X42457500Y-46727500D01*
X42457500Y-47252500D01*
X42456236Y-47278229D01*
X42452456Y-47303711D01*
X42446197Y-47328700D01*
X42437518Y-47352954D01*
X42426504Y-47376242D01*
X42413261Y-47398337D01*
X42397915Y-47419028D01*
X42380616Y-47438116D01*
X42361528Y-47455415D01*
X42340837Y-47470761D01*
X42318742Y-47484004D01*
X42295454Y-47495018D01*
X42271200Y-47503697D01*
X42246211Y-47509956D01*
X42220729Y-47513736D01*
X42195000Y-47515000D01*
X40345000Y-47515000D01*
X40319271Y-47513736D01*
X40293789Y-47509956D01*
X40268800Y-47503697D01*
X40244546Y-47495018D01*
X40221258Y-47484004D01*
X40199163Y-47470761D01*
X40178472Y-47455415D01*
X40159384Y-47438116D01*
X40142085Y-47419028D01*
X40126739Y-47398337D01*
X40113496Y-47376242D01*
X40102482Y-47352954D01*
X40093803Y-47328700D01*
X40087544Y-47303711D01*
X40083764Y-47278229D01*
X40082500Y-47252500D01*
X40082500Y-46727500D01*
X40083764Y-46701771D01*
X40087544Y-46676289D01*
X40093803Y-46651300D01*
X40102482Y-46627046D01*
X40113496Y-46603758D01*
X40126739Y-46581663D01*
X40142085Y-46560972D01*
X40159384Y-46541884D01*
X40178472Y-46524585D01*
X40199163Y-46509239D01*
X40221258Y-46495996D01*
X40244546Y-46484982D01*
X40268800Y-46476303D01*
X40293789Y-46470044D01*
X40319271Y-46466264D01*
X40345000Y-46465000D01*
X42195000Y-46465000D01*
X42220729Y-46466264D01*
X42220729Y-46466264D01*
G37*
D14*
X41270000Y-46990000D03*
D10*
G36*
X42220729Y-47736264D02*
G01*
X42246211Y-47740044D01*
X42271200Y-47746303D01*
X42295454Y-47754982D01*
X42318742Y-47765996D01*
X42340837Y-47779239D01*
X42361528Y-47794585D01*
X42380616Y-47811884D01*
X42397915Y-47830972D01*
X42413261Y-47851663D01*
X42426504Y-47873758D01*
X42437518Y-47897046D01*
X42446197Y-47921300D01*
X42452456Y-47946289D01*
X42456236Y-47971771D01*
X42457500Y-47997500D01*
X42457500Y-48522500D01*
X42456236Y-48548229D01*
X42452456Y-48573711D01*
X42446197Y-48598700D01*
X42437518Y-48622954D01*
X42426504Y-48646242D01*
X42413261Y-48668337D01*
X42397915Y-48689028D01*
X42380616Y-48708116D01*
X42361528Y-48725415D01*
X42340837Y-48740761D01*
X42318742Y-48754004D01*
X42295454Y-48765018D01*
X42271200Y-48773697D01*
X42246211Y-48779956D01*
X42220729Y-48783736D01*
X42195000Y-48785000D01*
X40345000Y-48785000D01*
X40319271Y-48783736D01*
X40293789Y-48779956D01*
X40268800Y-48773697D01*
X40244546Y-48765018D01*
X40221258Y-48754004D01*
X40199163Y-48740761D01*
X40178472Y-48725415D01*
X40159384Y-48708116D01*
X40142085Y-48689028D01*
X40126739Y-48668337D01*
X40113496Y-48646242D01*
X40102482Y-48622954D01*
X40093803Y-48598700D01*
X40087544Y-48573711D01*
X40083764Y-48548229D01*
X40082500Y-48522500D01*
X40082500Y-47997500D01*
X40083764Y-47971771D01*
X40087544Y-47946289D01*
X40093803Y-47921300D01*
X40102482Y-47897046D01*
X40113496Y-47873758D01*
X40126739Y-47851663D01*
X40142085Y-47830972D01*
X40159384Y-47811884D01*
X40178472Y-47794585D01*
X40199163Y-47779239D01*
X40221258Y-47765996D01*
X40244546Y-47754982D01*
X40268800Y-47746303D01*
X40293789Y-47740044D01*
X40319271Y-47736264D01*
X40345000Y-47735000D01*
X42195000Y-47735000D01*
X42220729Y-47736264D01*
X42220729Y-47736264D01*
G37*
D14*
X41270000Y-48260000D03*
D10*
G36*
X40254504Y-51571204D02*
G01*
X40278773Y-51574804D01*
X40302571Y-51580765D01*
X40325671Y-51589030D01*
X40347849Y-51599520D01*
X40368893Y-51612133D01*
X40388598Y-51626747D01*
X40406777Y-51643223D01*
X40423253Y-51661402D01*
X40437867Y-51681107D01*
X40450480Y-51702151D01*
X40460970Y-51724329D01*
X40469235Y-51747429D01*
X40475196Y-51771227D01*
X40478796Y-51795496D01*
X40480000Y-51820000D01*
X40480000Y-52320000D01*
X40478796Y-52344504D01*
X40475196Y-52368773D01*
X40469235Y-52392571D01*
X40460970Y-52415671D01*
X40450480Y-52437849D01*
X40437867Y-52458893D01*
X40423253Y-52478598D01*
X40406777Y-52496777D01*
X40388598Y-52513253D01*
X40368893Y-52527867D01*
X40347849Y-52540480D01*
X40325671Y-52550970D01*
X40302571Y-52559235D01*
X40278773Y-52565196D01*
X40254504Y-52568796D01*
X40230000Y-52570000D01*
X38380000Y-52570000D01*
X38355496Y-52568796D01*
X38331227Y-52565196D01*
X38307429Y-52559235D01*
X38284329Y-52550970D01*
X38262151Y-52540480D01*
X38241107Y-52527867D01*
X38221402Y-52513253D01*
X38203223Y-52496777D01*
X38186747Y-52478598D01*
X38172133Y-52458893D01*
X38159520Y-52437849D01*
X38149030Y-52415671D01*
X38140765Y-52392571D01*
X38134804Y-52368773D01*
X38131204Y-52344504D01*
X38130000Y-52320000D01*
X38130000Y-51820000D01*
X38131204Y-51795496D01*
X38134804Y-51771227D01*
X38140765Y-51747429D01*
X38149030Y-51724329D01*
X38159520Y-51702151D01*
X38172133Y-51681107D01*
X38186747Y-51661402D01*
X38203223Y-51643223D01*
X38221402Y-51626747D01*
X38241107Y-51612133D01*
X38262151Y-51599520D01*
X38284329Y-51589030D01*
X38307429Y-51580765D01*
X38331227Y-51574804D01*
X38355496Y-51571204D01*
X38380000Y-51570000D01*
X40230000Y-51570000D01*
X40254504Y-51571204D01*
X40254504Y-51571204D01*
G37*
D15*
X39305000Y-52070000D03*
D10*
G36*
X40254504Y-52841204D02*
G01*
X40278773Y-52844804D01*
X40302571Y-52850765D01*
X40325671Y-52859030D01*
X40347849Y-52869520D01*
X40368893Y-52882133D01*
X40388598Y-52896747D01*
X40406777Y-52913223D01*
X40423253Y-52931402D01*
X40437867Y-52951107D01*
X40450480Y-52972151D01*
X40460970Y-52994329D01*
X40469235Y-53017429D01*
X40475196Y-53041227D01*
X40478796Y-53065496D01*
X40480000Y-53090000D01*
X40480000Y-53590000D01*
X40478796Y-53614504D01*
X40475196Y-53638773D01*
X40469235Y-53662571D01*
X40460970Y-53685671D01*
X40450480Y-53707849D01*
X40437867Y-53728893D01*
X40423253Y-53748598D01*
X40406777Y-53766777D01*
X40388598Y-53783253D01*
X40368893Y-53797867D01*
X40347849Y-53810480D01*
X40325671Y-53820970D01*
X40302571Y-53829235D01*
X40278773Y-53835196D01*
X40254504Y-53838796D01*
X40230000Y-53840000D01*
X38380000Y-53840000D01*
X38355496Y-53838796D01*
X38331227Y-53835196D01*
X38307429Y-53829235D01*
X38284329Y-53820970D01*
X38262151Y-53810480D01*
X38241107Y-53797867D01*
X38221402Y-53783253D01*
X38203223Y-53766777D01*
X38186747Y-53748598D01*
X38172133Y-53728893D01*
X38159520Y-53707849D01*
X38149030Y-53685671D01*
X38140765Y-53662571D01*
X38134804Y-53638773D01*
X38131204Y-53614504D01*
X38130000Y-53590000D01*
X38130000Y-53090000D01*
X38131204Y-53065496D01*
X38134804Y-53041227D01*
X38140765Y-53017429D01*
X38149030Y-52994329D01*
X38159520Y-52972151D01*
X38172133Y-52951107D01*
X38186747Y-52931402D01*
X38203223Y-52913223D01*
X38221402Y-52896747D01*
X38241107Y-52882133D01*
X38262151Y-52869520D01*
X38284329Y-52859030D01*
X38307429Y-52850765D01*
X38331227Y-52844804D01*
X38355496Y-52841204D01*
X38380000Y-52840000D01*
X40230000Y-52840000D01*
X40254504Y-52841204D01*
X40254504Y-52841204D01*
G37*
D15*
X39305000Y-53340000D03*
D10*
G36*
X40254504Y-54111204D02*
G01*
X40278773Y-54114804D01*
X40302571Y-54120765D01*
X40325671Y-54129030D01*
X40347849Y-54139520D01*
X40368893Y-54152133D01*
X40388598Y-54166747D01*
X40406777Y-54183223D01*
X40423253Y-54201402D01*
X40437867Y-54221107D01*
X40450480Y-54242151D01*
X40460970Y-54264329D01*
X40469235Y-54287429D01*
X40475196Y-54311227D01*
X40478796Y-54335496D01*
X40480000Y-54360000D01*
X40480000Y-54860000D01*
X40478796Y-54884504D01*
X40475196Y-54908773D01*
X40469235Y-54932571D01*
X40460970Y-54955671D01*
X40450480Y-54977849D01*
X40437867Y-54998893D01*
X40423253Y-55018598D01*
X40406777Y-55036777D01*
X40388598Y-55053253D01*
X40368893Y-55067867D01*
X40347849Y-55080480D01*
X40325671Y-55090970D01*
X40302571Y-55099235D01*
X40278773Y-55105196D01*
X40254504Y-55108796D01*
X40230000Y-55110000D01*
X38380000Y-55110000D01*
X38355496Y-55108796D01*
X38331227Y-55105196D01*
X38307429Y-55099235D01*
X38284329Y-55090970D01*
X38262151Y-55080480D01*
X38241107Y-55067867D01*
X38221402Y-55053253D01*
X38203223Y-55036777D01*
X38186747Y-55018598D01*
X38172133Y-54998893D01*
X38159520Y-54977849D01*
X38149030Y-54955671D01*
X38140765Y-54932571D01*
X38134804Y-54908773D01*
X38131204Y-54884504D01*
X38130000Y-54860000D01*
X38130000Y-54360000D01*
X38131204Y-54335496D01*
X38134804Y-54311227D01*
X38140765Y-54287429D01*
X38149030Y-54264329D01*
X38159520Y-54242151D01*
X38172133Y-54221107D01*
X38186747Y-54201402D01*
X38203223Y-54183223D01*
X38221402Y-54166747D01*
X38241107Y-54152133D01*
X38262151Y-54139520D01*
X38284329Y-54129030D01*
X38307429Y-54120765D01*
X38331227Y-54114804D01*
X38355496Y-54111204D01*
X38380000Y-54110000D01*
X40230000Y-54110000D01*
X40254504Y-54111204D01*
X40254504Y-54111204D01*
G37*
D15*
X39305000Y-54610000D03*
D10*
G36*
X40254504Y-55381204D02*
G01*
X40278773Y-55384804D01*
X40302571Y-55390765D01*
X40325671Y-55399030D01*
X40347849Y-55409520D01*
X40368893Y-55422133D01*
X40388598Y-55436747D01*
X40406777Y-55453223D01*
X40423253Y-55471402D01*
X40437867Y-55491107D01*
X40450480Y-55512151D01*
X40460970Y-55534329D01*
X40469235Y-55557429D01*
X40475196Y-55581227D01*
X40478796Y-55605496D01*
X40480000Y-55630000D01*
X40480000Y-56130000D01*
X40478796Y-56154504D01*
X40475196Y-56178773D01*
X40469235Y-56202571D01*
X40460970Y-56225671D01*
X40450480Y-56247849D01*
X40437867Y-56268893D01*
X40423253Y-56288598D01*
X40406777Y-56306777D01*
X40388598Y-56323253D01*
X40368893Y-56337867D01*
X40347849Y-56350480D01*
X40325671Y-56360970D01*
X40302571Y-56369235D01*
X40278773Y-56375196D01*
X40254504Y-56378796D01*
X40230000Y-56380000D01*
X38380000Y-56380000D01*
X38355496Y-56378796D01*
X38331227Y-56375196D01*
X38307429Y-56369235D01*
X38284329Y-56360970D01*
X38262151Y-56350480D01*
X38241107Y-56337867D01*
X38221402Y-56323253D01*
X38203223Y-56306777D01*
X38186747Y-56288598D01*
X38172133Y-56268893D01*
X38159520Y-56247849D01*
X38149030Y-56225671D01*
X38140765Y-56202571D01*
X38134804Y-56178773D01*
X38131204Y-56154504D01*
X38130000Y-56130000D01*
X38130000Y-55630000D01*
X38131204Y-55605496D01*
X38134804Y-55581227D01*
X38140765Y-55557429D01*
X38149030Y-55534329D01*
X38159520Y-55512151D01*
X38172133Y-55491107D01*
X38186747Y-55471402D01*
X38203223Y-55453223D01*
X38221402Y-55436747D01*
X38241107Y-55422133D01*
X38262151Y-55409520D01*
X38284329Y-55399030D01*
X38307429Y-55390765D01*
X38331227Y-55384804D01*
X38355496Y-55381204D01*
X38380000Y-55380000D01*
X40230000Y-55380000D01*
X40254504Y-55381204D01*
X40254504Y-55381204D01*
G37*
D15*
X39305000Y-55880000D03*
D10*
G36*
X40254504Y-56651204D02*
G01*
X40278773Y-56654804D01*
X40302571Y-56660765D01*
X40325671Y-56669030D01*
X40347849Y-56679520D01*
X40368893Y-56692133D01*
X40388598Y-56706747D01*
X40406777Y-56723223D01*
X40423253Y-56741402D01*
X40437867Y-56761107D01*
X40450480Y-56782151D01*
X40460970Y-56804329D01*
X40469235Y-56827429D01*
X40475196Y-56851227D01*
X40478796Y-56875496D01*
X40480000Y-56900000D01*
X40480000Y-57400000D01*
X40478796Y-57424504D01*
X40475196Y-57448773D01*
X40469235Y-57472571D01*
X40460970Y-57495671D01*
X40450480Y-57517849D01*
X40437867Y-57538893D01*
X40423253Y-57558598D01*
X40406777Y-57576777D01*
X40388598Y-57593253D01*
X40368893Y-57607867D01*
X40347849Y-57620480D01*
X40325671Y-57630970D01*
X40302571Y-57639235D01*
X40278773Y-57645196D01*
X40254504Y-57648796D01*
X40230000Y-57650000D01*
X38380000Y-57650000D01*
X38355496Y-57648796D01*
X38331227Y-57645196D01*
X38307429Y-57639235D01*
X38284329Y-57630970D01*
X38262151Y-57620480D01*
X38241107Y-57607867D01*
X38221402Y-57593253D01*
X38203223Y-57576777D01*
X38186747Y-57558598D01*
X38172133Y-57538893D01*
X38159520Y-57517849D01*
X38149030Y-57495671D01*
X38140765Y-57472571D01*
X38134804Y-57448773D01*
X38131204Y-57424504D01*
X38130000Y-57400000D01*
X38130000Y-56900000D01*
X38131204Y-56875496D01*
X38134804Y-56851227D01*
X38140765Y-56827429D01*
X38149030Y-56804329D01*
X38159520Y-56782151D01*
X38172133Y-56761107D01*
X38186747Y-56741402D01*
X38203223Y-56723223D01*
X38221402Y-56706747D01*
X38241107Y-56692133D01*
X38262151Y-56679520D01*
X38284329Y-56669030D01*
X38307429Y-56660765D01*
X38331227Y-56654804D01*
X38355496Y-56651204D01*
X38380000Y-56650000D01*
X40230000Y-56650000D01*
X40254504Y-56651204D01*
X40254504Y-56651204D01*
G37*
D15*
X39305000Y-57150000D03*
D10*
G36*
X40254504Y-57921204D02*
G01*
X40278773Y-57924804D01*
X40302571Y-57930765D01*
X40325671Y-57939030D01*
X40347849Y-57949520D01*
X40368893Y-57962133D01*
X40388598Y-57976747D01*
X40406777Y-57993223D01*
X40423253Y-58011402D01*
X40437867Y-58031107D01*
X40450480Y-58052151D01*
X40460970Y-58074329D01*
X40469235Y-58097429D01*
X40475196Y-58121227D01*
X40478796Y-58145496D01*
X40480000Y-58170000D01*
X40480000Y-58670000D01*
X40478796Y-58694504D01*
X40475196Y-58718773D01*
X40469235Y-58742571D01*
X40460970Y-58765671D01*
X40450480Y-58787849D01*
X40437867Y-58808893D01*
X40423253Y-58828598D01*
X40406777Y-58846777D01*
X40388598Y-58863253D01*
X40368893Y-58877867D01*
X40347849Y-58890480D01*
X40325671Y-58900970D01*
X40302571Y-58909235D01*
X40278773Y-58915196D01*
X40254504Y-58918796D01*
X40230000Y-58920000D01*
X38380000Y-58920000D01*
X38355496Y-58918796D01*
X38331227Y-58915196D01*
X38307429Y-58909235D01*
X38284329Y-58900970D01*
X38262151Y-58890480D01*
X38241107Y-58877867D01*
X38221402Y-58863253D01*
X38203223Y-58846777D01*
X38186747Y-58828598D01*
X38172133Y-58808893D01*
X38159520Y-58787849D01*
X38149030Y-58765671D01*
X38140765Y-58742571D01*
X38134804Y-58718773D01*
X38131204Y-58694504D01*
X38130000Y-58670000D01*
X38130000Y-58170000D01*
X38131204Y-58145496D01*
X38134804Y-58121227D01*
X38140765Y-58097429D01*
X38149030Y-58074329D01*
X38159520Y-58052151D01*
X38172133Y-58031107D01*
X38186747Y-58011402D01*
X38203223Y-57993223D01*
X38221402Y-57976747D01*
X38241107Y-57962133D01*
X38262151Y-57949520D01*
X38284329Y-57939030D01*
X38307429Y-57930765D01*
X38331227Y-57924804D01*
X38355496Y-57921204D01*
X38380000Y-57920000D01*
X40230000Y-57920000D01*
X40254504Y-57921204D01*
X40254504Y-57921204D01*
G37*
D15*
X39305000Y-58420000D03*
D10*
G36*
X40254504Y-59191204D02*
G01*
X40278773Y-59194804D01*
X40302571Y-59200765D01*
X40325671Y-59209030D01*
X40347849Y-59219520D01*
X40368893Y-59232133D01*
X40388598Y-59246747D01*
X40406777Y-59263223D01*
X40423253Y-59281402D01*
X40437867Y-59301107D01*
X40450480Y-59322151D01*
X40460970Y-59344329D01*
X40469235Y-59367429D01*
X40475196Y-59391227D01*
X40478796Y-59415496D01*
X40480000Y-59440000D01*
X40480000Y-59940000D01*
X40478796Y-59964504D01*
X40475196Y-59988773D01*
X40469235Y-60012571D01*
X40460970Y-60035671D01*
X40450480Y-60057849D01*
X40437867Y-60078893D01*
X40423253Y-60098598D01*
X40406777Y-60116777D01*
X40388598Y-60133253D01*
X40368893Y-60147867D01*
X40347849Y-60160480D01*
X40325671Y-60170970D01*
X40302571Y-60179235D01*
X40278773Y-60185196D01*
X40254504Y-60188796D01*
X40230000Y-60190000D01*
X38380000Y-60190000D01*
X38355496Y-60188796D01*
X38331227Y-60185196D01*
X38307429Y-60179235D01*
X38284329Y-60170970D01*
X38262151Y-60160480D01*
X38241107Y-60147867D01*
X38221402Y-60133253D01*
X38203223Y-60116777D01*
X38186747Y-60098598D01*
X38172133Y-60078893D01*
X38159520Y-60057849D01*
X38149030Y-60035671D01*
X38140765Y-60012571D01*
X38134804Y-59988773D01*
X38131204Y-59964504D01*
X38130000Y-59940000D01*
X38130000Y-59440000D01*
X38131204Y-59415496D01*
X38134804Y-59391227D01*
X38140765Y-59367429D01*
X38149030Y-59344329D01*
X38159520Y-59322151D01*
X38172133Y-59301107D01*
X38186747Y-59281402D01*
X38203223Y-59263223D01*
X38221402Y-59246747D01*
X38241107Y-59232133D01*
X38262151Y-59219520D01*
X38284329Y-59209030D01*
X38307429Y-59200765D01*
X38331227Y-59194804D01*
X38355496Y-59191204D01*
X38380000Y-59190000D01*
X40230000Y-59190000D01*
X40254504Y-59191204D01*
X40254504Y-59191204D01*
G37*
D15*
X39305000Y-59690000D03*
D10*
G36*
X35304504Y-59191204D02*
G01*
X35328773Y-59194804D01*
X35352571Y-59200765D01*
X35375671Y-59209030D01*
X35397849Y-59219520D01*
X35418893Y-59232133D01*
X35438598Y-59246747D01*
X35456777Y-59263223D01*
X35473253Y-59281402D01*
X35487867Y-59301107D01*
X35500480Y-59322151D01*
X35510970Y-59344329D01*
X35519235Y-59367429D01*
X35525196Y-59391227D01*
X35528796Y-59415496D01*
X35530000Y-59440000D01*
X35530000Y-59940000D01*
X35528796Y-59964504D01*
X35525196Y-59988773D01*
X35519235Y-60012571D01*
X35510970Y-60035671D01*
X35500480Y-60057849D01*
X35487867Y-60078893D01*
X35473253Y-60098598D01*
X35456777Y-60116777D01*
X35438598Y-60133253D01*
X35418893Y-60147867D01*
X35397849Y-60160480D01*
X35375671Y-60170970D01*
X35352571Y-60179235D01*
X35328773Y-60185196D01*
X35304504Y-60188796D01*
X35280000Y-60190000D01*
X33430000Y-60190000D01*
X33405496Y-60188796D01*
X33381227Y-60185196D01*
X33357429Y-60179235D01*
X33334329Y-60170970D01*
X33312151Y-60160480D01*
X33291107Y-60147867D01*
X33271402Y-60133253D01*
X33253223Y-60116777D01*
X33236747Y-60098598D01*
X33222133Y-60078893D01*
X33209520Y-60057849D01*
X33199030Y-60035671D01*
X33190765Y-60012571D01*
X33184804Y-59988773D01*
X33181204Y-59964504D01*
X33180000Y-59940000D01*
X33180000Y-59440000D01*
X33181204Y-59415496D01*
X33184804Y-59391227D01*
X33190765Y-59367429D01*
X33199030Y-59344329D01*
X33209520Y-59322151D01*
X33222133Y-59301107D01*
X33236747Y-59281402D01*
X33253223Y-59263223D01*
X33271402Y-59246747D01*
X33291107Y-59232133D01*
X33312151Y-59219520D01*
X33334329Y-59209030D01*
X33357429Y-59200765D01*
X33381227Y-59194804D01*
X33405496Y-59191204D01*
X33430000Y-59190000D01*
X35280000Y-59190000D01*
X35304504Y-59191204D01*
X35304504Y-59191204D01*
G37*
D15*
X34355000Y-59690000D03*
D10*
G36*
X35304504Y-57921204D02*
G01*
X35328773Y-57924804D01*
X35352571Y-57930765D01*
X35375671Y-57939030D01*
X35397849Y-57949520D01*
X35418893Y-57962133D01*
X35438598Y-57976747D01*
X35456777Y-57993223D01*
X35473253Y-58011402D01*
X35487867Y-58031107D01*
X35500480Y-58052151D01*
X35510970Y-58074329D01*
X35519235Y-58097429D01*
X35525196Y-58121227D01*
X35528796Y-58145496D01*
X35530000Y-58170000D01*
X35530000Y-58670000D01*
X35528796Y-58694504D01*
X35525196Y-58718773D01*
X35519235Y-58742571D01*
X35510970Y-58765671D01*
X35500480Y-58787849D01*
X35487867Y-58808893D01*
X35473253Y-58828598D01*
X35456777Y-58846777D01*
X35438598Y-58863253D01*
X35418893Y-58877867D01*
X35397849Y-58890480D01*
X35375671Y-58900970D01*
X35352571Y-58909235D01*
X35328773Y-58915196D01*
X35304504Y-58918796D01*
X35280000Y-58920000D01*
X33430000Y-58920000D01*
X33405496Y-58918796D01*
X33381227Y-58915196D01*
X33357429Y-58909235D01*
X33334329Y-58900970D01*
X33312151Y-58890480D01*
X33291107Y-58877867D01*
X33271402Y-58863253D01*
X33253223Y-58846777D01*
X33236747Y-58828598D01*
X33222133Y-58808893D01*
X33209520Y-58787849D01*
X33199030Y-58765671D01*
X33190765Y-58742571D01*
X33184804Y-58718773D01*
X33181204Y-58694504D01*
X33180000Y-58670000D01*
X33180000Y-58170000D01*
X33181204Y-58145496D01*
X33184804Y-58121227D01*
X33190765Y-58097429D01*
X33199030Y-58074329D01*
X33209520Y-58052151D01*
X33222133Y-58031107D01*
X33236747Y-58011402D01*
X33253223Y-57993223D01*
X33271402Y-57976747D01*
X33291107Y-57962133D01*
X33312151Y-57949520D01*
X33334329Y-57939030D01*
X33357429Y-57930765D01*
X33381227Y-57924804D01*
X33405496Y-57921204D01*
X33430000Y-57920000D01*
X35280000Y-57920000D01*
X35304504Y-57921204D01*
X35304504Y-57921204D01*
G37*
D15*
X34355000Y-58420000D03*
D10*
G36*
X35304504Y-56651204D02*
G01*
X35328773Y-56654804D01*
X35352571Y-56660765D01*
X35375671Y-56669030D01*
X35397849Y-56679520D01*
X35418893Y-56692133D01*
X35438598Y-56706747D01*
X35456777Y-56723223D01*
X35473253Y-56741402D01*
X35487867Y-56761107D01*
X35500480Y-56782151D01*
X35510970Y-56804329D01*
X35519235Y-56827429D01*
X35525196Y-56851227D01*
X35528796Y-56875496D01*
X35530000Y-56900000D01*
X35530000Y-57400000D01*
X35528796Y-57424504D01*
X35525196Y-57448773D01*
X35519235Y-57472571D01*
X35510970Y-57495671D01*
X35500480Y-57517849D01*
X35487867Y-57538893D01*
X35473253Y-57558598D01*
X35456777Y-57576777D01*
X35438598Y-57593253D01*
X35418893Y-57607867D01*
X35397849Y-57620480D01*
X35375671Y-57630970D01*
X35352571Y-57639235D01*
X35328773Y-57645196D01*
X35304504Y-57648796D01*
X35280000Y-57650000D01*
X33430000Y-57650000D01*
X33405496Y-57648796D01*
X33381227Y-57645196D01*
X33357429Y-57639235D01*
X33334329Y-57630970D01*
X33312151Y-57620480D01*
X33291107Y-57607867D01*
X33271402Y-57593253D01*
X33253223Y-57576777D01*
X33236747Y-57558598D01*
X33222133Y-57538893D01*
X33209520Y-57517849D01*
X33199030Y-57495671D01*
X33190765Y-57472571D01*
X33184804Y-57448773D01*
X33181204Y-57424504D01*
X33180000Y-57400000D01*
X33180000Y-56900000D01*
X33181204Y-56875496D01*
X33184804Y-56851227D01*
X33190765Y-56827429D01*
X33199030Y-56804329D01*
X33209520Y-56782151D01*
X33222133Y-56761107D01*
X33236747Y-56741402D01*
X33253223Y-56723223D01*
X33271402Y-56706747D01*
X33291107Y-56692133D01*
X33312151Y-56679520D01*
X33334329Y-56669030D01*
X33357429Y-56660765D01*
X33381227Y-56654804D01*
X33405496Y-56651204D01*
X33430000Y-56650000D01*
X35280000Y-56650000D01*
X35304504Y-56651204D01*
X35304504Y-56651204D01*
G37*
D15*
X34355000Y-57150000D03*
D10*
G36*
X35304504Y-55381204D02*
G01*
X35328773Y-55384804D01*
X35352571Y-55390765D01*
X35375671Y-55399030D01*
X35397849Y-55409520D01*
X35418893Y-55422133D01*
X35438598Y-55436747D01*
X35456777Y-55453223D01*
X35473253Y-55471402D01*
X35487867Y-55491107D01*
X35500480Y-55512151D01*
X35510970Y-55534329D01*
X35519235Y-55557429D01*
X35525196Y-55581227D01*
X35528796Y-55605496D01*
X35530000Y-55630000D01*
X35530000Y-56130000D01*
X35528796Y-56154504D01*
X35525196Y-56178773D01*
X35519235Y-56202571D01*
X35510970Y-56225671D01*
X35500480Y-56247849D01*
X35487867Y-56268893D01*
X35473253Y-56288598D01*
X35456777Y-56306777D01*
X35438598Y-56323253D01*
X35418893Y-56337867D01*
X35397849Y-56350480D01*
X35375671Y-56360970D01*
X35352571Y-56369235D01*
X35328773Y-56375196D01*
X35304504Y-56378796D01*
X35280000Y-56380000D01*
X33430000Y-56380000D01*
X33405496Y-56378796D01*
X33381227Y-56375196D01*
X33357429Y-56369235D01*
X33334329Y-56360970D01*
X33312151Y-56350480D01*
X33291107Y-56337867D01*
X33271402Y-56323253D01*
X33253223Y-56306777D01*
X33236747Y-56288598D01*
X33222133Y-56268893D01*
X33209520Y-56247849D01*
X33199030Y-56225671D01*
X33190765Y-56202571D01*
X33184804Y-56178773D01*
X33181204Y-56154504D01*
X33180000Y-56130000D01*
X33180000Y-55630000D01*
X33181204Y-55605496D01*
X33184804Y-55581227D01*
X33190765Y-55557429D01*
X33199030Y-55534329D01*
X33209520Y-55512151D01*
X33222133Y-55491107D01*
X33236747Y-55471402D01*
X33253223Y-55453223D01*
X33271402Y-55436747D01*
X33291107Y-55422133D01*
X33312151Y-55409520D01*
X33334329Y-55399030D01*
X33357429Y-55390765D01*
X33381227Y-55384804D01*
X33405496Y-55381204D01*
X33430000Y-55380000D01*
X35280000Y-55380000D01*
X35304504Y-55381204D01*
X35304504Y-55381204D01*
G37*
D15*
X34355000Y-55880000D03*
D10*
G36*
X35304504Y-54111204D02*
G01*
X35328773Y-54114804D01*
X35352571Y-54120765D01*
X35375671Y-54129030D01*
X35397849Y-54139520D01*
X35418893Y-54152133D01*
X35438598Y-54166747D01*
X35456777Y-54183223D01*
X35473253Y-54201402D01*
X35487867Y-54221107D01*
X35500480Y-54242151D01*
X35510970Y-54264329D01*
X35519235Y-54287429D01*
X35525196Y-54311227D01*
X35528796Y-54335496D01*
X35530000Y-54360000D01*
X35530000Y-54860000D01*
X35528796Y-54884504D01*
X35525196Y-54908773D01*
X35519235Y-54932571D01*
X35510970Y-54955671D01*
X35500480Y-54977849D01*
X35487867Y-54998893D01*
X35473253Y-55018598D01*
X35456777Y-55036777D01*
X35438598Y-55053253D01*
X35418893Y-55067867D01*
X35397849Y-55080480D01*
X35375671Y-55090970D01*
X35352571Y-55099235D01*
X35328773Y-55105196D01*
X35304504Y-55108796D01*
X35280000Y-55110000D01*
X33430000Y-55110000D01*
X33405496Y-55108796D01*
X33381227Y-55105196D01*
X33357429Y-55099235D01*
X33334329Y-55090970D01*
X33312151Y-55080480D01*
X33291107Y-55067867D01*
X33271402Y-55053253D01*
X33253223Y-55036777D01*
X33236747Y-55018598D01*
X33222133Y-54998893D01*
X33209520Y-54977849D01*
X33199030Y-54955671D01*
X33190765Y-54932571D01*
X33184804Y-54908773D01*
X33181204Y-54884504D01*
X33180000Y-54860000D01*
X33180000Y-54360000D01*
X33181204Y-54335496D01*
X33184804Y-54311227D01*
X33190765Y-54287429D01*
X33199030Y-54264329D01*
X33209520Y-54242151D01*
X33222133Y-54221107D01*
X33236747Y-54201402D01*
X33253223Y-54183223D01*
X33271402Y-54166747D01*
X33291107Y-54152133D01*
X33312151Y-54139520D01*
X33334329Y-54129030D01*
X33357429Y-54120765D01*
X33381227Y-54114804D01*
X33405496Y-54111204D01*
X33430000Y-54110000D01*
X35280000Y-54110000D01*
X35304504Y-54111204D01*
X35304504Y-54111204D01*
G37*
D15*
X34355000Y-54610000D03*
D10*
G36*
X35304504Y-52841204D02*
G01*
X35328773Y-52844804D01*
X35352571Y-52850765D01*
X35375671Y-52859030D01*
X35397849Y-52869520D01*
X35418893Y-52882133D01*
X35438598Y-52896747D01*
X35456777Y-52913223D01*
X35473253Y-52931402D01*
X35487867Y-52951107D01*
X35500480Y-52972151D01*
X35510970Y-52994329D01*
X35519235Y-53017429D01*
X35525196Y-53041227D01*
X35528796Y-53065496D01*
X35530000Y-53090000D01*
X35530000Y-53590000D01*
X35528796Y-53614504D01*
X35525196Y-53638773D01*
X35519235Y-53662571D01*
X35510970Y-53685671D01*
X35500480Y-53707849D01*
X35487867Y-53728893D01*
X35473253Y-53748598D01*
X35456777Y-53766777D01*
X35438598Y-53783253D01*
X35418893Y-53797867D01*
X35397849Y-53810480D01*
X35375671Y-53820970D01*
X35352571Y-53829235D01*
X35328773Y-53835196D01*
X35304504Y-53838796D01*
X35280000Y-53840000D01*
X33430000Y-53840000D01*
X33405496Y-53838796D01*
X33381227Y-53835196D01*
X33357429Y-53829235D01*
X33334329Y-53820970D01*
X33312151Y-53810480D01*
X33291107Y-53797867D01*
X33271402Y-53783253D01*
X33253223Y-53766777D01*
X33236747Y-53748598D01*
X33222133Y-53728893D01*
X33209520Y-53707849D01*
X33199030Y-53685671D01*
X33190765Y-53662571D01*
X33184804Y-53638773D01*
X33181204Y-53614504D01*
X33180000Y-53590000D01*
X33180000Y-53090000D01*
X33181204Y-53065496D01*
X33184804Y-53041227D01*
X33190765Y-53017429D01*
X33199030Y-52994329D01*
X33209520Y-52972151D01*
X33222133Y-52951107D01*
X33236747Y-52931402D01*
X33253223Y-52913223D01*
X33271402Y-52896747D01*
X33291107Y-52882133D01*
X33312151Y-52869520D01*
X33334329Y-52859030D01*
X33357429Y-52850765D01*
X33381227Y-52844804D01*
X33405496Y-52841204D01*
X33430000Y-52840000D01*
X35280000Y-52840000D01*
X35304504Y-52841204D01*
X35304504Y-52841204D01*
G37*
D15*
X34355000Y-53340000D03*
D10*
G36*
X35304504Y-51571204D02*
G01*
X35328773Y-51574804D01*
X35352571Y-51580765D01*
X35375671Y-51589030D01*
X35397849Y-51599520D01*
X35418893Y-51612133D01*
X35438598Y-51626747D01*
X35456777Y-51643223D01*
X35473253Y-51661402D01*
X35487867Y-51681107D01*
X35500480Y-51702151D01*
X35510970Y-51724329D01*
X35519235Y-51747429D01*
X35525196Y-51771227D01*
X35528796Y-51795496D01*
X35530000Y-51820000D01*
X35530000Y-52320000D01*
X35528796Y-52344504D01*
X35525196Y-52368773D01*
X35519235Y-52392571D01*
X35510970Y-52415671D01*
X35500480Y-52437849D01*
X35487867Y-52458893D01*
X35473253Y-52478598D01*
X35456777Y-52496777D01*
X35438598Y-52513253D01*
X35418893Y-52527867D01*
X35397849Y-52540480D01*
X35375671Y-52550970D01*
X35352571Y-52559235D01*
X35328773Y-52565196D01*
X35304504Y-52568796D01*
X35280000Y-52570000D01*
X33430000Y-52570000D01*
X33405496Y-52568796D01*
X33381227Y-52565196D01*
X33357429Y-52559235D01*
X33334329Y-52550970D01*
X33312151Y-52540480D01*
X33291107Y-52527867D01*
X33271402Y-52513253D01*
X33253223Y-52496777D01*
X33236747Y-52478598D01*
X33222133Y-52458893D01*
X33209520Y-52437849D01*
X33199030Y-52415671D01*
X33190765Y-52392571D01*
X33184804Y-52368773D01*
X33181204Y-52344504D01*
X33180000Y-52320000D01*
X33180000Y-51820000D01*
X33181204Y-51795496D01*
X33184804Y-51771227D01*
X33190765Y-51747429D01*
X33199030Y-51724329D01*
X33209520Y-51702151D01*
X33222133Y-51681107D01*
X33236747Y-51661402D01*
X33253223Y-51643223D01*
X33271402Y-51626747D01*
X33291107Y-51612133D01*
X33312151Y-51599520D01*
X33334329Y-51589030D01*
X33357429Y-51580765D01*
X33381227Y-51574804D01*
X33405496Y-51571204D01*
X33430000Y-51570000D01*
X35280000Y-51570000D01*
X35304504Y-51571204D01*
X35304504Y-51571204D01*
G37*
D15*
X34355000Y-52070000D03*
D10*
G36*
X35907443Y-64506655D02*
G01*
X35940812Y-64511605D01*
X35973535Y-64519802D01*
X36005297Y-64531166D01*
X36035793Y-64545590D01*
X36064727Y-64562932D01*
X36091823Y-64583028D01*
X36116818Y-64605682D01*
X36139472Y-64630677D01*
X36159568Y-64657773D01*
X36176910Y-64686707D01*
X36191334Y-64717203D01*
X36202698Y-64748965D01*
X36210895Y-64781688D01*
X36215845Y-64815057D01*
X36217500Y-64848750D01*
X36217500Y-65961250D01*
X36215845Y-65994943D01*
X36210895Y-66028312D01*
X36202698Y-66061035D01*
X36191334Y-66092797D01*
X36176910Y-66123293D01*
X36159568Y-66152227D01*
X36139472Y-66179323D01*
X36116818Y-66204318D01*
X36091823Y-66226972D01*
X36064727Y-66247068D01*
X36035793Y-66264410D01*
X36005297Y-66278834D01*
X35973535Y-66290198D01*
X35940812Y-66298395D01*
X35907443Y-66303345D01*
X35873750Y-66305000D01*
X35186250Y-66305000D01*
X35152557Y-66303345D01*
X35119188Y-66298395D01*
X35086465Y-66290198D01*
X35054703Y-66278834D01*
X35024207Y-66264410D01*
X34995273Y-66247068D01*
X34968177Y-66226972D01*
X34943182Y-66204318D01*
X34920528Y-66179323D01*
X34900432Y-66152227D01*
X34883090Y-66123293D01*
X34868666Y-66092797D01*
X34857302Y-66061035D01*
X34849105Y-66028312D01*
X34844155Y-65994943D01*
X34842500Y-65961250D01*
X34842500Y-64848750D01*
X34844155Y-64815057D01*
X34849105Y-64781688D01*
X34857302Y-64748965D01*
X34868666Y-64717203D01*
X34883090Y-64686707D01*
X34900432Y-64657773D01*
X34920528Y-64630677D01*
X34943182Y-64605682D01*
X34968177Y-64583028D01*
X34995273Y-64562932D01*
X35024207Y-64545590D01*
X35054703Y-64531166D01*
X35086465Y-64519802D01*
X35119188Y-64511605D01*
X35152557Y-64506655D01*
X35186250Y-64505000D01*
X35873750Y-64505000D01*
X35907443Y-64506655D01*
X35907443Y-64506655D01*
G37*
D11*
X35530000Y-65405000D03*
D10*
G36*
X34032443Y-64506655D02*
G01*
X34065812Y-64511605D01*
X34098535Y-64519802D01*
X34130297Y-64531166D01*
X34160793Y-64545590D01*
X34189727Y-64562932D01*
X34216823Y-64583028D01*
X34241818Y-64605682D01*
X34264472Y-64630677D01*
X34284568Y-64657773D01*
X34301910Y-64686707D01*
X34316334Y-64717203D01*
X34327698Y-64748965D01*
X34335895Y-64781688D01*
X34340845Y-64815057D01*
X34342500Y-64848750D01*
X34342500Y-65961250D01*
X34340845Y-65994943D01*
X34335895Y-66028312D01*
X34327698Y-66061035D01*
X34316334Y-66092797D01*
X34301910Y-66123293D01*
X34284568Y-66152227D01*
X34264472Y-66179323D01*
X34241818Y-66204318D01*
X34216823Y-66226972D01*
X34189727Y-66247068D01*
X34160793Y-66264410D01*
X34130297Y-66278834D01*
X34098535Y-66290198D01*
X34065812Y-66298395D01*
X34032443Y-66303345D01*
X33998750Y-66305000D01*
X33311250Y-66305000D01*
X33277557Y-66303345D01*
X33244188Y-66298395D01*
X33211465Y-66290198D01*
X33179703Y-66278834D01*
X33149207Y-66264410D01*
X33120273Y-66247068D01*
X33093177Y-66226972D01*
X33068182Y-66204318D01*
X33045528Y-66179323D01*
X33025432Y-66152227D01*
X33008090Y-66123293D01*
X32993666Y-66092797D01*
X32982302Y-66061035D01*
X32974105Y-66028312D01*
X32969155Y-65994943D01*
X32967500Y-65961250D01*
X32967500Y-64848750D01*
X32969155Y-64815057D01*
X32974105Y-64781688D01*
X32982302Y-64748965D01*
X32993666Y-64717203D01*
X33008090Y-64686707D01*
X33025432Y-64657773D01*
X33045528Y-64630677D01*
X33068182Y-64605682D01*
X33093177Y-64583028D01*
X33120273Y-64562932D01*
X33149207Y-64545590D01*
X33179703Y-64531166D01*
X33211465Y-64519802D01*
X33244188Y-64511605D01*
X33277557Y-64506655D01*
X33311250Y-64505000D01*
X33998750Y-64505000D01*
X34032443Y-64506655D01*
X34032443Y-64506655D01*
G37*
D11*
X33655000Y-65405000D03*
D10*
G36*
X42317443Y-62601655D02*
G01*
X42350812Y-62606605D01*
X42383535Y-62614802D01*
X42415297Y-62626166D01*
X42445793Y-62640590D01*
X42474727Y-62657932D01*
X42501823Y-62678028D01*
X42526818Y-62700682D01*
X42549472Y-62725677D01*
X42569568Y-62752773D01*
X42586910Y-62781707D01*
X42601334Y-62812203D01*
X42612698Y-62843965D01*
X42620895Y-62876688D01*
X42625845Y-62910057D01*
X42627500Y-62943750D01*
X42627500Y-64056250D01*
X42625845Y-64089943D01*
X42620895Y-64123312D01*
X42612698Y-64156035D01*
X42601334Y-64187797D01*
X42586910Y-64218293D01*
X42569568Y-64247227D01*
X42549472Y-64274323D01*
X42526818Y-64299318D01*
X42501823Y-64321972D01*
X42474727Y-64342068D01*
X42445793Y-64359410D01*
X42415297Y-64373834D01*
X42383535Y-64385198D01*
X42350812Y-64393395D01*
X42317443Y-64398345D01*
X42283750Y-64400000D01*
X41596250Y-64400000D01*
X41562557Y-64398345D01*
X41529188Y-64393395D01*
X41496465Y-64385198D01*
X41464703Y-64373834D01*
X41434207Y-64359410D01*
X41405273Y-64342068D01*
X41378177Y-64321972D01*
X41353182Y-64299318D01*
X41330528Y-64274323D01*
X41310432Y-64247227D01*
X41293090Y-64218293D01*
X41278666Y-64187797D01*
X41267302Y-64156035D01*
X41259105Y-64123312D01*
X41254155Y-64089943D01*
X41252500Y-64056250D01*
X41252500Y-62943750D01*
X41254155Y-62910057D01*
X41259105Y-62876688D01*
X41267302Y-62843965D01*
X41278666Y-62812203D01*
X41293090Y-62781707D01*
X41310432Y-62752773D01*
X41330528Y-62725677D01*
X41353182Y-62700682D01*
X41378177Y-62678028D01*
X41405273Y-62657932D01*
X41434207Y-62640590D01*
X41464703Y-62626166D01*
X41496465Y-62614802D01*
X41529188Y-62606605D01*
X41562557Y-62601655D01*
X41596250Y-62600000D01*
X42283750Y-62600000D01*
X42317443Y-62601655D01*
X42317443Y-62601655D01*
G37*
D11*
X41940000Y-63500000D03*
D10*
G36*
X44192443Y-62601655D02*
G01*
X44225812Y-62606605D01*
X44258535Y-62614802D01*
X44290297Y-62626166D01*
X44320793Y-62640590D01*
X44349727Y-62657932D01*
X44376823Y-62678028D01*
X44401818Y-62700682D01*
X44424472Y-62725677D01*
X44444568Y-62752773D01*
X44461910Y-62781707D01*
X44476334Y-62812203D01*
X44487698Y-62843965D01*
X44495895Y-62876688D01*
X44500845Y-62910057D01*
X44502500Y-62943750D01*
X44502500Y-64056250D01*
X44500845Y-64089943D01*
X44495895Y-64123312D01*
X44487698Y-64156035D01*
X44476334Y-64187797D01*
X44461910Y-64218293D01*
X44444568Y-64247227D01*
X44424472Y-64274323D01*
X44401818Y-64299318D01*
X44376823Y-64321972D01*
X44349727Y-64342068D01*
X44320793Y-64359410D01*
X44290297Y-64373834D01*
X44258535Y-64385198D01*
X44225812Y-64393395D01*
X44192443Y-64398345D01*
X44158750Y-64400000D01*
X43471250Y-64400000D01*
X43437557Y-64398345D01*
X43404188Y-64393395D01*
X43371465Y-64385198D01*
X43339703Y-64373834D01*
X43309207Y-64359410D01*
X43280273Y-64342068D01*
X43253177Y-64321972D01*
X43228182Y-64299318D01*
X43205528Y-64274323D01*
X43185432Y-64247227D01*
X43168090Y-64218293D01*
X43153666Y-64187797D01*
X43142302Y-64156035D01*
X43134105Y-64123312D01*
X43129155Y-64089943D01*
X43127500Y-64056250D01*
X43127500Y-62943750D01*
X43129155Y-62910057D01*
X43134105Y-62876688D01*
X43142302Y-62843965D01*
X43153666Y-62812203D01*
X43168090Y-62781707D01*
X43185432Y-62752773D01*
X43205528Y-62725677D01*
X43228182Y-62700682D01*
X43253177Y-62678028D01*
X43280273Y-62657932D01*
X43309207Y-62640590D01*
X43339703Y-62626166D01*
X43371465Y-62614802D01*
X43404188Y-62606605D01*
X43437557Y-62601655D01*
X43471250Y-62600000D01*
X44158750Y-62600000D01*
X44192443Y-62601655D01*
X44192443Y-62601655D01*
G37*
D11*
X43815000Y-63500000D03*
D10*
G36*
X42287443Y-56886655D02*
G01*
X42320812Y-56891605D01*
X42353535Y-56899802D01*
X42385297Y-56911166D01*
X42415793Y-56925590D01*
X42444727Y-56942932D01*
X42471823Y-56963028D01*
X42496818Y-56985682D01*
X42519472Y-57010677D01*
X42539568Y-57037773D01*
X42556910Y-57066707D01*
X42571334Y-57097203D01*
X42582698Y-57128965D01*
X42590895Y-57161688D01*
X42595845Y-57195057D01*
X42597500Y-57228750D01*
X42597500Y-58341250D01*
X42595845Y-58374943D01*
X42590895Y-58408312D01*
X42582698Y-58441035D01*
X42571334Y-58472797D01*
X42556910Y-58503293D01*
X42539568Y-58532227D01*
X42519472Y-58559323D01*
X42496818Y-58584318D01*
X42471823Y-58606972D01*
X42444727Y-58627068D01*
X42415793Y-58644410D01*
X42385297Y-58658834D01*
X42353535Y-58670198D01*
X42320812Y-58678395D01*
X42287443Y-58683345D01*
X42253750Y-58685000D01*
X41566250Y-58685000D01*
X41532557Y-58683345D01*
X41499188Y-58678395D01*
X41466465Y-58670198D01*
X41434703Y-58658834D01*
X41404207Y-58644410D01*
X41375273Y-58627068D01*
X41348177Y-58606972D01*
X41323182Y-58584318D01*
X41300528Y-58559323D01*
X41280432Y-58532227D01*
X41263090Y-58503293D01*
X41248666Y-58472797D01*
X41237302Y-58441035D01*
X41229105Y-58408312D01*
X41224155Y-58374943D01*
X41222500Y-58341250D01*
X41222500Y-57228750D01*
X41224155Y-57195057D01*
X41229105Y-57161688D01*
X41237302Y-57128965D01*
X41248666Y-57097203D01*
X41263090Y-57066707D01*
X41280432Y-57037773D01*
X41300528Y-57010677D01*
X41323182Y-56985682D01*
X41348177Y-56963028D01*
X41375273Y-56942932D01*
X41404207Y-56925590D01*
X41434703Y-56911166D01*
X41466465Y-56899802D01*
X41499188Y-56891605D01*
X41532557Y-56886655D01*
X41566250Y-56885000D01*
X42253750Y-56885000D01*
X42287443Y-56886655D01*
X42287443Y-56886655D01*
G37*
D11*
X41910000Y-57785000D03*
D10*
G36*
X44162443Y-56886655D02*
G01*
X44195812Y-56891605D01*
X44228535Y-56899802D01*
X44260297Y-56911166D01*
X44290793Y-56925590D01*
X44319727Y-56942932D01*
X44346823Y-56963028D01*
X44371818Y-56985682D01*
X44394472Y-57010677D01*
X44414568Y-57037773D01*
X44431910Y-57066707D01*
X44446334Y-57097203D01*
X44457698Y-57128965D01*
X44465895Y-57161688D01*
X44470845Y-57195057D01*
X44472500Y-57228750D01*
X44472500Y-58341250D01*
X44470845Y-58374943D01*
X44465895Y-58408312D01*
X44457698Y-58441035D01*
X44446334Y-58472797D01*
X44431910Y-58503293D01*
X44414568Y-58532227D01*
X44394472Y-58559323D01*
X44371818Y-58584318D01*
X44346823Y-58606972D01*
X44319727Y-58627068D01*
X44290793Y-58644410D01*
X44260297Y-58658834D01*
X44228535Y-58670198D01*
X44195812Y-58678395D01*
X44162443Y-58683345D01*
X44128750Y-58685000D01*
X43441250Y-58685000D01*
X43407557Y-58683345D01*
X43374188Y-58678395D01*
X43341465Y-58670198D01*
X43309703Y-58658834D01*
X43279207Y-58644410D01*
X43250273Y-58627068D01*
X43223177Y-58606972D01*
X43198182Y-58584318D01*
X43175528Y-58559323D01*
X43155432Y-58532227D01*
X43138090Y-58503293D01*
X43123666Y-58472797D01*
X43112302Y-58441035D01*
X43104105Y-58408312D01*
X43099155Y-58374943D01*
X43097500Y-58341250D01*
X43097500Y-57228750D01*
X43099155Y-57195057D01*
X43104105Y-57161688D01*
X43112302Y-57128965D01*
X43123666Y-57097203D01*
X43138090Y-57066707D01*
X43155432Y-57037773D01*
X43175528Y-57010677D01*
X43198182Y-56985682D01*
X43223177Y-56963028D01*
X43250273Y-56942932D01*
X43279207Y-56925590D01*
X43309703Y-56911166D01*
X43341465Y-56899802D01*
X43374188Y-56891605D01*
X43407557Y-56886655D01*
X43441250Y-56885000D01*
X44128750Y-56885000D01*
X44162443Y-56886655D01*
X44162443Y-56886655D01*
G37*
D11*
X43785000Y-57785000D03*
D10*
G36*
X42499943Y-52654155D02*
G01*
X42533312Y-52659105D01*
X42566035Y-52667302D01*
X42597797Y-52678666D01*
X42628293Y-52693090D01*
X42657227Y-52710432D01*
X42684323Y-52730528D01*
X42709318Y-52753182D01*
X42731972Y-52778177D01*
X42752068Y-52805273D01*
X42769410Y-52834207D01*
X42783834Y-52864703D01*
X42795198Y-52896465D01*
X42803395Y-52929188D01*
X42808345Y-52962557D01*
X42810000Y-52996250D01*
X42810000Y-53683750D01*
X42808345Y-53717443D01*
X42803395Y-53750812D01*
X42795198Y-53783535D01*
X42783834Y-53815297D01*
X42769410Y-53845793D01*
X42752068Y-53874727D01*
X42731972Y-53901823D01*
X42709318Y-53926818D01*
X42684323Y-53949472D01*
X42657227Y-53969568D01*
X42628293Y-53986910D01*
X42597797Y-54001334D01*
X42566035Y-54012698D01*
X42533312Y-54020895D01*
X42499943Y-54025845D01*
X42466250Y-54027500D01*
X41353750Y-54027500D01*
X41320057Y-54025845D01*
X41286688Y-54020895D01*
X41253965Y-54012698D01*
X41222203Y-54001334D01*
X41191707Y-53986910D01*
X41162773Y-53969568D01*
X41135677Y-53949472D01*
X41110682Y-53926818D01*
X41088028Y-53901823D01*
X41067932Y-53874727D01*
X41050590Y-53845793D01*
X41036166Y-53815297D01*
X41024802Y-53783535D01*
X41016605Y-53750812D01*
X41011655Y-53717443D01*
X41010000Y-53683750D01*
X41010000Y-52996250D01*
X41011655Y-52962557D01*
X41016605Y-52929188D01*
X41024802Y-52896465D01*
X41036166Y-52864703D01*
X41050590Y-52834207D01*
X41067932Y-52805273D01*
X41088028Y-52778177D01*
X41110682Y-52753182D01*
X41135677Y-52730528D01*
X41162773Y-52710432D01*
X41191707Y-52693090D01*
X41222203Y-52678666D01*
X41253965Y-52667302D01*
X41286688Y-52659105D01*
X41320057Y-52654155D01*
X41353750Y-52652500D01*
X42466250Y-52652500D01*
X42499943Y-52654155D01*
X42499943Y-52654155D01*
G37*
D11*
X41910000Y-53340000D03*
D10*
G36*
X42499943Y-50779155D02*
G01*
X42533312Y-50784105D01*
X42566035Y-50792302D01*
X42597797Y-50803666D01*
X42628293Y-50818090D01*
X42657227Y-50835432D01*
X42684323Y-50855528D01*
X42709318Y-50878182D01*
X42731972Y-50903177D01*
X42752068Y-50930273D01*
X42769410Y-50959207D01*
X42783834Y-50989703D01*
X42795198Y-51021465D01*
X42803395Y-51054188D01*
X42808345Y-51087557D01*
X42810000Y-51121250D01*
X42810000Y-51808750D01*
X42808345Y-51842443D01*
X42803395Y-51875812D01*
X42795198Y-51908535D01*
X42783834Y-51940297D01*
X42769410Y-51970793D01*
X42752068Y-51999727D01*
X42731972Y-52026823D01*
X42709318Y-52051818D01*
X42684323Y-52074472D01*
X42657227Y-52094568D01*
X42628293Y-52111910D01*
X42597797Y-52126334D01*
X42566035Y-52137698D01*
X42533312Y-52145895D01*
X42499943Y-52150845D01*
X42466250Y-52152500D01*
X41353750Y-52152500D01*
X41320057Y-52150845D01*
X41286688Y-52145895D01*
X41253965Y-52137698D01*
X41222203Y-52126334D01*
X41191707Y-52111910D01*
X41162773Y-52094568D01*
X41135677Y-52074472D01*
X41110682Y-52051818D01*
X41088028Y-52026823D01*
X41067932Y-51999727D01*
X41050590Y-51970793D01*
X41036166Y-51940297D01*
X41024802Y-51908535D01*
X41016605Y-51875812D01*
X41011655Y-51842443D01*
X41010000Y-51808750D01*
X41010000Y-51121250D01*
X41011655Y-51087557D01*
X41016605Y-51054188D01*
X41024802Y-51021465D01*
X41036166Y-50989703D01*
X41050590Y-50959207D01*
X41067932Y-50930273D01*
X41088028Y-50903177D01*
X41110682Y-50878182D01*
X41135677Y-50855528D01*
X41162773Y-50835432D01*
X41191707Y-50818090D01*
X41222203Y-50803666D01*
X41253965Y-50792302D01*
X41286688Y-50784105D01*
X41320057Y-50779155D01*
X41353750Y-50777500D01*
X42466250Y-50777500D01*
X42499943Y-50779155D01*
X42499943Y-50779155D01*
G37*
D11*
X41910000Y-51465000D03*
D10*
G36*
X44404943Y-50779155D02*
G01*
X44438312Y-50784105D01*
X44471035Y-50792302D01*
X44502797Y-50803666D01*
X44533293Y-50818090D01*
X44562227Y-50835432D01*
X44589323Y-50855528D01*
X44614318Y-50878182D01*
X44636972Y-50903177D01*
X44657068Y-50930273D01*
X44674410Y-50959207D01*
X44688834Y-50989703D01*
X44700198Y-51021465D01*
X44708395Y-51054188D01*
X44713345Y-51087557D01*
X44715000Y-51121250D01*
X44715000Y-51808750D01*
X44713345Y-51842443D01*
X44708395Y-51875812D01*
X44700198Y-51908535D01*
X44688834Y-51940297D01*
X44674410Y-51970793D01*
X44657068Y-51999727D01*
X44636972Y-52026823D01*
X44614318Y-52051818D01*
X44589323Y-52074472D01*
X44562227Y-52094568D01*
X44533293Y-52111910D01*
X44502797Y-52126334D01*
X44471035Y-52137698D01*
X44438312Y-52145895D01*
X44404943Y-52150845D01*
X44371250Y-52152500D01*
X43258750Y-52152500D01*
X43225057Y-52150845D01*
X43191688Y-52145895D01*
X43158965Y-52137698D01*
X43127203Y-52126334D01*
X43096707Y-52111910D01*
X43067773Y-52094568D01*
X43040677Y-52074472D01*
X43015682Y-52051818D01*
X42993028Y-52026823D01*
X42972932Y-51999727D01*
X42955590Y-51970793D01*
X42941166Y-51940297D01*
X42929802Y-51908535D01*
X42921605Y-51875812D01*
X42916655Y-51842443D01*
X42915000Y-51808750D01*
X42915000Y-51121250D01*
X42916655Y-51087557D01*
X42921605Y-51054188D01*
X42929802Y-51021465D01*
X42941166Y-50989703D01*
X42955590Y-50959207D01*
X42972932Y-50930273D01*
X42993028Y-50903177D01*
X43015682Y-50878182D01*
X43040677Y-50855528D01*
X43067773Y-50835432D01*
X43096707Y-50818090D01*
X43127203Y-50803666D01*
X43158965Y-50792302D01*
X43191688Y-50784105D01*
X43225057Y-50779155D01*
X43258750Y-50777500D01*
X44371250Y-50777500D01*
X44404943Y-50779155D01*
X44404943Y-50779155D01*
G37*
D11*
X43815000Y-51465000D03*
D10*
G36*
X44404943Y-52654155D02*
G01*
X44438312Y-52659105D01*
X44471035Y-52667302D01*
X44502797Y-52678666D01*
X44533293Y-52693090D01*
X44562227Y-52710432D01*
X44589323Y-52730528D01*
X44614318Y-52753182D01*
X44636972Y-52778177D01*
X44657068Y-52805273D01*
X44674410Y-52834207D01*
X44688834Y-52864703D01*
X44700198Y-52896465D01*
X44708395Y-52929188D01*
X44713345Y-52962557D01*
X44715000Y-52996250D01*
X44715000Y-53683750D01*
X44713345Y-53717443D01*
X44708395Y-53750812D01*
X44700198Y-53783535D01*
X44688834Y-53815297D01*
X44674410Y-53845793D01*
X44657068Y-53874727D01*
X44636972Y-53901823D01*
X44614318Y-53926818D01*
X44589323Y-53949472D01*
X44562227Y-53969568D01*
X44533293Y-53986910D01*
X44502797Y-54001334D01*
X44471035Y-54012698D01*
X44438312Y-54020895D01*
X44404943Y-54025845D01*
X44371250Y-54027500D01*
X43258750Y-54027500D01*
X43225057Y-54025845D01*
X43191688Y-54020895D01*
X43158965Y-54012698D01*
X43127203Y-54001334D01*
X43096707Y-53986910D01*
X43067773Y-53969568D01*
X43040677Y-53949472D01*
X43015682Y-53926818D01*
X42993028Y-53901823D01*
X42972932Y-53874727D01*
X42955590Y-53845793D01*
X42941166Y-53815297D01*
X42929802Y-53783535D01*
X42921605Y-53750812D01*
X42916655Y-53717443D01*
X42915000Y-53683750D01*
X42915000Y-52996250D01*
X42916655Y-52962557D01*
X42921605Y-52929188D01*
X42929802Y-52896465D01*
X42941166Y-52864703D01*
X42955590Y-52834207D01*
X42972932Y-52805273D01*
X42993028Y-52778177D01*
X43015682Y-52753182D01*
X43040677Y-52730528D01*
X43067773Y-52710432D01*
X43096707Y-52693090D01*
X43127203Y-52678666D01*
X43158965Y-52667302D01*
X43191688Y-52659105D01*
X43225057Y-52654155D01*
X43258750Y-52652500D01*
X44371250Y-52652500D01*
X44404943Y-52654155D01*
X44404943Y-52654155D01*
G37*
D11*
X43815000Y-53340000D03*
D10*
G36*
X46309943Y-52049155D02*
G01*
X46343312Y-52054105D01*
X46376035Y-52062302D01*
X46407797Y-52073666D01*
X46438293Y-52088090D01*
X46467227Y-52105432D01*
X46494323Y-52125528D01*
X46519318Y-52148182D01*
X46541972Y-52173177D01*
X46562068Y-52200273D01*
X46579410Y-52229207D01*
X46593834Y-52259703D01*
X46605198Y-52291465D01*
X46613395Y-52324188D01*
X46618345Y-52357557D01*
X46620000Y-52391250D01*
X46620000Y-53078750D01*
X46618345Y-53112443D01*
X46613395Y-53145812D01*
X46605198Y-53178535D01*
X46593834Y-53210297D01*
X46579410Y-53240793D01*
X46562068Y-53269727D01*
X46541972Y-53296823D01*
X46519318Y-53321818D01*
X46494323Y-53344472D01*
X46467227Y-53364568D01*
X46438293Y-53381910D01*
X46407797Y-53396334D01*
X46376035Y-53407698D01*
X46343312Y-53415895D01*
X46309943Y-53420845D01*
X46276250Y-53422500D01*
X45163750Y-53422500D01*
X45130057Y-53420845D01*
X45096688Y-53415895D01*
X45063965Y-53407698D01*
X45032203Y-53396334D01*
X45001707Y-53381910D01*
X44972773Y-53364568D01*
X44945677Y-53344472D01*
X44920682Y-53321818D01*
X44898028Y-53296823D01*
X44877932Y-53269727D01*
X44860590Y-53240793D01*
X44846166Y-53210297D01*
X44834802Y-53178535D01*
X44826605Y-53145812D01*
X44821655Y-53112443D01*
X44820000Y-53078750D01*
X44820000Y-52391250D01*
X44821655Y-52357557D01*
X44826605Y-52324188D01*
X44834802Y-52291465D01*
X44846166Y-52259703D01*
X44860590Y-52229207D01*
X44877932Y-52200273D01*
X44898028Y-52173177D01*
X44920682Y-52148182D01*
X44945677Y-52125528D01*
X44972773Y-52105432D01*
X45001707Y-52088090D01*
X45032203Y-52073666D01*
X45063965Y-52062302D01*
X45096688Y-52054105D01*
X45130057Y-52049155D01*
X45163750Y-52047500D01*
X46276250Y-52047500D01*
X46309943Y-52049155D01*
X46309943Y-52049155D01*
G37*
D11*
X45720000Y-52735000D03*
D10*
G36*
X46309943Y-53924155D02*
G01*
X46343312Y-53929105D01*
X46376035Y-53937302D01*
X46407797Y-53948666D01*
X46438293Y-53963090D01*
X46467227Y-53980432D01*
X46494323Y-54000528D01*
X46519318Y-54023182D01*
X46541972Y-54048177D01*
X46562068Y-54075273D01*
X46579410Y-54104207D01*
X46593834Y-54134703D01*
X46605198Y-54166465D01*
X46613395Y-54199188D01*
X46618345Y-54232557D01*
X46620000Y-54266250D01*
X46620000Y-54953750D01*
X46618345Y-54987443D01*
X46613395Y-55020812D01*
X46605198Y-55053535D01*
X46593834Y-55085297D01*
X46579410Y-55115793D01*
X46562068Y-55144727D01*
X46541972Y-55171823D01*
X46519318Y-55196818D01*
X46494323Y-55219472D01*
X46467227Y-55239568D01*
X46438293Y-55256910D01*
X46407797Y-55271334D01*
X46376035Y-55282698D01*
X46343312Y-55290895D01*
X46309943Y-55295845D01*
X46276250Y-55297500D01*
X45163750Y-55297500D01*
X45130057Y-55295845D01*
X45096688Y-55290895D01*
X45063965Y-55282698D01*
X45032203Y-55271334D01*
X45001707Y-55256910D01*
X44972773Y-55239568D01*
X44945677Y-55219472D01*
X44920682Y-55196818D01*
X44898028Y-55171823D01*
X44877932Y-55144727D01*
X44860590Y-55115793D01*
X44846166Y-55085297D01*
X44834802Y-55053535D01*
X44826605Y-55020812D01*
X44821655Y-54987443D01*
X44820000Y-54953750D01*
X44820000Y-54266250D01*
X44821655Y-54232557D01*
X44826605Y-54199188D01*
X44834802Y-54166465D01*
X44846166Y-54134703D01*
X44860590Y-54104207D01*
X44877932Y-54075273D01*
X44898028Y-54048177D01*
X44920682Y-54023182D01*
X44945677Y-54000528D01*
X44972773Y-53980432D01*
X45001707Y-53963090D01*
X45032203Y-53948666D01*
X45063965Y-53937302D01*
X45096688Y-53929105D01*
X45130057Y-53924155D01*
X45163750Y-53922500D01*
X46276250Y-53922500D01*
X46309943Y-53924155D01*
X46309943Y-53924155D01*
G37*
D11*
X45720000Y-54610000D03*
D10*
G36*
X28529943Y-48209155D02*
G01*
X28563312Y-48214105D01*
X28596035Y-48222302D01*
X28627797Y-48233666D01*
X28658293Y-48248090D01*
X28687227Y-48265432D01*
X28714323Y-48285528D01*
X28739318Y-48308182D01*
X28761972Y-48333177D01*
X28782068Y-48360273D01*
X28799410Y-48389207D01*
X28813834Y-48419703D01*
X28825198Y-48451465D01*
X28833395Y-48484188D01*
X28838345Y-48517557D01*
X28840000Y-48551250D01*
X28840000Y-49238750D01*
X28838345Y-49272443D01*
X28833395Y-49305812D01*
X28825198Y-49338535D01*
X28813834Y-49370297D01*
X28799410Y-49400793D01*
X28782068Y-49429727D01*
X28761972Y-49456823D01*
X28739318Y-49481818D01*
X28714323Y-49504472D01*
X28687227Y-49524568D01*
X28658293Y-49541910D01*
X28627797Y-49556334D01*
X28596035Y-49567698D01*
X28563312Y-49575895D01*
X28529943Y-49580845D01*
X28496250Y-49582500D01*
X27383750Y-49582500D01*
X27350057Y-49580845D01*
X27316688Y-49575895D01*
X27283965Y-49567698D01*
X27252203Y-49556334D01*
X27221707Y-49541910D01*
X27192773Y-49524568D01*
X27165677Y-49504472D01*
X27140682Y-49481818D01*
X27118028Y-49456823D01*
X27097932Y-49429727D01*
X27080590Y-49400793D01*
X27066166Y-49370297D01*
X27054802Y-49338535D01*
X27046605Y-49305812D01*
X27041655Y-49272443D01*
X27040000Y-49238750D01*
X27040000Y-48551250D01*
X27041655Y-48517557D01*
X27046605Y-48484188D01*
X27054802Y-48451465D01*
X27066166Y-48419703D01*
X27080590Y-48389207D01*
X27097932Y-48360273D01*
X27118028Y-48333177D01*
X27140682Y-48308182D01*
X27165677Y-48285528D01*
X27192773Y-48265432D01*
X27221707Y-48248090D01*
X27252203Y-48233666D01*
X27283965Y-48222302D01*
X27316688Y-48214105D01*
X27350057Y-48209155D01*
X27383750Y-48207500D01*
X28496250Y-48207500D01*
X28529943Y-48209155D01*
X28529943Y-48209155D01*
G37*
D11*
X27940000Y-48895000D03*
D10*
G36*
X28529943Y-50084155D02*
G01*
X28563312Y-50089105D01*
X28596035Y-50097302D01*
X28627797Y-50108666D01*
X28658293Y-50123090D01*
X28687227Y-50140432D01*
X28714323Y-50160528D01*
X28739318Y-50183182D01*
X28761972Y-50208177D01*
X28782068Y-50235273D01*
X28799410Y-50264207D01*
X28813834Y-50294703D01*
X28825198Y-50326465D01*
X28833395Y-50359188D01*
X28838345Y-50392557D01*
X28840000Y-50426250D01*
X28840000Y-51113750D01*
X28838345Y-51147443D01*
X28833395Y-51180812D01*
X28825198Y-51213535D01*
X28813834Y-51245297D01*
X28799410Y-51275793D01*
X28782068Y-51304727D01*
X28761972Y-51331823D01*
X28739318Y-51356818D01*
X28714323Y-51379472D01*
X28687227Y-51399568D01*
X28658293Y-51416910D01*
X28627797Y-51431334D01*
X28596035Y-51442698D01*
X28563312Y-51450895D01*
X28529943Y-51455845D01*
X28496250Y-51457500D01*
X27383750Y-51457500D01*
X27350057Y-51455845D01*
X27316688Y-51450895D01*
X27283965Y-51442698D01*
X27252203Y-51431334D01*
X27221707Y-51416910D01*
X27192773Y-51399568D01*
X27165677Y-51379472D01*
X27140682Y-51356818D01*
X27118028Y-51331823D01*
X27097932Y-51304727D01*
X27080590Y-51275793D01*
X27066166Y-51245297D01*
X27054802Y-51213535D01*
X27046605Y-51180812D01*
X27041655Y-51147443D01*
X27040000Y-51113750D01*
X27040000Y-50426250D01*
X27041655Y-50392557D01*
X27046605Y-50359188D01*
X27054802Y-50326465D01*
X27066166Y-50294703D01*
X27080590Y-50264207D01*
X27097932Y-50235273D01*
X27118028Y-50208177D01*
X27140682Y-50183182D01*
X27165677Y-50160528D01*
X27192773Y-50140432D01*
X27221707Y-50123090D01*
X27252203Y-50108666D01*
X27283965Y-50097302D01*
X27316688Y-50089105D01*
X27350057Y-50084155D01*
X27383750Y-50082500D01*
X28496250Y-50082500D01*
X28529943Y-50084155D01*
X28529943Y-50084155D01*
G37*
D11*
X27940000Y-50770000D03*
D10*
G36*
X35937443Y-49266655D02*
G01*
X35970812Y-49271605D01*
X36003535Y-49279802D01*
X36035297Y-49291166D01*
X36065793Y-49305590D01*
X36094727Y-49322932D01*
X36121823Y-49343028D01*
X36146818Y-49365682D01*
X36169472Y-49390677D01*
X36189568Y-49417773D01*
X36206910Y-49446707D01*
X36221334Y-49477203D01*
X36232698Y-49508965D01*
X36240895Y-49541688D01*
X36245845Y-49575057D01*
X36247500Y-49608750D01*
X36247500Y-50721250D01*
X36245845Y-50754943D01*
X36240895Y-50788312D01*
X36232698Y-50821035D01*
X36221334Y-50852797D01*
X36206910Y-50883293D01*
X36189568Y-50912227D01*
X36169472Y-50939323D01*
X36146818Y-50964318D01*
X36121823Y-50986972D01*
X36094727Y-51007068D01*
X36065793Y-51024410D01*
X36035297Y-51038834D01*
X36003535Y-51050198D01*
X35970812Y-51058395D01*
X35937443Y-51063345D01*
X35903750Y-51065000D01*
X35216250Y-51065000D01*
X35182557Y-51063345D01*
X35149188Y-51058395D01*
X35116465Y-51050198D01*
X35084703Y-51038834D01*
X35054207Y-51024410D01*
X35025273Y-51007068D01*
X34998177Y-50986972D01*
X34973182Y-50964318D01*
X34950528Y-50939323D01*
X34930432Y-50912227D01*
X34913090Y-50883293D01*
X34898666Y-50852797D01*
X34887302Y-50821035D01*
X34879105Y-50788312D01*
X34874155Y-50754943D01*
X34872500Y-50721250D01*
X34872500Y-49608750D01*
X34874155Y-49575057D01*
X34879105Y-49541688D01*
X34887302Y-49508965D01*
X34898666Y-49477203D01*
X34913090Y-49446707D01*
X34930432Y-49417773D01*
X34950528Y-49390677D01*
X34973182Y-49365682D01*
X34998177Y-49343028D01*
X35025273Y-49322932D01*
X35054207Y-49305590D01*
X35084703Y-49291166D01*
X35116465Y-49279802D01*
X35149188Y-49271605D01*
X35182557Y-49266655D01*
X35216250Y-49265000D01*
X35903750Y-49265000D01*
X35937443Y-49266655D01*
X35937443Y-49266655D01*
G37*
D11*
X35560000Y-50165000D03*
D10*
G36*
X34062443Y-49266655D02*
G01*
X34095812Y-49271605D01*
X34128535Y-49279802D01*
X34160297Y-49291166D01*
X34190793Y-49305590D01*
X34219727Y-49322932D01*
X34246823Y-49343028D01*
X34271818Y-49365682D01*
X34294472Y-49390677D01*
X34314568Y-49417773D01*
X34331910Y-49446707D01*
X34346334Y-49477203D01*
X34357698Y-49508965D01*
X34365895Y-49541688D01*
X34370845Y-49575057D01*
X34372500Y-49608750D01*
X34372500Y-50721250D01*
X34370845Y-50754943D01*
X34365895Y-50788312D01*
X34357698Y-50821035D01*
X34346334Y-50852797D01*
X34331910Y-50883293D01*
X34314568Y-50912227D01*
X34294472Y-50939323D01*
X34271818Y-50964318D01*
X34246823Y-50986972D01*
X34219727Y-51007068D01*
X34190793Y-51024410D01*
X34160297Y-51038834D01*
X34128535Y-51050198D01*
X34095812Y-51058395D01*
X34062443Y-51063345D01*
X34028750Y-51065000D01*
X33341250Y-51065000D01*
X33307557Y-51063345D01*
X33274188Y-51058395D01*
X33241465Y-51050198D01*
X33209703Y-51038834D01*
X33179207Y-51024410D01*
X33150273Y-51007068D01*
X33123177Y-50986972D01*
X33098182Y-50964318D01*
X33075528Y-50939323D01*
X33055432Y-50912227D01*
X33038090Y-50883293D01*
X33023666Y-50852797D01*
X33012302Y-50821035D01*
X33004105Y-50788312D01*
X32999155Y-50754943D01*
X32997500Y-50721250D01*
X32997500Y-49608750D01*
X32999155Y-49575057D01*
X33004105Y-49541688D01*
X33012302Y-49508965D01*
X33023666Y-49477203D01*
X33038090Y-49446707D01*
X33055432Y-49417773D01*
X33075528Y-49390677D01*
X33098182Y-49365682D01*
X33123177Y-49343028D01*
X33150273Y-49322932D01*
X33179207Y-49305590D01*
X33209703Y-49291166D01*
X33241465Y-49279802D01*
X33274188Y-49271605D01*
X33307557Y-49266655D01*
X33341250Y-49265000D01*
X34028750Y-49265000D01*
X34062443Y-49266655D01*
X34062443Y-49266655D01*
G37*
D11*
X33685000Y-50165000D03*
D10*
G36*
X34244943Y-45699155D02*
G01*
X34278312Y-45704105D01*
X34311035Y-45712302D01*
X34342797Y-45723666D01*
X34373293Y-45738090D01*
X34402227Y-45755432D01*
X34429323Y-45775528D01*
X34454318Y-45798182D01*
X34476972Y-45823177D01*
X34497068Y-45850273D01*
X34514410Y-45879207D01*
X34528834Y-45909703D01*
X34540198Y-45941465D01*
X34548395Y-45974188D01*
X34553345Y-46007557D01*
X34555000Y-46041250D01*
X34555000Y-46728750D01*
X34553345Y-46762443D01*
X34548395Y-46795812D01*
X34540198Y-46828535D01*
X34528834Y-46860297D01*
X34514410Y-46890793D01*
X34497068Y-46919727D01*
X34476972Y-46946823D01*
X34454318Y-46971818D01*
X34429323Y-46994472D01*
X34402227Y-47014568D01*
X34373293Y-47031910D01*
X34342797Y-47046334D01*
X34311035Y-47057698D01*
X34278312Y-47065895D01*
X34244943Y-47070845D01*
X34211250Y-47072500D01*
X33098750Y-47072500D01*
X33065057Y-47070845D01*
X33031688Y-47065895D01*
X32998965Y-47057698D01*
X32967203Y-47046334D01*
X32936707Y-47031910D01*
X32907773Y-47014568D01*
X32880677Y-46994472D01*
X32855682Y-46971818D01*
X32833028Y-46946823D01*
X32812932Y-46919727D01*
X32795590Y-46890793D01*
X32781166Y-46860297D01*
X32769802Y-46828535D01*
X32761605Y-46795812D01*
X32756655Y-46762443D01*
X32755000Y-46728750D01*
X32755000Y-46041250D01*
X32756655Y-46007557D01*
X32761605Y-45974188D01*
X32769802Y-45941465D01*
X32781166Y-45909703D01*
X32795590Y-45879207D01*
X32812932Y-45850273D01*
X32833028Y-45823177D01*
X32855682Y-45798182D01*
X32880677Y-45775528D01*
X32907773Y-45755432D01*
X32936707Y-45738090D01*
X32967203Y-45723666D01*
X32998965Y-45712302D01*
X33031688Y-45704105D01*
X33065057Y-45699155D01*
X33098750Y-45697500D01*
X34211250Y-45697500D01*
X34244943Y-45699155D01*
X34244943Y-45699155D01*
G37*
D11*
X33655000Y-46385000D03*
D10*
G36*
X34244943Y-47574155D02*
G01*
X34278312Y-47579105D01*
X34311035Y-47587302D01*
X34342797Y-47598666D01*
X34373293Y-47613090D01*
X34402227Y-47630432D01*
X34429323Y-47650528D01*
X34454318Y-47673182D01*
X34476972Y-47698177D01*
X34497068Y-47725273D01*
X34514410Y-47754207D01*
X34528834Y-47784703D01*
X34540198Y-47816465D01*
X34548395Y-47849188D01*
X34553345Y-47882557D01*
X34555000Y-47916250D01*
X34555000Y-48603750D01*
X34553345Y-48637443D01*
X34548395Y-48670812D01*
X34540198Y-48703535D01*
X34528834Y-48735297D01*
X34514410Y-48765793D01*
X34497068Y-48794727D01*
X34476972Y-48821823D01*
X34454318Y-48846818D01*
X34429323Y-48869472D01*
X34402227Y-48889568D01*
X34373293Y-48906910D01*
X34342797Y-48921334D01*
X34311035Y-48932698D01*
X34278312Y-48940895D01*
X34244943Y-48945845D01*
X34211250Y-48947500D01*
X33098750Y-48947500D01*
X33065057Y-48945845D01*
X33031688Y-48940895D01*
X32998965Y-48932698D01*
X32967203Y-48921334D01*
X32936707Y-48906910D01*
X32907773Y-48889568D01*
X32880677Y-48869472D01*
X32855682Y-48846818D01*
X32833028Y-48821823D01*
X32812932Y-48794727D01*
X32795590Y-48765793D01*
X32781166Y-48735297D01*
X32769802Y-48703535D01*
X32761605Y-48670812D01*
X32756655Y-48637443D01*
X32755000Y-48603750D01*
X32755000Y-47916250D01*
X32756655Y-47882557D01*
X32761605Y-47849188D01*
X32769802Y-47816465D01*
X32781166Y-47784703D01*
X32795590Y-47754207D01*
X32812932Y-47725273D01*
X32833028Y-47698177D01*
X32855682Y-47673182D01*
X32880677Y-47650528D01*
X32907773Y-47630432D01*
X32936707Y-47613090D01*
X32967203Y-47598666D01*
X32998965Y-47587302D01*
X33031688Y-47579105D01*
X33065057Y-47574155D01*
X33098750Y-47572500D01*
X34211250Y-47572500D01*
X34244943Y-47574155D01*
X34244943Y-47574155D01*
G37*
D11*
X33655000Y-48260000D03*
D10*
G36*
X32127443Y-48631655D02*
G01*
X32160812Y-48636605D01*
X32193535Y-48644802D01*
X32225297Y-48656166D01*
X32255793Y-48670590D01*
X32284727Y-48687932D01*
X32311823Y-48708028D01*
X32336818Y-48730682D01*
X32359472Y-48755677D01*
X32379568Y-48782773D01*
X32396910Y-48811707D01*
X32411334Y-48842203D01*
X32422698Y-48873965D01*
X32430895Y-48906688D01*
X32435845Y-48940057D01*
X32437500Y-48973750D01*
X32437500Y-50086250D01*
X32435845Y-50119943D01*
X32430895Y-50153312D01*
X32422698Y-50186035D01*
X32411334Y-50217797D01*
X32396910Y-50248293D01*
X32379568Y-50277227D01*
X32359472Y-50304323D01*
X32336818Y-50329318D01*
X32311823Y-50351972D01*
X32284727Y-50372068D01*
X32255793Y-50389410D01*
X32225297Y-50403834D01*
X32193535Y-50415198D01*
X32160812Y-50423395D01*
X32127443Y-50428345D01*
X32093750Y-50430000D01*
X31406250Y-50430000D01*
X31372557Y-50428345D01*
X31339188Y-50423395D01*
X31306465Y-50415198D01*
X31274703Y-50403834D01*
X31244207Y-50389410D01*
X31215273Y-50372068D01*
X31188177Y-50351972D01*
X31163182Y-50329318D01*
X31140528Y-50304323D01*
X31120432Y-50277227D01*
X31103090Y-50248293D01*
X31088666Y-50217797D01*
X31077302Y-50186035D01*
X31069105Y-50153312D01*
X31064155Y-50119943D01*
X31062500Y-50086250D01*
X31062500Y-48973750D01*
X31064155Y-48940057D01*
X31069105Y-48906688D01*
X31077302Y-48873965D01*
X31088666Y-48842203D01*
X31103090Y-48811707D01*
X31120432Y-48782773D01*
X31140528Y-48755677D01*
X31163182Y-48730682D01*
X31188177Y-48708028D01*
X31215273Y-48687932D01*
X31244207Y-48670590D01*
X31274703Y-48656166D01*
X31306465Y-48644802D01*
X31339188Y-48636605D01*
X31372557Y-48631655D01*
X31406250Y-48630000D01*
X32093750Y-48630000D01*
X32127443Y-48631655D01*
X32127443Y-48631655D01*
G37*
D11*
X31750000Y-49530000D03*
D10*
G36*
X30252443Y-48631655D02*
G01*
X30285812Y-48636605D01*
X30318535Y-48644802D01*
X30350297Y-48656166D01*
X30380793Y-48670590D01*
X30409727Y-48687932D01*
X30436823Y-48708028D01*
X30461818Y-48730682D01*
X30484472Y-48755677D01*
X30504568Y-48782773D01*
X30521910Y-48811707D01*
X30536334Y-48842203D01*
X30547698Y-48873965D01*
X30555895Y-48906688D01*
X30560845Y-48940057D01*
X30562500Y-48973750D01*
X30562500Y-50086250D01*
X30560845Y-50119943D01*
X30555895Y-50153312D01*
X30547698Y-50186035D01*
X30536334Y-50217797D01*
X30521910Y-50248293D01*
X30504568Y-50277227D01*
X30484472Y-50304323D01*
X30461818Y-50329318D01*
X30436823Y-50351972D01*
X30409727Y-50372068D01*
X30380793Y-50389410D01*
X30350297Y-50403834D01*
X30318535Y-50415198D01*
X30285812Y-50423395D01*
X30252443Y-50428345D01*
X30218750Y-50430000D01*
X29531250Y-50430000D01*
X29497557Y-50428345D01*
X29464188Y-50423395D01*
X29431465Y-50415198D01*
X29399703Y-50403834D01*
X29369207Y-50389410D01*
X29340273Y-50372068D01*
X29313177Y-50351972D01*
X29288182Y-50329318D01*
X29265528Y-50304323D01*
X29245432Y-50277227D01*
X29228090Y-50248293D01*
X29213666Y-50217797D01*
X29202302Y-50186035D01*
X29194105Y-50153312D01*
X29189155Y-50119943D01*
X29187500Y-50086250D01*
X29187500Y-48973750D01*
X29189155Y-48940057D01*
X29194105Y-48906688D01*
X29202302Y-48873965D01*
X29213666Y-48842203D01*
X29228090Y-48811707D01*
X29245432Y-48782773D01*
X29265528Y-48755677D01*
X29288182Y-48730682D01*
X29313177Y-48708028D01*
X29340273Y-48687932D01*
X29369207Y-48670590D01*
X29399703Y-48656166D01*
X29431465Y-48644802D01*
X29464188Y-48636605D01*
X29497557Y-48631655D01*
X29531250Y-48630000D01*
X30218750Y-48630000D01*
X30252443Y-48631655D01*
X30252443Y-48631655D01*
G37*
D11*
X29875000Y-49530000D03*
D10*
G36*
X30222443Y-52441655D02*
G01*
X30255812Y-52446605D01*
X30288535Y-52454802D01*
X30320297Y-52466166D01*
X30350793Y-52480590D01*
X30379727Y-52497932D01*
X30406823Y-52518028D01*
X30431818Y-52540682D01*
X30454472Y-52565677D01*
X30474568Y-52592773D01*
X30491910Y-52621707D01*
X30506334Y-52652203D01*
X30517698Y-52683965D01*
X30525895Y-52716688D01*
X30530845Y-52750057D01*
X30532500Y-52783750D01*
X30532500Y-53896250D01*
X30530845Y-53929943D01*
X30525895Y-53963312D01*
X30517698Y-53996035D01*
X30506334Y-54027797D01*
X30491910Y-54058293D01*
X30474568Y-54087227D01*
X30454472Y-54114323D01*
X30431818Y-54139318D01*
X30406823Y-54161972D01*
X30379727Y-54182068D01*
X30350793Y-54199410D01*
X30320297Y-54213834D01*
X30288535Y-54225198D01*
X30255812Y-54233395D01*
X30222443Y-54238345D01*
X30188750Y-54240000D01*
X29501250Y-54240000D01*
X29467557Y-54238345D01*
X29434188Y-54233395D01*
X29401465Y-54225198D01*
X29369703Y-54213834D01*
X29339207Y-54199410D01*
X29310273Y-54182068D01*
X29283177Y-54161972D01*
X29258182Y-54139318D01*
X29235528Y-54114323D01*
X29215432Y-54087227D01*
X29198090Y-54058293D01*
X29183666Y-54027797D01*
X29172302Y-53996035D01*
X29164105Y-53963312D01*
X29159155Y-53929943D01*
X29157500Y-53896250D01*
X29157500Y-52783750D01*
X29159155Y-52750057D01*
X29164105Y-52716688D01*
X29172302Y-52683965D01*
X29183666Y-52652203D01*
X29198090Y-52621707D01*
X29215432Y-52592773D01*
X29235528Y-52565677D01*
X29258182Y-52540682D01*
X29283177Y-52518028D01*
X29310273Y-52497932D01*
X29339207Y-52480590D01*
X29369703Y-52466166D01*
X29401465Y-52454802D01*
X29434188Y-52446605D01*
X29467557Y-52441655D01*
X29501250Y-52440000D01*
X30188750Y-52440000D01*
X30222443Y-52441655D01*
X30222443Y-52441655D01*
G37*
D11*
X29845000Y-53340000D03*
D10*
G36*
X32097443Y-52441655D02*
G01*
X32130812Y-52446605D01*
X32163535Y-52454802D01*
X32195297Y-52466166D01*
X32225793Y-52480590D01*
X32254727Y-52497932D01*
X32281823Y-52518028D01*
X32306818Y-52540682D01*
X32329472Y-52565677D01*
X32349568Y-52592773D01*
X32366910Y-52621707D01*
X32381334Y-52652203D01*
X32392698Y-52683965D01*
X32400895Y-52716688D01*
X32405845Y-52750057D01*
X32407500Y-52783750D01*
X32407500Y-53896250D01*
X32405845Y-53929943D01*
X32400895Y-53963312D01*
X32392698Y-53996035D01*
X32381334Y-54027797D01*
X32366910Y-54058293D01*
X32349568Y-54087227D01*
X32329472Y-54114323D01*
X32306818Y-54139318D01*
X32281823Y-54161972D01*
X32254727Y-54182068D01*
X32225793Y-54199410D01*
X32195297Y-54213834D01*
X32163535Y-54225198D01*
X32130812Y-54233395D01*
X32097443Y-54238345D01*
X32063750Y-54240000D01*
X31376250Y-54240000D01*
X31342557Y-54238345D01*
X31309188Y-54233395D01*
X31276465Y-54225198D01*
X31244703Y-54213834D01*
X31214207Y-54199410D01*
X31185273Y-54182068D01*
X31158177Y-54161972D01*
X31133182Y-54139318D01*
X31110528Y-54114323D01*
X31090432Y-54087227D01*
X31073090Y-54058293D01*
X31058666Y-54027797D01*
X31047302Y-53996035D01*
X31039105Y-53963312D01*
X31034155Y-53929943D01*
X31032500Y-53896250D01*
X31032500Y-52783750D01*
X31034155Y-52750057D01*
X31039105Y-52716688D01*
X31047302Y-52683965D01*
X31058666Y-52652203D01*
X31073090Y-52621707D01*
X31090432Y-52592773D01*
X31110528Y-52565677D01*
X31133182Y-52540682D01*
X31158177Y-52518028D01*
X31185273Y-52497932D01*
X31214207Y-52480590D01*
X31244703Y-52466166D01*
X31276465Y-52454802D01*
X31309188Y-52446605D01*
X31342557Y-52441655D01*
X31376250Y-52440000D01*
X32063750Y-52440000D01*
X32097443Y-52441655D01*
X32097443Y-52441655D01*
G37*
D11*
X31720000Y-53340000D03*
D10*
G36*
X31189943Y-61966655D02*
G01*
X31223312Y-61971605D01*
X31256035Y-61979802D01*
X31287797Y-61991166D01*
X31318293Y-62005590D01*
X31347227Y-62022932D01*
X31374323Y-62043028D01*
X31399318Y-62065682D01*
X31421972Y-62090677D01*
X31442068Y-62117773D01*
X31459410Y-62146707D01*
X31473834Y-62177203D01*
X31485198Y-62208965D01*
X31493395Y-62241688D01*
X31498345Y-62275057D01*
X31500000Y-62308750D01*
X31500000Y-63421250D01*
X31498345Y-63454943D01*
X31493395Y-63488312D01*
X31485198Y-63521035D01*
X31473834Y-63552797D01*
X31459410Y-63583293D01*
X31442068Y-63612227D01*
X31421972Y-63639323D01*
X31399318Y-63664318D01*
X31374323Y-63686972D01*
X31347227Y-63707068D01*
X31318293Y-63724410D01*
X31287797Y-63738834D01*
X31256035Y-63750198D01*
X31223312Y-63758395D01*
X31189943Y-63763345D01*
X31156250Y-63765000D01*
X30468750Y-63765000D01*
X30435057Y-63763345D01*
X30401688Y-63758395D01*
X30368965Y-63750198D01*
X30337203Y-63738834D01*
X30306707Y-63724410D01*
X30277773Y-63707068D01*
X30250677Y-63686972D01*
X30225682Y-63664318D01*
X30203028Y-63639323D01*
X30182932Y-63612227D01*
X30165590Y-63583293D01*
X30151166Y-63552797D01*
X30139802Y-63521035D01*
X30131605Y-63488312D01*
X30126655Y-63454943D01*
X30125000Y-63421250D01*
X30125000Y-62308750D01*
X30126655Y-62275057D01*
X30131605Y-62241688D01*
X30139802Y-62208965D01*
X30151166Y-62177203D01*
X30165590Y-62146707D01*
X30182932Y-62117773D01*
X30203028Y-62090677D01*
X30225682Y-62065682D01*
X30250677Y-62043028D01*
X30277773Y-62022932D01*
X30306707Y-62005590D01*
X30337203Y-61991166D01*
X30368965Y-61979802D01*
X30401688Y-61971605D01*
X30435057Y-61966655D01*
X30468750Y-61965000D01*
X31156250Y-61965000D01*
X31189943Y-61966655D01*
X31189943Y-61966655D01*
G37*
D11*
X30812500Y-62865000D03*
D10*
G36*
X33064943Y-61966655D02*
G01*
X33098312Y-61971605D01*
X33131035Y-61979802D01*
X33162797Y-61991166D01*
X33193293Y-62005590D01*
X33222227Y-62022932D01*
X33249323Y-62043028D01*
X33274318Y-62065682D01*
X33296972Y-62090677D01*
X33317068Y-62117773D01*
X33334410Y-62146707D01*
X33348834Y-62177203D01*
X33360198Y-62208965D01*
X33368395Y-62241688D01*
X33373345Y-62275057D01*
X33375000Y-62308750D01*
X33375000Y-63421250D01*
X33373345Y-63454943D01*
X33368395Y-63488312D01*
X33360198Y-63521035D01*
X33348834Y-63552797D01*
X33334410Y-63583293D01*
X33317068Y-63612227D01*
X33296972Y-63639323D01*
X33274318Y-63664318D01*
X33249323Y-63686972D01*
X33222227Y-63707068D01*
X33193293Y-63724410D01*
X33162797Y-63738834D01*
X33131035Y-63750198D01*
X33098312Y-63758395D01*
X33064943Y-63763345D01*
X33031250Y-63765000D01*
X32343750Y-63765000D01*
X32310057Y-63763345D01*
X32276688Y-63758395D01*
X32243965Y-63750198D01*
X32212203Y-63738834D01*
X32181707Y-63724410D01*
X32152773Y-63707068D01*
X32125677Y-63686972D01*
X32100682Y-63664318D01*
X32078028Y-63639323D01*
X32057932Y-63612227D01*
X32040590Y-63583293D01*
X32026166Y-63552797D01*
X32014802Y-63521035D01*
X32006605Y-63488312D01*
X32001655Y-63454943D01*
X32000000Y-63421250D01*
X32000000Y-62308750D01*
X32001655Y-62275057D01*
X32006605Y-62241688D01*
X32014802Y-62208965D01*
X32026166Y-62177203D01*
X32040590Y-62146707D01*
X32057932Y-62117773D01*
X32078028Y-62090677D01*
X32100682Y-62065682D01*
X32125677Y-62043028D01*
X32152773Y-62022932D01*
X32181707Y-62005590D01*
X32212203Y-61991166D01*
X32243965Y-61979802D01*
X32276688Y-61971605D01*
X32310057Y-61966655D01*
X32343750Y-61965000D01*
X33031250Y-61965000D01*
X33064943Y-61966655D01*
X33064943Y-61966655D01*
G37*
D11*
X32687500Y-62865000D03*
D10*
G36*
X32127443Y-56251655D02*
G01*
X32160812Y-56256605D01*
X32193535Y-56264802D01*
X32225297Y-56276166D01*
X32255793Y-56290590D01*
X32284727Y-56307932D01*
X32311823Y-56328028D01*
X32336818Y-56350682D01*
X32359472Y-56375677D01*
X32379568Y-56402773D01*
X32396910Y-56431707D01*
X32411334Y-56462203D01*
X32422698Y-56493965D01*
X32430895Y-56526688D01*
X32435845Y-56560057D01*
X32437500Y-56593750D01*
X32437500Y-57706250D01*
X32435845Y-57739943D01*
X32430895Y-57773312D01*
X32422698Y-57806035D01*
X32411334Y-57837797D01*
X32396910Y-57868293D01*
X32379568Y-57897227D01*
X32359472Y-57924323D01*
X32336818Y-57949318D01*
X32311823Y-57971972D01*
X32284727Y-57992068D01*
X32255793Y-58009410D01*
X32225297Y-58023834D01*
X32193535Y-58035198D01*
X32160812Y-58043395D01*
X32127443Y-58048345D01*
X32093750Y-58050000D01*
X31406250Y-58050000D01*
X31372557Y-58048345D01*
X31339188Y-58043395D01*
X31306465Y-58035198D01*
X31274703Y-58023834D01*
X31244207Y-58009410D01*
X31215273Y-57992068D01*
X31188177Y-57971972D01*
X31163182Y-57949318D01*
X31140528Y-57924323D01*
X31120432Y-57897227D01*
X31103090Y-57868293D01*
X31088666Y-57837797D01*
X31077302Y-57806035D01*
X31069105Y-57773312D01*
X31064155Y-57739943D01*
X31062500Y-57706250D01*
X31062500Y-56593750D01*
X31064155Y-56560057D01*
X31069105Y-56526688D01*
X31077302Y-56493965D01*
X31088666Y-56462203D01*
X31103090Y-56431707D01*
X31120432Y-56402773D01*
X31140528Y-56375677D01*
X31163182Y-56350682D01*
X31188177Y-56328028D01*
X31215273Y-56307932D01*
X31244207Y-56290590D01*
X31274703Y-56276166D01*
X31306465Y-56264802D01*
X31339188Y-56256605D01*
X31372557Y-56251655D01*
X31406250Y-56250000D01*
X32093750Y-56250000D01*
X32127443Y-56251655D01*
X32127443Y-56251655D01*
G37*
D11*
X31750000Y-57150000D03*
D10*
G36*
X30252443Y-56251655D02*
G01*
X30285812Y-56256605D01*
X30318535Y-56264802D01*
X30350297Y-56276166D01*
X30380793Y-56290590D01*
X30409727Y-56307932D01*
X30436823Y-56328028D01*
X30461818Y-56350682D01*
X30484472Y-56375677D01*
X30504568Y-56402773D01*
X30521910Y-56431707D01*
X30536334Y-56462203D01*
X30547698Y-56493965D01*
X30555895Y-56526688D01*
X30560845Y-56560057D01*
X30562500Y-56593750D01*
X30562500Y-57706250D01*
X30560845Y-57739943D01*
X30555895Y-57773312D01*
X30547698Y-57806035D01*
X30536334Y-57837797D01*
X30521910Y-57868293D01*
X30504568Y-57897227D01*
X30484472Y-57924323D01*
X30461818Y-57949318D01*
X30436823Y-57971972D01*
X30409727Y-57992068D01*
X30380793Y-58009410D01*
X30350297Y-58023834D01*
X30318535Y-58035198D01*
X30285812Y-58043395D01*
X30252443Y-58048345D01*
X30218750Y-58050000D01*
X29531250Y-58050000D01*
X29497557Y-58048345D01*
X29464188Y-58043395D01*
X29431465Y-58035198D01*
X29399703Y-58023834D01*
X29369207Y-58009410D01*
X29340273Y-57992068D01*
X29313177Y-57971972D01*
X29288182Y-57949318D01*
X29265528Y-57924323D01*
X29245432Y-57897227D01*
X29228090Y-57868293D01*
X29213666Y-57837797D01*
X29202302Y-57806035D01*
X29194105Y-57773312D01*
X29189155Y-57739943D01*
X29187500Y-57706250D01*
X29187500Y-56593750D01*
X29189155Y-56560057D01*
X29194105Y-56526688D01*
X29202302Y-56493965D01*
X29213666Y-56462203D01*
X29228090Y-56431707D01*
X29245432Y-56402773D01*
X29265528Y-56375677D01*
X29288182Y-56350682D01*
X29313177Y-56328028D01*
X29340273Y-56307932D01*
X29369207Y-56290590D01*
X29399703Y-56276166D01*
X29431465Y-56264802D01*
X29464188Y-56256605D01*
X29497557Y-56251655D01*
X29531250Y-56250000D01*
X30218750Y-56250000D01*
X30252443Y-56251655D01*
X30252443Y-56251655D01*
G37*
D11*
X29875000Y-57150000D03*
D10*
G36*
X30222443Y-58156655D02*
G01*
X30255812Y-58161605D01*
X30288535Y-58169802D01*
X30320297Y-58181166D01*
X30350793Y-58195590D01*
X30379727Y-58212932D01*
X30406823Y-58233028D01*
X30431818Y-58255682D01*
X30454472Y-58280677D01*
X30474568Y-58307773D01*
X30491910Y-58336707D01*
X30506334Y-58367203D01*
X30517698Y-58398965D01*
X30525895Y-58431688D01*
X30530845Y-58465057D01*
X30532500Y-58498750D01*
X30532500Y-59611250D01*
X30530845Y-59644943D01*
X30525895Y-59678312D01*
X30517698Y-59711035D01*
X30506334Y-59742797D01*
X30491910Y-59773293D01*
X30474568Y-59802227D01*
X30454472Y-59829323D01*
X30431818Y-59854318D01*
X30406823Y-59876972D01*
X30379727Y-59897068D01*
X30350793Y-59914410D01*
X30320297Y-59928834D01*
X30288535Y-59940198D01*
X30255812Y-59948395D01*
X30222443Y-59953345D01*
X30188750Y-59955000D01*
X29501250Y-59955000D01*
X29467557Y-59953345D01*
X29434188Y-59948395D01*
X29401465Y-59940198D01*
X29369703Y-59928834D01*
X29339207Y-59914410D01*
X29310273Y-59897068D01*
X29283177Y-59876972D01*
X29258182Y-59854318D01*
X29235528Y-59829323D01*
X29215432Y-59802227D01*
X29198090Y-59773293D01*
X29183666Y-59742797D01*
X29172302Y-59711035D01*
X29164105Y-59678312D01*
X29159155Y-59644943D01*
X29157500Y-59611250D01*
X29157500Y-58498750D01*
X29159155Y-58465057D01*
X29164105Y-58431688D01*
X29172302Y-58398965D01*
X29183666Y-58367203D01*
X29198090Y-58336707D01*
X29215432Y-58307773D01*
X29235528Y-58280677D01*
X29258182Y-58255682D01*
X29283177Y-58233028D01*
X29310273Y-58212932D01*
X29339207Y-58195590D01*
X29369703Y-58181166D01*
X29401465Y-58169802D01*
X29434188Y-58161605D01*
X29467557Y-58156655D01*
X29501250Y-58155000D01*
X30188750Y-58155000D01*
X30222443Y-58156655D01*
X30222443Y-58156655D01*
G37*
D11*
X29845000Y-59055000D03*
D10*
G36*
X32097443Y-58156655D02*
G01*
X32130812Y-58161605D01*
X32163535Y-58169802D01*
X32195297Y-58181166D01*
X32225793Y-58195590D01*
X32254727Y-58212932D01*
X32281823Y-58233028D01*
X32306818Y-58255682D01*
X32329472Y-58280677D01*
X32349568Y-58307773D01*
X32366910Y-58336707D01*
X32381334Y-58367203D01*
X32392698Y-58398965D01*
X32400895Y-58431688D01*
X32405845Y-58465057D01*
X32407500Y-58498750D01*
X32407500Y-59611250D01*
X32405845Y-59644943D01*
X32400895Y-59678312D01*
X32392698Y-59711035D01*
X32381334Y-59742797D01*
X32366910Y-59773293D01*
X32349568Y-59802227D01*
X32329472Y-59829323D01*
X32306818Y-59854318D01*
X32281823Y-59876972D01*
X32254727Y-59897068D01*
X32225793Y-59914410D01*
X32195297Y-59928834D01*
X32163535Y-59940198D01*
X32130812Y-59948395D01*
X32097443Y-59953345D01*
X32063750Y-59955000D01*
X31376250Y-59955000D01*
X31342557Y-59953345D01*
X31309188Y-59948395D01*
X31276465Y-59940198D01*
X31244703Y-59928834D01*
X31214207Y-59914410D01*
X31185273Y-59897068D01*
X31158177Y-59876972D01*
X31133182Y-59854318D01*
X31110528Y-59829323D01*
X31090432Y-59802227D01*
X31073090Y-59773293D01*
X31058666Y-59742797D01*
X31047302Y-59711035D01*
X31039105Y-59678312D01*
X31034155Y-59644943D01*
X31032500Y-59611250D01*
X31032500Y-58498750D01*
X31034155Y-58465057D01*
X31039105Y-58431688D01*
X31047302Y-58398965D01*
X31058666Y-58367203D01*
X31073090Y-58336707D01*
X31090432Y-58307773D01*
X31110528Y-58280677D01*
X31133182Y-58255682D01*
X31158177Y-58233028D01*
X31185273Y-58212932D01*
X31214207Y-58195590D01*
X31244703Y-58181166D01*
X31276465Y-58169802D01*
X31309188Y-58161605D01*
X31342557Y-58156655D01*
X31376250Y-58155000D01*
X32063750Y-58155000D01*
X32097443Y-58156655D01*
X32097443Y-58156655D01*
G37*
D11*
X31720000Y-59055000D03*
D10*
G36*
X30252443Y-60061655D02*
G01*
X30285812Y-60066605D01*
X30318535Y-60074802D01*
X30350297Y-60086166D01*
X30380793Y-60100590D01*
X30409727Y-60117932D01*
X30436823Y-60138028D01*
X30461818Y-60160682D01*
X30484472Y-60185677D01*
X30504568Y-60212773D01*
X30521910Y-60241707D01*
X30536334Y-60272203D01*
X30547698Y-60303965D01*
X30555895Y-60336688D01*
X30560845Y-60370057D01*
X30562500Y-60403750D01*
X30562500Y-61516250D01*
X30560845Y-61549943D01*
X30555895Y-61583312D01*
X30547698Y-61616035D01*
X30536334Y-61647797D01*
X30521910Y-61678293D01*
X30504568Y-61707227D01*
X30484472Y-61734323D01*
X30461818Y-61759318D01*
X30436823Y-61781972D01*
X30409727Y-61802068D01*
X30380793Y-61819410D01*
X30350297Y-61833834D01*
X30318535Y-61845198D01*
X30285812Y-61853395D01*
X30252443Y-61858345D01*
X30218750Y-61860000D01*
X29531250Y-61860000D01*
X29497557Y-61858345D01*
X29464188Y-61853395D01*
X29431465Y-61845198D01*
X29399703Y-61833834D01*
X29369207Y-61819410D01*
X29340273Y-61802068D01*
X29313177Y-61781972D01*
X29288182Y-61759318D01*
X29265528Y-61734323D01*
X29245432Y-61707227D01*
X29228090Y-61678293D01*
X29213666Y-61647797D01*
X29202302Y-61616035D01*
X29194105Y-61583312D01*
X29189155Y-61549943D01*
X29187500Y-61516250D01*
X29187500Y-60403750D01*
X29189155Y-60370057D01*
X29194105Y-60336688D01*
X29202302Y-60303965D01*
X29213666Y-60272203D01*
X29228090Y-60241707D01*
X29245432Y-60212773D01*
X29265528Y-60185677D01*
X29288182Y-60160682D01*
X29313177Y-60138028D01*
X29340273Y-60117932D01*
X29369207Y-60100590D01*
X29399703Y-60086166D01*
X29431465Y-60074802D01*
X29464188Y-60066605D01*
X29497557Y-60061655D01*
X29531250Y-60060000D01*
X30218750Y-60060000D01*
X30252443Y-60061655D01*
X30252443Y-60061655D01*
G37*
D11*
X29875000Y-60960000D03*
D10*
G36*
X32127443Y-60061655D02*
G01*
X32160812Y-60066605D01*
X32193535Y-60074802D01*
X32225297Y-60086166D01*
X32255793Y-60100590D01*
X32284727Y-60117932D01*
X32311823Y-60138028D01*
X32336818Y-60160682D01*
X32359472Y-60185677D01*
X32379568Y-60212773D01*
X32396910Y-60241707D01*
X32411334Y-60272203D01*
X32422698Y-60303965D01*
X32430895Y-60336688D01*
X32435845Y-60370057D01*
X32437500Y-60403750D01*
X32437500Y-61516250D01*
X32435845Y-61549943D01*
X32430895Y-61583312D01*
X32422698Y-61616035D01*
X32411334Y-61647797D01*
X32396910Y-61678293D01*
X32379568Y-61707227D01*
X32359472Y-61734323D01*
X32336818Y-61759318D01*
X32311823Y-61781972D01*
X32284727Y-61802068D01*
X32255793Y-61819410D01*
X32225297Y-61833834D01*
X32193535Y-61845198D01*
X32160812Y-61853395D01*
X32127443Y-61858345D01*
X32093750Y-61860000D01*
X31406250Y-61860000D01*
X31372557Y-61858345D01*
X31339188Y-61853395D01*
X31306465Y-61845198D01*
X31274703Y-61833834D01*
X31244207Y-61819410D01*
X31215273Y-61802068D01*
X31188177Y-61781972D01*
X31163182Y-61759318D01*
X31140528Y-61734323D01*
X31120432Y-61707227D01*
X31103090Y-61678293D01*
X31088666Y-61647797D01*
X31077302Y-61616035D01*
X31069105Y-61583312D01*
X31064155Y-61549943D01*
X31062500Y-61516250D01*
X31062500Y-60403750D01*
X31064155Y-60370057D01*
X31069105Y-60336688D01*
X31077302Y-60303965D01*
X31088666Y-60272203D01*
X31103090Y-60241707D01*
X31120432Y-60212773D01*
X31140528Y-60185677D01*
X31163182Y-60160682D01*
X31188177Y-60138028D01*
X31215273Y-60117932D01*
X31244207Y-60100590D01*
X31274703Y-60086166D01*
X31306465Y-60074802D01*
X31339188Y-60066605D01*
X31372557Y-60061655D01*
X31406250Y-60060000D01*
X32093750Y-60060000D01*
X32127443Y-60061655D01*
X32127443Y-60061655D01*
G37*
D11*
X31750000Y-60960000D03*
D16*
X26543000Y-69342000D03*
X38735000Y-41656000D03*
D17*
X36195000Y-68580000D03*
X33655000Y-68580000D03*
D18*
X31115000Y-68580000D03*
D17*
X27305000Y-58420000D03*
X27305000Y-55880000D03*
D18*
X27305000Y-53340000D03*
D19*
X39370000Y-62230000D03*
X35370000Y-62230000D03*
D10*
G36*
X47073130Y-67073505D02*
G01*
X47103466Y-67078005D01*
X47133214Y-67085456D01*
X47162089Y-67095788D01*
X47189811Y-67108900D01*
X47216116Y-67124666D01*
X47240748Y-67142934D01*
X47263471Y-67163529D01*
X47284066Y-67186252D01*
X47302334Y-67210884D01*
X47318100Y-67237189D01*
X47331212Y-67264911D01*
X47341544Y-67293786D01*
X47348995Y-67323534D01*
X47353495Y-67353870D01*
X47355000Y-67384500D01*
X47355000Y-68759500D01*
X47353495Y-68790130D01*
X47348995Y-68820466D01*
X47341544Y-68850214D01*
X47331212Y-68879089D01*
X47318100Y-68906811D01*
X47302334Y-68933116D01*
X47284066Y-68957748D01*
X47263471Y-68980471D01*
X47240748Y-69001066D01*
X47216116Y-69019334D01*
X47189811Y-69035100D01*
X47162089Y-69048212D01*
X47133214Y-69058544D01*
X47103466Y-69065995D01*
X47073130Y-69070495D01*
X47042500Y-69072000D01*
X43767500Y-69072000D01*
X43736870Y-69070495D01*
X43706534Y-69065995D01*
X43676786Y-69058544D01*
X43647911Y-69048212D01*
X43620189Y-69035100D01*
X43593884Y-69019334D01*
X43569252Y-69001066D01*
X43546529Y-68980471D01*
X43525934Y-68957748D01*
X43507666Y-68933116D01*
X43491900Y-68906811D01*
X43478788Y-68879089D01*
X43468456Y-68850214D01*
X43461005Y-68820466D01*
X43456505Y-68790130D01*
X43455000Y-68759500D01*
X43455000Y-67384500D01*
X43456505Y-67353870D01*
X43461005Y-67323534D01*
X43468456Y-67293786D01*
X43478788Y-67264911D01*
X43491900Y-67237189D01*
X43507666Y-67210884D01*
X43525934Y-67186252D01*
X43546529Y-67163529D01*
X43569252Y-67142934D01*
X43593884Y-67124666D01*
X43620189Y-67108900D01*
X43647911Y-67095788D01*
X43676786Y-67085456D01*
X43706534Y-67078005D01*
X43736870Y-67073505D01*
X43767500Y-67072000D01*
X47042500Y-67072000D01*
X47073130Y-67073505D01*
X47073130Y-67073505D01*
G37*
D20*
X45405000Y-68072000D03*
D10*
G36*
X41673130Y-67073505D02*
G01*
X41703466Y-67078005D01*
X41733214Y-67085456D01*
X41762089Y-67095788D01*
X41789811Y-67108900D01*
X41816116Y-67124666D01*
X41840748Y-67142934D01*
X41863471Y-67163529D01*
X41884066Y-67186252D01*
X41902334Y-67210884D01*
X41918100Y-67237189D01*
X41931212Y-67264911D01*
X41941544Y-67293786D01*
X41948995Y-67323534D01*
X41953495Y-67353870D01*
X41955000Y-67384500D01*
X41955000Y-68759500D01*
X41953495Y-68790130D01*
X41948995Y-68820466D01*
X41941544Y-68850214D01*
X41931212Y-68879089D01*
X41918100Y-68906811D01*
X41902334Y-68933116D01*
X41884066Y-68957748D01*
X41863471Y-68980471D01*
X41840748Y-69001066D01*
X41816116Y-69019334D01*
X41789811Y-69035100D01*
X41762089Y-69048212D01*
X41733214Y-69058544D01*
X41703466Y-69065995D01*
X41673130Y-69070495D01*
X41642500Y-69072000D01*
X38367500Y-69072000D01*
X38336870Y-69070495D01*
X38306534Y-69065995D01*
X38276786Y-69058544D01*
X38247911Y-69048212D01*
X38220189Y-69035100D01*
X38193884Y-69019334D01*
X38169252Y-69001066D01*
X38146529Y-68980471D01*
X38125934Y-68957748D01*
X38107666Y-68933116D01*
X38091900Y-68906811D01*
X38078788Y-68879089D01*
X38068456Y-68850214D01*
X38061005Y-68820466D01*
X38056505Y-68790130D01*
X38055000Y-68759500D01*
X38055000Y-67384500D01*
X38056505Y-67353870D01*
X38061005Y-67323534D01*
X38068456Y-67293786D01*
X38078788Y-67264911D01*
X38091900Y-67237189D01*
X38107666Y-67210884D01*
X38125934Y-67186252D01*
X38146529Y-67163529D01*
X38169252Y-67142934D01*
X38193884Y-67124666D01*
X38220189Y-67108900D01*
X38247911Y-67095788D01*
X38276786Y-67085456D01*
X38306534Y-67078005D01*
X38336870Y-67073505D01*
X38367500Y-67072000D01*
X41642500Y-67072000D01*
X41673130Y-67073505D01*
X41673130Y-67073505D01*
G37*
D20*
X40005000Y-68072000D03*
D10*
G36*
X33418130Y-43451505D02*
G01*
X33448466Y-43456005D01*
X33478214Y-43463456D01*
X33507089Y-43473788D01*
X33534811Y-43486900D01*
X33561116Y-43502666D01*
X33585748Y-43520934D01*
X33608471Y-43541529D01*
X33629066Y-43564252D01*
X33647334Y-43588884D01*
X33663100Y-43615189D01*
X33676212Y-43642911D01*
X33686544Y-43671786D01*
X33693995Y-43701534D01*
X33698495Y-43731870D01*
X33700000Y-43762500D01*
X33700000Y-45137500D01*
X33698495Y-45168130D01*
X33693995Y-45198466D01*
X33686544Y-45228214D01*
X33676212Y-45257089D01*
X33663100Y-45284811D01*
X33647334Y-45311116D01*
X33629066Y-45335748D01*
X33608471Y-45358471D01*
X33585748Y-45379066D01*
X33561116Y-45397334D01*
X33534811Y-45413100D01*
X33507089Y-45426212D01*
X33478214Y-45436544D01*
X33448466Y-45443995D01*
X33418130Y-45448495D01*
X33387500Y-45450000D01*
X30112500Y-45450000D01*
X30081870Y-45448495D01*
X30051534Y-45443995D01*
X30021786Y-45436544D01*
X29992911Y-45426212D01*
X29965189Y-45413100D01*
X29938884Y-45397334D01*
X29914252Y-45379066D01*
X29891529Y-45358471D01*
X29870934Y-45335748D01*
X29852666Y-45311116D01*
X29836900Y-45284811D01*
X29823788Y-45257089D01*
X29813456Y-45228214D01*
X29806005Y-45198466D01*
X29801505Y-45168130D01*
X29800000Y-45137500D01*
X29800000Y-43762500D01*
X29801505Y-43731870D01*
X29806005Y-43701534D01*
X29813456Y-43671786D01*
X29823788Y-43642911D01*
X29836900Y-43615189D01*
X29852666Y-43588884D01*
X29870934Y-43564252D01*
X29891529Y-43541529D01*
X29914252Y-43520934D01*
X29938884Y-43502666D01*
X29965189Y-43486900D01*
X29992911Y-43473788D01*
X30021786Y-43463456D01*
X30051534Y-43456005D01*
X30081870Y-43451505D01*
X30112500Y-43450000D01*
X33387500Y-43450000D01*
X33418130Y-43451505D01*
X33418130Y-43451505D01*
G37*
D20*
X31750000Y-44450000D03*
D10*
G36*
X28018130Y-43451505D02*
G01*
X28048466Y-43456005D01*
X28078214Y-43463456D01*
X28107089Y-43473788D01*
X28134811Y-43486900D01*
X28161116Y-43502666D01*
X28185748Y-43520934D01*
X28208471Y-43541529D01*
X28229066Y-43564252D01*
X28247334Y-43588884D01*
X28263100Y-43615189D01*
X28276212Y-43642911D01*
X28286544Y-43671786D01*
X28293995Y-43701534D01*
X28298495Y-43731870D01*
X28300000Y-43762500D01*
X28300000Y-45137500D01*
X28298495Y-45168130D01*
X28293995Y-45198466D01*
X28286544Y-45228214D01*
X28276212Y-45257089D01*
X28263100Y-45284811D01*
X28247334Y-45311116D01*
X28229066Y-45335748D01*
X28208471Y-45358471D01*
X28185748Y-45379066D01*
X28161116Y-45397334D01*
X28134811Y-45413100D01*
X28107089Y-45426212D01*
X28078214Y-45436544D01*
X28048466Y-45443995D01*
X28018130Y-45448495D01*
X27987500Y-45450000D01*
X24712500Y-45450000D01*
X24681870Y-45448495D01*
X24651534Y-45443995D01*
X24621786Y-45436544D01*
X24592911Y-45426212D01*
X24565189Y-45413100D01*
X24538884Y-45397334D01*
X24514252Y-45379066D01*
X24491529Y-45358471D01*
X24470934Y-45335748D01*
X24452666Y-45311116D01*
X24436900Y-45284811D01*
X24423788Y-45257089D01*
X24413456Y-45228214D01*
X24406005Y-45198466D01*
X24401505Y-45168130D01*
X24400000Y-45137500D01*
X24400000Y-43762500D01*
X24401505Y-43731870D01*
X24406005Y-43701534D01*
X24413456Y-43671786D01*
X24423788Y-43642911D01*
X24436900Y-43615189D01*
X24452666Y-43588884D01*
X24470934Y-43564252D01*
X24491529Y-43541529D01*
X24514252Y-43520934D01*
X24538884Y-43502666D01*
X24565189Y-43486900D01*
X24592911Y-43473788D01*
X24621786Y-43463456D01*
X24651534Y-43456005D01*
X24681870Y-43451505D01*
X24712500Y-43450000D01*
X27987500Y-43450000D01*
X28018130Y-43451505D01*
X28018130Y-43451505D01*
G37*
D20*
X26350000Y-44450000D03*
D10*
G36*
X47073130Y-40911505D02*
G01*
X47103466Y-40916005D01*
X47133214Y-40923456D01*
X47162089Y-40933788D01*
X47189811Y-40946900D01*
X47216116Y-40962666D01*
X47240748Y-40980934D01*
X47263471Y-41001529D01*
X47284066Y-41024252D01*
X47302334Y-41048884D01*
X47318100Y-41075189D01*
X47331212Y-41102911D01*
X47341544Y-41131786D01*
X47348995Y-41161534D01*
X47353495Y-41191870D01*
X47355000Y-41222500D01*
X47355000Y-44497500D01*
X47353495Y-44528130D01*
X47348995Y-44558466D01*
X47341544Y-44588214D01*
X47331212Y-44617089D01*
X47318100Y-44644811D01*
X47302334Y-44671116D01*
X47284066Y-44695748D01*
X47263471Y-44718471D01*
X47240748Y-44739066D01*
X47216116Y-44757334D01*
X47189811Y-44773100D01*
X47162089Y-44786212D01*
X47133214Y-44796544D01*
X47103466Y-44803995D01*
X47073130Y-44808495D01*
X47042500Y-44810000D01*
X45667500Y-44810000D01*
X45636870Y-44808495D01*
X45606534Y-44803995D01*
X45576786Y-44796544D01*
X45547911Y-44786212D01*
X45520189Y-44773100D01*
X45493884Y-44757334D01*
X45469252Y-44739066D01*
X45446529Y-44718471D01*
X45425934Y-44695748D01*
X45407666Y-44671116D01*
X45391900Y-44644811D01*
X45378788Y-44617089D01*
X45368456Y-44588214D01*
X45361005Y-44558466D01*
X45356505Y-44528130D01*
X45355000Y-44497500D01*
X45355000Y-41222500D01*
X45356505Y-41191870D01*
X45361005Y-41161534D01*
X45368456Y-41131786D01*
X45378788Y-41102911D01*
X45391900Y-41075189D01*
X45407666Y-41048884D01*
X45425934Y-41024252D01*
X45446529Y-41001529D01*
X45469252Y-40980934D01*
X45493884Y-40962666D01*
X45520189Y-40946900D01*
X45547911Y-40933788D01*
X45576786Y-40923456D01*
X45606534Y-40916005D01*
X45636870Y-40911505D01*
X45667500Y-40910000D01*
X47042500Y-40910000D01*
X47073130Y-40911505D01*
X47073130Y-40911505D01*
G37*
D20*
X46355000Y-42860000D03*
D10*
G36*
X47073130Y-46311505D02*
G01*
X47103466Y-46316005D01*
X47133214Y-46323456D01*
X47162089Y-46333788D01*
X47189811Y-46346900D01*
X47216116Y-46362666D01*
X47240748Y-46380934D01*
X47263471Y-46401529D01*
X47284066Y-46424252D01*
X47302334Y-46448884D01*
X47318100Y-46475189D01*
X47331212Y-46502911D01*
X47341544Y-46531786D01*
X47348995Y-46561534D01*
X47353495Y-46591870D01*
X47355000Y-46622500D01*
X47355000Y-49897500D01*
X47353495Y-49928130D01*
X47348995Y-49958466D01*
X47341544Y-49988214D01*
X47331212Y-50017089D01*
X47318100Y-50044811D01*
X47302334Y-50071116D01*
X47284066Y-50095748D01*
X47263471Y-50118471D01*
X47240748Y-50139066D01*
X47216116Y-50157334D01*
X47189811Y-50173100D01*
X47162089Y-50186212D01*
X47133214Y-50196544D01*
X47103466Y-50203995D01*
X47073130Y-50208495D01*
X47042500Y-50210000D01*
X45667500Y-50210000D01*
X45636870Y-50208495D01*
X45606534Y-50203995D01*
X45576786Y-50196544D01*
X45547911Y-50186212D01*
X45520189Y-50173100D01*
X45493884Y-50157334D01*
X45469252Y-50139066D01*
X45446529Y-50118471D01*
X45425934Y-50095748D01*
X45407666Y-50071116D01*
X45391900Y-50044811D01*
X45378788Y-50017089D01*
X45368456Y-49988214D01*
X45361005Y-49958466D01*
X45356505Y-49928130D01*
X45355000Y-49897500D01*
X45355000Y-46622500D01*
X45356505Y-46591870D01*
X45361005Y-46561534D01*
X45368456Y-46531786D01*
X45378788Y-46502911D01*
X45391900Y-46475189D01*
X45407666Y-46448884D01*
X45425934Y-46424252D01*
X45446529Y-46401529D01*
X45469252Y-46380934D01*
X45493884Y-46362666D01*
X45520189Y-46346900D01*
X45547911Y-46333788D01*
X45576786Y-46323456D01*
X45606534Y-46316005D01*
X45636870Y-46311505D01*
X45667500Y-46310000D01*
X47042500Y-46310000D01*
X47073130Y-46311505D01*
X47073130Y-46311505D01*
G37*
D20*
X46355000Y-48260000D03*
D10*
G36*
X40352443Y-49266655D02*
G01*
X40385812Y-49271605D01*
X40418535Y-49279802D01*
X40450297Y-49291166D01*
X40480793Y-49305590D01*
X40509727Y-49322932D01*
X40536823Y-49343028D01*
X40561818Y-49365682D01*
X40584472Y-49390677D01*
X40604568Y-49417773D01*
X40621910Y-49446707D01*
X40636334Y-49477203D01*
X40647698Y-49508965D01*
X40655895Y-49541688D01*
X40660845Y-49575057D01*
X40662500Y-49608750D01*
X40662500Y-50721250D01*
X40660845Y-50754943D01*
X40655895Y-50788312D01*
X40647698Y-50821035D01*
X40636334Y-50852797D01*
X40621910Y-50883293D01*
X40604568Y-50912227D01*
X40584472Y-50939323D01*
X40561818Y-50964318D01*
X40536823Y-50986972D01*
X40509727Y-51007068D01*
X40480793Y-51024410D01*
X40450297Y-51038834D01*
X40418535Y-51050198D01*
X40385812Y-51058395D01*
X40352443Y-51063345D01*
X40318750Y-51065000D01*
X39631250Y-51065000D01*
X39597557Y-51063345D01*
X39564188Y-51058395D01*
X39531465Y-51050198D01*
X39499703Y-51038834D01*
X39469207Y-51024410D01*
X39440273Y-51007068D01*
X39413177Y-50986972D01*
X39388182Y-50964318D01*
X39365528Y-50939323D01*
X39345432Y-50912227D01*
X39328090Y-50883293D01*
X39313666Y-50852797D01*
X39302302Y-50821035D01*
X39294105Y-50788312D01*
X39289155Y-50754943D01*
X39287500Y-50721250D01*
X39287500Y-49608750D01*
X39289155Y-49575057D01*
X39294105Y-49541688D01*
X39302302Y-49508965D01*
X39313666Y-49477203D01*
X39328090Y-49446707D01*
X39345432Y-49417773D01*
X39365528Y-49390677D01*
X39388182Y-49365682D01*
X39413177Y-49343028D01*
X39440273Y-49322932D01*
X39469207Y-49305590D01*
X39499703Y-49291166D01*
X39531465Y-49279802D01*
X39564188Y-49271605D01*
X39597557Y-49266655D01*
X39631250Y-49265000D01*
X40318750Y-49265000D01*
X40352443Y-49266655D01*
X40352443Y-49266655D01*
G37*
D11*
X39975000Y-50165000D03*
D10*
G36*
X38477443Y-49266655D02*
G01*
X38510812Y-49271605D01*
X38543535Y-49279802D01*
X38575297Y-49291166D01*
X38605793Y-49305590D01*
X38634727Y-49322932D01*
X38661823Y-49343028D01*
X38686818Y-49365682D01*
X38709472Y-49390677D01*
X38729568Y-49417773D01*
X38746910Y-49446707D01*
X38761334Y-49477203D01*
X38772698Y-49508965D01*
X38780895Y-49541688D01*
X38785845Y-49575057D01*
X38787500Y-49608750D01*
X38787500Y-50721250D01*
X38785845Y-50754943D01*
X38780895Y-50788312D01*
X38772698Y-50821035D01*
X38761334Y-50852797D01*
X38746910Y-50883293D01*
X38729568Y-50912227D01*
X38709472Y-50939323D01*
X38686818Y-50964318D01*
X38661823Y-50986972D01*
X38634727Y-51007068D01*
X38605793Y-51024410D01*
X38575297Y-51038834D01*
X38543535Y-51050198D01*
X38510812Y-51058395D01*
X38477443Y-51063345D01*
X38443750Y-51065000D01*
X37756250Y-51065000D01*
X37722557Y-51063345D01*
X37689188Y-51058395D01*
X37656465Y-51050198D01*
X37624703Y-51038834D01*
X37594207Y-51024410D01*
X37565273Y-51007068D01*
X37538177Y-50986972D01*
X37513182Y-50964318D01*
X37490528Y-50939323D01*
X37470432Y-50912227D01*
X37453090Y-50883293D01*
X37438666Y-50852797D01*
X37427302Y-50821035D01*
X37419105Y-50788312D01*
X37414155Y-50754943D01*
X37412500Y-50721250D01*
X37412500Y-49608750D01*
X37414155Y-49575057D01*
X37419105Y-49541688D01*
X37427302Y-49508965D01*
X37438666Y-49477203D01*
X37453090Y-49446707D01*
X37470432Y-49417773D01*
X37490528Y-49390677D01*
X37513182Y-49365682D01*
X37538177Y-49343028D01*
X37565273Y-49322932D01*
X37594207Y-49305590D01*
X37624703Y-49291166D01*
X37656465Y-49279802D01*
X37689188Y-49271605D01*
X37722557Y-49266655D01*
X37756250Y-49265000D01*
X38443750Y-49265000D01*
X38477443Y-49266655D01*
X38477443Y-49266655D01*
G37*
D11*
X38100000Y-50165000D03*
D10*
G36*
X44162443Y-54981655D02*
G01*
X44195812Y-54986605D01*
X44228535Y-54994802D01*
X44260297Y-55006166D01*
X44290793Y-55020590D01*
X44319727Y-55037932D01*
X44346823Y-55058028D01*
X44371818Y-55080682D01*
X44394472Y-55105677D01*
X44414568Y-55132773D01*
X44431910Y-55161707D01*
X44446334Y-55192203D01*
X44457698Y-55223965D01*
X44465895Y-55256688D01*
X44470845Y-55290057D01*
X44472500Y-55323750D01*
X44472500Y-56436250D01*
X44470845Y-56469943D01*
X44465895Y-56503312D01*
X44457698Y-56536035D01*
X44446334Y-56567797D01*
X44431910Y-56598293D01*
X44414568Y-56627227D01*
X44394472Y-56654323D01*
X44371818Y-56679318D01*
X44346823Y-56701972D01*
X44319727Y-56722068D01*
X44290793Y-56739410D01*
X44260297Y-56753834D01*
X44228535Y-56765198D01*
X44195812Y-56773395D01*
X44162443Y-56778345D01*
X44128750Y-56780000D01*
X43441250Y-56780000D01*
X43407557Y-56778345D01*
X43374188Y-56773395D01*
X43341465Y-56765198D01*
X43309703Y-56753834D01*
X43279207Y-56739410D01*
X43250273Y-56722068D01*
X43223177Y-56701972D01*
X43198182Y-56679318D01*
X43175528Y-56654323D01*
X43155432Y-56627227D01*
X43138090Y-56598293D01*
X43123666Y-56567797D01*
X43112302Y-56536035D01*
X43104105Y-56503312D01*
X43099155Y-56469943D01*
X43097500Y-56436250D01*
X43097500Y-55323750D01*
X43099155Y-55290057D01*
X43104105Y-55256688D01*
X43112302Y-55223965D01*
X43123666Y-55192203D01*
X43138090Y-55161707D01*
X43155432Y-55132773D01*
X43175528Y-55105677D01*
X43198182Y-55080682D01*
X43223177Y-55058028D01*
X43250273Y-55037932D01*
X43279207Y-55020590D01*
X43309703Y-55006166D01*
X43341465Y-54994802D01*
X43374188Y-54986605D01*
X43407557Y-54981655D01*
X43441250Y-54980000D01*
X44128750Y-54980000D01*
X44162443Y-54981655D01*
X44162443Y-54981655D01*
G37*
D11*
X43785000Y-55880000D03*
D10*
G36*
X42287443Y-54981655D02*
G01*
X42320812Y-54986605D01*
X42353535Y-54994802D01*
X42385297Y-55006166D01*
X42415793Y-55020590D01*
X42444727Y-55037932D01*
X42471823Y-55058028D01*
X42496818Y-55080682D01*
X42519472Y-55105677D01*
X42539568Y-55132773D01*
X42556910Y-55161707D01*
X42571334Y-55192203D01*
X42582698Y-55223965D01*
X42590895Y-55256688D01*
X42595845Y-55290057D01*
X42597500Y-55323750D01*
X42597500Y-56436250D01*
X42595845Y-56469943D01*
X42590895Y-56503312D01*
X42582698Y-56536035D01*
X42571334Y-56567797D01*
X42556910Y-56598293D01*
X42539568Y-56627227D01*
X42519472Y-56654323D01*
X42496818Y-56679318D01*
X42471823Y-56701972D01*
X42444727Y-56722068D01*
X42415793Y-56739410D01*
X42385297Y-56753834D01*
X42353535Y-56765198D01*
X42320812Y-56773395D01*
X42287443Y-56778345D01*
X42253750Y-56780000D01*
X41566250Y-56780000D01*
X41532557Y-56778345D01*
X41499188Y-56773395D01*
X41466465Y-56765198D01*
X41434703Y-56753834D01*
X41404207Y-56739410D01*
X41375273Y-56722068D01*
X41348177Y-56701972D01*
X41323182Y-56679318D01*
X41300528Y-56654323D01*
X41280432Y-56627227D01*
X41263090Y-56598293D01*
X41248666Y-56567797D01*
X41237302Y-56536035D01*
X41229105Y-56503312D01*
X41224155Y-56469943D01*
X41222500Y-56436250D01*
X41222500Y-55323750D01*
X41224155Y-55290057D01*
X41229105Y-55256688D01*
X41237302Y-55223965D01*
X41248666Y-55192203D01*
X41263090Y-55161707D01*
X41280432Y-55132773D01*
X41300528Y-55105677D01*
X41323182Y-55080682D01*
X41348177Y-55058028D01*
X41375273Y-55037932D01*
X41404207Y-55020590D01*
X41434703Y-55006166D01*
X41466465Y-54994802D01*
X41499188Y-54986605D01*
X41532557Y-54981655D01*
X41566250Y-54980000D01*
X42253750Y-54980000D01*
X42287443Y-54981655D01*
X42287443Y-54981655D01*
G37*
D11*
X41910000Y-55880000D03*
D10*
G36*
X30252443Y-50536655D02*
G01*
X30285812Y-50541605D01*
X30318535Y-50549802D01*
X30350297Y-50561166D01*
X30380793Y-50575590D01*
X30409727Y-50592932D01*
X30436823Y-50613028D01*
X30461818Y-50635682D01*
X30484472Y-50660677D01*
X30504568Y-50687773D01*
X30521910Y-50716707D01*
X30536334Y-50747203D01*
X30547698Y-50778965D01*
X30555895Y-50811688D01*
X30560845Y-50845057D01*
X30562500Y-50878750D01*
X30562500Y-51991250D01*
X30560845Y-52024943D01*
X30555895Y-52058312D01*
X30547698Y-52091035D01*
X30536334Y-52122797D01*
X30521910Y-52153293D01*
X30504568Y-52182227D01*
X30484472Y-52209323D01*
X30461818Y-52234318D01*
X30436823Y-52256972D01*
X30409727Y-52277068D01*
X30380793Y-52294410D01*
X30350297Y-52308834D01*
X30318535Y-52320198D01*
X30285812Y-52328395D01*
X30252443Y-52333345D01*
X30218750Y-52335000D01*
X29531250Y-52335000D01*
X29497557Y-52333345D01*
X29464188Y-52328395D01*
X29431465Y-52320198D01*
X29399703Y-52308834D01*
X29369207Y-52294410D01*
X29340273Y-52277068D01*
X29313177Y-52256972D01*
X29288182Y-52234318D01*
X29265528Y-52209323D01*
X29245432Y-52182227D01*
X29228090Y-52153293D01*
X29213666Y-52122797D01*
X29202302Y-52091035D01*
X29194105Y-52058312D01*
X29189155Y-52024943D01*
X29187500Y-51991250D01*
X29187500Y-50878750D01*
X29189155Y-50845057D01*
X29194105Y-50811688D01*
X29202302Y-50778965D01*
X29213666Y-50747203D01*
X29228090Y-50716707D01*
X29245432Y-50687773D01*
X29265528Y-50660677D01*
X29288182Y-50635682D01*
X29313177Y-50613028D01*
X29340273Y-50592932D01*
X29369207Y-50575590D01*
X29399703Y-50561166D01*
X29431465Y-50549802D01*
X29464188Y-50541605D01*
X29497557Y-50536655D01*
X29531250Y-50535000D01*
X30218750Y-50535000D01*
X30252443Y-50536655D01*
X30252443Y-50536655D01*
G37*
D11*
X29875000Y-51435000D03*
D10*
G36*
X32127443Y-50536655D02*
G01*
X32160812Y-50541605D01*
X32193535Y-50549802D01*
X32225297Y-50561166D01*
X32255793Y-50575590D01*
X32284727Y-50592932D01*
X32311823Y-50613028D01*
X32336818Y-50635682D01*
X32359472Y-50660677D01*
X32379568Y-50687773D01*
X32396910Y-50716707D01*
X32411334Y-50747203D01*
X32422698Y-50778965D01*
X32430895Y-50811688D01*
X32435845Y-50845057D01*
X32437500Y-50878750D01*
X32437500Y-51991250D01*
X32435845Y-52024943D01*
X32430895Y-52058312D01*
X32422698Y-52091035D01*
X32411334Y-52122797D01*
X32396910Y-52153293D01*
X32379568Y-52182227D01*
X32359472Y-52209323D01*
X32336818Y-52234318D01*
X32311823Y-52256972D01*
X32284727Y-52277068D01*
X32255793Y-52294410D01*
X32225297Y-52308834D01*
X32193535Y-52320198D01*
X32160812Y-52328395D01*
X32127443Y-52333345D01*
X32093750Y-52335000D01*
X31406250Y-52335000D01*
X31372557Y-52333345D01*
X31339188Y-52328395D01*
X31306465Y-52320198D01*
X31274703Y-52308834D01*
X31244207Y-52294410D01*
X31215273Y-52277068D01*
X31188177Y-52256972D01*
X31163182Y-52234318D01*
X31140528Y-52209323D01*
X31120432Y-52182227D01*
X31103090Y-52153293D01*
X31088666Y-52122797D01*
X31077302Y-52091035D01*
X31069105Y-52058312D01*
X31064155Y-52024943D01*
X31062500Y-51991250D01*
X31062500Y-50878750D01*
X31064155Y-50845057D01*
X31069105Y-50811688D01*
X31077302Y-50778965D01*
X31088666Y-50747203D01*
X31103090Y-50716707D01*
X31120432Y-50687773D01*
X31140528Y-50660677D01*
X31163182Y-50635682D01*
X31188177Y-50613028D01*
X31215273Y-50592932D01*
X31244207Y-50575590D01*
X31274703Y-50561166D01*
X31306465Y-50549802D01*
X31339188Y-50541605D01*
X31372557Y-50536655D01*
X31406250Y-50535000D01*
X32093750Y-50535000D01*
X32127443Y-50536655D01*
X32127443Y-50536655D01*
G37*
D11*
X31750000Y-51435000D03*
D10*
G36*
X32097443Y-63871655D02*
G01*
X32130812Y-63876605D01*
X32163535Y-63884802D01*
X32195297Y-63896166D01*
X32225793Y-63910590D01*
X32254727Y-63927932D01*
X32281823Y-63948028D01*
X32306818Y-63970682D01*
X32329472Y-63995677D01*
X32349568Y-64022773D01*
X32366910Y-64051707D01*
X32381334Y-64082203D01*
X32392698Y-64113965D01*
X32400895Y-64146688D01*
X32405845Y-64180057D01*
X32407500Y-64213750D01*
X32407500Y-65326250D01*
X32405845Y-65359943D01*
X32400895Y-65393312D01*
X32392698Y-65426035D01*
X32381334Y-65457797D01*
X32366910Y-65488293D01*
X32349568Y-65517227D01*
X32329472Y-65544323D01*
X32306818Y-65569318D01*
X32281823Y-65591972D01*
X32254727Y-65612068D01*
X32225793Y-65629410D01*
X32195297Y-65643834D01*
X32163535Y-65655198D01*
X32130812Y-65663395D01*
X32097443Y-65668345D01*
X32063750Y-65670000D01*
X31376250Y-65670000D01*
X31342557Y-65668345D01*
X31309188Y-65663395D01*
X31276465Y-65655198D01*
X31244703Y-65643834D01*
X31214207Y-65629410D01*
X31185273Y-65612068D01*
X31158177Y-65591972D01*
X31133182Y-65569318D01*
X31110528Y-65544323D01*
X31090432Y-65517227D01*
X31073090Y-65488293D01*
X31058666Y-65457797D01*
X31047302Y-65426035D01*
X31039105Y-65393312D01*
X31034155Y-65359943D01*
X31032500Y-65326250D01*
X31032500Y-64213750D01*
X31034155Y-64180057D01*
X31039105Y-64146688D01*
X31047302Y-64113965D01*
X31058666Y-64082203D01*
X31073090Y-64051707D01*
X31090432Y-64022773D01*
X31110528Y-63995677D01*
X31133182Y-63970682D01*
X31158177Y-63948028D01*
X31185273Y-63927932D01*
X31214207Y-63910590D01*
X31244703Y-63896166D01*
X31276465Y-63884802D01*
X31309188Y-63876605D01*
X31342557Y-63871655D01*
X31376250Y-63870000D01*
X32063750Y-63870000D01*
X32097443Y-63871655D01*
X32097443Y-63871655D01*
G37*
D11*
X31720000Y-64770000D03*
D10*
G36*
X30222443Y-63871655D02*
G01*
X30255812Y-63876605D01*
X30288535Y-63884802D01*
X30320297Y-63896166D01*
X30350793Y-63910590D01*
X30379727Y-63927932D01*
X30406823Y-63948028D01*
X30431818Y-63970682D01*
X30454472Y-63995677D01*
X30474568Y-64022773D01*
X30491910Y-64051707D01*
X30506334Y-64082203D01*
X30517698Y-64113965D01*
X30525895Y-64146688D01*
X30530845Y-64180057D01*
X30532500Y-64213750D01*
X30532500Y-65326250D01*
X30530845Y-65359943D01*
X30525895Y-65393312D01*
X30517698Y-65426035D01*
X30506334Y-65457797D01*
X30491910Y-65488293D01*
X30474568Y-65517227D01*
X30454472Y-65544323D01*
X30431818Y-65569318D01*
X30406823Y-65591972D01*
X30379727Y-65612068D01*
X30350793Y-65629410D01*
X30320297Y-65643834D01*
X30288535Y-65655198D01*
X30255812Y-65663395D01*
X30222443Y-65668345D01*
X30188750Y-65670000D01*
X29501250Y-65670000D01*
X29467557Y-65668345D01*
X29434188Y-65663395D01*
X29401465Y-65655198D01*
X29369703Y-65643834D01*
X29339207Y-65629410D01*
X29310273Y-65612068D01*
X29283177Y-65591972D01*
X29258182Y-65569318D01*
X29235528Y-65544323D01*
X29215432Y-65517227D01*
X29198090Y-65488293D01*
X29183666Y-65457797D01*
X29172302Y-65426035D01*
X29164105Y-65393312D01*
X29159155Y-65359943D01*
X29157500Y-65326250D01*
X29157500Y-64213750D01*
X29159155Y-64180057D01*
X29164105Y-64146688D01*
X29172302Y-64113965D01*
X29183666Y-64082203D01*
X29198090Y-64051707D01*
X29215432Y-64022773D01*
X29235528Y-63995677D01*
X29258182Y-63970682D01*
X29283177Y-63948028D01*
X29310273Y-63927932D01*
X29339207Y-63910590D01*
X29369703Y-63896166D01*
X29401465Y-63884802D01*
X29434188Y-63876605D01*
X29467557Y-63871655D01*
X29501250Y-63870000D01*
X30188750Y-63870000D01*
X30222443Y-63871655D01*
X30222443Y-63871655D01*
G37*
D11*
X29845000Y-64770000D03*
M02*
