G04 #@! TF.GenerationSoftware,KiCad,Pcbnew,5.1.2-f72e74a~84~ubuntu18.04.1*
G04 #@! TF.CreationDate,2019-05-28T19:28:17+02:00*
G04 #@! TF.ProjectId,OpenEMG2,4f70656e-454d-4473-922e-6b696361645f,rev?*
G04 #@! TF.SameCoordinates,Original*
G04 #@! TF.FileFunction,Legend,Top*
G04 #@! TF.FilePolarity,Positive*
%FSLAX46Y46*%
G04 Gerber Fmt 4.6, Leading zero omitted, Abs format (unit mm)*
G04 Created by KiCad (PCBNEW 5.1.2-f72e74a~84~ubuntu18.04.1) date 2019-05-28 19:28:17*
%MOMM*%
%LPD*%
G04 APERTURE LIST*
%ADD10C,0.150000*%
%ADD11C,0.010000*%
%ADD12C,0.120000*%
G04 APERTURE END LIST*
D10*
X40568809Y-70937380D02*
X40568809Y-70270714D01*
X40568809Y-70461190D02*
X40616428Y-70365952D01*
X40664047Y-70318333D01*
X40759285Y-70270714D01*
X40854523Y-70270714D01*
X41568809Y-70889761D02*
X41473571Y-70937380D01*
X41283095Y-70937380D01*
X41187857Y-70889761D01*
X41140238Y-70794523D01*
X41140238Y-70413571D01*
X41187857Y-70318333D01*
X41283095Y-70270714D01*
X41473571Y-70270714D01*
X41568809Y-70318333D01*
X41616428Y-70413571D01*
X41616428Y-70508809D01*
X41140238Y-70604047D01*
X41949761Y-70270714D02*
X42187857Y-70937380D01*
X42425952Y-70270714D01*
X42806904Y-70842142D02*
X42854523Y-70889761D01*
X42806904Y-70937380D01*
X42759285Y-70889761D01*
X42806904Y-70842142D01*
X42806904Y-70937380D01*
X44568809Y-70937380D02*
X43997380Y-70937380D01*
X44283095Y-70937380D02*
X44283095Y-69937380D01*
X44187857Y-70080238D01*
X44092619Y-70175476D01*
X43997380Y-70223095D01*
X48474380Y-69500380D02*
X48474380Y-69309904D01*
X48522000Y-69214666D01*
X48617238Y-69119428D01*
X48807714Y-69071809D01*
X49141047Y-69071809D01*
X49331523Y-69119428D01*
X49426761Y-69214666D01*
X49474380Y-69309904D01*
X49474380Y-69500380D01*
X49426761Y-69595619D01*
X49331523Y-69690857D01*
X49141047Y-69738476D01*
X48807714Y-69738476D01*
X48617238Y-69690857D01*
X48522000Y-69595619D01*
X48474380Y-69500380D01*
X48807714Y-68643238D02*
X49807714Y-68643238D01*
X48855333Y-68643238D02*
X48807714Y-68548000D01*
X48807714Y-68357523D01*
X48855333Y-68262285D01*
X48902952Y-68214666D01*
X48998190Y-68167047D01*
X49283904Y-68167047D01*
X49379142Y-68214666D01*
X49426761Y-68262285D01*
X49474380Y-68357523D01*
X49474380Y-68548000D01*
X49426761Y-68643238D01*
X49426761Y-67357523D02*
X49474380Y-67452761D01*
X49474380Y-67643238D01*
X49426761Y-67738476D01*
X49331523Y-67786095D01*
X48950571Y-67786095D01*
X48855333Y-67738476D01*
X48807714Y-67643238D01*
X48807714Y-67452761D01*
X48855333Y-67357523D01*
X48950571Y-67309904D01*
X49045809Y-67309904D01*
X49141047Y-67786095D01*
X48807714Y-66881333D02*
X49474380Y-66881333D01*
X48902952Y-66881333D02*
X48855333Y-66833714D01*
X48807714Y-66738476D01*
X48807714Y-66595619D01*
X48855333Y-66500380D01*
X48950571Y-66452761D01*
X49474380Y-66452761D01*
X48950571Y-65976571D02*
X48950571Y-65643238D01*
X49474380Y-65500380D02*
X49474380Y-65976571D01*
X48474380Y-65976571D01*
X48474380Y-65500380D01*
X49474380Y-65071809D02*
X48474380Y-65071809D01*
X49188666Y-64738476D01*
X48474380Y-64405142D01*
X49474380Y-64405142D01*
X48522000Y-63405142D02*
X48474380Y-63500380D01*
X48474380Y-63643238D01*
X48522000Y-63786095D01*
X48617238Y-63881333D01*
X48712476Y-63928952D01*
X48902952Y-63976571D01*
X49045809Y-63976571D01*
X49236285Y-63928952D01*
X49331523Y-63881333D01*
X49426761Y-63786095D01*
X49474380Y-63643238D01*
X49474380Y-63548000D01*
X49426761Y-63405142D01*
X49379142Y-63357523D01*
X49045809Y-63357523D01*
X49045809Y-63548000D01*
X49299761Y-60483190D02*
X49347380Y-60578428D01*
X49347380Y-60768904D01*
X49299761Y-60864142D01*
X49252142Y-60911761D01*
X49156904Y-60959380D01*
X48871190Y-60959380D01*
X48775952Y-60911761D01*
X48728333Y-60864142D01*
X48680714Y-60768904D01*
X48680714Y-60578428D01*
X48728333Y-60483190D01*
X49347380Y-60054619D02*
X48347380Y-60054619D01*
X49347380Y-59626047D02*
X48823571Y-59626047D01*
X48728333Y-59673666D01*
X48680714Y-59768904D01*
X48680714Y-59911761D01*
X48728333Y-60007000D01*
X48775952Y-60054619D01*
X49347380Y-58721285D02*
X48823571Y-58721285D01*
X48728333Y-58768904D01*
X48680714Y-58864142D01*
X48680714Y-59054619D01*
X48728333Y-59149857D01*
X49299761Y-58721285D02*
X49347380Y-58816523D01*
X49347380Y-59054619D01*
X49299761Y-59149857D01*
X49204523Y-59197476D01*
X49109285Y-59197476D01*
X49014047Y-59149857D01*
X48966428Y-59054619D01*
X48966428Y-58816523D01*
X48918809Y-58721285D01*
X49347380Y-58245095D02*
X48680714Y-58245095D01*
X48871190Y-58245095D02*
X48775952Y-58197476D01*
X48728333Y-58149857D01*
X48680714Y-58054619D01*
X48680714Y-57959380D01*
X49347380Y-57483190D02*
X49299761Y-57578428D01*
X49204523Y-57626047D01*
X48347380Y-57626047D01*
X49299761Y-56721285D02*
X49347380Y-56816523D01*
X49347380Y-57007000D01*
X49299761Y-57102238D01*
X49204523Y-57149857D01*
X48823571Y-57149857D01*
X48728333Y-57102238D01*
X48680714Y-57007000D01*
X48680714Y-56816523D01*
X48728333Y-56721285D01*
X48823571Y-56673666D01*
X48918809Y-56673666D01*
X49014047Y-57149857D01*
X49299761Y-56292714D02*
X49347380Y-56197476D01*
X49347380Y-56007000D01*
X49299761Y-55911761D01*
X49204523Y-55864142D01*
X49156904Y-55864142D01*
X49061666Y-55911761D01*
X49014047Y-56007000D01*
X49014047Y-56149857D01*
X48966428Y-56245095D01*
X48871190Y-56292714D01*
X48823571Y-56292714D01*
X48728333Y-56245095D01*
X48680714Y-56149857D01*
X48680714Y-56007000D01*
X48728333Y-55911761D01*
X49347380Y-55292714D02*
X49299761Y-55387952D01*
X49204523Y-55435571D01*
X48347380Y-55435571D01*
X49347380Y-54483190D02*
X48823571Y-54483190D01*
X48728333Y-54530809D01*
X48680714Y-54626047D01*
X48680714Y-54816523D01*
X48728333Y-54911761D01*
X49299761Y-54483190D02*
X49347380Y-54578428D01*
X49347380Y-54816523D01*
X49299761Y-54911761D01*
X49204523Y-54959380D01*
X49109285Y-54959380D01*
X49014047Y-54911761D01*
X48966428Y-54816523D01*
X48966428Y-54578428D01*
X48918809Y-54483190D01*
X49347380Y-54007000D02*
X48347380Y-54007000D01*
X48728333Y-54007000D02*
X48680714Y-53911761D01*
X48680714Y-53721285D01*
X48728333Y-53626047D01*
X48775952Y-53578428D01*
X48871190Y-53530809D01*
X49156904Y-53530809D01*
X49252142Y-53578428D01*
X49299761Y-53626047D01*
X49347380Y-53721285D01*
X49347380Y-53911761D01*
X49299761Y-54007000D01*
X49299761Y-53149857D02*
X49347380Y-53054619D01*
X49347380Y-52864142D01*
X49299761Y-52768904D01*
X49204523Y-52721285D01*
X49156904Y-52721285D01*
X49061666Y-52768904D01*
X49014047Y-52864142D01*
X49014047Y-53007000D01*
X48966428Y-53102238D01*
X48871190Y-53149857D01*
X48823571Y-53149857D01*
X48728333Y-53102238D01*
X48680714Y-53007000D01*
X48680714Y-52864142D01*
X48728333Y-52768904D01*
X49252142Y-52292714D02*
X49299761Y-52245095D01*
X49347380Y-52292714D01*
X49299761Y-52340333D01*
X49252142Y-52292714D01*
X49347380Y-52292714D01*
X48680714Y-51959380D02*
X48680714Y-51578428D01*
X49347380Y-51816523D02*
X48490238Y-51816523D01*
X48395000Y-51768904D01*
X48347380Y-51673666D01*
X48347380Y-51578428D01*
X49347380Y-51245095D02*
X48680714Y-51245095D01*
X48871190Y-51245095D02*
X48775952Y-51197476D01*
X48728333Y-51149857D01*
X48680714Y-51054619D01*
X48680714Y-50959380D01*
X25471428Y-58348571D02*
X25614285Y-58396190D01*
X25661904Y-58443809D01*
X25709523Y-58539047D01*
X25709523Y-58681904D01*
X25661904Y-58777142D01*
X25614285Y-58824761D01*
X25519047Y-58872380D01*
X25138095Y-58872380D01*
X25138095Y-57872380D01*
X25471428Y-57872380D01*
X25566666Y-57920000D01*
X25614285Y-57967619D01*
X25661904Y-58062857D01*
X25661904Y-58158095D01*
X25614285Y-58253333D01*
X25566666Y-58300952D01*
X25471428Y-58348571D01*
X25138095Y-58348571D01*
X25161904Y-56046666D02*
X25638095Y-56046666D01*
X25066666Y-56332380D02*
X25400000Y-55332380D01*
X25733333Y-56332380D01*
X25114285Y-53792380D02*
X25114285Y-52792380D01*
X25685714Y-53792380D01*
X25685714Y-52792380D01*
X35980714Y-70889761D02*
X36075952Y-70937380D01*
X36266428Y-70937380D01*
X36361666Y-70889761D01*
X36409285Y-70794523D01*
X36409285Y-70746904D01*
X36361666Y-70651666D01*
X36266428Y-70604047D01*
X36123571Y-70604047D01*
X36028333Y-70556428D01*
X35980714Y-70461190D01*
X35980714Y-70413571D01*
X36028333Y-70318333D01*
X36123571Y-70270714D01*
X36266428Y-70270714D01*
X36361666Y-70318333D01*
X33274047Y-70556428D02*
X34035952Y-70556428D01*
X30734047Y-70556428D02*
X31495952Y-70556428D01*
X31115000Y-70937380D02*
X31115000Y-70175476D01*
D11*
G36*
X28295198Y-62666061D02*
G01*
X28334637Y-62667531D01*
X28361754Y-62672524D01*
X28378850Y-62683120D01*
X28388224Y-62701399D01*
X28392178Y-62729442D01*
X28393010Y-62769329D01*
X28392967Y-62803359D01*
X28392967Y-62909718D01*
X28553833Y-63039106D01*
X28553833Y-63292567D01*
X27927300Y-63292567D01*
X27927300Y-63033233D01*
X28003500Y-62972219D01*
X28079700Y-62911206D01*
X28079700Y-62801800D01*
X28079745Y-62754722D01*
X28081367Y-62720000D01*
X28086798Y-62695756D01*
X28098271Y-62680115D01*
X28118017Y-62671199D01*
X28148268Y-62667130D01*
X28191257Y-62666034D01*
X28241138Y-62666034D01*
X28295198Y-62666061D01*
X28295198Y-62666061D01*
G37*
X28295198Y-62666061D02*
X28334637Y-62667531D01*
X28361754Y-62672524D01*
X28378850Y-62683120D01*
X28388224Y-62701399D01*
X28392178Y-62729442D01*
X28393010Y-62769329D01*
X28392967Y-62803359D01*
X28392967Y-62909718D01*
X28553833Y-63039106D01*
X28553833Y-63292567D01*
X27927300Y-63292567D01*
X27927300Y-63033233D01*
X28003500Y-62972219D01*
X28079700Y-62911206D01*
X28079700Y-62801800D01*
X28079745Y-62754722D01*
X28081367Y-62720000D01*
X28086798Y-62695756D01*
X28098271Y-62680115D01*
X28118017Y-62671199D01*
X28148268Y-62667130D01*
X28191257Y-62666034D01*
X28241138Y-62666034D01*
X28295198Y-62666061D01*
G36*
X27519163Y-62666191D02*
G01*
X27559908Y-62667748D01*
X27588247Y-62672847D01*
X27606438Y-62683500D01*
X27616741Y-62701719D01*
X27621416Y-62729516D01*
X27622722Y-62768904D01*
X27622852Y-62807850D01*
X27623204Y-62915800D01*
X27774862Y-63034334D01*
X27774881Y-63163450D01*
X27774900Y-63292567D01*
X27148367Y-63292567D01*
X27148719Y-63163450D01*
X27149071Y-63034334D01*
X27300729Y-62915800D01*
X27300748Y-62815760D01*
X27301720Y-62763156D01*
X27304956Y-62724846D01*
X27310968Y-62698285D01*
X27320268Y-62680924D01*
X27329551Y-62672513D01*
X27340949Y-62670306D01*
X27366027Y-62668425D01*
X27401534Y-62667025D01*
X27444218Y-62666259D01*
X27463750Y-62666163D01*
X27519163Y-62666191D01*
X27519163Y-62666191D01*
G37*
X27519163Y-62666191D02*
X27559908Y-62667748D01*
X27588247Y-62672847D01*
X27606438Y-62683500D01*
X27616741Y-62701719D01*
X27621416Y-62729516D01*
X27622722Y-62768904D01*
X27622852Y-62807850D01*
X27623204Y-62915800D01*
X27774862Y-63034334D01*
X27774881Y-63163450D01*
X27774900Y-63292567D01*
X27148367Y-63292567D01*
X27148719Y-63163450D01*
X27149071Y-63034334D01*
X27300729Y-62915800D01*
X27300748Y-62815760D01*
X27301720Y-62763156D01*
X27304956Y-62724846D01*
X27310968Y-62698285D01*
X27320268Y-62680924D01*
X27329551Y-62672513D01*
X27340949Y-62670306D01*
X27366027Y-62668425D01*
X27401534Y-62667025D01*
X27444218Y-62666259D01*
X27463750Y-62666163D01*
X27519163Y-62666191D01*
G36*
X26683600Y-62666034D02*
G01*
X26739287Y-62666079D01*
X26780292Y-62667485D01*
X26808857Y-62672151D01*
X26827226Y-62681981D01*
X26837639Y-62698877D01*
X26842341Y-62724740D01*
X26843573Y-62761473D01*
X26843567Y-62801711D01*
X26843567Y-62911028D01*
X26924220Y-62975899D01*
X27004874Y-63040769D01*
X27002537Y-63164551D01*
X27000200Y-63288334D01*
X26690564Y-63290553D01*
X26619757Y-63290907D01*
X26554333Y-63290941D01*
X26496214Y-63290674D01*
X26447320Y-63290130D01*
X26409572Y-63289328D01*
X26384891Y-63288292D01*
X26375198Y-63287042D01*
X26375181Y-63287025D01*
X26373125Y-63276921D01*
X26371395Y-63253074D01*
X26370135Y-63218674D01*
X26369488Y-63176911D01*
X26369433Y-63160192D01*
X26369433Y-63039106D01*
X26449867Y-62974412D01*
X26530300Y-62909718D01*
X26530300Y-62801888D01*
X26530332Y-62753716D01*
X26531952Y-62718511D01*
X26537450Y-62694245D01*
X26549116Y-62678889D01*
X26569238Y-62670415D01*
X26600106Y-62666794D01*
X26644008Y-62665998D01*
X26683600Y-62666034D01*
X26683600Y-62666034D01*
G37*
X26683600Y-62666034D02*
X26739287Y-62666079D01*
X26780292Y-62667485D01*
X26808857Y-62672151D01*
X26827226Y-62681981D01*
X26837639Y-62698877D01*
X26842341Y-62724740D01*
X26843573Y-62761473D01*
X26843567Y-62801711D01*
X26843567Y-62911028D01*
X26924220Y-62975899D01*
X27004874Y-63040769D01*
X27002537Y-63164551D01*
X27000200Y-63288334D01*
X26690564Y-63290553D01*
X26619757Y-63290907D01*
X26554333Y-63290941D01*
X26496214Y-63290674D01*
X26447320Y-63290130D01*
X26409572Y-63289328D01*
X26384891Y-63288292D01*
X26375198Y-63287042D01*
X26375181Y-63287025D01*
X26373125Y-63276921D01*
X26371395Y-63253074D01*
X26370135Y-63218674D01*
X26369488Y-63176911D01*
X26369433Y-63160192D01*
X26369433Y-63039106D01*
X26449867Y-62974412D01*
X26530300Y-62909718D01*
X26530300Y-62801888D01*
X26530332Y-62753716D01*
X26531952Y-62718511D01*
X26537450Y-62694245D01*
X26549116Y-62678889D01*
X26569238Y-62670415D01*
X26600106Y-62666794D01*
X26644008Y-62665998D01*
X26683600Y-62666034D01*
G36*
X26055552Y-62688342D02*
G01*
X26063086Y-62699679D01*
X26068118Y-62713261D01*
X26071139Y-62732572D01*
X26072638Y-62761094D01*
X26073106Y-62802308D01*
X26073119Y-62813225D01*
X26073138Y-62915800D01*
X26224796Y-63034334D01*
X26225148Y-63163450D01*
X26225500Y-63292567D01*
X25598967Y-63292567D01*
X25598986Y-63163450D01*
X25599005Y-63034334D01*
X25750663Y-62915800D01*
X25751015Y-62807850D01*
X25751261Y-62758514D01*
X25753132Y-62722179D01*
X25758875Y-62696861D01*
X25770738Y-62680574D01*
X25790971Y-62671332D01*
X25821822Y-62667149D01*
X25865540Y-62666041D01*
X25911619Y-62666034D01*
X26038004Y-62666034D01*
X26055552Y-62688342D01*
X26055552Y-62688342D01*
G37*
X26055552Y-62688342D02*
X26063086Y-62699679D01*
X26068118Y-62713261D01*
X26071139Y-62732572D01*
X26072638Y-62761094D01*
X26073106Y-62802308D01*
X26073119Y-62813225D01*
X26073138Y-62915800D01*
X26224796Y-63034334D01*
X26225148Y-63163450D01*
X26225500Y-63292567D01*
X25598967Y-63292567D01*
X25598986Y-63163450D01*
X25599005Y-63034334D01*
X25750663Y-62915800D01*
X25751015Y-62807850D01*
X25751261Y-62758514D01*
X25753132Y-62722179D01*
X25758875Y-62696861D01*
X25770738Y-62680574D01*
X25790971Y-62671332D01*
X25821822Y-62667149D01*
X25865540Y-62666041D01*
X25911619Y-62666034D01*
X26038004Y-62666034D01*
X26055552Y-62688342D01*
G36*
X25136084Y-62666034D02*
G01*
X25191383Y-62666135D01*
X25232014Y-62667767D01*
X25260234Y-62672924D01*
X25278300Y-62683597D01*
X25288471Y-62701780D01*
X25293005Y-62729466D01*
X25294160Y-62768647D01*
X25294167Y-62805553D01*
X25294167Y-62911206D01*
X25370367Y-62972219D01*
X25446567Y-63033233D01*
X25446567Y-63292567D01*
X24820034Y-63292567D01*
X24820034Y-63039106D01*
X24980900Y-62909718D01*
X24980900Y-62801888D01*
X24980920Y-62753965D01*
X24982497Y-62718865D01*
X24987906Y-62694596D01*
X24999421Y-62679166D01*
X25019318Y-62670584D01*
X25049870Y-62666858D01*
X25093355Y-62665998D01*
X25136084Y-62666034D01*
X25136084Y-62666034D01*
G37*
X25136084Y-62666034D02*
X25191383Y-62666135D01*
X25232014Y-62667767D01*
X25260234Y-62672924D01*
X25278300Y-62683597D01*
X25288471Y-62701780D01*
X25293005Y-62729466D01*
X25294160Y-62768647D01*
X25294167Y-62805553D01*
X25294167Y-62911206D01*
X25370367Y-62972219D01*
X25446567Y-63033233D01*
X25446567Y-63292567D01*
X24820034Y-63292567D01*
X24820034Y-63039106D01*
X24980900Y-62909718D01*
X24980900Y-62801888D01*
X24980920Y-62753965D01*
X24982497Y-62718865D01*
X24987906Y-62694596D01*
X24999421Y-62679166D01*
X25019318Y-62670584D01*
X25049870Y-62666858D01*
X25093355Y-62665998D01*
X25136084Y-62666034D01*
G36*
X26230052Y-63427988D02*
G01*
X26424680Y-63428015D01*
X26635435Y-63428033D01*
X26682700Y-63428033D01*
X26896993Y-63428020D01*
X27095017Y-63427994D01*
X27277438Y-63427972D01*
X27444921Y-63427974D01*
X27598131Y-63428019D01*
X27737733Y-63428125D01*
X27864392Y-63428311D01*
X27978774Y-63428596D01*
X28081543Y-63428999D01*
X28173365Y-63429539D01*
X28254904Y-63430234D01*
X28326826Y-63431103D01*
X28389795Y-63432164D01*
X28444478Y-63433438D01*
X28491538Y-63434941D01*
X28531642Y-63436694D01*
X28565453Y-63438715D01*
X28593638Y-63441023D01*
X28616861Y-63443636D01*
X28635787Y-63446573D01*
X28651082Y-63449854D01*
X28663410Y-63453496D01*
X28673437Y-63457519D01*
X28681828Y-63461941D01*
X28689247Y-63466782D01*
X28696361Y-63472059D01*
X28703833Y-63477792D01*
X28712330Y-63484000D01*
X28714345Y-63485392D01*
X28769579Y-63532482D01*
X28811135Y-63589353D01*
X28832611Y-63635748D01*
X28835106Y-63642560D01*
X28837354Y-63649559D01*
X28839365Y-63657613D01*
X28841151Y-63667591D01*
X28842723Y-63680362D01*
X28844093Y-63696794D01*
X28845271Y-63717757D01*
X28846268Y-63744119D01*
X28847097Y-63776748D01*
X28847767Y-63816514D01*
X28848290Y-63864285D01*
X28848678Y-63920929D01*
X28848940Y-63987316D01*
X28849090Y-64064314D01*
X28849137Y-64152792D01*
X28849093Y-64253619D01*
X28848969Y-64367663D01*
X28848776Y-64495793D01*
X28848525Y-64638878D01*
X28848228Y-64797787D01*
X28848139Y-64844818D01*
X28845934Y-66006494D01*
X28818106Y-66063018D01*
X28779151Y-66123885D01*
X28728711Y-66172662D01*
X28668072Y-66208374D01*
X28598523Y-66230049D01*
X28596832Y-66230374D01*
X28583840Y-66231237D01*
X28554861Y-66232048D01*
X28510837Y-66232809D01*
X28452704Y-66233517D01*
X28381403Y-66234175D01*
X28297872Y-66234781D01*
X28203050Y-66235337D01*
X28097876Y-66235842D01*
X27983289Y-66236296D01*
X27860228Y-66236700D01*
X27729631Y-66237053D01*
X27592439Y-66237357D01*
X27449589Y-66237610D01*
X27302021Y-66237813D01*
X27150673Y-66237966D01*
X26996485Y-66238069D01*
X26840396Y-66238123D01*
X26683343Y-66238128D01*
X26526267Y-66238083D01*
X26370107Y-66237988D01*
X26215800Y-66237845D01*
X26064287Y-66237653D01*
X25916506Y-66237412D01*
X25773395Y-66237122D01*
X25635895Y-66236784D01*
X25504944Y-66236398D01*
X25381480Y-66235963D01*
X25266443Y-66235479D01*
X25160772Y-66234948D01*
X25065405Y-66234369D01*
X24981282Y-66233742D01*
X24909342Y-66233068D01*
X24850522Y-66232346D01*
X24805764Y-66231577D01*
X24776004Y-66230760D01*
X24762183Y-66229896D01*
X24761882Y-66229843D01*
X24696248Y-66208565D01*
X24637147Y-66172771D01*
X24587055Y-66124384D01*
X24548443Y-66065326D01*
X24547295Y-66063018D01*
X24519467Y-66006494D01*
X24517262Y-64844818D01*
X24517001Y-64706500D01*
X24887767Y-64706500D01*
X24887767Y-64968967D01*
X24981172Y-64968967D01*
X25040291Y-64970833D01*
X25085634Y-64977354D01*
X25120042Y-64989914D01*
X25146355Y-65009895D01*
X25167410Y-65038680D01*
X25181269Y-65066449D01*
X25185181Y-65076945D01*
X25188439Y-65090252D01*
X25191141Y-65108101D01*
X25193385Y-65132223D01*
X25195270Y-65164348D01*
X25196893Y-65206207D01*
X25198353Y-65259532D01*
X25199748Y-65326052D01*
X25201175Y-65407500D01*
X25201411Y-65421934D01*
X25202815Y-65505064D01*
X25204135Y-65573147D01*
X25205492Y-65628071D01*
X25207001Y-65671719D01*
X25208783Y-65705979D01*
X25210954Y-65732735D01*
X25213633Y-65753874D01*
X25216938Y-65771282D01*
X25220987Y-65786844D01*
X25225088Y-65799984D01*
X25253601Y-65866790D01*
X25291359Y-65923329D01*
X25334740Y-65965405D01*
X25366287Y-65985877D01*
X25403023Y-66002675D01*
X25446715Y-66016099D01*
X25499129Y-66026455D01*
X25562033Y-66034044D01*
X25637193Y-66039169D01*
X25726376Y-66042134D01*
X25787350Y-66043002D01*
X25929167Y-66044233D01*
X25929167Y-65781767D01*
X25795817Y-65781560D01*
X25728989Y-65780735D01*
X25676658Y-65778219D01*
X25636432Y-65773600D01*
X25605924Y-65766467D01*
X25582743Y-65756407D01*
X25564501Y-65743008D01*
X25562784Y-65741400D01*
X25549089Y-65726368D01*
X25538183Y-65708980D01*
X25529762Y-65687231D01*
X25523524Y-65659113D01*
X25519164Y-65622621D01*
X25516380Y-65575749D01*
X25514867Y-65516489D01*
X25514696Y-65493377D01*
X26331103Y-65493377D01*
X26334667Y-65522114D01*
X26342082Y-65564649D01*
X26344738Y-65578607D01*
X26364671Y-65682063D01*
X26410684Y-65676655D01*
X26442252Y-65671085D01*
X26481389Y-65661601D01*
X26519803Y-65650220D01*
X26521016Y-65649818D01*
X26615122Y-65610195D01*
X26698415Y-65558230D01*
X26770087Y-65495083D01*
X26829328Y-65421916D01*
X26875330Y-65339889D01*
X26907283Y-65250162D01*
X26924377Y-65153895D01*
X26926630Y-65068025D01*
X26921888Y-65008720D01*
X26912057Y-64961503D01*
X26895624Y-64921910D01*
X26871074Y-64885478D01*
X26860407Y-64872788D01*
X26828153Y-64841264D01*
X26794268Y-64820497D01*
X26754322Y-64808732D01*
X26703889Y-64804212D01*
X26686934Y-64804006D01*
X26647546Y-64804692D01*
X26619399Y-64807444D01*
X26596827Y-64813335D01*
X26574165Y-64823436D01*
X26568400Y-64826439D01*
X26539668Y-64843877D01*
X26513582Y-64863360D01*
X26503237Y-64872927D01*
X26469724Y-64919974D01*
X26449149Y-64974503D01*
X26441472Y-65033121D01*
X26446650Y-65092438D01*
X26464641Y-65149061D01*
X26495404Y-65199600D01*
X26507451Y-65213420D01*
X26532927Y-65235033D01*
X26565381Y-65255512D01*
X26599119Y-65271868D01*
X26628451Y-65281109D01*
X26638250Y-65282151D01*
X26652856Y-65285106D01*
X26656254Y-65295539D01*
X26648853Y-65316069D01*
X26644822Y-65324137D01*
X26615194Y-65363335D01*
X26570021Y-65396878D01*
X26509811Y-65424498D01*
X26435074Y-65445926D01*
X26401537Y-65452647D01*
X26371274Y-65458685D01*
X26347179Y-65464604D01*
X26334773Y-65468991D01*
X26331201Y-65476362D01*
X26331103Y-65493377D01*
X25514696Y-65493377D01*
X25514321Y-65442835D01*
X25514300Y-65421009D01*
X25513666Y-65325519D01*
X25511524Y-65245043D01*
X25507520Y-65177703D01*
X25501297Y-65121619D01*
X25492498Y-65074912D01*
X25480767Y-65035703D01*
X25465748Y-65002112D01*
X25447085Y-64972260D01*
X25424421Y-64944268D01*
X25423781Y-64943555D01*
X25384332Y-64905765D01*
X25342034Y-64879194D01*
X25290205Y-64859719D01*
X25285700Y-64858416D01*
X25256419Y-64849160D01*
X25243170Y-64841867D01*
X25245367Y-64835258D01*
X25262423Y-64828050D01*
X25270612Y-64825502D01*
X25339424Y-64797740D01*
X25396556Y-64758708D01*
X25423739Y-64731959D01*
X25446520Y-64703982D01*
X25465290Y-64674202D01*
X25480404Y-64640736D01*
X25492220Y-64601707D01*
X25501094Y-64555235D01*
X25507382Y-64499438D01*
X25511442Y-64432439D01*
X25513629Y-64352357D01*
X25514300Y-64257312D01*
X25514300Y-64254458D01*
X25514575Y-64190920D01*
X26446868Y-64190920D01*
X26447211Y-64233194D01*
X26451378Y-64268682D01*
X26454297Y-64279991D01*
X26479793Y-64332573D01*
X26517577Y-64376170D01*
X26564939Y-64409655D01*
X26619166Y-64431903D01*
X26677548Y-64441788D01*
X26737375Y-64438183D01*
X26793715Y-64420959D01*
X26847915Y-64389364D01*
X26888373Y-64348349D01*
X26915411Y-64297382D01*
X26929354Y-64235929D01*
X26931569Y-64193963D01*
X26925204Y-64128716D01*
X26905816Y-64074000D01*
X26872752Y-64028780D01*
X26825357Y-63992023D01*
X26793197Y-63975155D01*
X26747959Y-63961440D01*
X26695052Y-63956248D01*
X26641147Y-63959507D01*
X26592912Y-63971146D01*
X26578067Y-63977449D01*
X26531327Y-64007033D01*
X26491381Y-64044874D01*
X26465459Y-64082218D01*
X26456324Y-64109548D01*
X26450016Y-64147743D01*
X26446868Y-64190920D01*
X25514575Y-64190920D01*
X25514636Y-64176853D01*
X25515853Y-64114151D01*
X25518263Y-64064329D01*
X25522178Y-64025368D01*
X25527910Y-63995245D01*
X25535771Y-63971939D01*
X25546073Y-63953428D01*
X25559129Y-63937692D01*
X25563956Y-63932896D01*
X25579962Y-63919797D01*
X25598648Y-63909933D01*
X25622553Y-63902869D01*
X25654214Y-63898170D01*
X25696171Y-63895402D01*
X25750962Y-63894129D01*
X25791584Y-63893902D01*
X25929167Y-63893700D01*
X25929167Y-63892355D01*
X27444700Y-63892355D01*
X27599217Y-63895144D01*
X27662766Y-63896714D01*
X27711833Y-63899389D01*
X27748868Y-63903994D01*
X27776320Y-63911355D01*
X27796639Y-63922296D01*
X27812274Y-63937643D01*
X27825674Y-63958221D01*
X27834088Y-63974276D01*
X27839882Y-63986256D01*
X27844542Y-63997853D01*
X27848233Y-64011050D01*
X27851118Y-64027831D01*
X27853361Y-64050179D01*
X27855123Y-64080076D01*
X27856570Y-64119506D01*
X27857864Y-64170453D01*
X27859168Y-64234899D01*
X27860221Y-64291634D01*
X27861728Y-64368937D01*
X27863210Y-64431369D01*
X27864806Y-64480991D01*
X27866656Y-64519866D01*
X27868898Y-64550055D01*
X27871673Y-64573619D01*
X27875118Y-64592620D01*
X27879375Y-64609120D01*
X27882297Y-64618440D01*
X27911999Y-64685464D01*
X27952767Y-64739705D01*
X28004812Y-64781376D01*
X28068344Y-64810689D01*
X28074201Y-64812593D01*
X28101187Y-64821124D01*
X28122671Y-64827948D01*
X28130272Y-64830383D01*
X28129276Y-64834805D01*
X28115108Y-64842739D01*
X28090735Y-64852572D01*
X28087036Y-64853883D01*
X28018417Y-64884371D01*
X27963677Y-64923594D01*
X27921470Y-64972871D01*
X27890453Y-65033519D01*
X27883303Y-65053595D01*
X27878267Y-65070224D01*
X27874181Y-65087468D01*
X27870900Y-65107420D01*
X27868277Y-65132172D01*
X27866166Y-65163814D01*
X27864422Y-65204438D01*
X27862898Y-65256137D01*
X27861449Y-65321002D01*
X27860243Y-65383834D01*
X27858822Y-65459392D01*
X27857532Y-65520002D01*
X27856209Y-65567648D01*
X27854690Y-65604313D01*
X27852811Y-65631980D01*
X27850410Y-65652632D01*
X27847322Y-65668253D01*
X27843384Y-65680825D01*
X27838433Y-65692332D01*
X27834088Y-65701191D01*
X27820842Y-65725485D01*
X27806903Y-65744033D01*
X27789821Y-65757662D01*
X27767147Y-65767198D01*
X27736434Y-65773468D01*
X27695231Y-65777299D01*
X27641089Y-65779516D01*
X27599217Y-65780458D01*
X27444700Y-65783382D01*
X27444700Y-66046920D01*
X27641550Y-66041643D01*
X27710991Y-66039508D01*
X27766305Y-66037096D01*
X27810298Y-66034167D01*
X27845776Y-66030482D01*
X27875546Y-66025801D01*
X27902413Y-66019885D01*
X27905404Y-66019124D01*
X27965091Y-66000416D01*
X28012970Y-65977026D01*
X28054063Y-65946130D01*
X28078481Y-65921808D01*
X28098329Y-65899093D01*
X28114975Y-65876564D01*
X28128729Y-65852497D01*
X28139903Y-65825169D01*
X28148811Y-65792856D01*
X28155762Y-65753834D01*
X28161070Y-65706381D01*
X28165046Y-65648771D01*
X28168001Y-65579282D01*
X28170249Y-65496189D01*
X28171980Y-65405000D01*
X28173389Y-65323423D01*
X28174697Y-65256961D01*
X28176024Y-65203795D01*
X28177488Y-65162109D01*
X28179209Y-65130085D01*
X28181306Y-65105905D01*
X28183900Y-65087753D01*
X28187109Y-65073811D01*
X28191053Y-65062260D01*
X28195124Y-65052853D01*
X28211993Y-65024916D01*
X28233329Y-65000449D01*
X28241616Y-64993587D01*
X28255027Y-64985018D01*
X28269335Y-64979090D01*
X28288101Y-64975199D01*
X28314883Y-64972741D01*
X28353241Y-64971111D01*
X28378150Y-64970411D01*
X28486100Y-64967621D01*
X28486100Y-64708201D01*
X28378150Y-64705234D01*
X28332565Y-64703714D01*
X28300353Y-64701688D01*
X28277953Y-64698546D01*
X28261807Y-64693679D01*
X28248353Y-64686480D01*
X28241616Y-64681880D01*
X28220471Y-64661353D01*
X28200963Y-64633736D01*
X28195148Y-64622614D01*
X28190509Y-64611719D01*
X28186693Y-64599960D01*
X28183580Y-64585536D01*
X28181051Y-64566644D01*
X28178988Y-64541481D01*
X28177272Y-64508246D01*
X28175783Y-64465137D01*
X28174403Y-64410350D01*
X28173013Y-64342084D01*
X28171630Y-64266234D01*
X28169820Y-64173760D01*
X28167820Y-64096429D01*
X28165424Y-64032449D01*
X28162424Y-63980029D01*
X28158610Y-63937378D01*
X28153777Y-63902704D01*
X28147715Y-63874216D01*
X28140217Y-63850124D01*
X28131074Y-63828636D01*
X28120080Y-63807960D01*
X28118030Y-63804428D01*
X28090989Y-63767643D01*
X28054899Y-63731084D01*
X28015508Y-63699992D01*
X27983291Y-63681585D01*
X27952016Y-63668718D01*
X27921229Y-63658544D01*
X27888218Y-63650680D01*
X27850271Y-63644739D01*
X27804678Y-63640338D01*
X27748727Y-63637093D01*
X27679707Y-63634617D01*
X27645784Y-63633705D01*
X27444700Y-63628666D01*
X27444700Y-63892355D01*
X25929167Y-63892355D01*
X25929167Y-63628835D01*
X25732317Y-63633592D01*
X25653672Y-63635898D01*
X25589492Y-63638837D01*
X25537312Y-63642725D01*
X25494665Y-63647878D01*
X25459088Y-63654612D01*
X25428113Y-63663244D01*
X25399276Y-63674091D01*
X25391944Y-63677260D01*
X25336638Y-63708747D01*
X25291624Y-63750518D01*
X25255363Y-63804425D01*
X25226316Y-63872317D01*
X25224000Y-63879187D01*
X25219480Y-63893960D01*
X25215753Y-63909569D01*
X25212708Y-63927880D01*
X25210233Y-63950756D01*
X25208218Y-63980061D01*
X25206551Y-64017661D01*
X25205121Y-64065420D01*
X25203817Y-64125202D01*
X25202527Y-64198872D01*
X25201667Y-64253534D01*
X25196738Y-64575267D01*
X25174532Y-64622689D01*
X25157002Y-64654029D01*
X25136284Y-64676752D01*
X25109520Y-64692104D01*
X25073854Y-64701334D01*
X25026429Y-64705686D01*
X24982460Y-64706500D01*
X24887767Y-64706500D01*
X24517001Y-64706500D01*
X24516953Y-64681364D01*
X24516689Y-64533974D01*
X24516479Y-64401780D01*
X24516334Y-64283913D01*
X24516267Y-64179504D01*
X24516288Y-64087686D01*
X24516407Y-64007588D01*
X24516638Y-63938343D01*
X24516990Y-63879081D01*
X24517474Y-63828934D01*
X24518102Y-63787033D01*
X24518886Y-63752510D01*
X24519835Y-63724496D01*
X24520962Y-63702122D01*
X24522277Y-63684519D01*
X24523792Y-63670819D01*
X24525518Y-63660152D01*
X24527465Y-63651651D01*
X24529646Y-63644447D01*
X24532071Y-63637670D01*
X24532789Y-63635748D01*
X24565243Y-63571358D01*
X24610777Y-63517508D01*
X24651055Y-63485392D01*
X24659857Y-63479081D01*
X24667493Y-63473247D01*
X24674627Y-63467874D01*
X24681925Y-63462942D01*
X24690052Y-63458431D01*
X24699673Y-63454325D01*
X24711453Y-63450602D01*
X24726057Y-63447246D01*
X24744150Y-63444237D01*
X24766398Y-63441556D01*
X24793464Y-63439184D01*
X24826016Y-63437104D01*
X24864717Y-63435295D01*
X24910232Y-63433740D01*
X24963227Y-63432418D01*
X25024367Y-63431313D01*
X25094317Y-63430404D01*
X25173742Y-63429674D01*
X25263307Y-63429103D01*
X25363677Y-63428672D01*
X25475518Y-63428363D01*
X25599493Y-63428157D01*
X25736270Y-63428036D01*
X25886511Y-63427979D01*
X26050884Y-63427970D01*
X26230052Y-63427988D01*
X26230052Y-63427988D01*
G37*
X26230052Y-63427988D02*
X26424680Y-63428015D01*
X26635435Y-63428033D01*
X26682700Y-63428033D01*
X26896993Y-63428020D01*
X27095017Y-63427994D01*
X27277438Y-63427972D01*
X27444921Y-63427974D01*
X27598131Y-63428019D01*
X27737733Y-63428125D01*
X27864392Y-63428311D01*
X27978774Y-63428596D01*
X28081543Y-63428999D01*
X28173365Y-63429539D01*
X28254904Y-63430234D01*
X28326826Y-63431103D01*
X28389795Y-63432164D01*
X28444478Y-63433438D01*
X28491538Y-63434941D01*
X28531642Y-63436694D01*
X28565453Y-63438715D01*
X28593638Y-63441023D01*
X28616861Y-63443636D01*
X28635787Y-63446573D01*
X28651082Y-63449854D01*
X28663410Y-63453496D01*
X28673437Y-63457519D01*
X28681828Y-63461941D01*
X28689247Y-63466782D01*
X28696361Y-63472059D01*
X28703833Y-63477792D01*
X28712330Y-63484000D01*
X28714345Y-63485392D01*
X28769579Y-63532482D01*
X28811135Y-63589353D01*
X28832611Y-63635748D01*
X28835106Y-63642560D01*
X28837354Y-63649559D01*
X28839365Y-63657613D01*
X28841151Y-63667591D01*
X28842723Y-63680362D01*
X28844093Y-63696794D01*
X28845271Y-63717757D01*
X28846268Y-63744119D01*
X28847097Y-63776748D01*
X28847767Y-63816514D01*
X28848290Y-63864285D01*
X28848678Y-63920929D01*
X28848940Y-63987316D01*
X28849090Y-64064314D01*
X28849137Y-64152792D01*
X28849093Y-64253619D01*
X28848969Y-64367663D01*
X28848776Y-64495793D01*
X28848525Y-64638878D01*
X28848228Y-64797787D01*
X28848139Y-64844818D01*
X28845934Y-66006494D01*
X28818106Y-66063018D01*
X28779151Y-66123885D01*
X28728711Y-66172662D01*
X28668072Y-66208374D01*
X28598523Y-66230049D01*
X28596832Y-66230374D01*
X28583840Y-66231237D01*
X28554861Y-66232048D01*
X28510837Y-66232809D01*
X28452704Y-66233517D01*
X28381403Y-66234175D01*
X28297872Y-66234781D01*
X28203050Y-66235337D01*
X28097876Y-66235842D01*
X27983289Y-66236296D01*
X27860228Y-66236700D01*
X27729631Y-66237053D01*
X27592439Y-66237357D01*
X27449589Y-66237610D01*
X27302021Y-66237813D01*
X27150673Y-66237966D01*
X26996485Y-66238069D01*
X26840396Y-66238123D01*
X26683343Y-66238128D01*
X26526267Y-66238083D01*
X26370107Y-66237988D01*
X26215800Y-66237845D01*
X26064287Y-66237653D01*
X25916506Y-66237412D01*
X25773395Y-66237122D01*
X25635895Y-66236784D01*
X25504944Y-66236398D01*
X25381480Y-66235963D01*
X25266443Y-66235479D01*
X25160772Y-66234948D01*
X25065405Y-66234369D01*
X24981282Y-66233742D01*
X24909342Y-66233068D01*
X24850522Y-66232346D01*
X24805764Y-66231577D01*
X24776004Y-66230760D01*
X24762183Y-66229896D01*
X24761882Y-66229843D01*
X24696248Y-66208565D01*
X24637147Y-66172771D01*
X24587055Y-66124384D01*
X24548443Y-66065326D01*
X24547295Y-66063018D01*
X24519467Y-66006494D01*
X24517262Y-64844818D01*
X24517001Y-64706500D01*
X24887767Y-64706500D01*
X24887767Y-64968967D01*
X24981172Y-64968967D01*
X25040291Y-64970833D01*
X25085634Y-64977354D01*
X25120042Y-64989914D01*
X25146355Y-65009895D01*
X25167410Y-65038680D01*
X25181269Y-65066449D01*
X25185181Y-65076945D01*
X25188439Y-65090252D01*
X25191141Y-65108101D01*
X25193385Y-65132223D01*
X25195270Y-65164348D01*
X25196893Y-65206207D01*
X25198353Y-65259532D01*
X25199748Y-65326052D01*
X25201175Y-65407500D01*
X25201411Y-65421934D01*
X25202815Y-65505064D01*
X25204135Y-65573147D01*
X25205492Y-65628071D01*
X25207001Y-65671719D01*
X25208783Y-65705979D01*
X25210954Y-65732735D01*
X25213633Y-65753874D01*
X25216938Y-65771282D01*
X25220987Y-65786844D01*
X25225088Y-65799984D01*
X25253601Y-65866790D01*
X25291359Y-65923329D01*
X25334740Y-65965405D01*
X25366287Y-65985877D01*
X25403023Y-66002675D01*
X25446715Y-66016099D01*
X25499129Y-66026455D01*
X25562033Y-66034044D01*
X25637193Y-66039169D01*
X25726376Y-66042134D01*
X25787350Y-66043002D01*
X25929167Y-66044233D01*
X25929167Y-65781767D01*
X25795817Y-65781560D01*
X25728989Y-65780735D01*
X25676658Y-65778219D01*
X25636432Y-65773600D01*
X25605924Y-65766467D01*
X25582743Y-65756407D01*
X25564501Y-65743008D01*
X25562784Y-65741400D01*
X25549089Y-65726368D01*
X25538183Y-65708980D01*
X25529762Y-65687231D01*
X25523524Y-65659113D01*
X25519164Y-65622621D01*
X25516380Y-65575749D01*
X25514867Y-65516489D01*
X25514696Y-65493377D01*
X26331103Y-65493377D01*
X26334667Y-65522114D01*
X26342082Y-65564649D01*
X26344738Y-65578607D01*
X26364671Y-65682063D01*
X26410684Y-65676655D01*
X26442252Y-65671085D01*
X26481389Y-65661601D01*
X26519803Y-65650220D01*
X26521016Y-65649818D01*
X26615122Y-65610195D01*
X26698415Y-65558230D01*
X26770087Y-65495083D01*
X26829328Y-65421916D01*
X26875330Y-65339889D01*
X26907283Y-65250162D01*
X26924377Y-65153895D01*
X26926630Y-65068025D01*
X26921888Y-65008720D01*
X26912057Y-64961503D01*
X26895624Y-64921910D01*
X26871074Y-64885478D01*
X26860407Y-64872788D01*
X26828153Y-64841264D01*
X26794268Y-64820497D01*
X26754322Y-64808732D01*
X26703889Y-64804212D01*
X26686934Y-64804006D01*
X26647546Y-64804692D01*
X26619399Y-64807444D01*
X26596827Y-64813335D01*
X26574165Y-64823436D01*
X26568400Y-64826439D01*
X26539668Y-64843877D01*
X26513582Y-64863360D01*
X26503237Y-64872927D01*
X26469724Y-64919974D01*
X26449149Y-64974503D01*
X26441472Y-65033121D01*
X26446650Y-65092438D01*
X26464641Y-65149061D01*
X26495404Y-65199600D01*
X26507451Y-65213420D01*
X26532927Y-65235033D01*
X26565381Y-65255512D01*
X26599119Y-65271868D01*
X26628451Y-65281109D01*
X26638250Y-65282151D01*
X26652856Y-65285106D01*
X26656254Y-65295539D01*
X26648853Y-65316069D01*
X26644822Y-65324137D01*
X26615194Y-65363335D01*
X26570021Y-65396878D01*
X26509811Y-65424498D01*
X26435074Y-65445926D01*
X26401537Y-65452647D01*
X26371274Y-65458685D01*
X26347179Y-65464604D01*
X26334773Y-65468991D01*
X26331201Y-65476362D01*
X26331103Y-65493377D01*
X25514696Y-65493377D01*
X25514321Y-65442835D01*
X25514300Y-65421009D01*
X25513666Y-65325519D01*
X25511524Y-65245043D01*
X25507520Y-65177703D01*
X25501297Y-65121619D01*
X25492498Y-65074912D01*
X25480767Y-65035703D01*
X25465748Y-65002112D01*
X25447085Y-64972260D01*
X25424421Y-64944268D01*
X25423781Y-64943555D01*
X25384332Y-64905765D01*
X25342034Y-64879194D01*
X25290205Y-64859719D01*
X25285700Y-64858416D01*
X25256419Y-64849160D01*
X25243170Y-64841867D01*
X25245367Y-64835258D01*
X25262423Y-64828050D01*
X25270612Y-64825502D01*
X25339424Y-64797740D01*
X25396556Y-64758708D01*
X25423739Y-64731959D01*
X25446520Y-64703982D01*
X25465290Y-64674202D01*
X25480404Y-64640736D01*
X25492220Y-64601707D01*
X25501094Y-64555235D01*
X25507382Y-64499438D01*
X25511442Y-64432439D01*
X25513629Y-64352357D01*
X25514300Y-64257312D01*
X25514300Y-64254458D01*
X25514575Y-64190920D01*
X26446868Y-64190920D01*
X26447211Y-64233194D01*
X26451378Y-64268682D01*
X26454297Y-64279991D01*
X26479793Y-64332573D01*
X26517577Y-64376170D01*
X26564939Y-64409655D01*
X26619166Y-64431903D01*
X26677548Y-64441788D01*
X26737375Y-64438183D01*
X26793715Y-64420959D01*
X26847915Y-64389364D01*
X26888373Y-64348349D01*
X26915411Y-64297382D01*
X26929354Y-64235929D01*
X26931569Y-64193963D01*
X26925204Y-64128716D01*
X26905816Y-64074000D01*
X26872752Y-64028780D01*
X26825357Y-63992023D01*
X26793197Y-63975155D01*
X26747959Y-63961440D01*
X26695052Y-63956248D01*
X26641147Y-63959507D01*
X26592912Y-63971146D01*
X26578067Y-63977449D01*
X26531327Y-64007033D01*
X26491381Y-64044874D01*
X26465459Y-64082218D01*
X26456324Y-64109548D01*
X26450016Y-64147743D01*
X26446868Y-64190920D01*
X25514575Y-64190920D01*
X25514636Y-64176853D01*
X25515853Y-64114151D01*
X25518263Y-64064329D01*
X25522178Y-64025368D01*
X25527910Y-63995245D01*
X25535771Y-63971939D01*
X25546073Y-63953428D01*
X25559129Y-63937692D01*
X25563956Y-63932896D01*
X25579962Y-63919797D01*
X25598648Y-63909933D01*
X25622553Y-63902869D01*
X25654214Y-63898170D01*
X25696171Y-63895402D01*
X25750962Y-63894129D01*
X25791584Y-63893902D01*
X25929167Y-63893700D01*
X25929167Y-63892355D01*
X27444700Y-63892355D01*
X27599217Y-63895144D01*
X27662766Y-63896714D01*
X27711833Y-63899389D01*
X27748868Y-63903994D01*
X27776320Y-63911355D01*
X27796639Y-63922296D01*
X27812274Y-63937643D01*
X27825674Y-63958221D01*
X27834088Y-63974276D01*
X27839882Y-63986256D01*
X27844542Y-63997853D01*
X27848233Y-64011050D01*
X27851118Y-64027831D01*
X27853361Y-64050179D01*
X27855123Y-64080076D01*
X27856570Y-64119506D01*
X27857864Y-64170453D01*
X27859168Y-64234899D01*
X27860221Y-64291634D01*
X27861728Y-64368937D01*
X27863210Y-64431369D01*
X27864806Y-64480991D01*
X27866656Y-64519866D01*
X27868898Y-64550055D01*
X27871673Y-64573619D01*
X27875118Y-64592620D01*
X27879375Y-64609120D01*
X27882297Y-64618440D01*
X27911999Y-64685464D01*
X27952767Y-64739705D01*
X28004812Y-64781376D01*
X28068344Y-64810689D01*
X28074201Y-64812593D01*
X28101187Y-64821124D01*
X28122671Y-64827948D01*
X28130272Y-64830383D01*
X28129276Y-64834805D01*
X28115108Y-64842739D01*
X28090735Y-64852572D01*
X28087036Y-64853883D01*
X28018417Y-64884371D01*
X27963677Y-64923594D01*
X27921470Y-64972871D01*
X27890453Y-65033519D01*
X27883303Y-65053595D01*
X27878267Y-65070224D01*
X27874181Y-65087468D01*
X27870900Y-65107420D01*
X27868277Y-65132172D01*
X27866166Y-65163814D01*
X27864422Y-65204438D01*
X27862898Y-65256137D01*
X27861449Y-65321002D01*
X27860243Y-65383834D01*
X27858822Y-65459392D01*
X27857532Y-65520002D01*
X27856209Y-65567648D01*
X27854690Y-65604313D01*
X27852811Y-65631980D01*
X27850410Y-65652632D01*
X27847322Y-65668253D01*
X27843384Y-65680825D01*
X27838433Y-65692332D01*
X27834088Y-65701191D01*
X27820842Y-65725485D01*
X27806903Y-65744033D01*
X27789821Y-65757662D01*
X27767147Y-65767198D01*
X27736434Y-65773468D01*
X27695231Y-65777299D01*
X27641089Y-65779516D01*
X27599217Y-65780458D01*
X27444700Y-65783382D01*
X27444700Y-66046920D01*
X27641550Y-66041643D01*
X27710991Y-66039508D01*
X27766305Y-66037096D01*
X27810298Y-66034167D01*
X27845776Y-66030482D01*
X27875546Y-66025801D01*
X27902413Y-66019885D01*
X27905404Y-66019124D01*
X27965091Y-66000416D01*
X28012970Y-65977026D01*
X28054063Y-65946130D01*
X28078481Y-65921808D01*
X28098329Y-65899093D01*
X28114975Y-65876564D01*
X28128729Y-65852497D01*
X28139903Y-65825169D01*
X28148811Y-65792856D01*
X28155762Y-65753834D01*
X28161070Y-65706381D01*
X28165046Y-65648771D01*
X28168001Y-65579282D01*
X28170249Y-65496189D01*
X28171980Y-65405000D01*
X28173389Y-65323423D01*
X28174697Y-65256961D01*
X28176024Y-65203795D01*
X28177488Y-65162109D01*
X28179209Y-65130085D01*
X28181306Y-65105905D01*
X28183900Y-65087753D01*
X28187109Y-65073811D01*
X28191053Y-65062260D01*
X28195124Y-65052853D01*
X28211993Y-65024916D01*
X28233329Y-65000449D01*
X28241616Y-64993587D01*
X28255027Y-64985018D01*
X28269335Y-64979090D01*
X28288101Y-64975199D01*
X28314883Y-64972741D01*
X28353241Y-64971111D01*
X28378150Y-64970411D01*
X28486100Y-64967621D01*
X28486100Y-64708201D01*
X28378150Y-64705234D01*
X28332565Y-64703714D01*
X28300353Y-64701688D01*
X28277953Y-64698546D01*
X28261807Y-64693679D01*
X28248353Y-64686480D01*
X28241616Y-64681880D01*
X28220471Y-64661353D01*
X28200963Y-64633736D01*
X28195148Y-64622614D01*
X28190509Y-64611719D01*
X28186693Y-64599960D01*
X28183580Y-64585536D01*
X28181051Y-64566644D01*
X28178988Y-64541481D01*
X28177272Y-64508246D01*
X28175783Y-64465137D01*
X28174403Y-64410350D01*
X28173013Y-64342084D01*
X28171630Y-64266234D01*
X28169820Y-64173760D01*
X28167820Y-64096429D01*
X28165424Y-64032449D01*
X28162424Y-63980029D01*
X28158610Y-63937378D01*
X28153777Y-63902704D01*
X28147715Y-63874216D01*
X28140217Y-63850124D01*
X28131074Y-63828636D01*
X28120080Y-63807960D01*
X28118030Y-63804428D01*
X28090989Y-63767643D01*
X28054899Y-63731084D01*
X28015508Y-63699992D01*
X27983291Y-63681585D01*
X27952016Y-63668718D01*
X27921229Y-63658544D01*
X27888218Y-63650680D01*
X27850271Y-63644739D01*
X27804678Y-63640338D01*
X27748727Y-63637093D01*
X27679707Y-63634617D01*
X27645784Y-63633705D01*
X27444700Y-63628666D01*
X27444700Y-63892355D01*
X25929167Y-63892355D01*
X25929167Y-63628835D01*
X25732317Y-63633592D01*
X25653672Y-63635898D01*
X25589492Y-63638837D01*
X25537312Y-63642725D01*
X25494665Y-63647878D01*
X25459088Y-63654612D01*
X25428113Y-63663244D01*
X25399276Y-63674091D01*
X25391944Y-63677260D01*
X25336638Y-63708747D01*
X25291624Y-63750518D01*
X25255363Y-63804425D01*
X25226316Y-63872317D01*
X25224000Y-63879187D01*
X25219480Y-63893960D01*
X25215753Y-63909569D01*
X25212708Y-63927880D01*
X25210233Y-63950756D01*
X25208218Y-63980061D01*
X25206551Y-64017661D01*
X25205121Y-64065420D01*
X25203817Y-64125202D01*
X25202527Y-64198872D01*
X25201667Y-64253534D01*
X25196738Y-64575267D01*
X25174532Y-64622689D01*
X25157002Y-64654029D01*
X25136284Y-64676752D01*
X25109520Y-64692104D01*
X25073854Y-64701334D01*
X25026429Y-64705686D01*
X24982460Y-64706500D01*
X24887767Y-64706500D01*
X24517001Y-64706500D01*
X24516953Y-64681364D01*
X24516689Y-64533974D01*
X24516479Y-64401780D01*
X24516334Y-64283913D01*
X24516267Y-64179504D01*
X24516288Y-64087686D01*
X24516407Y-64007588D01*
X24516638Y-63938343D01*
X24516990Y-63879081D01*
X24517474Y-63828934D01*
X24518102Y-63787033D01*
X24518886Y-63752510D01*
X24519835Y-63724496D01*
X24520962Y-63702122D01*
X24522277Y-63684519D01*
X24523792Y-63670819D01*
X24525518Y-63660152D01*
X24527465Y-63651651D01*
X24529646Y-63644447D01*
X24532071Y-63637670D01*
X24532789Y-63635748D01*
X24565243Y-63571358D01*
X24610777Y-63517508D01*
X24651055Y-63485392D01*
X24659857Y-63479081D01*
X24667493Y-63473247D01*
X24674627Y-63467874D01*
X24681925Y-63462942D01*
X24690052Y-63458431D01*
X24699673Y-63454325D01*
X24711453Y-63450602D01*
X24726057Y-63447246D01*
X24744150Y-63444237D01*
X24766398Y-63441556D01*
X24793464Y-63439184D01*
X24826016Y-63437104D01*
X24864717Y-63435295D01*
X24910232Y-63433740D01*
X24963227Y-63432418D01*
X25024367Y-63431313D01*
X25094317Y-63430404D01*
X25173742Y-63429674D01*
X25263307Y-63429103D01*
X25363677Y-63428672D01*
X25475518Y-63428363D01*
X25599493Y-63428157D01*
X25736270Y-63428036D01*
X25886511Y-63427979D01*
X26050884Y-63427970D01*
X26230052Y-63427988D01*
G36*
X28545367Y-66627894D02*
G01*
X28464933Y-66692588D01*
X28384500Y-66757282D01*
X28384500Y-66865112D01*
X28384480Y-66913035D01*
X28382903Y-66948135D01*
X28377495Y-66972405D01*
X28365979Y-66987835D01*
X28346083Y-66996417D01*
X28315530Y-67000142D01*
X28272046Y-67001003D01*
X28229317Y-67000967D01*
X28180415Y-67000778D01*
X28145528Y-66999980D01*
X28121741Y-66998221D01*
X28106139Y-66995153D01*
X28095805Y-66990426D01*
X28088167Y-66984034D01*
X28081025Y-66975251D01*
X28076210Y-66963658D01*
X28073276Y-66946021D01*
X28071776Y-66919106D01*
X28071263Y-66879682D01*
X28071233Y-66861447D01*
X28071233Y-66755794D01*
X27995033Y-66694781D01*
X27918833Y-66633767D01*
X27918833Y-66374433D01*
X28545367Y-66374433D01*
X28545367Y-66627894D01*
X28545367Y-66627894D01*
G37*
X28545367Y-66627894D02*
X28464933Y-66692588D01*
X28384500Y-66757282D01*
X28384500Y-66865112D01*
X28384480Y-66913035D01*
X28382903Y-66948135D01*
X28377495Y-66972405D01*
X28365979Y-66987835D01*
X28346083Y-66996417D01*
X28315530Y-67000142D01*
X28272046Y-67001003D01*
X28229317Y-67000967D01*
X28180415Y-67000778D01*
X28145528Y-66999980D01*
X28121741Y-66998221D01*
X28106139Y-66995153D01*
X28095805Y-66990426D01*
X28088167Y-66984034D01*
X28081025Y-66975251D01*
X28076210Y-66963658D01*
X28073276Y-66946021D01*
X28071776Y-66919106D01*
X28071263Y-66879682D01*
X28071233Y-66861447D01*
X28071233Y-66755794D01*
X27995033Y-66694781D01*
X27918833Y-66633767D01*
X27918833Y-66374433D01*
X28545367Y-66374433D01*
X28545367Y-66627894D01*
G36*
X27766414Y-66503550D02*
G01*
X27766395Y-66632667D01*
X27690567Y-66691933D01*
X27614738Y-66751200D01*
X27614386Y-66859150D01*
X27614139Y-66908487D01*
X27612269Y-66944821D01*
X27606526Y-66970139D01*
X27594662Y-66986427D01*
X27574429Y-66995669D01*
X27543578Y-66999851D01*
X27499860Y-67000959D01*
X27453781Y-67000967D01*
X27327396Y-67000967D01*
X27309848Y-66978658D01*
X27302315Y-66967322D01*
X27297283Y-66953739D01*
X27294262Y-66934428D01*
X27292762Y-66905907D01*
X27292294Y-66864693D01*
X27292281Y-66853775D01*
X27292262Y-66751200D01*
X27216433Y-66691933D01*
X27140604Y-66632667D01*
X27139900Y-66374433D01*
X27766434Y-66374433D01*
X27766414Y-66503550D01*
X27766414Y-66503550D01*
G37*
X27766414Y-66503550D02*
X27766395Y-66632667D01*
X27690567Y-66691933D01*
X27614738Y-66751200D01*
X27614386Y-66859150D01*
X27614139Y-66908487D01*
X27612269Y-66944821D01*
X27606526Y-66970139D01*
X27594662Y-66986427D01*
X27574429Y-66995669D01*
X27543578Y-66999851D01*
X27499860Y-67000959D01*
X27453781Y-67000967D01*
X27327396Y-67000967D01*
X27309848Y-66978658D01*
X27302315Y-66967322D01*
X27297283Y-66953739D01*
X27294262Y-66934428D01*
X27292762Y-66905907D01*
X27292294Y-66864693D01*
X27292281Y-66853775D01*
X27292262Y-66751200D01*
X27216433Y-66691933D01*
X27140604Y-66632667D01*
X27139900Y-66374433D01*
X27766434Y-66374433D01*
X27766414Y-66503550D01*
G36*
X26994074Y-66503101D02*
G01*
X26996414Y-66627534D01*
X26835100Y-66757282D01*
X26835100Y-66865112D01*
X26835069Y-66913285D01*
X26833448Y-66948489D01*
X26827950Y-66972755D01*
X26816284Y-66988111D01*
X26796162Y-66996585D01*
X26765295Y-67000206D01*
X26721392Y-67001003D01*
X26681801Y-67000967D01*
X26630453Y-67000584D01*
X26593301Y-66999267D01*
X26567622Y-66996760D01*
X26550692Y-66992810D01*
X26540651Y-66987787D01*
X26532921Y-66981396D01*
X26527658Y-66972954D01*
X26524388Y-66959395D01*
X26522642Y-66937653D01*
X26521948Y-66904662D01*
X26521833Y-66865290D01*
X26521833Y-66755973D01*
X26360527Y-66626231D01*
X26362863Y-66502449D01*
X26365200Y-66378667D01*
X26991734Y-66378667D01*
X26994074Y-66503101D01*
X26994074Y-66503101D01*
G37*
X26994074Y-66503101D02*
X26996414Y-66627534D01*
X26835100Y-66757282D01*
X26835100Y-66865112D01*
X26835069Y-66913285D01*
X26833448Y-66948489D01*
X26827950Y-66972755D01*
X26816284Y-66988111D01*
X26796162Y-66996585D01*
X26765295Y-67000206D01*
X26721392Y-67001003D01*
X26681801Y-67000967D01*
X26630453Y-67000584D01*
X26593301Y-66999267D01*
X26567622Y-66996760D01*
X26550692Y-66992810D01*
X26540651Y-66987787D01*
X26532921Y-66981396D01*
X26527658Y-66972954D01*
X26524388Y-66959395D01*
X26522642Y-66937653D01*
X26521948Y-66904662D01*
X26521833Y-66865290D01*
X26521833Y-66755973D01*
X26360527Y-66626231D01*
X26362863Y-66502449D01*
X26365200Y-66378667D01*
X26991734Y-66378667D01*
X26994074Y-66503101D01*
G36*
X26216329Y-66632667D02*
G01*
X26140500Y-66691933D01*
X26064672Y-66751200D01*
X26064653Y-66851240D01*
X26063680Y-66903845D01*
X26060444Y-66942154D01*
X26054432Y-66968716D01*
X26045133Y-66986077D01*
X26035849Y-66994487D01*
X26024452Y-66996694D01*
X25999373Y-66998575D01*
X25963866Y-66999975D01*
X25921183Y-67000741D01*
X25901650Y-67000837D01*
X25852616Y-67000703D01*
X25817606Y-66999952D01*
X25793716Y-66998240D01*
X25778038Y-66995223D01*
X25767667Y-66990556D01*
X25759834Y-66984034D01*
X25752750Y-66975317D01*
X25747932Y-66963770D01*
X25744937Y-66946205D01*
X25743326Y-66919434D01*
X25742656Y-66880272D01*
X25742548Y-66859150D01*
X25742196Y-66751200D01*
X25666367Y-66691933D01*
X25590538Y-66632667D01*
X25590500Y-66374433D01*
X26217033Y-66374433D01*
X26216329Y-66632667D01*
X26216329Y-66632667D01*
G37*
X26216329Y-66632667D02*
X26140500Y-66691933D01*
X26064672Y-66751200D01*
X26064653Y-66851240D01*
X26063680Y-66903845D01*
X26060444Y-66942154D01*
X26054432Y-66968716D01*
X26045133Y-66986077D01*
X26035849Y-66994487D01*
X26024452Y-66996694D01*
X25999373Y-66998575D01*
X25963866Y-66999975D01*
X25921183Y-67000741D01*
X25901650Y-67000837D01*
X25852616Y-67000703D01*
X25817606Y-66999952D01*
X25793716Y-66998240D01*
X25778038Y-66995223D01*
X25767667Y-66990556D01*
X25759834Y-66984034D01*
X25752750Y-66975317D01*
X25747932Y-66963770D01*
X25744937Y-66946205D01*
X25743326Y-66919434D01*
X25742656Y-66880272D01*
X25742548Y-66859150D01*
X25742196Y-66751200D01*
X25666367Y-66691933D01*
X25590538Y-66632667D01*
X25590500Y-66374433D01*
X26217033Y-66374433D01*
X26216329Y-66632667D01*
G36*
X25438100Y-66633767D02*
G01*
X25361900Y-66694781D01*
X25285700Y-66755794D01*
X25285700Y-66865200D01*
X25285655Y-66912279D01*
X25284033Y-66947001D01*
X25278602Y-66971244D01*
X25267129Y-66986885D01*
X25247383Y-66995802D01*
X25217132Y-66999870D01*
X25174144Y-67000968D01*
X25124262Y-67000967D01*
X25075174Y-67000747D01*
X25040189Y-66999877D01*
X25016483Y-66998039D01*
X25001229Y-66994915D01*
X24991600Y-66990189D01*
X24986446Y-66985483D01*
X24980382Y-66975836D01*
X24976297Y-66960728D01*
X24973843Y-66937143D01*
X24972675Y-66902069D01*
X24972433Y-66863641D01*
X24972433Y-66757282D01*
X24811567Y-66627894D01*
X24811567Y-66374433D01*
X25438100Y-66374433D01*
X25438100Y-66633767D01*
X25438100Y-66633767D01*
G37*
X25438100Y-66633767D02*
X25361900Y-66694781D01*
X25285700Y-66755794D01*
X25285700Y-66865200D01*
X25285655Y-66912279D01*
X25284033Y-66947001D01*
X25278602Y-66971244D01*
X25267129Y-66986885D01*
X25247383Y-66995802D01*
X25217132Y-66999870D01*
X25174144Y-67000968D01*
X25124262Y-67000967D01*
X25075174Y-67000747D01*
X25040189Y-66999877D01*
X25016483Y-66998039D01*
X25001229Y-66994915D01*
X24991600Y-66990189D01*
X24986446Y-66985483D01*
X24980382Y-66975836D01*
X24976297Y-66960728D01*
X24973843Y-66937143D01*
X24972675Y-66902069D01*
X24972433Y-66863641D01*
X24972433Y-66757282D01*
X24811567Y-66627894D01*
X24811567Y-66374433D01*
X25438100Y-66374433D01*
X25438100Y-66633767D01*
D12*
X31041078Y-54535000D02*
X30523922Y-54535000D01*
X31041078Y-55955000D02*
X30523922Y-55955000D01*
X42305000Y-58890000D02*
X42305000Y-59590000D01*
X43005000Y-58890000D02*
X42305000Y-58890000D01*
X46805000Y-62290000D02*
X46805000Y-61690000D01*
X43905000Y-62290000D02*
X46805000Y-62290000D01*
X46805000Y-59090000D02*
X46805000Y-59690000D01*
X43905000Y-59090000D02*
X46805000Y-59090000D01*
X42805000Y-60490000D02*
X42805000Y-60890000D01*
X38732500Y-48945000D02*
X42257500Y-48945000D01*
X38732500Y-48945000D02*
X36852500Y-48945000D01*
X38732500Y-43765000D02*
X40612500Y-43765000D01*
X38732500Y-43765000D02*
X36852500Y-43765000D01*
X36830000Y-51445000D02*
X33380000Y-51445000D01*
X36830000Y-51445000D02*
X38780000Y-51445000D01*
X36830000Y-60315000D02*
X34880000Y-60315000D01*
X36830000Y-60315000D02*
X38780000Y-60315000D01*
X34333922Y-66115000D02*
X34851078Y-66115000D01*
X34333922Y-64695000D02*
X34851078Y-64695000D01*
X43136078Y-62790000D02*
X42618922Y-62790000D01*
X43136078Y-64210000D02*
X42618922Y-64210000D01*
X43106078Y-57075000D02*
X42588922Y-57075000D01*
X43106078Y-58495000D02*
X42588922Y-58495000D01*
X41200000Y-52143922D02*
X41200000Y-52661078D01*
X42620000Y-52143922D02*
X42620000Y-52661078D01*
X44525000Y-52661078D02*
X44525000Y-52143922D01*
X43105000Y-52661078D02*
X43105000Y-52143922D01*
X46430000Y-53931078D02*
X46430000Y-53413922D01*
X45010000Y-53931078D02*
X45010000Y-53413922D01*
X28650000Y-50091078D02*
X28650000Y-49573922D01*
X27230000Y-50091078D02*
X27230000Y-49573922D01*
X34363922Y-50875000D02*
X34881078Y-50875000D01*
X34363922Y-49455000D02*
X34881078Y-49455000D01*
X34365000Y-47581078D02*
X34365000Y-47063922D01*
X32945000Y-47581078D02*
X32945000Y-47063922D01*
X30553922Y-50240000D02*
X31071078Y-50240000D01*
X30553922Y-48820000D02*
X31071078Y-48820000D01*
X31041078Y-52630000D02*
X30523922Y-52630000D01*
X31041078Y-54050000D02*
X30523922Y-54050000D01*
X32008578Y-62155000D02*
X31491422Y-62155000D01*
X32008578Y-63575000D02*
X31491422Y-63575000D01*
X30553922Y-57860000D02*
X31071078Y-57860000D01*
X30553922Y-56440000D02*
X31071078Y-56440000D01*
X31041078Y-58345000D02*
X30523922Y-58345000D01*
X31041078Y-59765000D02*
X30523922Y-59765000D01*
X31071078Y-60250000D02*
X30553922Y-60250000D01*
X31071078Y-61670000D02*
X30553922Y-61670000D01*
X29785000Y-69910000D02*
X29785000Y-68580000D01*
X31115000Y-69910000D02*
X29785000Y-69910000D01*
X32385000Y-69910000D02*
X32385000Y-67250000D01*
X32385000Y-67250000D02*
X37525000Y-67250000D01*
X32385000Y-69910000D02*
X37525000Y-69910000D01*
X37525000Y-69910000D02*
X37525000Y-67250000D01*
X25975000Y-52010000D02*
X27305000Y-52010000D01*
X25975000Y-53340000D02*
X25975000Y-52010000D01*
X25975000Y-54610000D02*
X28635000Y-54610000D01*
X28635000Y-54610000D02*
X28635000Y-59750000D01*
X25975000Y-54610000D02*
X25975000Y-59750000D01*
X25975000Y-59750000D02*
X28635000Y-59750000D01*
X33970000Y-60580000D02*
X39370000Y-60580000D01*
X33970000Y-63880000D02*
X39370000Y-63880000D01*
X33970000Y-60580000D02*
X33970000Y-63880000D01*
X38661250Y-65830750D02*
X38661250Y-66618250D01*
X38267500Y-66224500D02*
X39055000Y-66224500D01*
X39295000Y-70417563D02*
X40359437Y-71482000D01*
X39295000Y-65726437D02*
X40359437Y-64662000D01*
X39295000Y-65726437D02*
X39295000Y-67012000D01*
X39295000Y-70417563D02*
X39295000Y-69132000D01*
X40359437Y-71482000D02*
X46115000Y-71482000D01*
X40359437Y-64662000D02*
X46115000Y-64662000D01*
X46115000Y-64662000D02*
X46115000Y-67012000D01*
X46115000Y-71482000D02*
X46115000Y-69132000D01*
X25006250Y-42208750D02*
X25006250Y-42996250D01*
X24612500Y-42602500D02*
X25400000Y-42602500D01*
X25640000Y-46795563D02*
X26704437Y-47860000D01*
X25640000Y-42104437D02*
X26704437Y-41040000D01*
X25640000Y-42104437D02*
X25640000Y-43390000D01*
X25640000Y-46795563D02*
X25640000Y-45510000D01*
X26704437Y-47860000D02*
X32460000Y-47860000D01*
X26704437Y-41040000D02*
X32460000Y-41040000D01*
X32460000Y-41040000D02*
X32460000Y-43390000D01*
X32460000Y-47860000D02*
X32460000Y-45510000D01*
X44113750Y-49603750D02*
X44901250Y-49603750D01*
X44507500Y-49997500D02*
X44507500Y-49210000D01*
X48700563Y-48970000D02*
X49765000Y-47905563D01*
X44009437Y-48970000D02*
X42945000Y-47905563D01*
X44009437Y-48970000D02*
X45295000Y-48970000D01*
X48700563Y-48970000D02*
X47415000Y-48970000D01*
X49765000Y-47905563D02*
X49765000Y-42150000D01*
X42945000Y-47905563D02*
X42945000Y-42150000D01*
X42945000Y-42150000D02*
X45295000Y-42150000D01*
X49765000Y-42150000D02*
X47415000Y-42150000D01*
X38778922Y-50875000D02*
X39296078Y-50875000D01*
X38778922Y-49455000D02*
X39296078Y-49455000D01*
X42588922Y-56590000D02*
X43106078Y-56590000D01*
X42588922Y-55170000D02*
X43106078Y-55170000D01*
X31071078Y-50725000D02*
X30553922Y-50725000D01*
X31071078Y-52145000D02*
X30553922Y-52145000D01*
X30523922Y-65480000D02*
X31041078Y-65480000D01*
X30523922Y-64060000D02*
X31041078Y-64060000D01*
D10*
X47664761Y-62682380D02*
X47331428Y-62206190D01*
X47093333Y-62682380D02*
X47093333Y-61682380D01*
X47474285Y-61682380D01*
X47569523Y-61730000D01*
X47617142Y-61777619D01*
X47664761Y-61872857D01*
X47664761Y-62015714D01*
X47617142Y-62110952D01*
X47569523Y-62158571D01*
X47474285Y-62206190D01*
X47093333Y-62206190D01*
X47950476Y-61682380D02*
X48283809Y-62682380D01*
X48617142Y-61682380D01*
X49474285Y-62682380D02*
X48902857Y-62682380D01*
X49188571Y-62682380D02*
X49188571Y-61682380D01*
X49093333Y-61825238D01*
X48998095Y-61920476D01*
X48902857Y-61968095D01*
X34798095Y-42505380D02*
X34798095Y-43314904D01*
X34845714Y-43410142D01*
X34893333Y-43457761D01*
X34988571Y-43505380D01*
X35179047Y-43505380D01*
X35274285Y-43457761D01*
X35321904Y-43410142D01*
X35369523Y-43314904D01*
X35369523Y-42505380D01*
X35798095Y-42600619D02*
X35845714Y-42553000D01*
X35940952Y-42505380D01*
X36179047Y-42505380D01*
X36274285Y-42553000D01*
X36321904Y-42600619D01*
X36369523Y-42695857D01*
X36369523Y-42791095D01*
X36321904Y-42933952D01*
X35750476Y-43505380D01*
X36369523Y-43505380D01*
X32639095Y-60285380D02*
X32639095Y-61094904D01*
X32686714Y-61190142D01*
X32734333Y-61237761D01*
X32829571Y-61285380D01*
X33020047Y-61285380D01*
X33115285Y-61237761D01*
X33162904Y-61190142D01*
X33210523Y-61094904D01*
X33210523Y-60285380D01*
X34210523Y-61285380D02*
X33639095Y-61285380D01*
X33924809Y-61285380D02*
X33924809Y-60285380D01*
X33829571Y-60428238D01*
X33734333Y-60523476D01*
X33639095Y-60571095D01*
X36187142Y-67127380D02*
X35853809Y-66651190D01*
X35615714Y-67127380D02*
X35615714Y-66127380D01*
X35996666Y-66127380D01*
X36091904Y-66175000D01*
X36139523Y-66222619D01*
X36187142Y-66317857D01*
X36187142Y-66460714D01*
X36139523Y-66555952D01*
X36091904Y-66603571D01*
X35996666Y-66651190D01*
X35615714Y-66651190D01*
X37139523Y-67127380D02*
X36568095Y-67127380D01*
X36853809Y-67127380D02*
X36853809Y-66127380D01*
X36758571Y-66270238D01*
X36663333Y-66365476D01*
X36568095Y-66413095D01*
X38044285Y-66127380D02*
X37568095Y-66127380D01*
X37520476Y-66603571D01*
X37568095Y-66555952D01*
X37663333Y-66508333D01*
X37901428Y-66508333D01*
X37996666Y-66555952D01*
X38044285Y-66603571D01*
X38091904Y-66698809D01*
X38091904Y-66936904D01*
X38044285Y-67032142D01*
X37996666Y-67079761D01*
X37901428Y-67127380D01*
X37663333Y-67127380D01*
X37568095Y-67079761D01*
X37520476Y-67032142D01*
X45712142Y-63952380D02*
X45378809Y-63476190D01*
X45140714Y-63952380D02*
X45140714Y-62952380D01*
X45521666Y-62952380D01*
X45616904Y-63000000D01*
X45664523Y-63047619D01*
X45712142Y-63142857D01*
X45712142Y-63285714D01*
X45664523Y-63380952D01*
X45616904Y-63428571D01*
X45521666Y-63476190D01*
X45140714Y-63476190D01*
X46664523Y-63952380D02*
X46093095Y-63952380D01*
X46378809Y-63952380D02*
X46378809Y-62952380D01*
X46283571Y-63095238D01*
X46188333Y-63190476D01*
X46093095Y-63238095D01*
X47521666Y-63285714D02*
X47521666Y-63952380D01*
X47283571Y-62904761D02*
X47045476Y-63619047D01*
X47664523Y-63619047D01*
X45331142Y-58491380D02*
X44997809Y-58015190D01*
X44759714Y-58491380D02*
X44759714Y-57491380D01*
X45140666Y-57491380D01*
X45235904Y-57539000D01*
X45283523Y-57586619D01*
X45331142Y-57681857D01*
X45331142Y-57824714D01*
X45283523Y-57919952D01*
X45235904Y-57967571D01*
X45140666Y-58015190D01*
X44759714Y-58015190D01*
X46283523Y-58491380D02*
X45712095Y-58491380D01*
X45997809Y-58491380D02*
X45997809Y-57491380D01*
X45902571Y-57634238D01*
X45807333Y-57729476D01*
X45712095Y-57777095D01*
X46616857Y-57491380D02*
X47235904Y-57491380D01*
X46902571Y-57872333D01*
X47045428Y-57872333D01*
X47140666Y-57919952D01*
X47188285Y-57967571D01*
X47235904Y-58062809D01*
X47235904Y-58300904D01*
X47188285Y-58396142D01*
X47140666Y-58443761D01*
X47045428Y-58491380D01*
X46759714Y-58491380D01*
X46664476Y-58443761D01*
X46616857Y-58396142D01*
X43299142Y-50363380D02*
X42965809Y-49887190D01*
X42727714Y-50363380D02*
X42727714Y-49363380D01*
X43108666Y-49363380D01*
X43203904Y-49411000D01*
X43251523Y-49458619D01*
X43299142Y-49553857D01*
X43299142Y-49696714D01*
X43251523Y-49791952D01*
X43203904Y-49839571D01*
X43108666Y-49887190D01*
X42727714Y-49887190D01*
X44251523Y-50363380D02*
X43680095Y-50363380D01*
X43965809Y-50363380D02*
X43965809Y-49363380D01*
X43870571Y-49506238D01*
X43775333Y-49601476D01*
X43680095Y-49649095D01*
X44632476Y-49458619D02*
X44680095Y-49411000D01*
X44775333Y-49363380D01*
X45013428Y-49363380D01*
X45108666Y-49411000D01*
X45156285Y-49458619D01*
X45203904Y-49553857D01*
X45203904Y-49649095D01*
X45156285Y-49791952D01*
X44584857Y-50363380D01*
X45203904Y-50363380D01*
X45585142Y-51633380D02*
X45251809Y-51157190D01*
X45013714Y-51633380D02*
X45013714Y-50633380D01*
X45394666Y-50633380D01*
X45489904Y-50681000D01*
X45537523Y-50728619D01*
X45585142Y-50823857D01*
X45585142Y-50966714D01*
X45537523Y-51061952D01*
X45489904Y-51109571D01*
X45394666Y-51157190D01*
X45013714Y-51157190D01*
X46537523Y-51633380D02*
X45966095Y-51633380D01*
X46251809Y-51633380D02*
X46251809Y-50633380D01*
X46156571Y-50776238D01*
X46061333Y-50871476D01*
X45966095Y-50919095D01*
X47489904Y-51633380D02*
X46918476Y-51633380D01*
X47204190Y-51633380D02*
X47204190Y-50633380D01*
X47108952Y-50776238D01*
X47013714Y-50871476D01*
X46918476Y-50919095D01*
X47823380Y-54315357D02*
X47347190Y-54648690D01*
X47823380Y-54886785D02*
X46823380Y-54886785D01*
X46823380Y-54505833D01*
X46871000Y-54410595D01*
X46918619Y-54362976D01*
X47013857Y-54315357D01*
X47156714Y-54315357D01*
X47251952Y-54362976D01*
X47299571Y-54410595D01*
X47347190Y-54505833D01*
X47347190Y-54886785D01*
X47823380Y-53362976D02*
X47823380Y-53934404D01*
X47823380Y-53648690D02*
X46823380Y-53648690D01*
X46966238Y-53743928D01*
X47061476Y-53839166D01*
X47109095Y-53934404D01*
X46823380Y-52743928D02*
X46823380Y-52648690D01*
X46871000Y-52553452D01*
X46918619Y-52505833D01*
X47013857Y-52458214D01*
X47204333Y-52410595D01*
X47442428Y-52410595D01*
X47632904Y-52458214D01*
X47728142Y-52505833D01*
X47775761Y-52553452D01*
X47823380Y-52648690D01*
X47823380Y-52743928D01*
X47775761Y-52839166D01*
X47728142Y-52886785D01*
X47632904Y-52934404D01*
X47442428Y-52982023D01*
X47204333Y-52982023D01*
X47013857Y-52934404D01*
X46918619Y-52886785D01*
X46871000Y-52839166D01*
X46823380Y-52743928D01*
X26742380Y-49442666D02*
X26266190Y-49776000D01*
X26742380Y-50014095D02*
X25742380Y-50014095D01*
X25742380Y-49633142D01*
X25790000Y-49537904D01*
X25837619Y-49490285D01*
X25932857Y-49442666D01*
X26075714Y-49442666D01*
X26170952Y-49490285D01*
X26218571Y-49537904D01*
X26266190Y-49633142D01*
X26266190Y-50014095D01*
X26742380Y-48966476D02*
X26742380Y-48776000D01*
X26694761Y-48680761D01*
X26647142Y-48633142D01*
X26504285Y-48537904D01*
X26313809Y-48490285D01*
X25932857Y-48490285D01*
X25837619Y-48537904D01*
X25790000Y-48585523D01*
X25742380Y-48680761D01*
X25742380Y-48871238D01*
X25790000Y-48966476D01*
X25837619Y-49014095D01*
X25932857Y-49061714D01*
X26170952Y-49061714D01*
X26266190Y-49014095D01*
X26313809Y-48966476D01*
X26361428Y-48871238D01*
X26361428Y-48680761D01*
X26313809Y-48585523D01*
X26266190Y-48537904D01*
X26170952Y-48490285D01*
X33996333Y-50744380D02*
X33663000Y-50268190D01*
X33424904Y-50744380D02*
X33424904Y-49744380D01*
X33805857Y-49744380D01*
X33901095Y-49792000D01*
X33948714Y-49839619D01*
X33996333Y-49934857D01*
X33996333Y-50077714D01*
X33948714Y-50172952D01*
X33901095Y-50220571D01*
X33805857Y-50268190D01*
X33424904Y-50268190D01*
X34567761Y-50172952D02*
X34472523Y-50125333D01*
X34424904Y-50077714D01*
X34377285Y-49982476D01*
X34377285Y-49934857D01*
X34424904Y-49839619D01*
X34472523Y-49792000D01*
X34567761Y-49744380D01*
X34758238Y-49744380D01*
X34853476Y-49792000D01*
X34901095Y-49839619D01*
X34948714Y-49934857D01*
X34948714Y-49982476D01*
X34901095Y-50077714D01*
X34853476Y-50125333D01*
X34758238Y-50172952D01*
X34567761Y-50172952D01*
X34472523Y-50220571D01*
X34424904Y-50268190D01*
X34377285Y-50363428D01*
X34377285Y-50553904D01*
X34424904Y-50649142D01*
X34472523Y-50696761D01*
X34567761Y-50744380D01*
X34758238Y-50744380D01*
X34853476Y-50696761D01*
X34901095Y-50649142D01*
X34948714Y-50553904D01*
X34948714Y-50363428D01*
X34901095Y-50268190D01*
X34853476Y-50220571D01*
X34758238Y-50172952D01*
X34869380Y-44822166D02*
X34393190Y-45155500D01*
X34869380Y-45393595D02*
X33869380Y-45393595D01*
X33869380Y-45012642D01*
X33917000Y-44917404D01*
X33964619Y-44869785D01*
X34059857Y-44822166D01*
X34202714Y-44822166D01*
X34297952Y-44869785D01*
X34345571Y-44917404D01*
X34393190Y-45012642D01*
X34393190Y-45393595D01*
X33869380Y-44488833D02*
X33869380Y-43822166D01*
X34869380Y-44250738D01*
X30567333Y-48458380D02*
X30234000Y-47982190D01*
X29995904Y-48458380D02*
X29995904Y-47458380D01*
X30376857Y-47458380D01*
X30472095Y-47506000D01*
X30519714Y-47553619D01*
X30567333Y-47648857D01*
X30567333Y-47791714D01*
X30519714Y-47886952D01*
X30472095Y-47934571D01*
X30376857Y-47982190D01*
X29995904Y-47982190D01*
X31424476Y-47458380D02*
X31234000Y-47458380D01*
X31138761Y-47506000D01*
X31091142Y-47553619D01*
X30995904Y-47696476D01*
X30948285Y-47886952D01*
X30948285Y-48267904D01*
X30995904Y-48363142D01*
X31043523Y-48410761D01*
X31138761Y-48458380D01*
X31329238Y-48458380D01*
X31424476Y-48410761D01*
X31472095Y-48363142D01*
X31519714Y-48267904D01*
X31519714Y-48029809D01*
X31472095Y-47934571D01*
X31424476Y-47886952D01*
X31329238Y-47839333D01*
X31138761Y-47839333D01*
X31043523Y-47886952D01*
X30995904Y-47934571D01*
X30948285Y-48029809D01*
X29992580Y-62993566D02*
X29516390Y-63326900D01*
X29992580Y-63564995D02*
X28992580Y-63564995D01*
X28992580Y-63184042D01*
X29040200Y-63088804D01*
X29087819Y-63041185D01*
X29183057Y-62993566D01*
X29325914Y-62993566D01*
X29421152Y-63041185D01*
X29468771Y-63088804D01*
X29516390Y-63184042D01*
X29516390Y-63564995D01*
X29325914Y-62136423D02*
X29992580Y-62136423D01*
X28944961Y-62374519D02*
X29659247Y-62612614D01*
X29659247Y-61993566D01*
X28154333Y-61539380D02*
X27821000Y-61063190D01*
X27582904Y-61539380D02*
X27582904Y-60539380D01*
X27963857Y-60539380D01*
X28059095Y-60587000D01*
X28106714Y-60634619D01*
X28154333Y-60729857D01*
X28154333Y-60872714D01*
X28106714Y-60967952D01*
X28059095Y-61015571D01*
X27963857Y-61063190D01*
X27582904Y-61063190D01*
X29106714Y-61539380D02*
X28535285Y-61539380D01*
X28821000Y-61539380D02*
X28821000Y-60539380D01*
X28725761Y-60682238D01*
X28630523Y-60777476D01*
X28535285Y-60825095D01*
X28813166Y-70064380D02*
X28813166Y-70778666D01*
X28765547Y-70921523D01*
X28670309Y-71016761D01*
X28527452Y-71064380D01*
X28432214Y-71064380D01*
X29717928Y-70064380D02*
X29527452Y-70064380D01*
X29432214Y-70112000D01*
X29384595Y-70159619D01*
X29289357Y-70302476D01*
X29241738Y-70492952D01*
X29241738Y-70873904D01*
X29289357Y-70969142D01*
X29336976Y-71016761D01*
X29432214Y-71064380D01*
X29622690Y-71064380D01*
X29717928Y-71016761D01*
X29765547Y-70969142D01*
X29813166Y-70873904D01*
X29813166Y-70635809D01*
X29765547Y-70540571D01*
X29717928Y-70492952D01*
X29622690Y-70445333D01*
X29432214Y-70445333D01*
X29336976Y-70492952D01*
X29289357Y-70540571D01*
X29241738Y-70635809D01*
X35501666Y-39965380D02*
X35501666Y-40679666D01*
X35454047Y-40822523D01*
X35358809Y-40917761D01*
X35215952Y-40965380D01*
X35120714Y-40965380D01*
X36454047Y-39965380D02*
X35977857Y-39965380D01*
X35930238Y-40441571D01*
X35977857Y-40393952D01*
X36073095Y-40346333D01*
X36311190Y-40346333D01*
X36406428Y-40393952D01*
X36454047Y-40441571D01*
X36501666Y-40536809D01*
X36501666Y-40774904D01*
X36454047Y-40870142D01*
X36406428Y-40917761D01*
X36311190Y-40965380D01*
X36073095Y-40965380D01*
X35977857Y-40917761D01*
X35930238Y-40870142D01*
X37753966Y-69543680D02*
X37753966Y-70257966D01*
X37706347Y-70400823D01*
X37611109Y-70496061D01*
X37468252Y-70543680D01*
X37373014Y-70543680D01*
X38134919Y-69543680D02*
X38753966Y-69543680D01*
X38420633Y-69924633D01*
X38563490Y-69924633D01*
X38658728Y-69972252D01*
X38706347Y-70019871D01*
X38753966Y-70115109D01*
X38753966Y-70353204D01*
X38706347Y-70448442D01*
X38658728Y-70496061D01*
X38563490Y-70543680D01*
X38277776Y-70543680D01*
X38182538Y-70496061D01*
X38134919Y-70448442D01*
X25066666Y-50760380D02*
X25066666Y-51474666D01*
X25019047Y-51617523D01*
X24923809Y-51712761D01*
X24780952Y-51760380D01*
X24685714Y-51760380D01*
X26066666Y-51760380D02*
X25495238Y-51760380D01*
X25780952Y-51760380D02*
X25780952Y-50760380D01*
X25685714Y-50903238D01*
X25590476Y-50998476D01*
X25495238Y-51046095D01*
X36726904Y-65222380D02*
X36726904Y-64222380D01*
X36965000Y-64222380D01*
X37107857Y-64270000D01*
X37203095Y-64365238D01*
X37250714Y-64460476D01*
X37298333Y-64650952D01*
X37298333Y-64793809D01*
X37250714Y-64984285D01*
X37203095Y-65079523D01*
X37107857Y-65174761D01*
X36965000Y-65222380D01*
X36726904Y-65222380D01*
X38250714Y-65222380D02*
X37679285Y-65222380D01*
X37965000Y-65222380D02*
X37965000Y-64222380D01*
X37869761Y-64365238D01*
X37774523Y-64460476D01*
X37679285Y-64508095D01*
X47458333Y-70969142D02*
X47410714Y-71016761D01*
X47267857Y-71064380D01*
X47172619Y-71064380D01*
X47029761Y-71016761D01*
X46934523Y-70921523D01*
X46886904Y-70826285D01*
X46839285Y-70635809D01*
X46839285Y-70492952D01*
X46886904Y-70302476D01*
X46934523Y-70207238D01*
X47029761Y-70112000D01*
X47172619Y-70064380D01*
X47267857Y-70064380D01*
X47410714Y-70112000D01*
X47458333Y-70159619D01*
X47934523Y-71064380D02*
X48125000Y-71064380D01*
X48220238Y-71016761D01*
X48267857Y-70969142D01*
X48363095Y-70826285D01*
X48410714Y-70635809D01*
X48410714Y-70254857D01*
X48363095Y-70159619D01*
X48315476Y-70112000D01*
X48220238Y-70064380D01*
X48029761Y-70064380D01*
X47934523Y-70112000D01*
X47886904Y-70159619D01*
X47839285Y-70254857D01*
X47839285Y-70492952D01*
X47886904Y-70588190D01*
X47934523Y-70635809D01*
X48029761Y-70683428D01*
X48220238Y-70683428D01*
X48315476Y-70635809D01*
X48363095Y-70588190D01*
X48410714Y-70492952D01*
X33488333Y-42267142D02*
X33440714Y-42314761D01*
X33297857Y-42362380D01*
X33202619Y-42362380D01*
X33059761Y-42314761D01*
X32964523Y-42219523D01*
X32916904Y-42124285D01*
X32869285Y-41933809D01*
X32869285Y-41790952D01*
X32916904Y-41600476D01*
X32964523Y-41505238D01*
X33059761Y-41410000D01*
X33202619Y-41362380D01*
X33297857Y-41362380D01*
X33440714Y-41410000D01*
X33488333Y-41457619D01*
X34059761Y-41790952D02*
X33964523Y-41743333D01*
X33916904Y-41695714D01*
X33869285Y-41600476D01*
X33869285Y-41552857D01*
X33916904Y-41457619D01*
X33964523Y-41410000D01*
X34059761Y-41362380D01*
X34250238Y-41362380D01*
X34345476Y-41410000D01*
X34393095Y-41457619D01*
X34440714Y-41552857D01*
X34440714Y-41600476D01*
X34393095Y-41695714D01*
X34345476Y-41743333D01*
X34250238Y-41790952D01*
X34059761Y-41790952D01*
X33964523Y-41838571D01*
X33916904Y-41886190D01*
X33869285Y-41981428D01*
X33869285Y-42171904D01*
X33916904Y-42267142D01*
X33964523Y-42314761D01*
X34059761Y-42362380D01*
X34250238Y-42362380D01*
X34345476Y-42314761D01*
X34393095Y-42267142D01*
X34440714Y-42171904D01*
X34440714Y-41981428D01*
X34393095Y-41886190D01*
X34345476Y-41838571D01*
X34250238Y-41790952D01*
X43775333Y-41632142D02*
X43727714Y-41679761D01*
X43584857Y-41727380D01*
X43489619Y-41727380D01*
X43346761Y-41679761D01*
X43251523Y-41584523D01*
X43203904Y-41489285D01*
X43156285Y-41298809D01*
X43156285Y-41155952D01*
X43203904Y-40965476D01*
X43251523Y-40870238D01*
X43346761Y-40775000D01*
X43489619Y-40727380D01*
X43584857Y-40727380D01*
X43727714Y-40775000D01*
X43775333Y-40822619D01*
X44632476Y-40727380D02*
X44442000Y-40727380D01*
X44346761Y-40775000D01*
X44299142Y-40822619D01*
X44203904Y-40965476D01*
X44156285Y-41155952D01*
X44156285Y-41536904D01*
X44203904Y-41632142D01*
X44251523Y-41679761D01*
X44346761Y-41727380D01*
X44537238Y-41727380D01*
X44632476Y-41679761D01*
X44680095Y-41632142D01*
X44727714Y-41536904D01*
X44727714Y-41298809D01*
X44680095Y-41203571D01*
X44632476Y-41155952D01*
X44537238Y-41108333D01*
X44346761Y-41108333D01*
X44251523Y-41155952D01*
X44203904Y-41203571D01*
X44156285Y-41298809D01*
X41489333Y-50268142D02*
X41441714Y-50315761D01*
X41298857Y-50363380D01*
X41203619Y-50363380D01*
X41060761Y-50315761D01*
X40965523Y-50220523D01*
X40917904Y-50125285D01*
X40870285Y-49934809D01*
X40870285Y-49791952D01*
X40917904Y-49601476D01*
X40965523Y-49506238D01*
X41060761Y-49411000D01*
X41203619Y-49363380D01*
X41298857Y-49363380D01*
X41441714Y-49411000D01*
X41489333Y-49458619D01*
X42346476Y-49696714D02*
X42346476Y-50363380D01*
X42108380Y-49315761D02*
X41870285Y-50030047D01*
X42489333Y-50030047D01*
X45426333Y-56618142D02*
X45378714Y-56665761D01*
X45235857Y-56713380D01*
X45140619Y-56713380D01*
X44997761Y-56665761D01*
X44902523Y-56570523D01*
X44854904Y-56475285D01*
X44807285Y-56284809D01*
X44807285Y-56141952D01*
X44854904Y-55951476D01*
X44902523Y-55856238D01*
X44997761Y-55761000D01*
X45140619Y-55713380D01*
X45235857Y-55713380D01*
X45378714Y-55761000D01*
X45426333Y-55808619D01*
X45759666Y-55713380D02*
X46378714Y-55713380D01*
X46045380Y-56094333D01*
X46188238Y-56094333D01*
X46283476Y-56141952D01*
X46331095Y-56189571D01*
X46378714Y-56284809D01*
X46378714Y-56522904D01*
X46331095Y-56618142D01*
X46283476Y-56665761D01*
X46188238Y-56713380D01*
X45902523Y-56713380D01*
X45807285Y-56665761D01*
X45759666Y-56618142D01*
X31583333Y-67032142D02*
X31535714Y-67079761D01*
X31392857Y-67127380D01*
X31297619Y-67127380D01*
X31154761Y-67079761D01*
X31059523Y-66984523D01*
X31011904Y-66889285D01*
X30964285Y-66698809D01*
X30964285Y-66555952D01*
X31011904Y-66365476D01*
X31059523Y-66270238D01*
X31154761Y-66175000D01*
X31297619Y-66127380D01*
X31392857Y-66127380D01*
X31535714Y-66175000D01*
X31583333Y-66222619D01*
X32535714Y-67127380D02*
X31964285Y-67127380D01*
X32250000Y-67127380D02*
X32250000Y-66127380D01*
X32154761Y-66270238D01*
X32059523Y-66365476D01*
X31964285Y-66413095D01*
M02*
