M48
; DRILL file {KiCad 5.1.2-f72e74a~84~ubuntu18.04.1} date mar. 28 mai 2019 19:28:15 CEST
; FORMAT={-:-/ absolute / inch / decimal}
; #@! TF.CreationDate,2019-05-28T19:28:15+02:00
; #@! TF.GenerationSoftware,Kicad,Pcbnew,5.1.2-f72e74a~84~ubuntu18.04.1
; #@! TF.FileFunction,Plated,1,2,PTH
FMAT,2
INCH
T1C0.0157
T2C0.0394
T3C0.0866
%
G90
G05
T1
X1.05Y-2.025
X1.1303Y-2.0575
X1.15Y-2.475
X1.2Y-2.6
X1.25Y-1.875
X1.35Y-1.7
X1.425Y-2.2
X1.475Y-2.325
X1.4825Y-2.025
X1.5Y-1.775
X1.55Y-1.85
X1.55Y-1.925
X1.6Y-2.2
X1.65Y-1.675
X1.65Y-2.575
X1.725Y-1.925
X1.8Y-2.25
X1.825Y-2.05
T2
X1.075Y-2.1
X1.075Y-2.2
X1.075Y-2.3
X1.225Y-2.7
X1.325Y-2.7
X1.425Y-2.7
T3
X1.525Y-1.64
X1.045Y-2.73
T0
M30
