G04 #@! TF.GenerationSoftware,KiCad,Pcbnew,5.1.2-f72e74a~84~ubuntu18.04.1*
G04 #@! TF.CreationDate,2019-05-28T19:28:17+02:00*
G04 #@! TF.ProjectId,OpenEMG2,4f70656e-454d-4473-922e-6b696361645f,rev?*
G04 #@! TF.SameCoordinates,Original*
G04 #@! TF.FileFunction,Copper,L1,Top*
G04 #@! TF.FilePolarity,Positive*
%FSLAX46Y46*%
G04 Gerber Fmt 4.6, Leading zero omitted, Abs format (unit mm)*
G04 Created by KiCad (PCBNEW 5.1.2-f72e74a~84~ubuntu18.04.1) date 2019-05-28 19:28:17*
%MOMM*%
%LPD*%
G04 APERTURE LIST*
%ADD10C,0.100000*%
%ADD11C,0.975000*%
%ADD12R,1.500000X1.600000*%
%ADD13R,1.200000X1.200000*%
%ADD14C,0.650000*%
%ADD15C,0.600000*%
%ADD16C,3.800000*%
%ADD17O,1.700000X1.700000*%
%ADD18R,1.700000X1.700000*%
%ADD19R,2.500000X1.800000*%
%ADD20C,1.600000*%
%ADD21C,0.450000*%
%ADD22C,0.254000*%
G04 APERTURE END LIST*
D10*
G36*
X30112642Y-54546174D02*
G01*
X30136303Y-54549684D01*
X30159507Y-54555496D01*
X30182029Y-54563554D01*
X30203653Y-54573782D01*
X30224170Y-54586079D01*
X30243383Y-54600329D01*
X30261107Y-54616393D01*
X30277171Y-54634117D01*
X30291421Y-54653330D01*
X30303718Y-54673847D01*
X30313946Y-54695471D01*
X30322004Y-54717993D01*
X30327816Y-54741197D01*
X30331326Y-54764858D01*
X30332500Y-54788750D01*
X30332500Y-55701250D01*
X30331326Y-55725142D01*
X30327816Y-55748803D01*
X30322004Y-55772007D01*
X30313946Y-55794529D01*
X30303718Y-55816153D01*
X30291421Y-55836670D01*
X30277171Y-55855883D01*
X30261107Y-55873607D01*
X30243383Y-55889671D01*
X30224170Y-55903921D01*
X30203653Y-55916218D01*
X30182029Y-55926446D01*
X30159507Y-55934504D01*
X30136303Y-55940316D01*
X30112642Y-55943826D01*
X30088750Y-55945000D01*
X29601250Y-55945000D01*
X29577358Y-55943826D01*
X29553697Y-55940316D01*
X29530493Y-55934504D01*
X29507971Y-55926446D01*
X29486347Y-55916218D01*
X29465830Y-55903921D01*
X29446617Y-55889671D01*
X29428893Y-55873607D01*
X29412829Y-55855883D01*
X29398579Y-55836670D01*
X29386282Y-55816153D01*
X29376054Y-55794529D01*
X29367996Y-55772007D01*
X29362184Y-55748803D01*
X29358674Y-55725142D01*
X29357500Y-55701250D01*
X29357500Y-54788750D01*
X29358674Y-54764858D01*
X29362184Y-54741197D01*
X29367996Y-54717993D01*
X29376054Y-54695471D01*
X29386282Y-54673847D01*
X29398579Y-54653330D01*
X29412829Y-54634117D01*
X29428893Y-54616393D01*
X29446617Y-54600329D01*
X29465830Y-54586079D01*
X29486347Y-54573782D01*
X29507971Y-54563554D01*
X29530493Y-54555496D01*
X29553697Y-54549684D01*
X29577358Y-54546174D01*
X29601250Y-54545000D01*
X30088750Y-54545000D01*
X30112642Y-54546174D01*
X30112642Y-54546174D01*
G37*
D11*
X29845000Y-55245000D03*
D10*
G36*
X31987642Y-54546174D02*
G01*
X32011303Y-54549684D01*
X32034507Y-54555496D01*
X32057029Y-54563554D01*
X32078653Y-54573782D01*
X32099170Y-54586079D01*
X32118383Y-54600329D01*
X32136107Y-54616393D01*
X32152171Y-54634117D01*
X32166421Y-54653330D01*
X32178718Y-54673847D01*
X32188946Y-54695471D01*
X32197004Y-54717993D01*
X32202816Y-54741197D01*
X32206326Y-54764858D01*
X32207500Y-54788750D01*
X32207500Y-55701250D01*
X32206326Y-55725142D01*
X32202816Y-55748803D01*
X32197004Y-55772007D01*
X32188946Y-55794529D01*
X32178718Y-55816153D01*
X32166421Y-55836670D01*
X32152171Y-55855883D01*
X32136107Y-55873607D01*
X32118383Y-55889671D01*
X32099170Y-55903921D01*
X32078653Y-55916218D01*
X32057029Y-55926446D01*
X32034507Y-55934504D01*
X32011303Y-55940316D01*
X31987642Y-55943826D01*
X31963750Y-55945000D01*
X31476250Y-55945000D01*
X31452358Y-55943826D01*
X31428697Y-55940316D01*
X31405493Y-55934504D01*
X31382971Y-55926446D01*
X31361347Y-55916218D01*
X31340830Y-55903921D01*
X31321617Y-55889671D01*
X31303893Y-55873607D01*
X31287829Y-55855883D01*
X31273579Y-55836670D01*
X31261282Y-55816153D01*
X31251054Y-55794529D01*
X31242996Y-55772007D01*
X31237184Y-55748803D01*
X31233674Y-55725142D01*
X31232500Y-55701250D01*
X31232500Y-54788750D01*
X31233674Y-54764858D01*
X31237184Y-54741197D01*
X31242996Y-54717993D01*
X31251054Y-54695471D01*
X31261282Y-54673847D01*
X31273579Y-54653330D01*
X31287829Y-54634117D01*
X31303893Y-54616393D01*
X31321617Y-54600329D01*
X31340830Y-54586079D01*
X31361347Y-54573782D01*
X31382971Y-54563554D01*
X31405493Y-54555496D01*
X31428697Y-54549684D01*
X31452358Y-54546174D01*
X31476250Y-54545000D01*
X31963750Y-54545000D01*
X31987642Y-54546174D01*
X31987642Y-54546174D01*
G37*
D11*
X31720000Y-55245000D03*
D12*
X46355000Y-60690000D03*
D13*
X43105000Y-61690000D03*
X43105000Y-59690000D03*
D10*
G36*
X37035928Y-47935782D02*
G01*
X37051702Y-47938122D01*
X37067171Y-47941997D01*
X37082186Y-47947370D01*
X37096602Y-47954188D01*
X37110280Y-47962386D01*
X37123089Y-47971886D01*
X37134905Y-47982595D01*
X37145614Y-47994411D01*
X37155114Y-48007220D01*
X37163312Y-48020898D01*
X37170130Y-48035314D01*
X37175503Y-48050329D01*
X37179378Y-48065798D01*
X37181718Y-48081572D01*
X37182500Y-48097500D01*
X37182500Y-48422500D01*
X37181718Y-48438428D01*
X37179378Y-48454202D01*
X37175503Y-48469671D01*
X37170130Y-48484686D01*
X37163312Y-48499102D01*
X37155114Y-48512780D01*
X37145614Y-48525589D01*
X37134905Y-48537405D01*
X37123089Y-48548114D01*
X37110280Y-48557614D01*
X37096602Y-48565812D01*
X37082186Y-48572630D01*
X37067171Y-48578003D01*
X37051702Y-48581878D01*
X37035928Y-48584218D01*
X37020000Y-48585000D01*
X35370000Y-48585000D01*
X35354072Y-48584218D01*
X35338298Y-48581878D01*
X35322829Y-48578003D01*
X35307814Y-48572630D01*
X35293398Y-48565812D01*
X35279720Y-48557614D01*
X35266911Y-48548114D01*
X35255095Y-48537405D01*
X35244386Y-48525589D01*
X35234886Y-48512780D01*
X35226688Y-48499102D01*
X35219870Y-48484686D01*
X35214497Y-48469671D01*
X35210622Y-48454202D01*
X35208282Y-48438428D01*
X35207500Y-48422500D01*
X35207500Y-48097500D01*
X35208282Y-48081572D01*
X35210622Y-48065798D01*
X35214497Y-48050329D01*
X35219870Y-48035314D01*
X35226688Y-48020898D01*
X35234886Y-48007220D01*
X35244386Y-47994411D01*
X35255095Y-47982595D01*
X35266911Y-47971886D01*
X35279720Y-47962386D01*
X35293398Y-47954188D01*
X35307814Y-47947370D01*
X35322829Y-47941997D01*
X35338298Y-47938122D01*
X35354072Y-47935782D01*
X35370000Y-47935000D01*
X37020000Y-47935000D01*
X37035928Y-47935782D01*
X37035928Y-47935782D01*
G37*
D14*
X36195000Y-48260000D03*
D10*
G36*
X37035928Y-46665782D02*
G01*
X37051702Y-46668122D01*
X37067171Y-46671997D01*
X37082186Y-46677370D01*
X37096602Y-46684188D01*
X37110280Y-46692386D01*
X37123089Y-46701886D01*
X37134905Y-46712595D01*
X37145614Y-46724411D01*
X37155114Y-46737220D01*
X37163312Y-46750898D01*
X37170130Y-46765314D01*
X37175503Y-46780329D01*
X37179378Y-46795798D01*
X37181718Y-46811572D01*
X37182500Y-46827500D01*
X37182500Y-47152500D01*
X37181718Y-47168428D01*
X37179378Y-47184202D01*
X37175503Y-47199671D01*
X37170130Y-47214686D01*
X37163312Y-47229102D01*
X37155114Y-47242780D01*
X37145614Y-47255589D01*
X37134905Y-47267405D01*
X37123089Y-47278114D01*
X37110280Y-47287614D01*
X37096602Y-47295812D01*
X37082186Y-47302630D01*
X37067171Y-47308003D01*
X37051702Y-47311878D01*
X37035928Y-47314218D01*
X37020000Y-47315000D01*
X35370000Y-47315000D01*
X35354072Y-47314218D01*
X35338298Y-47311878D01*
X35322829Y-47308003D01*
X35307814Y-47302630D01*
X35293398Y-47295812D01*
X35279720Y-47287614D01*
X35266911Y-47278114D01*
X35255095Y-47267405D01*
X35244386Y-47255589D01*
X35234886Y-47242780D01*
X35226688Y-47229102D01*
X35219870Y-47214686D01*
X35214497Y-47199671D01*
X35210622Y-47184202D01*
X35208282Y-47168428D01*
X35207500Y-47152500D01*
X35207500Y-46827500D01*
X35208282Y-46811572D01*
X35210622Y-46795798D01*
X35214497Y-46780329D01*
X35219870Y-46765314D01*
X35226688Y-46750898D01*
X35234886Y-46737220D01*
X35244386Y-46724411D01*
X35255095Y-46712595D01*
X35266911Y-46701886D01*
X35279720Y-46692386D01*
X35293398Y-46684188D01*
X35307814Y-46677370D01*
X35322829Y-46671997D01*
X35338298Y-46668122D01*
X35354072Y-46665782D01*
X35370000Y-46665000D01*
X37020000Y-46665000D01*
X37035928Y-46665782D01*
X37035928Y-46665782D01*
G37*
D14*
X36195000Y-46990000D03*
D10*
G36*
X37035928Y-45395782D02*
G01*
X37051702Y-45398122D01*
X37067171Y-45401997D01*
X37082186Y-45407370D01*
X37096602Y-45414188D01*
X37110280Y-45422386D01*
X37123089Y-45431886D01*
X37134905Y-45442595D01*
X37145614Y-45454411D01*
X37155114Y-45467220D01*
X37163312Y-45480898D01*
X37170130Y-45495314D01*
X37175503Y-45510329D01*
X37179378Y-45525798D01*
X37181718Y-45541572D01*
X37182500Y-45557500D01*
X37182500Y-45882500D01*
X37181718Y-45898428D01*
X37179378Y-45914202D01*
X37175503Y-45929671D01*
X37170130Y-45944686D01*
X37163312Y-45959102D01*
X37155114Y-45972780D01*
X37145614Y-45985589D01*
X37134905Y-45997405D01*
X37123089Y-46008114D01*
X37110280Y-46017614D01*
X37096602Y-46025812D01*
X37082186Y-46032630D01*
X37067171Y-46038003D01*
X37051702Y-46041878D01*
X37035928Y-46044218D01*
X37020000Y-46045000D01*
X35370000Y-46045000D01*
X35354072Y-46044218D01*
X35338298Y-46041878D01*
X35322829Y-46038003D01*
X35307814Y-46032630D01*
X35293398Y-46025812D01*
X35279720Y-46017614D01*
X35266911Y-46008114D01*
X35255095Y-45997405D01*
X35244386Y-45985589D01*
X35234886Y-45972780D01*
X35226688Y-45959102D01*
X35219870Y-45944686D01*
X35214497Y-45929671D01*
X35210622Y-45914202D01*
X35208282Y-45898428D01*
X35207500Y-45882500D01*
X35207500Y-45557500D01*
X35208282Y-45541572D01*
X35210622Y-45525798D01*
X35214497Y-45510329D01*
X35219870Y-45495314D01*
X35226688Y-45480898D01*
X35234886Y-45467220D01*
X35244386Y-45454411D01*
X35255095Y-45442595D01*
X35266911Y-45431886D01*
X35279720Y-45422386D01*
X35293398Y-45414188D01*
X35307814Y-45407370D01*
X35322829Y-45401997D01*
X35338298Y-45398122D01*
X35354072Y-45395782D01*
X35370000Y-45395000D01*
X37020000Y-45395000D01*
X37035928Y-45395782D01*
X37035928Y-45395782D01*
G37*
D14*
X36195000Y-45720000D03*
D10*
G36*
X37035928Y-44125782D02*
G01*
X37051702Y-44128122D01*
X37067171Y-44131997D01*
X37082186Y-44137370D01*
X37096602Y-44144188D01*
X37110280Y-44152386D01*
X37123089Y-44161886D01*
X37134905Y-44172595D01*
X37145614Y-44184411D01*
X37155114Y-44197220D01*
X37163312Y-44210898D01*
X37170130Y-44225314D01*
X37175503Y-44240329D01*
X37179378Y-44255798D01*
X37181718Y-44271572D01*
X37182500Y-44287500D01*
X37182500Y-44612500D01*
X37181718Y-44628428D01*
X37179378Y-44644202D01*
X37175503Y-44659671D01*
X37170130Y-44674686D01*
X37163312Y-44689102D01*
X37155114Y-44702780D01*
X37145614Y-44715589D01*
X37134905Y-44727405D01*
X37123089Y-44738114D01*
X37110280Y-44747614D01*
X37096602Y-44755812D01*
X37082186Y-44762630D01*
X37067171Y-44768003D01*
X37051702Y-44771878D01*
X37035928Y-44774218D01*
X37020000Y-44775000D01*
X35370000Y-44775000D01*
X35354072Y-44774218D01*
X35338298Y-44771878D01*
X35322829Y-44768003D01*
X35307814Y-44762630D01*
X35293398Y-44755812D01*
X35279720Y-44747614D01*
X35266911Y-44738114D01*
X35255095Y-44727405D01*
X35244386Y-44715589D01*
X35234886Y-44702780D01*
X35226688Y-44689102D01*
X35219870Y-44674686D01*
X35214497Y-44659671D01*
X35210622Y-44644202D01*
X35208282Y-44628428D01*
X35207500Y-44612500D01*
X35207500Y-44287500D01*
X35208282Y-44271572D01*
X35210622Y-44255798D01*
X35214497Y-44240329D01*
X35219870Y-44225314D01*
X35226688Y-44210898D01*
X35234886Y-44197220D01*
X35244386Y-44184411D01*
X35255095Y-44172595D01*
X35266911Y-44161886D01*
X35279720Y-44152386D01*
X35293398Y-44144188D01*
X35307814Y-44137370D01*
X35322829Y-44131997D01*
X35338298Y-44128122D01*
X35354072Y-44125782D01*
X35370000Y-44125000D01*
X37020000Y-44125000D01*
X37035928Y-44125782D01*
X37035928Y-44125782D01*
G37*
D14*
X36195000Y-44450000D03*
D10*
G36*
X42110928Y-44125782D02*
G01*
X42126702Y-44128122D01*
X42142171Y-44131997D01*
X42157186Y-44137370D01*
X42171602Y-44144188D01*
X42185280Y-44152386D01*
X42198089Y-44161886D01*
X42209905Y-44172595D01*
X42220614Y-44184411D01*
X42230114Y-44197220D01*
X42238312Y-44210898D01*
X42245130Y-44225314D01*
X42250503Y-44240329D01*
X42254378Y-44255798D01*
X42256718Y-44271572D01*
X42257500Y-44287500D01*
X42257500Y-44612500D01*
X42256718Y-44628428D01*
X42254378Y-44644202D01*
X42250503Y-44659671D01*
X42245130Y-44674686D01*
X42238312Y-44689102D01*
X42230114Y-44702780D01*
X42220614Y-44715589D01*
X42209905Y-44727405D01*
X42198089Y-44738114D01*
X42185280Y-44747614D01*
X42171602Y-44755812D01*
X42157186Y-44762630D01*
X42142171Y-44768003D01*
X42126702Y-44771878D01*
X42110928Y-44774218D01*
X42095000Y-44775000D01*
X40445000Y-44775000D01*
X40429072Y-44774218D01*
X40413298Y-44771878D01*
X40397829Y-44768003D01*
X40382814Y-44762630D01*
X40368398Y-44755812D01*
X40354720Y-44747614D01*
X40341911Y-44738114D01*
X40330095Y-44727405D01*
X40319386Y-44715589D01*
X40309886Y-44702780D01*
X40301688Y-44689102D01*
X40294870Y-44674686D01*
X40289497Y-44659671D01*
X40285622Y-44644202D01*
X40283282Y-44628428D01*
X40282500Y-44612500D01*
X40282500Y-44287500D01*
X40283282Y-44271572D01*
X40285622Y-44255798D01*
X40289497Y-44240329D01*
X40294870Y-44225314D01*
X40301688Y-44210898D01*
X40309886Y-44197220D01*
X40319386Y-44184411D01*
X40330095Y-44172595D01*
X40341911Y-44161886D01*
X40354720Y-44152386D01*
X40368398Y-44144188D01*
X40382814Y-44137370D01*
X40397829Y-44131997D01*
X40413298Y-44128122D01*
X40429072Y-44125782D01*
X40445000Y-44125000D01*
X42095000Y-44125000D01*
X42110928Y-44125782D01*
X42110928Y-44125782D01*
G37*
D14*
X41270000Y-44450000D03*
D10*
G36*
X42110928Y-45395782D02*
G01*
X42126702Y-45398122D01*
X42142171Y-45401997D01*
X42157186Y-45407370D01*
X42171602Y-45414188D01*
X42185280Y-45422386D01*
X42198089Y-45431886D01*
X42209905Y-45442595D01*
X42220614Y-45454411D01*
X42230114Y-45467220D01*
X42238312Y-45480898D01*
X42245130Y-45495314D01*
X42250503Y-45510329D01*
X42254378Y-45525798D01*
X42256718Y-45541572D01*
X42257500Y-45557500D01*
X42257500Y-45882500D01*
X42256718Y-45898428D01*
X42254378Y-45914202D01*
X42250503Y-45929671D01*
X42245130Y-45944686D01*
X42238312Y-45959102D01*
X42230114Y-45972780D01*
X42220614Y-45985589D01*
X42209905Y-45997405D01*
X42198089Y-46008114D01*
X42185280Y-46017614D01*
X42171602Y-46025812D01*
X42157186Y-46032630D01*
X42142171Y-46038003D01*
X42126702Y-46041878D01*
X42110928Y-46044218D01*
X42095000Y-46045000D01*
X40445000Y-46045000D01*
X40429072Y-46044218D01*
X40413298Y-46041878D01*
X40397829Y-46038003D01*
X40382814Y-46032630D01*
X40368398Y-46025812D01*
X40354720Y-46017614D01*
X40341911Y-46008114D01*
X40330095Y-45997405D01*
X40319386Y-45985589D01*
X40309886Y-45972780D01*
X40301688Y-45959102D01*
X40294870Y-45944686D01*
X40289497Y-45929671D01*
X40285622Y-45914202D01*
X40283282Y-45898428D01*
X40282500Y-45882500D01*
X40282500Y-45557500D01*
X40283282Y-45541572D01*
X40285622Y-45525798D01*
X40289497Y-45510329D01*
X40294870Y-45495314D01*
X40301688Y-45480898D01*
X40309886Y-45467220D01*
X40319386Y-45454411D01*
X40330095Y-45442595D01*
X40341911Y-45431886D01*
X40354720Y-45422386D01*
X40368398Y-45414188D01*
X40382814Y-45407370D01*
X40397829Y-45401997D01*
X40413298Y-45398122D01*
X40429072Y-45395782D01*
X40445000Y-45395000D01*
X42095000Y-45395000D01*
X42110928Y-45395782D01*
X42110928Y-45395782D01*
G37*
D14*
X41270000Y-45720000D03*
D10*
G36*
X42110928Y-46665782D02*
G01*
X42126702Y-46668122D01*
X42142171Y-46671997D01*
X42157186Y-46677370D01*
X42171602Y-46684188D01*
X42185280Y-46692386D01*
X42198089Y-46701886D01*
X42209905Y-46712595D01*
X42220614Y-46724411D01*
X42230114Y-46737220D01*
X42238312Y-46750898D01*
X42245130Y-46765314D01*
X42250503Y-46780329D01*
X42254378Y-46795798D01*
X42256718Y-46811572D01*
X42257500Y-46827500D01*
X42257500Y-47152500D01*
X42256718Y-47168428D01*
X42254378Y-47184202D01*
X42250503Y-47199671D01*
X42245130Y-47214686D01*
X42238312Y-47229102D01*
X42230114Y-47242780D01*
X42220614Y-47255589D01*
X42209905Y-47267405D01*
X42198089Y-47278114D01*
X42185280Y-47287614D01*
X42171602Y-47295812D01*
X42157186Y-47302630D01*
X42142171Y-47308003D01*
X42126702Y-47311878D01*
X42110928Y-47314218D01*
X42095000Y-47315000D01*
X40445000Y-47315000D01*
X40429072Y-47314218D01*
X40413298Y-47311878D01*
X40397829Y-47308003D01*
X40382814Y-47302630D01*
X40368398Y-47295812D01*
X40354720Y-47287614D01*
X40341911Y-47278114D01*
X40330095Y-47267405D01*
X40319386Y-47255589D01*
X40309886Y-47242780D01*
X40301688Y-47229102D01*
X40294870Y-47214686D01*
X40289497Y-47199671D01*
X40285622Y-47184202D01*
X40283282Y-47168428D01*
X40282500Y-47152500D01*
X40282500Y-46827500D01*
X40283282Y-46811572D01*
X40285622Y-46795798D01*
X40289497Y-46780329D01*
X40294870Y-46765314D01*
X40301688Y-46750898D01*
X40309886Y-46737220D01*
X40319386Y-46724411D01*
X40330095Y-46712595D01*
X40341911Y-46701886D01*
X40354720Y-46692386D01*
X40368398Y-46684188D01*
X40382814Y-46677370D01*
X40397829Y-46671997D01*
X40413298Y-46668122D01*
X40429072Y-46665782D01*
X40445000Y-46665000D01*
X42095000Y-46665000D01*
X42110928Y-46665782D01*
X42110928Y-46665782D01*
G37*
D14*
X41270000Y-46990000D03*
D10*
G36*
X42110928Y-47935782D02*
G01*
X42126702Y-47938122D01*
X42142171Y-47941997D01*
X42157186Y-47947370D01*
X42171602Y-47954188D01*
X42185280Y-47962386D01*
X42198089Y-47971886D01*
X42209905Y-47982595D01*
X42220614Y-47994411D01*
X42230114Y-48007220D01*
X42238312Y-48020898D01*
X42245130Y-48035314D01*
X42250503Y-48050329D01*
X42254378Y-48065798D01*
X42256718Y-48081572D01*
X42257500Y-48097500D01*
X42257500Y-48422500D01*
X42256718Y-48438428D01*
X42254378Y-48454202D01*
X42250503Y-48469671D01*
X42245130Y-48484686D01*
X42238312Y-48499102D01*
X42230114Y-48512780D01*
X42220614Y-48525589D01*
X42209905Y-48537405D01*
X42198089Y-48548114D01*
X42185280Y-48557614D01*
X42171602Y-48565812D01*
X42157186Y-48572630D01*
X42142171Y-48578003D01*
X42126702Y-48581878D01*
X42110928Y-48584218D01*
X42095000Y-48585000D01*
X40445000Y-48585000D01*
X40429072Y-48584218D01*
X40413298Y-48581878D01*
X40397829Y-48578003D01*
X40382814Y-48572630D01*
X40368398Y-48565812D01*
X40354720Y-48557614D01*
X40341911Y-48548114D01*
X40330095Y-48537405D01*
X40319386Y-48525589D01*
X40309886Y-48512780D01*
X40301688Y-48499102D01*
X40294870Y-48484686D01*
X40289497Y-48469671D01*
X40285622Y-48454202D01*
X40283282Y-48438428D01*
X40282500Y-48422500D01*
X40282500Y-48097500D01*
X40283282Y-48081572D01*
X40285622Y-48065798D01*
X40289497Y-48050329D01*
X40294870Y-48035314D01*
X40301688Y-48020898D01*
X40309886Y-48007220D01*
X40319386Y-47994411D01*
X40330095Y-47982595D01*
X40341911Y-47971886D01*
X40354720Y-47962386D01*
X40368398Y-47954188D01*
X40382814Y-47947370D01*
X40397829Y-47941997D01*
X40413298Y-47938122D01*
X40429072Y-47935782D01*
X40445000Y-47935000D01*
X42095000Y-47935000D01*
X42110928Y-47935782D01*
X42110928Y-47935782D01*
G37*
D14*
X41270000Y-48260000D03*
D10*
G36*
X40144703Y-51770722D02*
G01*
X40159264Y-51772882D01*
X40173543Y-51776459D01*
X40187403Y-51781418D01*
X40200710Y-51787712D01*
X40213336Y-51795280D01*
X40225159Y-51804048D01*
X40236066Y-51813934D01*
X40245952Y-51824841D01*
X40254720Y-51836664D01*
X40262288Y-51849290D01*
X40268582Y-51862597D01*
X40273541Y-51876457D01*
X40277118Y-51890736D01*
X40279278Y-51905297D01*
X40280000Y-51920000D01*
X40280000Y-52220000D01*
X40279278Y-52234703D01*
X40277118Y-52249264D01*
X40273541Y-52263543D01*
X40268582Y-52277403D01*
X40262288Y-52290710D01*
X40254720Y-52303336D01*
X40245952Y-52315159D01*
X40236066Y-52326066D01*
X40225159Y-52335952D01*
X40213336Y-52344720D01*
X40200710Y-52352288D01*
X40187403Y-52358582D01*
X40173543Y-52363541D01*
X40159264Y-52367118D01*
X40144703Y-52369278D01*
X40130000Y-52370000D01*
X38480000Y-52370000D01*
X38465297Y-52369278D01*
X38450736Y-52367118D01*
X38436457Y-52363541D01*
X38422597Y-52358582D01*
X38409290Y-52352288D01*
X38396664Y-52344720D01*
X38384841Y-52335952D01*
X38373934Y-52326066D01*
X38364048Y-52315159D01*
X38355280Y-52303336D01*
X38347712Y-52290710D01*
X38341418Y-52277403D01*
X38336459Y-52263543D01*
X38332882Y-52249264D01*
X38330722Y-52234703D01*
X38330000Y-52220000D01*
X38330000Y-51920000D01*
X38330722Y-51905297D01*
X38332882Y-51890736D01*
X38336459Y-51876457D01*
X38341418Y-51862597D01*
X38347712Y-51849290D01*
X38355280Y-51836664D01*
X38364048Y-51824841D01*
X38373934Y-51813934D01*
X38384841Y-51804048D01*
X38396664Y-51795280D01*
X38409290Y-51787712D01*
X38422597Y-51781418D01*
X38436457Y-51776459D01*
X38450736Y-51772882D01*
X38465297Y-51770722D01*
X38480000Y-51770000D01*
X40130000Y-51770000D01*
X40144703Y-51770722D01*
X40144703Y-51770722D01*
G37*
D15*
X39305000Y-52070000D03*
D10*
G36*
X40144703Y-53040722D02*
G01*
X40159264Y-53042882D01*
X40173543Y-53046459D01*
X40187403Y-53051418D01*
X40200710Y-53057712D01*
X40213336Y-53065280D01*
X40225159Y-53074048D01*
X40236066Y-53083934D01*
X40245952Y-53094841D01*
X40254720Y-53106664D01*
X40262288Y-53119290D01*
X40268582Y-53132597D01*
X40273541Y-53146457D01*
X40277118Y-53160736D01*
X40279278Y-53175297D01*
X40280000Y-53190000D01*
X40280000Y-53490000D01*
X40279278Y-53504703D01*
X40277118Y-53519264D01*
X40273541Y-53533543D01*
X40268582Y-53547403D01*
X40262288Y-53560710D01*
X40254720Y-53573336D01*
X40245952Y-53585159D01*
X40236066Y-53596066D01*
X40225159Y-53605952D01*
X40213336Y-53614720D01*
X40200710Y-53622288D01*
X40187403Y-53628582D01*
X40173543Y-53633541D01*
X40159264Y-53637118D01*
X40144703Y-53639278D01*
X40130000Y-53640000D01*
X38480000Y-53640000D01*
X38465297Y-53639278D01*
X38450736Y-53637118D01*
X38436457Y-53633541D01*
X38422597Y-53628582D01*
X38409290Y-53622288D01*
X38396664Y-53614720D01*
X38384841Y-53605952D01*
X38373934Y-53596066D01*
X38364048Y-53585159D01*
X38355280Y-53573336D01*
X38347712Y-53560710D01*
X38341418Y-53547403D01*
X38336459Y-53533543D01*
X38332882Y-53519264D01*
X38330722Y-53504703D01*
X38330000Y-53490000D01*
X38330000Y-53190000D01*
X38330722Y-53175297D01*
X38332882Y-53160736D01*
X38336459Y-53146457D01*
X38341418Y-53132597D01*
X38347712Y-53119290D01*
X38355280Y-53106664D01*
X38364048Y-53094841D01*
X38373934Y-53083934D01*
X38384841Y-53074048D01*
X38396664Y-53065280D01*
X38409290Y-53057712D01*
X38422597Y-53051418D01*
X38436457Y-53046459D01*
X38450736Y-53042882D01*
X38465297Y-53040722D01*
X38480000Y-53040000D01*
X40130000Y-53040000D01*
X40144703Y-53040722D01*
X40144703Y-53040722D01*
G37*
D15*
X39305000Y-53340000D03*
D10*
G36*
X40144703Y-54310722D02*
G01*
X40159264Y-54312882D01*
X40173543Y-54316459D01*
X40187403Y-54321418D01*
X40200710Y-54327712D01*
X40213336Y-54335280D01*
X40225159Y-54344048D01*
X40236066Y-54353934D01*
X40245952Y-54364841D01*
X40254720Y-54376664D01*
X40262288Y-54389290D01*
X40268582Y-54402597D01*
X40273541Y-54416457D01*
X40277118Y-54430736D01*
X40279278Y-54445297D01*
X40280000Y-54460000D01*
X40280000Y-54760000D01*
X40279278Y-54774703D01*
X40277118Y-54789264D01*
X40273541Y-54803543D01*
X40268582Y-54817403D01*
X40262288Y-54830710D01*
X40254720Y-54843336D01*
X40245952Y-54855159D01*
X40236066Y-54866066D01*
X40225159Y-54875952D01*
X40213336Y-54884720D01*
X40200710Y-54892288D01*
X40187403Y-54898582D01*
X40173543Y-54903541D01*
X40159264Y-54907118D01*
X40144703Y-54909278D01*
X40130000Y-54910000D01*
X38480000Y-54910000D01*
X38465297Y-54909278D01*
X38450736Y-54907118D01*
X38436457Y-54903541D01*
X38422597Y-54898582D01*
X38409290Y-54892288D01*
X38396664Y-54884720D01*
X38384841Y-54875952D01*
X38373934Y-54866066D01*
X38364048Y-54855159D01*
X38355280Y-54843336D01*
X38347712Y-54830710D01*
X38341418Y-54817403D01*
X38336459Y-54803543D01*
X38332882Y-54789264D01*
X38330722Y-54774703D01*
X38330000Y-54760000D01*
X38330000Y-54460000D01*
X38330722Y-54445297D01*
X38332882Y-54430736D01*
X38336459Y-54416457D01*
X38341418Y-54402597D01*
X38347712Y-54389290D01*
X38355280Y-54376664D01*
X38364048Y-54364841D01*
X38373934Y-54353934D01*
X38384841Y-54344048D01*
X38396664Y-54335280D01*
X38409290Y-54327712D01*
X38422597Y-54321418D01*
X38436457Y-54316459D01*
X38450736Y-54312882D01*
X38465297Y-54310722D01*
X38480000Y-54310000D01*
X40130000Y-54310000D01*
X40144703Y-54310722D01*
X40144703Y-54310722D01*
G37*
D15*
X39305000Y-54610000D03*
D10*
G36*
X40144703Y-55580722D02*
G01*
X40159264Y-55582882D01*
X40173543Y-55586459D01*
X40187403Y-55591418D01*
X40200710Y-55597712D01*
X40213336Y-55605280D01*
X40225159Y-55614048D01*
X40236066Y-55623934D01*
X40245952Y-55634841D01*
X40254720Y-55646664D01*
X40262288Y-55659290D01*
X40268582Y-55672597D01*
X40273541Y-55686457D01*
X40277118Y-55700736D01*
X40279278Y-55715297D01*
X40280000Y-55730000D01*
X40280000Y-56030000D01*
X40279278Y-56044703D01*
X40277118Y-56059264D01*
X40273541Y-56073543D01*
X40268582Y-56087403D01*
X40262288Y-56100710D01*
X40254720Y-56113336D01*
X40245952Y-56125159D01*
X40236066Y-56136066D01*
X40225159Y-56145952D01*
X40213336Y-56154720D01*
X40200710Y-56162288D01*
X40187403Y-56168582D01*
X40173543Y-56173541D01*
X40159264Y-56177118D01*
X40144703Y-56179278D01*
X40130000Y-56180000D01*
X38480000Y-56180000D01*
X38465297Y-56179278D01*
X38450736Y-56177118D01*
X38436457Y-56173541D01*
X38422597Y-56168582D01*
X38409290Y-56162288D01*
X38396664Y-56154720D01*
X38384841Y-56145952D01*
X38373934Y-56136066D01*
X38364048Y-56125159D01*
X38355280Y-56113336D01*
X38347712Y-56100710D01*
X38341418Y-56087403D01*
X38336459Y-56073543D01*
X38332882Y-56059264D01*
X38330722Y-56044703D01*
X38330000Y-56030000D01*
X38330000Y-55730000D01*
X38330722Y-55715297D01*
X38332882Y-55700736D01*
X38336459Y-55686457D01*
X38341418Y-55672597D01*
X38347712Y-55659290D01*
X38355280Y-55646664D01*
X38364048Y-55634841D01*
X38373934Y-55623934D01*
X38384841Y-55614048D01*
X38396664Y-55605280D01*
X38409290Y-55597712D01*
X38422597Y-55591418D01*
X38436457Y-55586459D01*
X38450736Y-55582882D01*
X38465297Y-55580722D01*
X38480000Y-55580000D01*
X40130000Y-55580000D01*
X40144703Y-55580722D01*
X40144703Y-55580722D01*
G37*
D15*
X39305000Y-55880000D03*
D10*
G36*
X40144703Y-56850722D02*
G01*
X40159264Y-56852882D01*
X40173543Y-56856459D01*
X40187403Y-56861418D01*
X40200710Y-56867712D01*
X40213336Y-56875280D01*
X40225159Y-56884048D01*
X40236066Y-56893934D01*
X40245952Y-56904841D01*
X40254720Y-56916664D01*
X40262288Y-56929290D01*
X40268582Y-56942597D01*
X40273541Y-56956457D01*
X40277118Y-56970736D01*
X40279278Y-56985297D01*
X40280000Y-57000000D01*
X40280000Y-57300000D01*
X40279278Y-57314703D01*
X40277118Y-57329264D01*
X40273541Y-57343543D01*
X40268582Y-57357403D01*
X40262288Y-57370710D01*
X40254720Y-57383336D01*
X40245952Y-57395159D01*
X40236066Y-57406066D01*
X40225159Y-57415952D01*
X40213336Y-57424720D01*
X40200710Y-57432288D01*
X40187403Y-57438582D01*
X40173543Y-57443541D01*
X40159264Y-57447118D01*
X40144703Y-57449278D01*
X40130000Y-57450000D01*
X38480000Y-57450000D01*
X38465297Y-57449278D01*
X38450736Y-57447118D01*
X38436457Y-57443541D01*
X38422597Y-57438582D01*
X38409290Y-57432288D01*
X38396664Y-57424720D01*
X38384841Y-57415952D01*
X38373934Y-57406066D01*
X38364048Y-57395159D01*
X38355280Y-57383336D01*
X38347712Y-57370710D01*
X38341418Y-57357403D01*
X38336459Y-57343543D01*
X38332882Y-57329264D01*
X38330722Y-57314703D01*
X38330000Y-57300000D01*
X38330000Y-57000000D01*
X38330722Y-56985297D01*
X38332882Y-56970736D01*
X38336459Y-56956457D01*
X38341418Y-56942597D01*
X38347712Y-56929290D01*
X38355280Y-56916664D01*
X38364048Y-56904841D01*
X38373934Y-56893934D01*
X38384841Y-56884048D01*
X38396664Y-56875280D01*
X38409290Y-56867712D01*
X38422597Y-56861418D01*
X38436457Y-56856459D01*
X38450736Y-56852882D01*
X38465297Y-56850722D01*
X38480000Y-56850000D01*
X40130000Y-56850000D01*
X40144703Y-56850722D01*
X40144703Y-56850722D01*
G37*
D15*
X39305000Y-57150000D03*
D10*
G36*
X40144703Y-58120722D02*
G01*
X40159264Y-58122882D01*
X40173543Y-58126459D01*
X40187403Y-58131418D01*
X40200710Y-58137712D01*
X40213336Y-58145280D01*
X40225159Y-58154048D01*
X40236066Y-58163934D01*
X40245952Y-58174841D01*
X40254720Y-58186664D01*
X40262288Y-58199290D01*
X40268582Y-58212597D01*
X40273541Y-58226457D01*
X40277118Y-58240736D01*
X40279278Y-58255297D01*
X40280000Y-58270000D01*
X40280000Y-58570000D01*
X40279278Y-58584703D01*
X40277118Y-58599264D01*
X40273541Y-58613543D01*
X40268582Y-58627403D01*
X40262288Y-58640710D01*
X40254720Y-58653336D01*
X40245952Y-58665159D01*
X40236066Y-58676066D01*
X40225159Y-58685952D01*
X40213336Y-58694720D01*
X40200710Y-58702288D01*
X40187403Y-58708582D01*
X40173543Y-58713541D01*
X40159264Y-58717118D01*
X40144703Y-58719278D01*
X40130000Y-58720000D01*
X38480000Y-58720000D01*
X38465297Y-58719278D01*
X38450736Y-58717118D01*
X38436457Y-58713541D01*
X38422597Y-58708582D01*
X38409290Y-58702288D01*
X38396664Y-58694720D01*
X38384841Y-58685952D01*
X38373934Y-58676066D01*
X38364048Y-58665159D01*
X38355280Y-58653336D01*
X38347712Y-58640710D01*
X38341418Y-58627403D01*
X38336459Y-58613543D01*
X38332882Y-58599264D01*
X38330722Y-58584703D01*
X38330000Y-58570000D01*
X38330000Y-58270000D01*
X38330722Y-58255297D01*
X38332882Y-58240736D01*
X38336459Y-58226457D01*
X38341418Y-58212597D01*
X38347712Y-58199290D01*
X38355280Y-58186664D01*
X38364048Y-58174841D01*
X38373934Y-58163934D01*
X38384841Y-58154048D01*
X38396664Y-58145280D01*
X38409290Y-58137712D01*
X38422597Y-58131418D01*
X38436457Y-58126459D01*
X38450736Y-58122882D01*
X38465297Y-58120722D01*
X38480000Y-58120000D01*
X40130000Y-58120000D01*
X40144703Y-58120722D01*
X40144703Y-58120722D01*
G37*
D15*
X39305000Y-58420000D03*
D10*
G36*
X40144703Y-59390722D02*
G01*
X40159264Y-59392882D01*
X40173543Y-59396459D01*
X40187403Y-59401418D01*
X40200710Y-59407712D01*
X40213336Y-59415280D01*
X40225159Y-59424048D01*
X40236066Y-59433934D01*
X40245952Y-59444841D01*
X40254720Y-59456664D01*
X40262288Y-59469290D01*
X40268582Y-59482597D01*
X40273541Y-59496457D01*
X40277118Y-59510736D01*
X40279278Y-59525297D01*
X40280000Y-59540000D01*
X40280000Y-59840000D01*
X40279278Y-59854703D01*
X40277118Y-59869264D01*
X40273541Y-59883543D01*
X40268582Y-59897403D01*
X40262288Y-59910710D01*
X40254720Y-59923336D01*
X40245952Y-59935159D01*
X40236066Y-59946066D01*
X40225159Y-59955952D01*
X40213336Y-59964720D01*
X40200710Y-59972288D01*
X40187403Y-59978582D01*
X40173543Y-59983541D01*
X40159264Y-59987118D01*
X40144703Y-59989278D01*
X40130000Y-59990000D01*
X38480000Y-59990000D01*
X38465297Y-59989278D01*
X38450736Y-59987118D01*
X38436457Y-59983541D01*
X38422597Y-59978582D01*
X38409290Y-59972288D01*
X38396664Y-59964720D01*
X38384841Y-59955952D01*
X38373934Y-59946066D01*
X38364048Y-59935159D01*
X38355280Y-59923336D01*
X38347712Y-59910710D01*
X38341418Y-59897403D01*
X38336459Y-59883543D01*
X38332882Y-59869264D01*
X38330722Y-59854703D01*
X38330000Y-59840000D01*
X38330000Y-59540000D01*
X38330722Y-59525297D01*
X38332882Y-59510736D01*
X38336459Y-59496457D01*
X38341418Y-59482597D01*
X38347712Y-59469290D01*
X38355280Y-59456664D01*
X38364048Y-59444841D01*
X38373934Y-59433934D01*
X38384841Y-59424048D01*
X38396664Y-59415280D01*
X38409290Y-59407712D01*
X38422597Y-59401418D01*
X38436457Y-59396459D01*
X38450736Y-59392882D01*
X38465297Y-59390722D01*
X38480000Y-59390000D01*
X40130000Y-59390000D01*
X40144703Y-59390722D01*
X40144703Y-59390722D01*
G37*
D15*
X39305000Y-59690000D03*
D10*
G36*
X35194703Y-59390722D02*
G01*
X35209264Y-59392882D01*
X35223543Y-59396459D01*
X35237403Y-59401418D01*
X35250710Y-59407712D01*
X35263336Y-59415280D01*
X35275159Y-59424048D01*
X35286066Y-59433934D01*
X35295952Y-59444841D01*
X35304720Y-59456664D01*
X35312288Y-59469290D01*
X35318582Y-59482597D01*
X35323541Y-59496457D01*
X35327118Y-59510736D01*
X35329278Y-59525297D01*
X35330000Y-59540000D01*
X35330000Y-59840000D01*
X35329278Y-59854703D01*
X35327118Y-59869264D01*
X35323541Y-59883543D01*
X35318582Y-59897403D01*
X35312288Y-59910710D01*
X35304720Y-59923336D01*
X35295952Y-59935159D01*
X35286066Y-59946066D01*
X35275159Y-59955952D01*
X35263336Y-59964720D01*
X35250710Y-59972288D01*
X35237403Y-59978582D01*
X35223543Y-59983541D01*
X35209264Y-59987118D01*
X35194703Y-59989278D01*
X35180000Y-59990000D01*
X33530000Y-59990000D01*
X33515297Y-59989278D01*
X33500736Y-59987118D01*
X33486457Y-59983541D01*
X33472597Y-59978582D01*
X33459290Y-59972288D01*
X33446664Y-59964720D01*
X33434841Y-59955952D01*
X33423934Y-59946066D01*
X33414048Y-59935159D01*
X33405280Y-59923336D01*
X33397712Y-59910710D01*
X33391418Y-59897403D01*
X33386459Y-59883543D01*
X33382882Y-59869264D01*
X33380722Y-59854703D01*
X33380000Y-59840000D01*
X33380000Y-59540000D01*
X33380722Y-59525297D01*
X33382882Y-59510736D01*
X33386459Y-59496457D01*
X33391418Y-59482597D01*
X33397712Y-59469290D01*
X33405280Y-59456664D01*
X33414048Y-59444841D01*
X33423934Y-59433934D01*
X33434841Y-59424048D01*
X33446664Y-59415280D01*
X33459290Y-59407712D01*
X33472597Y-59401418D01*
X33486457Y-59396459D01*
X33500736Y-59392882D01*
X33515297Y-59390722D01*
X33530000Y-59390000D01*
X35180000Y-59390000D01*
X35194703Y-59390722D01*
X35194703Y-59390722D01*
G37*
D15*
X34355000Y-59690000D03*
D10*
G36*
X35194703Y-58120722D02*
G01*
X35209264Y-58122882D01*
X35223543Y-58126459D01*
X35237403Y-58131418D01*
X35250710Y-58137712D01*
X35263336Y-58145280D01*
X35275159Y-58154048D01*
X35286066Y-58163934D01*
X35295952Y-58174841D01*
X35304720Y-58186664D01*
X35312288Y-58199290D01*
X35318582Y-58212597D01*
X35323541Y-58226457D01*
X35327118Y-58240736D01*
X35329278Y-58255297D01*
X35330000Y-58270000D01*
X35330000Y-58570000D01*
X35329278Y-58584703D01*
X35327118Y-58599264D01*
X35323541Y-58613543D01*
X35318582Y-58627403D01*
X35312288Y-58640710D01*
X35304720Y-58653336D01*
X35295952Y-58665159D01*
X35286066Y-58676066D01*
X35275159Y-58685952D01*
X35263336Y-58694720D01*
X35250710Y-58702288D01*
X35237403Y-58708582D01*
X35223543Y-58713541D01*
X35209264Y-58717118D01*
X35194703Y-58719278D01*
X35180000Y-58720000D01*
X33530000Y-58720000D01*
X33515297Y-58719278D01*
X33500736Y-58717118D01*
X33486457Y-58713541D01*
X33472597Y-58708582D01*
X33459290Y-58702288D01*
X33446664Y-58694720D01*
X33434841Y-58685952D01*
X33423934Y-58676066D01*
X33414048Y-58665159D01*
X33405280Y-58653336D01*
X33397712Y-58640710D01*
X33391418Y-58627403D01*
X33386459Y-58613543D01*
X33382882Y-58599264D01*
X33380722Y-58584703D01*
X33380000Y-58570000D01*
X33380000Y-58270000D01*
X33380722Y-58255297D01*
X33382882Y-58240736D01*
X33386459Y-58226457D01*
X33391418Y-58212597D01*
X33397712Y-58199290D01*
X33405280Y-58186664D01*
X33414048Y-58174841D01*
X33423934Y-58163934D01*
X33434841Y-58154048D01*
X33446664Y-58145280D01*
X33459290Y-58137712D01*
X33472597Y-58131418D01*
X33486457Y-58126459D01*
X33500736Y-58122882D01*
X33515297Y-58120722D01*
X33530000Y-58120000D01*
X35180000Y-58120000D01*
X35194703Y-58120722D01*
X35194703Y-58120722D01*
G37*
D15*
X34355000Y-58420000D03*
D10*
G36*
X35194703Y-56850722D02*
G01*
X35209264Y-56852882D01*
X35223543Y-56856459D01*
X35237403Y-56861418D01*
X35250710Y-56867712D01*
X35263336Y-56875280D01*
X35275159Y-56884048D01*
X35286066Y-56893934D01*
X35295952Y-56904841D01*
X35304720Y-56916664D01*
X35312288Y-56929290D01*
X35318582Y-56942597D01*
X35323541Y-56956457D01*
X35327118Y-56970736D01*
X35329278Y-56985297D01*
X35330000Y-57000000D01*
X35330000Y-57300000D01*
X35329278Y-57314703D01*
X35327118Y-57329264D01*
X35323541Y-57343543D01*
X35318582Y-57357403D01*
X35312288Y-57370710D01*
X35304720Y-57383336D01*
X35295952Y-57395159D01*
X35286066Y-57406066D01*
X35275159Y-57415952D01*
X35263336Y-57424720D01*
X35250710Y-57432288D01*
X35237403Y-57438582D01*
X35223543Y-57443541D01*
X35209264Y-57447118D01*
X35194703Y-57449278D01*
X35180000Y-57450000D01*
X33530000Y-57450000D01*
X33515297Y-57449278D01*
X33500736Y-57447118D01*
X33486457Y-57443541D01*
X33472597Y-57438582D01*
X33459290Y-57432288D01*
X33446664Y-57424720D01*
X33434841Y-57415952D01*
X33423934Y-57406066D01*
X33414048Y-57395159D01*
X33405280Y-57383336D01*
X33397712Y-57370710D01*
X33391418Y-57357403D01*
X33386459Y-57343543D01*
X33382882Y-57329264D01*
X33380722Y-57314703D01*
X33380000Y-57300000D01*
X33380000Y-57000000D01*
X33380722Y-56985297D01*
X33382882Y-56970736D01*
X33386459Y-56956457D01*
X33391418Y-56942597D01*
X33397712Y-56929290D01*
X33405280Y-56916664D01*
X33414048Y-56904841D01*
X33423934Y-56893934D01*
X33434841Y-56884048D01*
X33446664Y-56875280D01*
X33459290Y-56867712D01*
X33472597Y-56861418D01*
X33486457Y-56856459D01*
X33500736Y-56852882D01*
X33515297Y-56850722D01*
X33530000Y-56850000D01*
X35180000Y-56850000D01*
X35194703Y-56850722D01*
X35194703Y-56850722D01*
G37*
D15*
X34355000Y-57150000D03*
D10*
G36*
X35194703Y-55580722D02*
G01*
X35209264Y-55582882D01*
X35223543Y-55586459D01*
X35237403Y-55591418D01*
X35250710Y-55597712D01*
X35263336Y-55605280D01*
X35275159Y-55614048D01*
X35286066Y-55623934D01*
X35295952Y-55634841D01*
X35304720Y-55646664D01*
X35312288Y-55659290D01*
X35318582Y-55672597D01*
X35323541Y-55686457D01*
X35327118Y-55700736D01*
X35329278Y-55715297D01*
X35330000Y-55730000D01*
X35330000Y-56030000D01*
X35329278Y-56044703D01*
X35327118Y-56059264D01*
X35323541Y-56073543D01*
X35318582Y-56087403D01*
X35312288Y-56100710D01*
X35304720Y-56113336D01*
X35295952Y-56125159D01*
X35286066Y-56136066D01*
X35275159Y-56145952D01*
X35263336Y-56154720D01*
X35250710Y-56162288D01*
X35237403Y-56168582D01*
X35223543Y-56173541D01*
X35209264Y-56177118D01*
X35194703Y-56179278D01*
X35180000Y-56180000D01*
X33530000Y-56180000D01*
X33515297Y-56179278D01*
X33500736Y-56177118D01*
X33486457Y-56173541D01*
X33472597Y-56168582D01*
X33459290Y-56162288D01*
X33446664Y-56154720D01*
X33434841Y-56145952D01*
X33423934Y-56136066D01*
X33414048Y-56125159D01*
X33405280Y-56113336D01*
X33397712Y-56100710D01*
X33391418Y-56087403D01*
X33386459Y-56073543D01*
X33382882Y-56059264D01*
X33380722Y-56044703D01*
X33380000Y-56030000D01*
X33380000Y-55730000D01*
X33380722Y-55715297D01*
X33382882Y-55700736D01*
X33386459Y-55686457D01*
X33391418Y-55672597D01*
X33397712Y-55659290D01*
X33405280Y-55646664D01*
X33414048Y-55634841D01*
X33423934Y-55623934D01*
X33434841Y-55614048D01*
X33446664Y-55605280D01*
X33459290Y-55597712D01*
X33472597Y-55591418D01*
X33486457Y-55586459D01*
X33500736Y-55582882D01*
X33515297Y-55580722D01*
X33530000Y-55580000D01*
X35180000Y-55580000D01*
X35194703Y-55580722D01*
X35194703Y-55580722D01*
G37*
D15*
X34355000Y-55880000D03*
D10*
G36*
X35194703Y-54310722D02*
G01*
X35209264Y-54312882D01*
X35223543Y-54316459D01*
X35237403Y-54321418D01*
X35250710Y-54327712D01*
X35263336Y-54335280D01*
X35275159Y-54344048D01*
X35286066Y-54353934D01*
X35295952Y-54364841D01*
X35304720Y-54376664D01*
X35312288Y-54389290D01*
X35318582Y-54402597D01*
X35323541Y-54416457D01*
X35327118Y-54430736D01*
X35329278Y-54445297D01*
X35330000Y-54460000D01*
X35330000Y-54760000D01*
X35329278Y-54774703D01*
X35327118Y-54789264D01*
X35323541Y-54803543D01*
X35318582Y-54817403D01*
X35312288Y-54830710D01*
X35304720Y-54843336D01*
X35295952Y-54855159D01*
X35286066Y-54866066D01*
X35275159Y-54875952D01*
X35263336Y-54884720D01*
X35250710Y-54892288D01*
X35237403Y-54898582D01*
X35223543Y-54903541D01*
X35209264Y-54907118D01*
X35194703Y-54909278D01*
X35180000Y-54910000D01*
X33530000Y-54910000D01*
X33515297Y-54909278D01*
X33500736Y-54907118D01*
X33486457Y-54903541D01*
X33472597Y-54898582D01*
X33459290Y-54892288D01*
X33446664Y-54884720D01*
X33434841Y-54875952D01*
X33423934Y-54866066D01*
X33414048Y-54855159D01*
X33405280Y-54843336D01*
X33397712Y-54830710D01*
X33391418Y-54817403D01*
X33386459Y-54803543D01*
X33382882Y-54789264D01*
X33380722Y-54774703D01*
X33380000Y-54760000D01*
X33380000Y-54460000D01*
X33380722Y-54445297D01*
X33382882Y-54430736D01*
X33386459Y-54416457D01*
X33391418Y-54402597D01*
X33397712Y-54389290D01*
X33405280Y-54376664D01*
X33414048Y-54364841D01*
X33423934Y-54353934D01*
X33434841Y-54344048D01*
X33446664Y-54335280D01*
X33459290Y-54327712D01*
X33472597Y-54321418D01*
X33486457Y-54316459D01*
X33500736Y-54312882D01*
X33515297Y-54310722D01*
X33530000Y-54310000D01*
X35180000Y-54310000D01*
X35194703Y-54310722D01*
X35194703Y-54310722D01*
G37*
D15*
X34355000Y-54610000D03*
D10*
G36*
X35194703Y-53040722D02*
G01*
X35209264Y-53042882D01*
X35223543Y-53046459D01*
X35237403Y-53051418D01*
X35250710Y-53057712D01*
X35263336Y-53065280D01*
X35275159Y-53074048D01*
X35286066Y-53083934D01*
X35295952Y-53094841D01*
X35304720Y-53106664D01*
X35312288Y-53119290D01*
X35318582Y-53132597D01*
X35323541Y-53146457D01*
X35327118Y-53160736D01*
X35329278Y-53175297D01*
X35330000Y-53190000D01*
X35330000Y-53490000D01*
X35329278Y-53504703D01*
X35327118Y-53519264D01*
X35323541Y-53533543D01*
X35318582Y-53547403D01*
X35312288Y-53560710D01*
X35304720Y-53573336D01*
X35295952Y-53585159D01*
X35286066Y-53596066D01*
X35275159Y-53605952D01*
X35263336Y-53614720D01*
X35250710Y-53622288D01*
X35237403Y-53628582D01*
X35223543Y-53633541D01*
X35209264Y-53637118D01*
X35194703Y-53639278D01*
X35180000Y-53640000D01*
X33530000Y-53640000D01*
X33515297Y-53639278D01*
X33500736Y-53637118D01*
X33486457Y-53633541D01*
X33472597Y-53628582D01*
X33459290Y-53622288D01*
X33446664Y-53614720D01*
X33434841Y-53605952D01*
X33423934Y-53596066D01*
X33414048Y-53585159D01*
X33405280Y-53573336D01*
X33397712Y-53560710D01*
X33391418Y-53547403D01*
X33386459Y-53533543D01*
X33382882Y-53519264D01*
X33380722Y-53504703D01*
X33380000Y-53490000D01*
X33380000Y-53190000D01*
X33380722Y-53175297D01*
X33382882Y-53160736D01*
X33386459Y-53146457D01*
X33391418Y-53132597D01*
X33397712Y-53119290D01*
X33405280Y-53106664D01*
X33414048Y-53094841D01*
X33423934Y-53083934D01*
X33434841Y-53074048D01*
X33446664Y-53065280D01*
X33459290Y-53057712D01*
X33472597Y-53051418D01*
X33486457Y-53046459D01*
X33500736Y-53042882D01*
X33515297Y-53040722D01*
X33530000Y-53040000D01*
X35180000Y-53040000D01*
X35194703Y-53040722D01*
X35194703Y-53040722D01*
G37*
D15*
X34355000Y-53340000D03*
D10*
G36*
X35194703Y-51770722D02*
G01*
X35209264Y-51772882D01*
X35223543Y-51776459D01*
X35237403Y-51781418D01*
X35250710Y-51787712D01*
X35263336Y-51795280D01*
X35275159Y-51804048D01*
X35286066Y-51813934D01*
X35295952Y-51824841D01*
X35304720Y-51836664D01*
X35312288Y-51849290D01*
X35318582Y-51862597D01*
X35323541Y-51876457D01*
X35327118Y-51890736D01*
X35329278Y-51905297D01*
X35330000Y-51920000D01*
X35330000Y-52220000D01*
X35329278Y-52234703D01*
X35327118Y-52249264D01*
X35323541Y-52263543D01*
X35318582Y-52277403D01*
X35312288Y-52290710D01*
X35304720Y-52303336D01*
X35295952Y-52315159D01*
X35286066Y-52326066D01*
X35275159Y-52335952D01*
X35263336Y-52344720D01*
X35250710Y-52352288D01*
X35237403Y-52358582D01*
X35223543Y-52363541D01*
X35209264Y-52367118D01*
X35194703Y-52369278D01*
X35180000Y-52370000D01*
X33530000Y-52370000D01*
X33515297Y-52369278D01*
X33500736Y-52367118D01*
X33486457Y-52363541D01*
X33472597Y-52358582D01*
X33459290Y-52352288D01*
X33446664Y-52344720D01*
X33434841Y-52335952D01*
X33423934Y-52326066D01*
X33414048Y-52315159D01*
X33405280Y-52303336D01*
X33397712Y-52290710D01*
X33391418Y-52277403D01*
X33386459Y-52263543D01*
X33382882Y-52249264D01*
X33380722Y-52234703D01*
X33380000Y-52220000D01*
X33380000Y-51920000D01*
X33380722Y-51905297D01*
X33382882Y-51890736D01*
X33386459Y-51876457D01*
X33391418Y-51862597D01*
X33397712Y-51849290D01*
X33405280Y-51836664D01*
X33414048Y-51824841D01*
X33423934Y-51813934D01*
X33434841Y-51804048D01*
X33446664Y-51795280D01*
X33459290Y-51787712D01*
X33472597Y-51781418D01*
X33486457Y-51776459D01*
X33500736Y-51772882D01*
X33515297Y-51770722D01*
X33530000Y-51770000D01*
X35180000Y-51770000D01*
X35194703Y-51770722D01*
X35194703Y-51770722D01*
G37*
D15*
X34355000Y-52070000D03*
D10*
G36*
X35797642Y-64706174D02*
G01*
X35821303Y-64709684D01*
X35844507Y-64715496D01*
X35867029Y-64723554D01*
X35888653Y-64733782D01*
X35909170Y-64746079D01*
X35928383Y-64760329D01*
X35946107Y-64776393D01*
X35962171Y-64794117D01*
X35976421Y-64813330D01*
X35988718Y-64833847D01*
X35998946Y-64855471D01*
X36007004Y-64877993D01*
X36012816Y-64901197D01*
X36016326Y-64924858D01*
X36017500Y-64948750D01*
X36017500Y-65861250D01*
X36016326Y-65885142D01*
X36012816Y-65908803D01*
X36007004Y-65932007D01*
X35998946Y-65954529D01*
X35988718Y-65976153D01*
X35976421Y-65996670D01*
X35962171Y-66015883D01*
X35946107Y-66033607D01*
X35928383Y-66049671D01*
X35909170Y-66063921D01*
X35888653Y-66076218D01*
X35867029Y-66086446D01*
X35844507Y-66094504D01*
X35821303Y-66100316D01*
X35797642Y-66103826D01*
X35773750Y-66105000D01*
X35286250Y-66105000D01*
X35262358Y-66103826D01*
X35238697Y-66100316D01*
X35215493Y-66094504D01*
X35192971Y-66086446D01*
X35171347Y-66076218D01*
X35150830Y-66063921D01*
X35131617Y-66049671D01*
X35113893Y-66033607D01*
X35097829Y-66015883D01*
X35083579Y-65996670D01*
X35071282Y-65976153D01*
X35061054Y-65954529D01*
X35052996Y-65932007D01*
X35047184Y-65908803D01*
X35043674Y-65885142D01*
X35042500Y-65861250D01*
X35042500Y-64948750D01*
X35043674Y-64924858D01*
X35047184Y-64901197D01*
X35052996Y-64877993D01*
X35061054Y-64855471D01*
X35071282Y-64833847D01*
X35083579Y-64813330D01*
X35097829Y-64794117D01*
X35113893Y-64776393D01*
X35131617Y-64760329D01*
X35150830Y-64746079D01*
X35171347Y-64733782D01*
X35192971Y-64723554D01*
X35215493Y-64715496D01*
X35238697Y-64709684D01*
X35262358Y-64706174D01*
X35286250Y-64705000D01*
X35773750Y-64705000D01*
X35797642Y-64706174D01*
X35797642Y-64706174D01*
G37*
D11*
X35530000Y-65405000D03*
D10*
G36*
X33922642Y-64706174D02*
G01*
X33946303Y-64709684D01*
X33969507Y-64715496D01*
X33992029Y-64723554D01*
X34013653Y-64733782D01*
X34034170Y-64746079D01*
X34053383Y-64760329D01*
X34071107Y-64776393D01*
X34087171Y-64794117D01*
X34101421Y-64813330D01*
X34113718Y-64833847D01*
X34123946Y-64855471D01*
X34132004Y-64877993D01*
X34137816Y-64901197D01*
X34141326Y-64924858D01*
X34142500Y-64948750D01*
X34142500Y-65861250D01*
X34141326Y-65885142D01*
X34137816Y-65908803D01*
X34132004Y-65932007D01*
X34123946Y-65954529D01*
X34113718Y-65976153D01*
X34101421Y-65996670D01*
X34087171Y-66015883D01*
X34071107Y-66033607D01*
X34053383Y-66049671D01*
X34034170Y-66063921D01*
X34013653Y-66076218D01*
X33992029Y-66086446D01*
X33969507Y-66094504D01*
X33946303Y-66100316D01*
X33922642Y-66103826D01*
X33898750Y-66105000D01*
X33411250Y-66105000D01*
X33387358Y-66103826D01*
X33363697Y-66100316D01*
X33340493Y-66094504D01*
X33317971Y-66086446D01*
X33296347Y-66076218D01*
X33275830Y-66063921D01*
X33256617Y-66049671D01*
X33238893Y-66033607D01*
X33222829Y-66015883D01*
X33208579Y-65996670D01*
X33196282Y-65976153D01*
X33186054Y-65954529D01*
X33177996Y-65932007D01*
X33172184Y-65908803D01*
X33168674Y-65885142D01*
X33167500Y-65861250D01*
X33167500Y-64948750D01*
X33168674Y-64924858D01*
X33172184Y-64901197D01*
X33177996Y-64877993D01*
X33186054Y-64855471D01*
X33196282Y-64833847D01*
X33208579Y-64813330D01*
X33222829Y-64794117D01*
X33238893Y-64776393D01*
X33256617Y-64760329D01*
X33275830Y-64746079D01*
X33296347Y-64733782D01*
X33317971Y-64723554D01*
X33340493Y-64715496D01*
X33363697Y-64709684D01*
X33387358Y-64706174D01*
X33411250Y-64705000D01*
X33898750Y-64705000D01*
X33922642Y-64706174D01*
X33922642Y-64706174D01*
G37*
D11*
X33655000Y-65405000D03*
D10*
G36*
X42207642Y-62801174D02*
G01*
X42231303Y-62804684D01*
X42254507Y-62810496D01*
X42277029Y-62818554D01*
X42298653Y-62828782D01*
X42319170Y-62841079D01*
X42338383Y-62855329D01*
X42356107Y-62871393D01*
X42372171Y-62889117D01*
X42386421Y-62908330D01*
X42398718Y-62928847D01*
X42408946Y-62950471D01*
X42417004Y-62972993D01*
X42422816Y-62996197D01*
X42426326Y-63019858D01*
X42427500Y-63043750D01*
X42427500Y-63956250D01*
X42426326Y-63980142D01*
X42422816Y-64003803D01*
X42417004Y-64027007D01*
X42408946Y-64049529D01*
X42398718Y-64071153D01*
X42386421Y-64091670D01*
X42372171Y-64110883D01*
X42356107Y-64128607D01*
X42338383Y-64144671D01*
X42319170Y-64158921D01*
X42298653Y-64171218D01*
X42277029Y-64181446D01*
X42254507Y-64189504D01*
X42231303Y-64195316D01*
X42207642Y-64198826D01*
X42183750Y-64200000D01*
X41696250Y-64200000D01*
X41672358Y-64198826D01*
X41648697Y-64195316D01*
X41625493Y-64189504D01*
X41602971Y-64181446D01*
X41581347Y-64171218D01*
X41560830Y-64158921D01*
X41541617Y-64144671D01*
X41523893Y-64128607D01*
X41507829Y-64110883D01*
X41493579Y-64091670D01*
X41481282Y-64071153D01*
X41471054Y-64049529D01*
X41462996Y-64027007D01*
X41457184Y-64003803D01*
X41453674Y-63980142D01*
X41452500Y-63956250D01*
X41452500Y-63043750D01*
X41453674Y-63019858D01*
X41457184Y-62996197D01*
X41462996Y-62972993D01*
X41471054Y-62950471D01*
X41481282Y-62928847D01*
X41493579Y-62908330D01*
X41507829Y-62889117D01*
X41523893Y-62871393D01*
X41541617Y-62855329D01*
X41560830Y-62841079D01*
X41581347Y-62828782D01*
X41602971Y-62818554D01*
X41625493Y-62810496D01*
X41648697Y-62804684D01*
X41672358Y-62801174D01*
X41696250Y-62800000D01*
X42183750Y-62800000D01*
X42207642Y-62801174D01*
X42207642Y-62801174D01*
G37*
D11*
X41940000Y-63500000D03*
D10*
G36*
X44082642Y-62801174D02*
G01*
X44106303Y-62804684D01*
X44129507Y-62810496D01*
X44152029Y-62818554D01*
X44173653Y-62828782D01*
X44194170Y-62841079D01*
X44213383Y-62855329D01*
X44231107Y-62871393D01*
X44247171Y-62889117D01*
X44261421Y-62908330D01*
X44273718Y-62928847D01*
X44283946Y-62950471D01*
X44292004Y-62972993D01*
X44297816Y-62996197D01*
X44301326Y-63019858D01*
X44302500Y-63043750D01*
X44302500Y-63956250D01*
X44301326Y-63980142D01*
X44297816Y-64003803D01*
X44292004Y-64027007D01*
X44283946Y-64049529D01*
X44273718Y-64071153D01*
X44261421Y-64091670D01*
X44247171Y-64110883D01*
X44231107Y-64128607D01*
X44213383Y-64144671D01*
X44194170Y-64158921D01*
X44173653Y-64171218D01*
X44152029Y-64181446D01*
X44129507Y-64189504D01*
X44106303Y-64195316D01*
X44082642Y-64198826D01*
X44058750Y-64200000D01*
X43571250Y-64200000D01*
X43547358Y-64198826D01*
X43523697Y-64195316D01*
X43500493Y-64189504D01*
X43477971Y-64181446D01*
X43456347Y-64171218D01*
X43435830Y-64158921D01*
X43416617Y-64144671D01*
X43398893Y-64128607D01*
X43382829Y-64110883D01*
X43368579Y-64091670D01*
X43356282Y-64071153D01*
X43346054Y-64049529D01*
X43337996Y-64027007D01*
X43332184Y-64003803D01*
X43328674Y-63980142D01*
X43327500Y-63956250D01*
X43327500Y-63043750D01*
X43328674Y-63019858D01*
X43332184Y-62996197D01*
X43337996Y-62972993D01*
X43346054Y-62950471D01*
X43356282Y-62928847D01*
X43368579Y-62908330D01*
X43382829Y-62889117D01*
X43398893Y-62871393D01*
X43416617Y-62855329D01*
X43435830Y-62841079D01*
X43456347Y-62828782D01*
X43477971Y-62818554D01*
X43500493Y-62810496D01*
X43523697Y-62804684D01*
X43547358Y-62801174D01*
X43571250Y-62800000D01*
X44058750Y-62800000D01*
X44082642Y-62801174D01*
X44082642Y-62801174D01*
G37*
D11*
X43815000Y-63500000D03*
D10*
G36*
X42177642Y-57086174D02*
G01*
X42201303Y-57089684D01*
X42224507Y-57095496D01*
X42247029Y-57103554D01*
X42268653Y-57113782D01*
X42289170Y-57126079D01*
X42308383Y-57140329D01*
X42326107Y-57156393D01*
X42342171Y-57174117D01*
X42356421Y-57193330D01*
X42368718Y-57213847D01*
X42378946Y-57235471D01*
X42387004Y-57257993D01*
X42392816Y-57281197D01*
X42396326Y-57304858D01*
X42397500Y-57328750D01*
X42397500Y-58241250D01*
X42396326Y-58265142D01*
X42392816Y-58288803D01*
X42387004Y-58312007D01*
X42378946Y-58334529D01*
X42368718Y-58356153D01*
X42356421Y-58376670D01*
X42342171Y-58395883D01*
X42326107Y-58413607D01*
X42308383Y-58429671D01*
X42289170Y-58443921D01*
X42268653Y-58456218D01*
X42247029Y-58466446D01*
X42224507Y-58474504D01*
X42201303Y-58480316D01*
X42177642Y-58483826D01*
X42153750Y-58485000D01*
X41666250Y-58485000D01*
X41642358Y-58483826D01*
X41618697Y-58480316D01*
X41595493Y-58474504D01*
X41572971Y-58466446D01*
X41551347Y-58456218D01*
X41530830Y-58443921D01*
X41511617Y-58429671D01*
X41493893Y-58413607D01*
X41477829Y-58395883D01*
X41463579Y-58376670D01*
X41451282Y-58356153D01*
X41441054Y-58334529D01*
X41432996Y-58312007D01*
X41427184Y-58288803D01*
X41423674Y-58265142D01*
X41422500Y-58241250D01*
X41422500Y-57328750D01*
X41423674Y-57304858D01*
X41427184Y-57281197D01*
X41432996Y-57257993D01*
X41441054Y-57235471D01*
X41451282Y-57213847D01*
X41463579Y-57193330D01*
X41477829Y-57174117D01*
X41493893Y-57156393D01*
X41511617Y-57140329D01*
X41530830Y-57126079D01*
X41551347Y-57113782D01*
X41572971Y-57103554D01*
X41595493Y-57095496D01*
X41618697Y-57089684D01*
X41642358Y-57086174D01*
X41666250Y-57085000D01*
X42153750Y-57085000D01*
X42177642Y-57086174D01*
X42177642Y-57086174D01*
G37*
D11*
X41910000Y-57785000D03*
D10*
G36*
X44052642Y-57086174D02*
G01*
X44076303Y-57089684D01*
X44099507Y-57095496D01*
X44122029Y-57103554D01*
X44143653Y-57113782D01*
X44164170Y-57126079D01*
X44183383Y-57140329D01*
X44201107Y-57156393D01*
X44217171Y-57174117D01*
X44231421Y-57193330D01*
X44243718Y-57213847D01*
X44253946Y-57235471D01*
X44262004Y-57257993D01*
X44267816Y-57281197D01*
X44271326Y-57304858D01*
X44272500Y-57328750D01*
X44272500Y-58241250D01*
X44271326Y-58265142D01*
X44267816Y-58288803D01*
X44262004Y-58312007D01*
X44253946Y-58334529D01*
X44243718Y-58356153D01*
X44231421Y-58376670D01*
X44217171Y-58395883D01*
X44201107Y-58413607D01*
X44183383Y-58429671D01*
X44164170Y-58443921D01*
X44143653Y-58456218D01*
X44122029Y-58466446D01*
X44099507Y-58474504D01*
X44076303Y-58480316D01*
X44052642Y-58483826D01*
X44028750Y-58485000D01*
X43541250Y-58485000D01*
X43517358Y-58483826D01*
X43493697Y-58480316D01*
X43470493Y-58474504D01*
X43447971Y-58466446D01*
X43426347Y-58456218D01*
X43405830Y-58443921D01*
X43386617Y-58429671D01*
X43368893Y-58413607D01*
X43352829Y-58395883D01*
X43338579Y-58376670D01*
X43326282Y-58356153D01*
X43316054Y-58334529D01*
X43307996Y-58312007D01*
X43302184Y-58288803D01*
X43298674Y-58265142D01*
X43297500Y-58241250D01*
X43297500Y-57328750D01*
X43298674Y-57304858D01*
X43302184Y-57281197D01*
X43307996Y-57257993D01*
X43316054Y-57235471D01*
X43326282Y-57213847D01*
X43338579Y-57193330D01*
X43352829Y-57174117D01*
X43368893Y-57156393D01*
X43386617Y-57140329D01*
X43405830Y-57126079D01*
X43426347Y-57113782D01*
X43447971Y-57103554D01*
X43470493Y-57095496D01*
X43493697Y-57089684D01*
X43517358Y-57086174D01*
X43541250Y-57085000D01*
X44028750Y-57085000D01*
X44052642Y-57086174D01*
X44052642Y-57086174D01*
G37*
D11*
X43785000Y-57785000D03*
D10*
G36*
X42390142Y-52853674D02*
G01*
X42413803Y-52857184D01*
X42437007Y-52862996D01*
X42459529Y-52871054D01*
X42481153Y-52881282D01*
X42501670Y-52893579D01*
X42520883Y-52907829D01*
X42538607Y-52923893D01*
X42554671Y-52941617D01*
X42568921Y-52960830D01*
X42581218Y-52981347D01*
X42591446Y-53002971D01*
X42599504Y-53025493D01*
X42605316Y-53048697D01*
X42608826Y-53072358D01*
X42610000Y-53096250D01*
X42610000Y-53583750D01*
X42608826Y-53607642D01*
X42605316Y-53631303D01*
X42599504Y-53654507D01*
X42591446Y-53677029D01*
X42581218Y-53698653D01*
X42568921Y-53719170D01*
X42554671Y-53738383D01*
X42538607Y-53756107D01*
X42520883Y-53772171D01*
X42501670Y-53786421D01*
X42481153Y-53798718D01*
X42459529Y-53808946D01*
X42437007Y-53817004D01*
X42413803Y-53822816D01*
X42390142Y-53826326D01*
X42366250Y-53827500D01*
X41453750Y-53827500D01*
X41429858Y-53826326D01*
X41406197Y-53822816D01*
X41382993Y-53817004D01*
X41360471Y-53808946D01*
X41338847Y-53798718D01*
X41318330Y-53786421D01*
X41299117Y-53772171D01*
X41281393Y-53756107D01*
X41265329Y-53738383D01*
X41251079Y-53719170D01*
X41238782Y-53698653D01*
X41228554Y-53677029D01*
X41220496Y-53654507D01*
X41214684Y-53631303D01*
X41211174Y-53607642D01*
X41210000Y-53583750D01*
X41210000Y-53096250D01*
X41211174Y-53072358D01*
X41214684Y-53048697D01*
X41220496Y-53025493D01*
X41228554Y-53002971D01*
X41238782Y-52981347D01*
X41251079Y-52960830D01*
X41265329Y-52941617D01*
X41281393Y-52923893D01*
X41299117Y-52907829D01*
X41318330Y-52893579D01*
X41338847Y-52881282D01*
X41360471Y-52871054D01*
X41382993Y-52862996D01*
X41406197Y-52857184D01*
X41429858Y-52853674D01*
X41453750Y-52852500D01*
X42366250Y-52852500D01*
X42390142Y-52853674D01*
X42390142Y-52853674D01*
G37*
D11*
X41910000Y-53340000D03*
D10*
G36*
X42390142Y-50978674D02*
G01*
X42413803Y-50982184D01*
X42437007Y-50987996D01*
X42459529Y-50996054D01*
X42481153Y-51006282D01*
X42501670Y-51018579D01*
X42520883Y-51032829D01*
X42538607Y-51048893D01*
X42554671Y-51066617D01*
X42568921Y-51085830D01*
X42581218Y-51106347D01*
X42591446Y-51127971D01*
X42599504Y-51150493D01*
X42605316Y-51173697D01*
X42608826Y-51197358D01*
X42610000Y-51221250D01*
X42610000Y-51708750D01*
X42608826Y-51732642D01*
X42605316Y-51756303D01*
X42599504Y-51779507D01*
X42591446Y-51802029D01*
X42581218Y-51823653D01*
X42568921Y-51844170D01*
X42554671Y-51863383D01*
X42538607Y-51881107D01*
X42520883Y-51897171D01*
X42501670Y-51911421D01*
X42481153Y-51923718D01*
X42459529Y-51933946D01*
X42437007Y-51942004D01*
X42413803Y-51947816D01*
X42390142Y-51951326D01*
X42366250Y-51952500D01*
X41453750Y-51952500D01*
X41429858Y-51951326D01*
X41406197Y-51947816D01*
X41382993Y-51942004D01*
X41360471Y-51933946D01*
X41338847Y-51923718D01*
X41318330Y-51911421D01*
X41299117Y-51897171D01*
X41281393Y-51881107D01*
X41265329Y-51863383D01*
X41251079Y-51844170D01*
X41238782Y-51823653D01*
X41228554Y-51802029D01*
X41220496Y-51779507D01*
X41214684Y-51756303D01*
X41211174Y-51732642D01*
X41210000Y-51708750D01*
X41210000Y-51221250D01*
X41211174Y-51197358D01*
X41214684Y-51173697D01*
X41220496Y-51150493D01*
X41228554Y-51127971D01*
X41238782Y-51106347D01*
X41251079Y-51085830D01*
X41265329Y-51066617D01*
X41281393Y-51048893D01*
X41299117Y-51032829D01*
X41318330Y-51018579D01*
X41338847Y-51006282D01*
X41360471Y-50996054D01*
X41382993Y-50987996D01*
X41406197Y-50982184D01*
X41429858Y-50978674D01*
X41453750Y-50977500D01*
X42366250Y-50977500D01*
X42390142Y-50978674D01*
X42390142Y-50978674D01*
G37*
D11*
X41910000Y-51465000D03*
D10*
G36*
X44295142Y-50978674D02*
G01*
X44318803Y-50982184D01*
X44342007Y-50987996D01*
X44364529Y-50996054D01*
X44386153Y-51006282D01*
X44406670Y-51018579D01*
X44425883Y-51032829D01*
X44443607Y-51048893D01*
X44459671Y-51066617D01*
X44473921Y-51085830D01*
X44486218Y-51106347D01*
X44496446Y-51127971D01*
X44504504Y-51150493D01*
X44510316Y-51173697D01*
X44513826Y-51197358D01*
X44515000Y-51221250D01*
X44515000Y-51708750D01*
X44513826Y-51732642D01*
X44510316Y-51756303D01*
X44504504Y-51779507D01*
X44496446Y-51802029D01*
X44486218Y-51823653D01*
X44473921Y-51844170D01*
X44459671Y-51863383D01*
X44443607Y-51881107D01*
X44425883Y-51897171D01*
X44406670Y-51911421D01*
X44386153Y-51923718D01*
X44364529Y-51933946D01*
X44342007Y-51942004D01*
X44318803Y-51947816D01*
X44295142Y-51951326D01*
X44271250Y-51952500D01*
X43358750Y-51952500D01*
X43334858Y-51951326D01*
X43311197Y-51947816D01*
X43287993Y-51942004D01*
X43265471Y-51933946D01*
X43243847Y-51923718D01*
X43223330Y-51911421D01*
X43204117Y-51897171D01*
X43186393Y-51881107D01*
X43170329Y-51863383D01*
X43156079Y-51844170D01*
X43143782Y-51823653D01*
X43133554Y-51802029D01*
X43125496Y-51779507D01*
X43119684Y-51756303D01*
X43116174Y-51732642D01*
X43115000Y-51708750D01*
X43115000Y-51221250D01*
X43116174Y-51197358D01*
X43119684Y-51173697D01*
X43125496Y-51150493D01*
X43133554Y-51127971D01*
X43143782Y-51106347D01*
X43156079Y-51085830D01*
X43170329Y-51066617D01*
X43186393Y-51048893D01*
X43204117Y-51032829D01*
X43223330Y-51018579D01*
X43243847Y-51006282D01*
X43265471Y-50996054D01*
X43287993Y-50987996D01*
X43311197Y-50982184D01*
X43334858Y-50978674D01*
X43358750Y-50977500D01*
X44271250Y-50977500D01*
X44295142Y-50978674D01*
X44295142Y-50978674D01*
G37*
D11*
X43815000Y-51465000D03*
D10*
G36*
X44295142Y-52853674D02*
G01*
X44318803Y-52857184D01*
X44342007Y-52862996D01*
X44364529Y-52871054D01*
X44386153Y-52881282D01*
X44406670Y-52893579D01*
X44425883Y-52907829D01*
X44443607Y-52923893D01*
X44459671Y-52941617D01*
X44473921Y-52960830D01*
X44486218Y-52981347D01*
X44496446Y-53002971D01*
X44504504Y-53025493D01*
X44510316Y-53048697D01*
X44513826Y-53072358D01*
X44515000Y-53096250D01*
X44515000Y-53583750D01*
X44513826Y-53607642D01*
X44510316Y-53631303D01*
X44504504Y-53654507D01*
X44496446Y-53677029D01*
X44486218Y-53698653D01*
X44473921Y-53719170D01*
X44459671Y-53738383D01*
X44443607Y-53756107D01*
X44425883Y-53772171D01*
X44406670Y-53786421D01*
X44386153Y-53798718D01*
X44364529Y-53808946D01*
X44342007Y-53817004D01*
X44318803Y-53822816D01*
X44295142Y-53826326D01*
X44271250Y-53827500D01*
X43358750Y-53827500D01*
X43334858Y-53826326D01*
X43311197Y-53822816D01*
X43287993Y-53817004D01*
X43265471Y-53808946D01*
X43243847Y-53798718D01*
X43223330Y-53786421D01*
X43204117Y-53772171D01*
X43186393Y-53756107D01*
X43170329Y-53738383D01*
X43156079Y-53719170D01*
X43143782Y-53698653D01*
X43133554Y-53677029D01*
X43125496Y-53654507D01*
X43119684Y-53631303D01*
X43116174Y-53607642D01*
X43115000Y-53583750D01*
X43115000Y-53096250D01*
X43116174Y-53072358D01*
X43119684Y-53048697D01*
X43125496Y-53025493D01*
X43133554Y-53002971D01*
X43143782Y-52981347D01*
X43156079Y-52960830D01*
X43170329Y-52941617D01*
X43186393Y-52923893D01*
X43204117Y-52907829D01*
X43223330Y-52893579D01*
X43243847Y-52881282D01*
X43265471Y-52871054D01*
X43287993Y-52862996D01*
X43311197Y-52857184D01*
X43334858Y-52853674D01*
X43358750Y-52852500D01*
X44271250Y-52852500D01*
X44295142Y-52853674D01*
X44295142Y-52853674D01*
G37*
D11*
X43815000Y-53340000D03*
D10*
G36*
X46200142Y-52248674D02*
G01*
X46223803Y-52252184D01*
X46247007Y-52257996D01*
X46269529Y-52266054D01*
X46291153Y-52276282D01*
X46311670Y-52288579D01*
X46330883Y-52302829D01*
X46348607Y-52318893D01*
X46364671Y-52336617D01*
X46378921Y-52355830D01*
X46391218Y-52376347D01*
X46401446Y-52397971D01*
X46409504Y-52420493D01*
X46415316Y-52443697D01*
X46418826Y-52467358D01*
X46420000Y-52491250D01*
X46420000Y-52978750D01*
X46418826Y-53002642D01*
X46415316Y-53026303D01*
X46409504Y-53049507D01*
X46401446Y-53072029D01*
X46391218Y-53093653D01*
X46378921Y-53114170D01*
X46364671Y-53133383D01*
X46348607Y-53151107D01*
X46330883Y-53167171D01*
X46311670Y-53181421D01*
X46291153Y-53193718D01*
X46269529Y-53203946D01*
X46247007Y-53212004D01*
X46223803Y-53217816D01*
X46200142Y-53221326D01*
X46176250Y-53222500D01*
X45263750Y-53222500D01*
X45239858Y-53221326D01*
X45216197Y-53217816D01*
X45192993Y-53212004D01*
X45170471Y-53203946D01*
X45148847Y-53193718D01*
X45128330Y-53181421D01*
X45109117Y-53167171D01*
X45091393Y-53151107D01*
X45075329Y-53133383D01*
X45061079Y-53114170D01*
X45048782Y-53093653D01*
X45038554Y-53072029D01*
X45030496Y-53049507D01*
X45024684Y-53026303D01*
X45021174Y-53002642D01*
X45020000Y-52978750D01*
X45020000Y-52491250D01*
X45021174Y-52467358D01*
X45024684Y-52443697D01*
X45030496Y-52420493D01*
X45038554Y-52397971D01*
X45048782Y-52376347D01*
X45061079Y-52355830D01*
X45075329Y-52336617D01*
X45091393Y-52318893D01*
X45109117Y-52302829D01*
X45128330Y-52288579D01*
X45148847Y-52276282D01*
X45170471Y-52266054D01*
X45192993Y-52257996D01*
X45216197Y-52252184D01*
X45239858Y-52248674D01*
X45263750Y-52247500D01*
X46176250Y-52247500D01*
X46200142Y-52248674D01*
X46200142Y-52248674D01*
G37*
D11*
X45720000Y-52735000D03*
D10*
G36*
X46200142Y-54123674D02*
G01*
X46223803Y-54127184D01*
X46247007Y-54132996D01*
X46269529Y-54141054D01*
X46291153Y-54151282D01*
X46311670Y-54163579D01*
X46330883Y-54177829D01*
X46348607Y-54193893D01*
X46364671Y-54211617D01*
X46378921Y-54230830D01*
X46391218Y-54251347D01*
X46401446Y-54272971D01*
X46409504Y-54295493D01*
X46415316Y-54318697D01*
X46418826Y-54342358D01*
X46420000Y-54366250D01*
X46420000Y-54853750D01*
X46418826Y-54877642D01*
X46415316Y-54901303D01*
X46409504Y-54924507D01*
X46401446Y-54947029D01*
X46391218Y-54968653D01*
X46378921Y-54989170D01*
X46364671Y-55008383D01*
X46348607Y-55026107D01*
X46330883Y-55042171D01*
X46311670Y-55056421D01*
X46291153Y-55068718D01*
X46269529Y-55078946D01*
X46247007Y-55087004D01*
X46223803Y-55092816D01*
X46200142Y-55096326D01*
X46176250Y-55097500D01*
X45263750Y-55097500D01*
X45239858Y-55096326D01*
X45216197Y-55092816D01*
X45192993Y-55087004D01*
X45170471Y-55078946D01*
X45148847Y-55068718D01*
X45128330Y-55056421D01*
X45109117Y-55042171D01*
X45091393Y-55026107D01*
X45075329Y-55008383D01*
X45061079Y-54989170D01*
X45048782Y-54968653D01*
X45038554Y-54947029D01*
X45030496Y-54924507D01*
X45024684Y-54901303D01*
X45021174Y-54877642D01*
X45020000Y-54853750D01*
X45020000Y-54366250D01*
X45021174Y-54342358D01*
X45024684Y-54318697D01*
X45030496Y-54295493D01*
X45038554Y-54272971D01*
X45048782Y-54251347D01*
X45061079Y-54230830D01*
X45075329Y-54211617D01*
X45091393Y-54193893D01*
X45109117Y-54177829D01*
X45128330Y-54163579D01*
X45148847Y-54151282D01*
X45170471Y-54141054D01*
X45192993Y-54132996D01*
X45216197Y-54127184D01*
X45239858Y-54123674D01*
X45263750Y-54122500D01*
X46176250Y-54122500D01*
X46200142Y-54123674D01*
X46200142Y-54123674D01*
G37*
D11*
X45720000Y-54610000D03*
D10*
G36*
X28420142Y-48408674D02*
G01*
X28443803Y-48412184D01*
X28467007Y-48417996D01*
X28489529Y-48426054D01*
X28511153Y-48436282D01*
X28531670Y-48448579D01*
X28550883Y-48462829D01*
X28568607Y-48478893D01*
X28584671Y-48496617D01*
X28598921Y-48515830D01*
X28611218Y-48536347D01*
X28621446Y-48557971D01*
X28629504Y-48580493D01*
X28635316Y-48603697D01*
X28638826Y-48627358D01*
X28640000Y-48651250D01*
X28640000Y-49138750D01*
X28638826Y-49162642D01*
X28635316Y-49186303D01*
X28629504Y-49209507D01*
X28621446Y-49232029D01*
X28611218Y-49253653D01*
X28598921Y-49274170D01*
X28584671Y-49293383D01*
X28568607Y-49311107D01*
X28550883Y-49327171D01*
X28531670Y-49341421D01*
X28511153Y-49353718D01*
X28489529Y-49363946D01*
X28467007Y-49372004D01*
X28443803Y-49377816D01*
X28420142Y-49381326D01*
X28396250Y-49382500D01*
X27483750Y-49382500D01*
X27459858Y-49381326D01*
X27436197Y-49377816D01*
X27412993Y-49372004D01*
X27390471Y-49363946D01*
X27368847Y-49353718D01*
X27348330Y-49341421D01*
X27329117Y-49327171D01*
X27311393Y-49311107D01*
X27295329Y-49293383D01*
X27281079Y-49274170D01*
X27268782Y-49253653D01*
X27258554Y-49232029D01*
X27250496Y-49209507D01*
X27244684Y-49186303D01*
X27241174Y-49162642D01*
X27240000Y-49138750D01*
X27240000Y-48651250D01*
X27241174Y-48627358D01*
X27244684Y-48603697D01*
X27250496Y-48580493D01*
X27258554Y-48557971D01*
X27268782Y-48536347D01*
X27281079Y-48515830D01*
X27295329Y-48496617D01*
X27311393Y-48478893D01*
X27329117Y-48462829D01*
X27348330Y-48448579D01*
X27368847Y-48436282D01*
X27390471Y-48426054D01*
X27412993Y-48417996D01*
X27436197Y-48412184D01*
X27459858Y-48408674D01*
X27483750Y-48407500D01*
X28396250Y-48407500D01*
X28420142Y-48408674D01*
X28420142Y-48408674D01*
G37*
D11*
X27940000Y-48895000D03*
D10*
G36*
X28420142Y-50283674D02*
G01*
X28443803Y-50287184D01*
X28467007Y-50292996D01*
X28489529Y-50301054D01*
X28511153Y-50311282D01*
X28531670Y-50323579D01*
X28550883Y-50337829D01*
X28568607Y-50353893D01*
X28584671Y-50371617D01*
X28598921Y-50390830D01*
X28611218Y-50411347D01*
X28621446Y-50432971D01*
X28629504Y-50455493D01*
X28635316Y-50478697D01*
X28638826Y-50502358D01*
X28640000Y-50526250D01*
X28640000Y-51013750D01*
X28638826Y-51037642D01*
X28635316Y-51061303D01*
X28629504Y-51084507D01*
X28621446Y-51107029D01*
X28611218Y-51128653D01*
X28598921Y-51149170D01*
X28584671Y-51168383D01*
X28568607Y-51186107D01*
X28550883Y-51202171D01*
X28531670Y-51216421D01*
X28511153Y-51228718D01*
X28489529Y-51238946D01*
X28467007Y-51247004D01*
X28443803Y-51252816D01*
X28420142Y-51256326D01*
X28396250Y-51257500D01*
X27483750Y-51257500D01*
X27459858Y-51256326D01*
X27436197Y-51252816D01*
X27412993Y-51247004D01*
X27390471Y-51238946D01*
X27368847Y-51228718D01*
X27348330Y-51216421D01*
X27329117Y-51202171D01*
X27311393Y-51186107D01*
X27295329Y-51168383D01*
X27281079Y-51149170D01*
X27268782Y-51128653D01*
X27258554Y-51107029D01*
X27250496Y-51084507D01*
X27244684Y-51061303D01*
X27241174Y-51037642D01*
X27240000Y-51013750D01*
X27240000Y-50526250D01*
X27241174Y-50502358D01*
X27244684Y-50478697D01*
X27250496Y-50455493D01*
X27258554Y-50432971D01*
X27268782Y-50411347D01*
X27281079Y-50390830D01*
X27295329Y-50371617D01*
X27311393Y-50353893D01*
X27329117Y-50337829D01*
X27348330Y-50323579D01*
X27368847Y-50311282D01*
X27390471Y-50301054D01*
X27412993Y-50292996D01*
X27436197Y-50287184D01*
X27459858Y-50283674D01*
X27483750Y-50282500D01*
X28396250Y-50282500D01*
X28420142Y-50283674D01*
X28420142Y-50283674D01*
G37*
D11*
X27940000Y-50770000D03*
D10*
G36*
X35827642Y-49466174D02*
G01*
X35851303Y-49469684D01*
X35874507Y-49475496D01*
X35897029Y-49483554D01*
X35918653Y-49493782D01*
X35939170Y-49506079D01*
X35958383Y-49520329D01*
X35976107Y-49536393D01*
X35992171Y-49554117D01*
X36006421Y-49573330D01*
X36018718Y-49593847D01*
X36028946Y-49615471D01*
X36037004Y-49637993D01*
X36042816Y-49661197D01*
X36046326Y-49684858D01*
X36047500Y-49708750D01*
X36047500Y-50621250D01*
X36046326Y-50645142D01*
X36042816Y-50668803D01*
X36037004Y-50692007D01*
X36028946Y-50714529D01*
X36018718Y-50736153D01*
X36006421Y-50756670D01*
X35992171Y-50775883D01*
X35976107Y-50793607D01*
X35958383Y-50809671D01*
X35939170Y-50823921D01*
X35918653Y-50836218D01*
X35897029Y-50846446D01*
X35874507Y-50854504D01*
X35851303Y-50860316D01*
X35827642Y-50863826D01*
X35803750Y-50865000D01*
X35316250Y-50865000D01*
X35292358Y-50863826D01*
X35268697Y-50860316D01*
X35245493Y-50854504D01*
X35222971Y-50846446D01*
X35201347Y-50836218D01*
X35180830Y-50823921D01*
X35161617Y-50809671D01*
X35143893Y-50793607D01*
X35127829Y-50775883D01*
X35113579Y-50756670D01*
X35101282Y-50736153D01*
X35091054Y-50714529D01*
X35082996Y-50692007D01*
X35077184Y-50668803D01*
X35073674Y-50645142D01*
X35072500Y-50621250D01*
X35072500Y-49708750D01*
X35073674Y-49684858D01*
X35077184Y-49661197D01*
X35082996Y-49637993D01*
X35091054Y-49615471D01*
X35101282Y-49593847D01*
X35113579Y-49573330D01*
X35127829Y-49554117D01*
X35143893Y-49536393D01*
X35161617Y-49520329D01*
X35180830Y-49506079D01*
X35201347Y-49493782D01*
X35222971Y-49483554D01*
X35245493Y-49475496D01*
X35268697Y-49469684D01*
X35292358Y-49466174D01*
X35316250Y-49465000D01*
X35803750Y-49465000D01*
X35827642Y-49466174D01*
X35827642Y-49466174D01*
G37*
D11*
X35560000Y-50165000D03*
D10*
G36*
X33952642Y-49466174D02*
G01*
X33976303Y-49469684D01*
X33999507Y-49475496D01*
X34022029Y-49483554D01*
X34043653Y-49493782D01*
X34064170Y-49506079D01*
X34083383Y-49520329D01*
X34101107Y-49536393D01*
X34117171Y-49554117D01*
X34131421Y-49573330D01*
X34143718Y-49593847D01*
X34153946Y-49615471D01*
X34162004Y-49637993D01*
X34167816Y-49661197D01*
X34171326Y-49684858D01*
X34172500Y-49708750D01*
X34172500Y-50621250D01*
X34171326Y-50645142D01*
X34167816Y-50668803D01*
X34162004Y-50692007D01*
X34153946Y-50714529D01*
X34143718Y-50736153D01*
X34131421Y-50756670D01*
X34117171Y-50775883D01*
X34101107Y-50793607D01*
X34083383Y-50809671D01*
X34064170Y-50823921D01*
X34043653Y-50836218D01*
X34022029Y-50846446D01*
X33999507Y-50854504D01*
X33976303Y-50860316D01*
X33952642Y-50863826D01*
X33928750Y-50865000D01*
X33441250Y-50865000D01*
X33417358Y-50863826D01*
X33393697Y-50860316D01*
X33370493Y-50854504D01*
X33347971Y-50846446D01*
X33326347Y-50836218D01*
X33305830Y-50823921D01*
X33286617Y-50809671D01*
X33268893Y-50793607D01*
X33252829Y-50775883D01*
X33238579Y-50756670D01*
X33226282Y-50736153D01*
X33216054Y-50714529D01*
X33207996Y-50692007D01*
X33202184Y-50668803D01*
X33198674Y-50645142D01*
X33197500Y-50621250D01*
X33197500Y-49708750D01*
X33198674Y-49684858D01*
X33202184Y-49661197D01*
X33207996Y-49637993D01*
X33216054Y-49615471D01*
X33226282Y-49593847D01*
X33238579Y-49573330D01*
X33252829Y-49554117D01*
X33268893Y-49536393D01*
X33286617Y-49520329D01*
X33305830Y-49506079D01*
X33326347Y-49493782D01*
X33347971Y-49483554D01*
X33370493Y-49475496D01*
X33393697Y-49469684D01*
X33417358Y-49466174D01*
X33441250Y-49465000D01*
X33928750Y-49465000D01*
X33952642Y-49466174D01*
X33952642Y-49466174D01*
G37*
D11*
X33685000Y-50165000D03*
D10*
G36*
X34135142Y-45898674D02*
G01*
X34158803Y-45902184D01*
X34182007Y-45907996D01*
X34204529Y-45916054D01*
X34226153Y-45926282D01*
X34246670Y-45938579D01*
X34265883Y-45952829D01*
X34283607Y-45968893D01*
X34299671Y-45986617D01*
X34313921Y-46005830D01*
X34326218Y-46026347D01*
X34336446Y-46047971D01*
X34344504Y-46070493D01*
X34350316Y-46093697D01*
X34353826Y-46117358D01*
X34355000Y-46141250D01*
X34355000Y-46628750D01*
X34353826Y-46652642D01*
X34350316Y-46676303D01*
X34344504Y-46699507D01*
X34336446Y-46722029D01*
X34326218Y-46743653D01*
X34313921Y-46764170D01*
X34299671Y-46783383D01*
X34283607Y-46801107D01*
X34265883Y-46817171D01*
X34246670Y-46831421D01*
X34226153Y-46843718D01*
X34204529Y-46853946D01*
X34182007Y-46862004D01*
X34158803Y-46867816D01*
X34135142Y-46871326D01*
X34111250Y-46872500D01*
X33198750Y-46872500D01*
X33174858Y-46871326D01*
X33151197Y-46867816D01*
X33127993Y-46862004D01*
X33105471Y-46853946D01*
X33083847Y-46843718D01*
X33063330Y-46831421D01*
X33044117Y-46817171D01*
X33026393Y-46801107D01*
X33010329Y-46783383D01*
X32996079Y-46764170D01*
X32983782Y-46743653D01*
X32973554Y-46722029D01*
X32965496Y-46699507D01*
X32959684Y-46676303D01*
X32956174Y-46652642D01*
X32955000Y-46628750D01*
X32955000Y-46141250D01*
X32956174Y-46117358D01*
X32959684Y-46093697D01*
X32965496Y-46070493D01*
X32973554Y-46047971D01*
X32983782Y-46026347D01*
X32996079Y-46005830D01*
X33010329Y-45986617D01*
X33026393Y-45968893D01*
X33044117Y-45952829D01*
X33063330Y-45938579D01*
X33083847Y-45926282D01*
X33105471Y-45916054D01*
X33127993Y-45907996D01*
X33151197Y-45902184D01*
X33174858Y-45898674D01*
X33198750Y-45897500D01*
X34111250Y-45897500D01*
X34135142Y-45898674D01*
X34135142Y-45898674D01*
G37*
D11*
X33655000Y-46385000D03*
D10*
G36*
X34135142Y-47773674D02*
G01*
X34158803Y-47777184D01*
X34182007Y-47782996D01*
X34204529Y-47791054D01*
X34226153Y-47801282D01*
X34246670Y-47813579D01*
X34265883Y-47827829D01*
X34283607Y-47843893D01*
X34299671Y-47861617D01*
X34313921Y-47880830D01*
X34326218Y-47901347D01*
X34336446Y-47922971D01*
X34344504Y-47945493D01*
X34350316Y-47968697D01*
X34353826Y-47992358D01*
X34355000Y-48016250D01*
X34355000Y-48503750D01*
X34353826Y-48527642D01*
X34350316Y-48551303D01*
X34344504Y-48574507D01*
X34336446Y-48597029D01*
X34326218Y-48618653D01*
X34313921Y-48639170D01*
X34299671Y-48658383D01*
X34283607Y-48676107D01*
X34265883Y-48692171D01*
X34246670Y-48706421D01*
X34226153Y-48718718D01*
X34204529Y-48728946D01*
X34182007Y-48737004D01*
X34158803Y-48742816D01*
X34135142Y-48746326D01*
X34111250Y-48747500D01*
X33198750Y-48747500D01*
X33174858Y-48746326D01*
X33151197Y-48742816D01*
X33127993Y-48737004D01*
X33105471Y-48728946D01*
X33083847Y-48718718D01*
X33063330Y-48706421D01*
X33044117Y-48692171D01*
X33026393Y-48676107D01*
X33010329Y-48658383D01*
X32996079Y-48639170D01*
X32983782Y-48618653D01*
X32973554Y-48597029D01*
X32965496Y-48574507D01*
X32959684Y-48551303D01*
X32956174Y-48527642D01*
X32955000Y-48503750D01*
X32955000Y-48016250D01*
X32956174Y-47992358D01*
X32959684Y-47968697D01*
X32965496Y-47945493D01*
X32973554Y-47922971D01*
X32983782Y-47901347D01*
X32996079Y-47880830D01*
X33010329Y-47861617D01*
X33026393Y-47843893D01*
X33044117Y-47827829D01*
X33063330Y-47813579D01*
X33083847Y-47801282D01*
X33105471Y-47791054D01*
X33127993Y-47782996D01*
X33151197Y-47777184D01*
X33174858Y-47773674D01*
X33198750Y-47772500D01*
X34111250Y-47772500D01*
X34135142Y-47773674D01*
X34135142Y-47773674D01*
G37*
D11*
X33655000Y-48260000D03*
D10*
G36*
X32017642Y-48831174D02*
G01*
X32041303Y-48834684D01*
X32064507Y-48840496D01*
X32087029Y-48848554D01*
X32108653Y-48858782D01*
X32129170Y-48871079D01*
X32148383Y-48885329D01*
X32166107Y-48901393D01*
X32182171Y-48919117D01*
X32196421Y-48938330D01*
X32208718Y-48958847D01*
X32218946Y-48980471D01*
X32227004Y-49002993D01*
X32232816Y-49026197D01*
X32236326Y-49049858D01*
X32237500Y-49073750D01*
X32237500Y-49986250D01*
X32236326Y-50010142D01*
X32232816Y-50033803D01*
X32227004Y-50057007D01*
X32218946Y-50079529D01*
X32208718Y-50101153D01*
X32196421Y-50121670D01*
X32182171Y-50140883D01*
X32166107Y-50158607D01*
X32148383Y-50174671D01*
X32129170Y-50188921D01*
X32108653Y-50201218D01*
X32087029Y-50211446D01*
X32064507Y-50219504D01*
X32041303Y-50225316D01*
X32017642Y-50228826D01*
X31993750Y-50230000D01*
X31506250Y-50230000D01*
X31482358Y-50228826D01*
X31458697Y-50225316D01*
X31435493Y-50219504D01*
X31412971Y-50211446D01*
X31391347Y-50201218D01*
X31370830Y-50188921D01*
X31351617Y-50174671D01*
X31333893Y-50158607D01*
X31317829Y-50140883D01*
X31303579Y-50121670D01*
X31291282Y-50101153D01*
X31281054Y-50079529D01*
X31272996Y-50057007D01*
X31267184Y-50033803D01*
X31263674Y-50010142D01*
X31262500Y-49986250D01*
X31262500Y-49073750D01*
X31263674Y-49049858D01*
X31267184Y-49026197D01*
X31272996Y-49002993D01*
X31281054Y-48980471D01*
X31291282Y-48958847D01*
X31303579Y-48938330D01*
X31317829Y-48919117D01*
X31333893Y-48901393D01*
X31351617Y-48885329D01*
X31370830Y-48871079D01*
X31391347Y-48858782D01*
X31412971Y-48848554D01*
X31435493Y-48840496D01*
X31458697Y-48834684D01*
X31482358Y-48831174D01*
X31506250Y-48830000D01*
X31993750Y-48830000D01*
X32017642Y-48831174D01*
X32017642Y-48831174D01*
G37*
D11*
X31750000Y-49530000D03*
D10*
G36*
X30142642Y-48831174D02*
G01*
X30166303Y-48834684D01*
X30189507Y-48840496D01*
X30212029Y-48848554D01*
X30233653Y-48858782D01*
X30254170Y-48871079D01*
X30273383Y-48885329D01*
X30291107Y-48901393D01*
X30307171Y-48919117D01*
X30321421Y-48938330D01*
X30333718Y-48958847D01*
X30343946Y-48980471D01*
X30352004Y-49002993D01*
X30357816Y-49026197D01*
X30361326Y-49049858D01*
X30362500Y-49073750D01*
X30362500Y-49986250D01*
X30361326Y-50010142D01*
X30357816Y-50033803D01*
X30352004Y-50057007D01*
X30343946Y-50079529D01*
X30333718Y-50101153D01*
X30321421Y-50121670D01*
X30307171Y-50140883D01*
X30291107Y-50158607D01*
X30273383Y-50174671D01*
X30254170Y-50188921D01*
X30233653Y-50201218D01*
X30212029Y-50211446D01*
X30189507Y-50219504D01*
X30166303Y-50225316D01*
X30142642Y-50228826D01*
X30118750Y-50230000D01*
X29631250Y-50230000D01*
X29607358Y-50228826D01*
X29583697Y-50225316D01*
X29560493Y-50219504D01*
X29537971Y-50211446D01*
X29516347Y-50201218D01*
X29495830Y-50188921D01*
X29476617Y-50174671D01*
X29458893Y-50158607D01*
X29442829Y-50140883D01*
X29428579Y-50121670D01*
X29416282Y-50101153D01*
X29406054Y-50079529D01*
X29397996Y-50057007D01*
X29392184Y-50033803D01*
X29388674Y-50010142D01*
X29387500Y-49986250D01*
X29387500Y-49073750D01*
X29388674Y-49049858D01*
X29392184Y-49026197D01*
X29397996Y-49002993D01*
X29406054Y-48980471D01*
X29416282Y-48958847D01*
X29428579Y-48938330D01*
X29442829Y-48919117D01*
X29458893Y-48901393D01*
X29476617Y-48885329D01*
X29495830Y-48871079D01*
X29516347Y-48858782D01*
X29537971Y-48848554D01*
X29560493Y-48840496D01*
X29583697Y-48834684D01*
X29607358Y-48831174D01*
X29631250Y-48830000D01*
X30118750Y-48830000D01*
X30142642Y-48831174D01*
X30142642Y-48831174D01*
G37*
D11*
X29875000Y-49530000D03*
D10*
G36*
X30112642Y-52641174D02*
G01*
X30136303Y-52644684D01*
X30159507Y-52650496D01*
X30182029Y-52658554D01*
X30203653Y-52668782D01*
X30224170Y-52681079D01*
X30243383Y-52695329D01*
X30261107Y-52711393D01*
X30277171Y-52729117D01*
X30291421Y-52748330D01*
X30303718Y-52768847D01*
X30313946Y-52790471D01*
X30322004Y-52812993D01*
X30327816Y-52836197D01*
X30331326Y-52859858D01*
X30332500Y-52883750D01*
X30332500Y-53796250D01*
X30331326Y-53820142D01*
X30327816Y-53843803D01*
X30322004Y-53867007D01*
X30313946Y-53889529D01*
X30303718Y-53911153D01*
X30291421Y-53931670D01*
X30277171Y-53950883D01*
X30261107Y-53968607D01*
X30243383Y-53984671D01*
X30224170Y-53998921D01*
X30203653Y-54011218D01*
X30182029Y-54021446D01*
X30159507Y-54029504D01*
X30136303Y-54035316D01*
X30112642Y-54038826D01*
X30088750Y-54040000D01*
X29601250Y-54040000D01*
X29577358Y-54038826D01*
X29553697Y-54035316D01*
X29530493Y-54029504D01*
X29507971Y-54021446D01*
X29486347Y-54011218D01*
X29465830Y-53998921D01*
X29446617Y-53984671D01*
X29428893Y-53968607D01*
X29412829Y-53950883D01*
X29398579Y-53931670D01*
X29386282Y-53911153D01*
X29376054Y-53889529D01*
X29367996Y-53867007D01*
X29362184Y-53843803D01*
X29358674Y-53820142D01*
X29357500Y-53796250D01*
X29357500Y-52883750D01*
X29358674Y-52859858D01*
X29362184Y-52836197D01*
X29367996Y-52812993D01*
X29376054Y-52790471D01*
X29386282Y-52768847D01*
X29398579Y-52748330D01*
X29412829Y-52729117D01*
X29428893Y-52711393D01*
X29446617Y-52695329D01*
X29465830Y-52681079D01*
X29486347Y-52668782D01*
X29507971Y-52658554D01*
X29530493Y-52650496D01*
X29553697Y-52644684D01*
X29577358Y-52641174D01*
X29601250Y-52640000D01*
X30088750Y-52640000D01*
X30112642Y-52641174D01*
X30112642Y-52641174D01*
G37*
D11*
X29845000Y-53340000D03*
D10*
G36*
X31987642Y-52641174D02*
G01*
X32011303Y-52644684D01*
X32034507Y-52650496D01*
X32057029Y-52658554D01*
X32078653Y-52668782D01*
X32099170Y-52681079D01*
X32118383Y-52695329D01*
X32136107Y-52711393D01*
X32152171Y-52729117D01*
X32166421Y-52748330D01*
X32178718Y-52768847D01*
X32188946Y-52790471D01*
X32197004Y-52812993D01*
X32202816Y-52836197D01*
X32206326Y-52859858D01*
X32207500Y-52883750D01*
X32207500Y-53796250D01*
X32206326Y-53820142D01*
X32202816Y-53843803D01*
X32197004Y-53867007D01*
X32188946Y-53889529D01*
X32178718Y-53911153D01*
X32166421Y-53931670D01*
X32152171Y-53950883D01*
X32136107Y-53968607D01*
X32118383Y-53984671D01*
X32099170Y-53998921D01*
X32078653Y-54011218D01*
X32057029Y-54021446D01*
X32034507Y-54029504D01*
X32011303Y-54035316D01*
X31987642Y-54038826D01*
X31963750Y-54040000D01*
X31476250Y-54040000D01*
X31452358Y-54038826D01*
X31428697Y-54035316D01*
X31405493Y-54029504D01*
X31382971Y-54021446D01*
X31361347Y-54011218D01*
X31340830Y-53998921D01*
X31321617Y-53984671D01*
X31303893Y-53968607D01*
X31287829Y-53950883D01*
X31273579Y-53931670D01*
X31261282Y-53911153D01*
X31251054Y-53889529D01*
X31242996Y-53867007D01*
X31237184Y-53843803D01*
X31233674Y-53820142D01*
X31232500Y-53796250D01*
X31232500Y-52883750D01*
X31233674Y-52859858D01*
X31237184Y-52836197D01*
X31242996Y-52812993D01*
X31251054Y-52790471D01*
X31261282Y-52768847D01*
X31273579Y-52748330D01*
X31287829Y-52729117D01*
X31303893Y-52711393D01*
X31321617Y-52695329D01*
X31340830Y-52681079D01*
X31361347Y-52668782D01*
X31382971Y-52658554D01*
X31405493Y-52650496D01*
X31428697Y-52644684D01*
X31452358Y-52641174D01*
X31476250Y-52640000D01*
X31963750Y-52640000D01*
X31987642Y-52641174D01*
X31987642Y-52641174D01*
G37*
D11*
X31720000Y-53340000D03*
D10*
G36*
X31080142Y-62166174D02*
G01*
X31103803Y-62169684D01*
X31127007Y-62175496D01*
X31149529Y-62183554D01*
X31171153Y-62193782D01*
X31191670Y-62206079D01*
X31210883Y-62220329D01*
X31228607Y-62236393D01*
X31244671Y-62254117D01*
X31258921Y-62273330D01*
X31271218Y-62293847D01*
X31281446Y-62315471D01*
X31289504Y-62337993D01*
X31295316Y-62361197D01*
X31298826Y-62384858D01*
X31300000Y-62408750D01*
X31300000Y-63321250D01*
X31298826Y-63345142D01*
X31295316Y-63368803D01*
X31289504Y-63392007D01*
X31281446Y-63414529D01*
X31271218Y-63436153D01*
X31258921Y-63456670D01*
X31244671Y-63475883D01*
X31228607Y-63493607D01*
X31210883Y-63509671D01*
X31191670Y-63523921D01*
X31171153Y-63536218D01*
X31149529Y-63546446D01*
X31127007Y-63554504D01*
X31103803Y-63560316D01*
X31080142Y-63563826D01*
X31056250Y-63565000D01*
X30568750Y-63565000D01*
X30544858Y-63563826D01*
X30521197Y-63560316D01*
X30497993Y-63554504D01*
X30475471Y-63546446D01*
X30453847Y-63536218D01*
X30433330Y-63523921D01*
X30414117Y-63509671D01*
X30396393Y-63493607D01*
X30380329Y-63475883D01*
X30366079Y-63456670D01*
X30353782Y-63436153D01*
X30343554Y-63414529D01*
X30335496Y-63392007D01*
X30329684Y-63368803D01*
X30326174Y-63345142D01*
X30325000Y-63321250D01*
X30325000Y-62408750D01*
X30326174Y-62384858D01*
X30329684Y-62361197D01*
X30335496Y-62337993D01*
X30343554Y-62315471D01*
X30353782Y-62293847D01*
X30366079Y-62273330D01*
X30380329Y-62254117D01*
X30396393Y-62236393D01*
X30414117Y-62220329D01*
X30433330Y-62206079D01*
X30453847Y-62193782D01*
X30475471Y-62183554D01*
X30497993Y-62175496D01*
X30521197Y-62169684D01*
X30544858Y-62166174D01*
X30568750Y-62165000D01*
X31056250Y-62165000D01*
X31080142Y-62166174D01*
X31080142Y-62166174D01*
G37*
D11*
X30812500Y-62865000D03*
D10*
G36*
X32955142Y-62166174D02*
G01*
X32978803Y-62169684D01*
X33002007Y-62175496D01*
X33024529Y-62183554D01*
X33046153Y-62193782D01*
X33066670Y-62206079D01*
X33085883Y-62220329D01*
X33103607Y-62236393D01*
X33119671Y-62254117D01*
X33133921Y-62273330D01*
X33146218Y-62293847D01*
X33156446Y-62315471D01*
X33164504Y-62337993D01*
X33170316Y-62361197D01*
X33173826Y-62384858D01*
X33175000Y-62408750D01*
X33175000Y-63321250D01*
X33173826Y-63345142D01*
X33170316Y-63368803D01*
X33164504Y-63392007D01*
X33156446Y-63414529D01*
X33146218Y-63436153D01*
X33133921Y-63456670D01*
X33119671Y-63475883D01*
X33103607Y-63493607D01*
X33085883Y-63509671D01*
X33066670Y-63523921D01*
X33046153Y-63536218D01*
X33024529Y-63546446D01*
X33002007Y-63554504D01*
X32978803Y-63560316D01*
X32955142Y-63563826D01*
X32931250Y-63565000D01*
X32443750Y-63565000D01*
X32419858Y-63563826D01*
X32396197Y-63560316D01*
X32372993Y-63554504D01*
X32350471Y-63546446D01*
X32328847Y-63536218D01*
X32308330Y-63523921D01*
X32289117Y-63509671D01*
X32271393Y-63493607D01*
X32255329Y-63475883D01*
X32241079Y-63456670D01*
X32228782Y-63436153D01*
X32218554Y-63414529D01*
X32210496Y-63392007D01*
X32204684Y-63368803D01*
X32201174Y-63345142D01*
X32200000Y-63321250D01*
X32200000Y-62408750D01*
X32201174Y-62384858D01*
X32204684Y-62361197D01*
X32210496Y-62337993D01*
X32218554Y-62315471D01*
X32228782Y-62293847D01*
X32241079Y-62273330D01*
X32255329Y-62254117D01*
X32271393Y-62236393D01*
X32289117Y-62220329D01*
X32308330Y-62206079D01*
X32328847Y-62193782D01*
X32350471Y-62183554D01*
X32372993Y-62175496D01*
X32396197Y-62169684D01*
X32419858Y-62166174D01*
X32443750Y-62165000D01*
X32931250Y-62165000D01*
X32955142Y-62166174D01*
X32955142Y-62166174D01*
G37*
D11*
X32687500Y-62865000D03*
D10*
G36*
X32017642Y-56451174D02*
G01*
X32041303Y-56454684D01*
X32064507Y-56460496D01*
X32087029Y-56468554D01*
X32108653Y-56478782D01*
X32129170Y-56491079D01*
X32148383Y-56505329D01*
X32166107Y-56521393D01*
X32182171Y-56539117D01*
X32196421Y-56558330D01*
X32208718Y-56578847D01*
X32218946Y-56600471D01*
X32227004Y-56622993D01*
X32232816Y-56646197D01*
X32236326Y-56669858D01*
X32237500Y-56693750D01*
X32237500Y-57606250D01*
X32236326Y-57630142D01*
X32232816Y-57653803D01*
X32227004Y-57677007D01*
X32218946Y-57699529D01*
X32208718Y-57721153D01*
X32196421Y-57741670D01*
X32182171Y-57760883D01*
X32166107Y-57778607D01*
X32148383Y-57794671D01*
X32129170Y-57808921D01*
X32108653Y-57821218D01*
X32087029Y-57831446D01*
X32064507Y-57839504D01*
X32041303Y-57845316D01*
X32017642Y-57848826D01*
X31993750Y-57850000D01*
X31506250Y-57850000D01*
X31482358Y-57848826D01*
X31458697Y-57845316D01*
X31435493Y-57839504D01*
X31412971Y-57831446D01*
X31391347Y-57821218D01*
X31370830Y-57808921D01*
X31351617Y-57794671D01*
X31333893Y-57778607D01*
X31317829Y-57760883D01*
X31303579Y-57741670D01*
X31291282Y-57721153D01*
X31281054Y-57699529D01*
X31272996Y-57677007D01*
X31267184Y-57653803D01*
X31263674Y-57630142D01*
X31262500Y-57606250D01*
X31262500Y-56693750D01*
X31263674Y-56669858D01*
X31267184Y-56646197D01*
X31272996Y-56622993D01*
X31281054Y-56600471D01*
X31291282Y-56578847D01*
X31303579Y-56558330D01*
X31317829Y-56539117D01*
X31333893Y-56521393D01*
X31351617Y-56505329D01*
X31370830Y-56491079D01*
X31391347Y-56478782D01*
X31412971Y-56468554D01*
X31435493Y-56460496D01*
X31458697Y-56454684D01*
X31482358Y-56451174D01*
X31506250Y-56450000D01*
X31993750Y-56450000D01*
X32017642Y-56451174D01*
X32017642Y-56451174D01*
G37*
D11*
X31750000Y-57150000D03*
D10*
G36*
X30142642Y-56451174D02*
G01*
X30166303Y-56454684D01*
X30189507Y-56460496D01*
X30212029Y-56468554D01*
X30233653Y-56478782D01*
X30254170Y-56491079D01*
X30273383Y-56505329D01*
X30291107Y-56521393D01*
X30307171Y-56539117D01*
X30321421Y-56558330D01*
X30333718Y-56578847D01*
X30343946Y-56600471D01*
X30352004Y-56622993D01*
X30357816Y-56646197D01*
X30361326Y-56669858D01*
X30362500Y-56693750D01*
X30362500Y-57606250D01*
X30361326Y-57630142D01*
X30357816Y-57653803D01*
X30352004Y-57677007D01*
X30343946Y-57699529D01*
X30333718Y-57721153D01*
X30321421Y-57741670D01*
X30307171Y-57760883D01*
X30291107Y-57778607D01*
X30273383Y-57794671D01*
X30254170Y-57808921D01*
X30233653Y-57821218D01*
X30212029Y-57831446D01*
X30189507Y-57839504D01*
X30166303Y-57845316D01*
X30142642Y-57848826D01*
X30118750Y-57850000D01*
X29631250Y-57850000D01*
X29607358Y-57848826D01*
X29583697Y-57845316D01*
X29560493Y-57839504D01*
X29537971Y-57831446D01*
X29516347Y-57821218D01*
X29495830Y-57808921D01*
X29476617Y-57794671D01*
X29458893Y-57778607D01*
X29442829Y-57760883D01*
X29428579Y-57741670D01*
X29416282Y-57721153D01*
X29406054Y-57699529D01*
X29397996Y-57677007D01*
X29392184Y-57653803D01*
X29388674Y-57630142D01*
X29387500Y-57606250D01*
X29387500Y-56693750D01*
X29388674Y-56669858D01*
X29392184Y-56646197D01*
X29397996Y-56622993D01*
X29406054Y-56600471D01*
X29416282Y-56578847D01*
X29428579Y-56558330D01*
X29442829Y-56539117D01*
X29458893Y-56521393D01*
X29476617Y-56505329D01*
X29495830Y-56491079D01*
X29516347Y-56478782D01*
X29537971Y-56468554D01*
X29560493Y-56460496D01*
X29583697Y-56454684D01*
X29607358Y-56451174D01*
X29631250Y-56450000D01*
X30118750Y-56450000D01*
X30142642Y-56451174D01*
X30142642Y-56451174D01*
G37*
D11*
X29875000Y-57150000D03*
D10*
G36*
X30112642Y-58356174D02*
G01*
X30136303Y-58359684D01*
X30159507Y-58365496D01*
X30182029Y-58373554D01*
X30203653Y-58383782D01*
X30224170Y-58396079D01*
X30243383Y-58410329D01*
X30261107Y-58426393D01*
X30277171Y-58444117D01*
X30291421Y-58463330D01*
X30303718Y-58483847D01*
X30313946Y-58505471D01*
X30322004Y-58527993D01*
X30327816Y-58551197D01*
X30331326Y-58574858D01*
X30332500Y-58598750D01*
X30332500Y-59511250D01*
X30331326Y-59535142D01*
X30327816Y-59558803D01*
X30322004Y-59582007D01*
X30313946Y-59604529D01*
X30303718Y-59626153D01*
X30291421Y-59646670D01*
X30277171Y-59665883D01*
X30261107Y-59683607D01*
X30243383Y-59699671D01*
X30224170Y-59713921D01*
X30203653Y-59726218D01*
X30182029Y-59736446D01*
X30159507Y-59744504D01*
X30136303Y-59750316D01*
X30112642Y-59753826D01*
X30088750Y-59755000D01*
X29601250Y-59755000D01*
X29577358Y-59753826D01*
X29553697Y-59750316D01*
X29530493Y-59744504D01*
X29507971Y-59736446D01*
X29486347Y-59726218D01*
X29465830Y-59713921D01*
X29446617Y-59699671D01*
X29428893Y-59683607D01*
X29412829Y-59665883D01*
X29398579Y-59646670D01*
X29386282Y-59626153D01*
X29376054Y-59604529D01*
X29367996Y-59582007D01*
X29362184Y-59558803D01*
X29358674Y-59535142D01*
X29357500Y-59511250D01*
X29357500Y-58598750D01*
X29358674Y-58574858D01*
X29362184Y-58551197D01*
X29367996Y-58527993D01*
X29376054Y-58505471D01*
X29386282Y-58483847D01*
X29398579Y-58463330D01*
X29412829Y-58444117D01*
X29428893Y-58426393D01*
X29446617Y-58410329D01*
X29465830Y-58396079D01*
X29486347Y-58383782D01*
X29507971Y-58373554D01*
X29530493Y-58365496D01*
X29553697Y-58359684D01*
X29577358Y-58356174D01*
X29601250Y-58355000D01*
X30088750Y-58355000D01*
X30112642Y-58356174D01*
X30112642Y-58356174D01*
G37*
D11*
X29845000Y-59055000D03*
D10*
G36*
X31987642Y-58356174D02*
G01*
X32011303Y-58359684D01*
X32034507Y-58365496D01*
X32057029Y-58373554D01*
X32078653Y-58383782D01*
X32099170Y-58396079D01*
X32118383Y-58410329D01*
X32136107Y-58426393D01*
X32152171Y-58444117D01*
X32166421Y-58463330D01*
X32178718Y-58483847D01*
X32188946Y-58505471D01*
X32197004Y-58527993D01*
X32202816Y-58551197D01*
X32206326Y-58574858D01*
X32207500Y-58598750D01*
X32207500Y-59511250D01*
X32206326Y-59535142D01*
X32202816Y-59558803D01*
X32197004Y-59582007D01*
X32188946Y-59604529D01*
X32178718Y-59626153D01*
X32166421Y-59646670D01*
X32152171Y-59665883D01*
X32136107Y-59683607D01*
X32118383Y-59699671D01*
X32099170Y-59713921D01*
X32078653Y-59726218D01*
X32057029Y-59736446D01*
X32034507Y-59744504D01*
X32011303Y-59750316D01*
X31987642Y-59753826D01*
X31963750Y-59755000D01*
X31476250Y-59755000D01*
X31452358Y-59753826D01*
X31428697Y-59750316D01*
X31405493Y-59744504D01*
X31382971Y-59736446D01*
X31361347Y-59726218D01*
X31340830Y-59713921D01*
X31321617Y-59699671D01*
X31303893Y-59683607D01*
X31287829Y-59665883D01*
X31273579Y-59646670D01*
X31261282Y-59626153D01*
X31251054Y-59604529D01*
X31242996Y-59582007D01*
X31237184Y-59558803D01*
X31233674Y-59535142D01*
X31232500Y-59511250D01*
X31232500Y-58598750D01*
X31233674Y-58574858D01*
X31237184Y-58551197D01*
X31242996Y-58527993D01*
X31251054Y-58505471D01*
X31261282Y-58483847D01*
X31273579Y-58463330D01*
X31287829Y-58444117D01*
X31303893Y-58426393D01*
X31321617Y-58410329D01*
X31340830Y-58396079D01*
X31361347Y-58383782D01*
X31382971Y-58373554D01*
X31405493Y-58365496D01*
X31428697Y-58359684D01*
X31452358Y-58356174D01*
X31476250Y-58355000D01*
X31963750Y-58355000D01*
X31987642Y-58356174D01*
X31987642Y-58356174D01*
G37*
D11*
X31720000Y-59055000D03*
D10*
G36*
X30142642Y-60261174D02*
G01*
X30166303Y-60264684D01*
X30189507Y-60270496D01*
X30212029Y-60278554D01*
X30233653Y-60288782D01*
X30254170Y-60301079D01*
X30273383Y-60315329D01*
X30291107Y-60331393D01*
X30307171Y-60349117D01*
X30321421Y-60368330D01*
X30333718Y-60388847D01*
X30343946Y-60410471D01*
X30352004Y-60432993D01*
X30357816Y-60456197D01*
X30361326Y-60479858D01*
X30362500Y-60503750D01*
X30362500Y-61416250D01*
X30361326Y-61440142D01*
X30357816Y-61463803D01*
X30352004Y-61487007D01*
X30343946Y-61509529D01*
X30333718Y-61531153D01*
X30321421Y-61551670D01*
X30307171Y-61570883D01*
X30291107Y-61588607D01*
X30273383Y-61604671D01*
X30254170Y-61618921D01*
X30233653Y-61631218D01*
X30212029Y-61641446D01*
X30189507Y-61649504D01*
X30166303Y-61655316D01*
X30142642Y-61658826D01*
X30118750Y-61660000D01*
X29631250Y-61660000D01*
X29607358Y-61658826D01*
X29583697Y-61655316D01*
X29560493Y-61649504D01*
X29537971Y-61641446D01*
X29516347Y-61631218D01*
X29495830Y-61618921D01*
X29476617Y-61604671D01*
X29458893Y-61588607D01*
X29442829Y-61570883D01*
X29428579Y-61551670D01*
X29416282Y-61531153D01*
X29406054Y-61509529D01*
X29397996Y-61487007D01*
X29392184Y-61463803D01*
X29388674Y-61440142D01*
X29387500Y-61416250D01*
X29387500Y-60503750D01*
X29388674Y-60479858D01*
X29392184Y-60456197D01*
X29397996Y-60432993D01*
X29406054Y-60410471D01*
X29416282Y-60388847D01*
X29428579Y-60368330D01*
X29442829Y-60349117D01*
X29458893Y-60331393D01*
X29476617Y-60315329D01*
X29495830Y-60301079D01*
X29516347Y-60288782D01*
X29537971Y-60278554D01*
X29560493Y-60270496D01*
X29583697Y-60264684D01*
X29607358Y-60261174D01*
X29631250Y-60260000D01*
X30118750Y-60260000D01*
X30142642Y-60261174D01*
X30142642Y-60261174D01*
G37*
D11*
X29875000Y-60960000D03*
D10*
G36*
X32017642Y-60261174D02*
G01*
X32041303Y-60264684D01*
X32064507Y-60270496D01*
X32087029Y-60278554D01*
X32108653Y-60288782D01*
X32129170Y-60301079D01*
X32148383Y-60315329D01*
X32166107Y-60331393D01*
X32182171Y-60349117D01*
X32196421Y-60368330D01*
X32208718Y-60388847D01*
X32218946Y-60410471D01*
X32227004Y-60432993D01*
X32232816Y-60456197D01*
X32236326Y-60479858D01*
X32237500Y-60503750D01*
X32237500Y-61416250D01*
X32236326Y-61440142D01*
X32232816Y-61463803D01*
X32227004Y-61487007D01*
X32218946Y-61509529D01*
X32208718Y-61531153D01*
X32196421Y-61551670D01*
X32182171Y-61570883D01*
X32166107Y-61588607D01*
X32148383Y-61604671D01*
X32129170Y-61618921D01*
X32108653Y-61631218D01*
X32087029Y-61641446D01*
X32064507Y-61649504D01*
X32041303Y-61655316D01*
X32017642Y-61658826D01*
X31993750Y-61660000D01*
X31506250Y-61660000D01*
X31482358Y-61658826D01*
X31458697Y-61655316D01*
X31435493Y-61649504D01*
X31412971Y-61641446D01*
X31391347Y-61631218D01*
X31370830Y-61618921D01*
X31351617Y-61604671D01*
X31333893Y-61588607D01*
X31317829Y-61570883D01*
X31303579Y-61551670D01*
X31291282Y-61531153D01*
X31281054Y-61509529D01*
X31272996Y-61487007D01*
X31267184Y-61463803D01*
X31263674Y-61440142D01*
X31262500Y-61416250D01*
X31262500Y-60503750D01*
X31263674Y-60479858D01*
X31267184Y-60456197D01*
X31272996Y-60432993D01*
X31281054Y-60410471D01*
X31291282Y-60388847D01*
X31303579Y-60368330D01*
X31317829Y-60349117D01*
X31333893Y-60331393D01*
X31351617Y-60315329D01*
X31370830Y-60301079D01*
X31391347Y-60288782D01*
X31412971Y-60278554D01*
X31435493Y-60270496D01*
X31458697Y-60264684D01*
X31482358Y-60261174D01*
X31506250Y-60260000D01*
X31993750Y-60260000D01*
X32017642Y-60261174D01*
X32017642Y-60261174D01*
G37*
D11*
X31750000Y-60960000D03*
D16*
X26543000Y-69342000D03*
X38735000Y-41656000D03*
D17*
X36195000Y-68580000D03*
X33655000Y-68580000D03*
D18*
X31115000Y-68580000D03*
D17*
X27305000Y-58420000D03*
X27305000Y-55880000D03*
D18*
X27305000Y-53340000D03*
D19*
X39370000Y-62230000D03*
X35370000Y-62230000D03*
D10*
G36*
X46929504Y-67273204D02*
G01*
X46953773Y-67276804D01*
X46977571Y-67282765D01*
X47000671Y-67291030D01*
X47022849Y-67301520D01*
X47043893Y-67314133D01*
X47063598Y-67328747D01*
X47081777Y-67345223D01*
X47098253Y-67363402D01*
X47112867Y-67383107D01*
X47125480Y-67404151D01*
X47135970Y-67426329D01*
X47144235Y-67449429D01*
X47150196Y-67473227D01*
X47153796Y-67497496D01*
X47155000Y-67522000D01*
X47155000Y-68622000D01*
X47153796Y-68646504D01*
X47150196Y-68670773D01*
X47144235Y-68694571D01*
X47135970Y-68717671D01*
X47125480Y-68739849D01*
X47112867Y-68760893D01*
X47098253Y-68780598D01*
X47081777Y-68798777D01*
X47063598Y-68815253D01*
X47043893Y-68829867D01*
X47022849Y-68842480D01*
X47000671Y-68852970D01*
X46977571Y-68861235D01*
X46953773Y-68867196D01*
X46929504Y-68870796D01*
X46905000Y-68872000D01*
X43905000Y-68872000D01*
X43880496Y-68870796D01*
X43856227Y-68867196D01*
X43832429Y-68861235D01*
X43809329Y-68852970D01*
X43787151Y-68842480D01*
X43766107Y-68829867D01*
X43746402Y-68815253D01*
X43728223Y-68798777D01*
X43711747Y-68780598D01*
X43697133Y-68760893D01*
X43684520Y-68739849D01*
X43674030Y-68717671D01*
X43665765Y-68694571D01*
X43659804Y-68670773D01*
X43656204Y-68646504D01*
X43655000Y-68622000D01*
X43655000Y-67522000D01*
X43656204Y-67497496D01*
X43659804Y-67473227D01*
X43665765Y-67449429D01*
X43674030Y-67426329D01*
X43684520Y-67404151D01*
X43697133Y-67383107D01*
X43711747Y-67363402D01*
X43728223Y-67345223D01*
X43746402Y-67328747D01*
X43766107Y-67314133D01*
X43787151Y-67301520D01*
X43809329Y-67291030D01*
X43832429Y-67282765D01*
X43856227Y-67276804D01*
X43880496Y-67273204D01*
X43905000Y-67272000D01*
X46905000Y-67272000D01*
X46929504Y-67273204D01*
X46929504Y-67273204D01*
G37*
D20*
X45405000Y-68072000D03*
D10*
G36*
X41529504Y-67273204D02*
G01*
X41553773Y-67276804D01*
X41577571Y-67282765D01*
X41600671Y-67291030D01*
X41622849Y-67301520D01*
X41643893Y-67314133D01*
X41663598Y-67328747D01*
X41681777Y-67345223D01*
X41698253Y-67363402D01*
X41712867Y-67383107D01*
X41725480Y-67404151D01*
X41735970Y-67426329D01*
X41744235Y-67449429D01*
X41750196Y-67473227D01*
X41753796Y-67497496D01*
X41755000Y-67522000D01*
X41755000Y-68622000D01*
X41753796Y-68646504D01*
X41750196Y-68670773D01*
X41744235Y-68694571D01*
X41735970Y-68717671D01*
X41725480Y-68739849D01*
X41712867Y-68760893D01*
X41698253Y-68780598D01*
X41681777Y-68798777D01*
X41663598Y-68815253D01*
X41643893Y-68829867D01*
X41622849Y-68842480D01*
X41600671Y-68852970D01*
X41577571Y-68861235D01*
X41553773Y-68867196D01*
X41529504Y-68870796D01*
X41505000Y-68872000D01*
X38505000Y-68872000D01*
X38480496Y-68870796D01*
X38456227Y-68867196D01*
X38432429Y-68861235D01*
X38409329Y-68852970D01*
X38387151Y-68842480D01*
X38366107Y-68829867D01*
X38346402Y-68815253D01*
X38328223Y-68798777D01*
X38311747Y-68780598D01*
X38297133Y-68760893D01*
X38284520Y-68739849D01*
X38274030Y-68717671D01*
X38265765Y-68694571D01*
X38259804Y-68670773D01*
X38256204Y-68646504D01*
X38255000Y-68622000D01*
X38255000Y-67522000D01*
X38256204Y-67497496D01*
X38259804Y-67473227D01*
X38265765Y-67449429D01*
X38274030Y-67426329D01*
X38284520Y-67404151D01*
X38297133Y-67383107D01*
X38311747Y-67363402D01*
X38328223Y-67345223D01*
X38346402Y-67328747D01*
X38366107Y-67314133D01*
X38387151Y-67301520D01*
X38409329Y-67291030D01*
X38432429Y-67282765D01*
X38456227Y-67276804D01*
X38480496Y-67273204D01*
X38505000Y-67272000D01*
X41505000Y-67272000D01*
X41529504Y-67273204D01*
X41529504Y-67273204D01*
G37*
D20*
X40005000Y-68072000D03*
D10*
G36*
X33274504Y-43651204D02*
G01*
X33298773Y-43654804D01*
X33322571Y-43660765D01*
X33345671Y-43669030D01*
X33367849Y-43679520D01*
X33388893Y-43692133D01*
X33408598Y-43706747D01*
X33426777Y-43723223D01*
X33443253Y-43741402D01*
X33457867Y-43761107D01*
X33470480Y-43782151D01*
X33480970Y-43804329D01*
X33489235Y-43827429D01*
X33495196Y-43851227D01*
X33498796Y-43875496D01*
X33500000Y-43900000D01*
X33500000Y-45000000D01*
X33498796Y-45024504D01*
X33495196Y-45048773D01*
X33489235Y-45072571D01*
X33480970Y-45095671D01*
X33470480Y-45117849D01*
X33457867Y-45138893D01*
X33443253Y-45158598D01*
X33426777Y-45176777D01*
X33408598Y-45193253D01*
X33388893Y-45207867D01*
X33367849Y-45220480D01*
X33345671Y-45230970D01*
X33322571Y-45239235D01*
X33298773Y-45245196D01*
X33274504Y-45248796D01*
X33250000Y-45250000D01*
X30250000Y-45250000D01*
X30225496Y-45248796D01*
X30201227Y-45245196D01*
X30177429Y-45239235D01*
X30154329Y-45230970D01*
X30132151Y-45220480D01*
X30111107Y-45207867D01*
X30091402Y-45193253D01*
X30073223Y-45176777D01*
X30056747Y-45158598D01*
X30042133Y-45138893D01*
X30029520Y-45117849D01*
X30019030Y-45095671D01*
X30010765Y-45072571D01*
X30004804Y-45048773D01*
X30001204Y-45024504D01*
X30000000Y-45000000D01*
X30000000Y-43900000D01*
X30001204Y-43875496D01*
X30004804Y-43851227D01*
X30010765Y-43827429D01*
X30019030Y-43804329D01*
X30029520Y-43782151D01*
X30042133Y-43761107D01*
X30056747Y-43741402D01*
X30073223Y-43723223D01*
X30091402Y-43706747D01*
X30111107Y-43692133D01*
X30132151Y-43679520D01*
X30154329Y-43669030D01*
X30177429Y-43660765D01*
X30201227Y-43654804D01*
X30225496Y-43651204D01*
X30250000Y-43650000D01*
X33250000Y-43650000D01*
X33274504Y-43651204D01*
X33274504Y-43651204D01*
G37*
D20*
X31750000Y-44450000D03*
D10*
G36*
X27874504Y-43651204D02*
G01*
X27898773Y-43654804D01*
X27922571Y-43660765D01*
X27945671Y-43669030D01*
X27967849Y-43679520D01*
X27988893Y-43692133D01*
X28008598Y-43706747D01*
X28026777Y-43723223D01*
X28043253Y-43741402D01*
X28057867Y-43761107D01*
X28070480Y-43782151D01*
X28080970Y-43804329D01*
X28089235Y-43827429D01*
X28095196Y-43851227D01*
X28098796Y-43875496D01*
X28100000Y-43900000D01*
X28100000Y-45000000D01*
X28098796Y-45024504D01*
X28095196Y-45048773D01*
X28089235Y-45072571D01*
X28080970Y-45095671D01*
X28070480Y-45117849D01*
X28057867Y-45138893D01*
X28043253Y-45158598D01*
X28026777Y-45176777D01*
X28008598Y-45193253D01*
X27988893Y-45207867D01*
X27967849Y-45220480D01*
X27945671Y-45230970D01*
X27922571Y-45239235D01*
X27898773Y-45245196D01*
X27874504Y-45248796D01*
X27850000Y-45250000D01*
X24850000Y-45250000D01*
X24825496Y-45248796D01*
X24801227Y-45245196D01*
X24777429Y-45239235D01*
X24754329Y-45230970D01*
X24732151Y-45220480D01*
X24711107Y-45207867D01*
X24691402Y-45193253D01*
X24673223Y-45176777D01*
X24656747Y-45158598D01*
X24642133Y-45138893D01*
X24629520Y-45117849D01*
X24619030Y-45095671D01*
X24610765Y-45072571D01*
X24604804Y-45048773D01*
X24601204Y-45024504D01*
X24600000Y-45000000D01*
X24600000Y-43900000D01*
X24601204Y-43875496D01*
X24604804Y-43851227D01*
X24610765Y-43827429D01*
X24619030Y-43804329D01*
X24629520Y-43782151D01*
X24642133Y-43761107D01*
X24656747Y-43741402D01*
X24673223Y-43723223D01*
X24691402Y-43706747D01*
X24711107Y-43692133D01*
X24732151Y-43679520D01*
X24754329Y-43669030D01*
X24777429Y-43660765D01*
X24801227Y-43654804D01*
X24825496Y-43651204D01*
X24850000Y-43650000D01*
X27850000Y-43650000D01*
X27874504Y-43651204D01*
X27874504Y-43651204D01*
G37*
D20*
X26350000Y-44450000D03*
D10*
G36*
X46929504Y-41111204D02*
G01*
X46953773Y-41114804D01*
X46977571Y-41120765D01*
X47000671Y-41129030D01*
X47022849Y-41139520D01*
X47043893Y-41152133D01*
X47063598Y-41166747D01*
X47081777Y-41183223D01*
X47098253Y-41201402D01*
X47112867Y-41221107D01*
X47125480Y-41242151D01*
X47135970Y-41264329D01*
X47144235Y-41287429D01*
X47150196Y-41311227D01*
X47153796Y-41335496D01*
X47155000Y-41360000D01*
X47155000Y-44360000D01*
X47153796Y-44384504D01*
X47150196Y-44408773D01*
X47144235Y-44432571D01*
X47135970Y-44455671D01*
X47125480Y-44477849D01*
X47112867Y-44498893D01*
X47098253Y-44518598D01*
X47081777Y-44536777D01*
X47063598Y-44553253D01*
X47043893Y-44567867D01*
X47022849Y-44580480D01*
X47000671Y-44590970D01*
X46977571Y-44599235D01*
X46953773Y-44605196D01*
X46929504Y-44608796D01*
X46905000Y-44610000D01*
X45805000Y-44610000D01*
X45780496Y-44608796D01*
X45756227Y-44605196D01*
X45732429Y-44599235D01*
X45709329Y-44590970D01*
X45687151Y-44580480D01*
X45666107Y-44567867D01*
X45646402Y-44553253D01*
X45628223Y-44536777D01*
X45611747Y-44518598D01*
X45597133Y-44498893D01*
X45584520Y-44477849D01*
X45574030Y-44455671D01*
X45565765Y-44432571D01*
X45559804Y-44408773D01*
X45556204Y-44384504D01*
X45555000Y-44360000D01*
X45555000Y-41360000D01*
X45556204Y-41335496D01*
X45559804Y-41311227D01*
X45565765Y-41287429D01*
X45574030Y-41264329D01*
X45584520Y-41242151D01*
X45597133Y-41221107D01*
X45611747Y-41201402D01*
X45628223Y-41183223D01*
X45646402Y-41166747D01*
X45666107Y-41152133D01*
X45687151Y-41139520D01*
X45709329Y-41129030D01*
X45732429Y-41120765D01*
X45756227Y-41114804D01*
X45780496Y-41111204D01*
X45805000Y-41110000D01*
X46905000Y-41110000D01*
X46929504Y-41111204D01*
X46929504Y-41111204D01*
G37*
D20*
X46355000Y-42860000D03*
D10*
G36*
X46929504Y-46511204D02*
G01*
X46953773Y-46514804D01*
X46977571Y-46520765D01*
X47000671Y-46529030D01*
X47022849Y-46539520D01*
X47043893Y-46552133D01*
X47063598Y-46566747D01*
X47081777Y-46583223D01*
X47098253Y-46601402D01*
X47112867Y-46621107D01*
X47125480Y-46642151D01*
X47135970Y-46664329D01*
X47144235Y-46687429D01*
X47150196Y-46711227D01*
X47153796Y-46735496D01*
X47155000Y-46760000D01*
X47155000Y-49760000D01*
X47153796Y-49784504D01*
X47150196Y-49808773D01*
X47144235Y-49832571D01*
X47135970Y-49855671D01*
X47125480Y-49877849D01*
X47112867Y-49898893D01*
X47098253Y-49918598D01*
X47081777Y-49936777D01*
X47063598Y-49953253D01*
X47043893Y-49967867D01*
X47022849Y-49980480D01*
X47000671Y-49990970D01*
X46977571Y-49999235D01*
X46953773Y-50005196D01*
X46929504Y-50008796D01*
X46905000Y-50010000D01*
X45805000Y-50010000D01*
X45780496Y-50008796D01*
X45756227Y-50005196D01*
X45732429Y-49999235D01*
X45709329Y-49990970D01*
X45687151Y-49980480D01*
X45666107Y-49967867D01*
X45646402Y-49953253D01*
X45628223Y-49936777D01*
X45611747Y-49918598D01*
X45597133Y-49898893D01*
X45584520Y-49877849D01*
X45574030Y-49855671D01*
X45565765Y-49832571D01*
X45559804Y-49808773D01*
X45556204Y-49784504D01*
X45555000Y-49760000D01*
X45555000Y-46760000D01*
X45556204Y-46735496D01*
X45559804Y-46711227D01*
X45565765Y-46687429D01*
X45574030Y-46664329D01*
X45584520Y-46642151D01*
X45597133Y-46621107D01*
X45611747Y-46601402D01*
X45628223Y-46583223D01*
X45646402Y-46566747D01*
X45666107Y-46552133D01*
X45687151Y-46539520D01*
X45709329Y-46529030D01*
X45732429Y-46520765D01*
X45756227Y-46514804D01*
X45780496Y-46511204D01*
X45805000Y-46510000D01*
X46905000Y-46510000D01*
X46929504Y-46511204D01*
X46929504Y-46511204D01*
G37*
D20*
X46355000Y-48260000D03*
D10*
G36*
X40242642Y-49466174D02*
G01*
X40266303Y-49469684D01*
X40289507Y-49475496D01*
X40312029Y-49483554D01*
X40333653Y-49493782D01*
X40354170Y-49506079D01*
X40373383Y-49520329D01*
X40391107Y-49536393D01*
X40407171Y-49554117D01*
X40421421Y-49573330D01*
X40433718Y-49593847D01*
X40443946Y-49615471D01*
X40452004Y-49637993D01*
X40457816Y-49661197D01*
X40461326Y-49684858D01*
X40462500Y-49708750D01*
X40462500Y-50621250D01*
X40461326Y-50645142D01*
X40457816Y-50668803D01*
X40452004Y-50692007D01*
X40443946Y-50714529D01*
X40433718Y-50736153D01*
X40421421Y-50756670D01*
X40407171Y-50775883D01*
X40391107Y-50793607D01*
X40373383Y-50809671D01*
X40354170Y-50823921D01*
X40333653Y-50836218D01*
X40312029Y-50846446D01*
X40289507Y-50854504D01*
X40266303Y-50860316D01*
X40242642Y-50863826D01*
X40218750Y-50865000D01*
X39731250Y-50865000D01*
X39707358Y-50863826D01*
X39683697Y-50860316D01*
X39660493Y-50854504D01*
X39637971Y-50846446D01*
X39616347Y-50836218D01*
X39595830Y-50823921D01*
X39576617Y-50809671D01*
X39558893Y-50793607D01*
X39542829Y-50775883D01*
X39528579Y-50756670D01*
X39516282Y-50736153D01*
X39506054Y-50714529D01*
X39497996Y-50692007D01*
X39492184Y-50668803D01*
X39488674Y-50645142D01*
X39487500Y-50621250D01*
X39487500Y-49708750D01*
X39488674Y-49684858D01*
X39492184Y-49661197D01*
X39497996Y-49637993D01*
X39506054Y-49615471D01*
X39516282Y-49593847D01*
X39528579Y-49573330D01*
X39542829Y-49554117D01*
X39558893Y-49536393D01*
X39576617Y-49520329D01*
X39595830Y-49506079D01*
X39616347Y-49493782D01*
X39637971Y-49483554D01*
X39660493Y-49475496D01*
X39683697Y-49469684D01*
X39707358Y-49466174D01*
X39731250Y-49465000D01*
X40218750Y-49465000D01*
X40242642Y-49466174D01*
X40242642Y-49466174D01*
G37*
D11*
X39975000Y-50165000D03*
D10*
G36*
X38367642Y-49466174D02*
G01*
X38391303Y-49469684D01*
X38414507Y-49475496D01*
X38437029Y-49483554D01*
X38458653Y-49493782D01*
X38479170Y-49506079D01*
X38498383Y-49520329D01*
X38516107Y-49536393D01*
X38532171Y-49554117D01*
X38546421Y-49573330D01*
X38558718Y-49593847D01*
X38568946Y-49615471D01*
X38577004Y-49637993D01*
X38582816Y-49661197D01*
X38586326Y-49684858D01*
X38587500Y-49708750D01*
X38587500Y-50621250D01*
X38586326Y-50645142D01*
X38582816Y-50668803D01*
X38577004Y-50692007D01*
X38568946Y-50714529D01*
X38558718Y-50736153D01*
X38546421Y-50756670D01*
X38532171Y-50775883D01*
X38516107Y-50793607D01*
X38498383Y-50809671D01*
X38479170Y-50823921D01*
X38458653Y-50836218D01*
X38437029Y-50846446D01*
X38414507Y-50854504D01*
X38391303Y-50860316D01*
X38367642Y-50863826D01*
X38343750Y-50865000D01*
X37856250Y-50865000D01*
X37832358Y-50863826D01*
X37808697Y-50860316D01*
X37785493Y-50854504D01*
X37762971Y-50846446D01*
X37741347Y-50836218D01*
X37720830Y-50823921D01*
X37701617Y-50809671D01*
X37683893Y-50793607D01*
X37667829Y-50775883D01*
X37653579Y-50756670D01*
X37641282Y-50736153D01*
X37631054Y-50714529D01*
X37622996Y-50692007D01*
X37617184Y-50668803D01*
X37613674Y-50645142D01*
X37612500Y-50621250D01*
X37612500Y-49708750D01*
X37613674Y-49684858D01*
X37617184Y-49661197D01*
X37622996Y-49637993D01*
X37631054Y-49615471D01*
X37641282Y-49593847D01*
X37653579Y-49573330D01*
X37667829Y-49554117D01*
X37683893Y-49536393D01*
X37701617Y-49520329D01*
X37720830Y-49506079D01*
X37741347Y-49493782D01*
X37762971Y-49483554D01*
X37785493Y-49475496D01*
X37808697Y-49469684D01*
X37832358Y-49466174D01*
X37856250Y-49465000D01*
X38343750Y-49465000D01*
X38367642Y-49466174D01*
X38367642Y-49466174D01*
G37*
D11*
X38100000Y-50165000D03*
D10*
G36*
X44052642Y-55181174D02*
G01*
X44076303Y-55184684D01*
X44099507Y-55190496D01*
X44122029Y-55198554D01*
X44143653Y-55208782D01*
X44164170Y-55221079D01*
X44183383Y-55235329D01*
X44201107Y-55251393D01*
X44217171Y-55269117D01*
X44231421Y-55288330D01*
X44243718Y-55308847D01*
X44253946Y-55330471D01*
X44262004Y-55352993D01*
X44267816Y-55376197D01*
X44271326Y-55399858D01*
X44272500Y-55423750D01*
X44272500Y-56336250D01*
X44271326Y-56360142D01*
X44267816Y-56383803D01*
X44262004Y-56407007D01*
X44253946Y-56429529D01*
X44243718Y-56451153D01*
X44231421Y-56471670D01*
X44217171Y-56490883D01*
X44201107Y-56508607D01*
X44183383Y-56524671D01*
X44164170Y-56538921D01*
X44143653Y-56551218D01*
X44122029Y-56561446D01*
X44099507Y-56569504D01*
X44076303Y-56575316D01*
X44052642Y-56578826D01*
X44028750Y-56580000D01*
X43541250Y-56580000D01*
X43517358Y-56578826D01*
X43493697Y-56575316D01*
X43470493Y-56569504D01*
X43447971Y-56561446D01*
X43426347Y-56551218D01*
X43405830Y-56538921D01*
X43386617Y-56524671D01*
X43368893Y-56508607D01*
X43352829Y-56490883D01*
X43338579Y-56471670D01*
X43326282Y-56451153D01*
X43316054Y-56429529D01*
X43307996Y-56407007D01*
X43302184Y-56383803D01*
X43298674Y-56360142D01*
X43297500Y-56336250D01*
X43297500Y-55423750D01*
X43298674Y-55399858D01*
X43302184Y-55376197D01*
X43307996Y-55352993D01*
X43316054Y-55330471D01*
X43326282Y-55308847D01*
X43338579Y-55288330D01*
X43352829Y-55269117D01*
X43368893Y-55251393D01*
X43386617Y-55235329D01*
X43405830Y-55221079D01*
X43426347Y-55208782D01*
X43447971Y-55198554D01*
X43470493Y-55190496D01*
X43493697Y-55184684D01*
X43517358Y-55181174D01*
X43541250Y-55180000D01*
X44028750Y-55180000D01*
X44052642Y-55181174D01*
X44052642Y-55181174D01*
G37*
D11*
X43785000Y-55880000D03*
D10*
G36*
X42177642Y-55181174D02*
G01*
X42201303Y-55184684D01*
X42224507Y-55190496D01*
X42247029Y-55198554D01*
X42268653Y-55208782D01*
X42289170Y-55221079D01*
X42308383Y-55235329D01*
X42326107Y-55251393D01*
X42342171Y-55269117D01*
X42356421Y-55288330D01*
X42368718Y-55308847D01*
X42378946Y-55330471D01*
X42387004Y-55352993D01*
X42392816Y-55376197D01*
X42396326Y-55399858D01*
X42397500Y-55423750D01*
X42397500Y-56336250D01*
X42396326Y-56360142D01*
X42392816Y-56383803D01*
X42387004Y-56407007D01*
X42378946Y-56429529D01*
X42368718Y-56451153D01*
X42356421Y-56471670D01*
X42342171Y-56490883D01*
X42326107Y-56508607D01*
X42308383Y-56524671D01*
X42289170Y-56538921D01*
X42268653Y-56551218D01*
X42247029Y-56561446D01*
X42224507Y-56569504D01*
X42201303Y-56575316D01*
X42177642Y-56578826D01*
X42153750Y-56580000D01*
X41666250Y-56580000D01*
X41642358Y-56578826D01*
X41618697Y-56575316D01*
X41595493Y-56569504D01*
X41572971Y-56561446D01*
X41551347Y-56551218D01*
X41530830Y-56538921D01*
X41511617Y-56524671D01*
X41493893Y-56508607D01*
X41477829Y-56490883D01*
X41463579Y-56471670D01*
X41451282Y-56451153D01*
X41441054Y-56429529D01*
X41432996Y-56407007D01*
X41427184Y-56383803D01*
X41423674Y-56360142D01*
X41422500Y-56336250D01*
X41422500Y-55423750D01*
X41423674Y-55399858D01*
X41427184Y-55376197D01*
X41432996Y-55352993D01*
X41441054Y-55330471D01*
X41451282Y-55308847D01*
X41463579Y-55288330D01*
X41477829Y-55269117D01*
X41493893Y-55251393D01*
X41511617Y-55235329D01*
X41530830Y-55221079D01*
X41551347Y-55208782D01*
X41572971Y-55198554D01*
X41595493Y-55190496D01*
X41618697Y-55184684D01*
X41642358Y-55181174D01*
X41666250Y-55180000D01*
X42153750Y-55180000D01*
X42177642Y-55181174D01*
X42177642Y-55181174D01*
G37*
D11*
X41910000Y-55880000D03*
D10*
G36*
X30142642Y-50736174D02*
G01*
X30166303Y-50739684D01*
X30189507Y-50745496D01*
X30212029Y-50753554D01*
X30233653Y-50763782D01*
X30254170Y-50776079D01*
X30273383Y-50790329D01*
X30291107Y-50806393D01*
X30307171Y-50824117D01*
X30321421Y-50843330D01*
X30333718Y-50863847D01*
X30343946Y-50885471D01*
X30352004Y-50907993D01*
X30357816Y-50931197D01*
X30361326Y-50954858D01*
X30362500Y-50978750D01*
X30362500Y-51891250D01*
X30361326Y-51915142D01*
X30357816Y-51938803D01*
X30352004Y-51962007D01*
X30343946Y-51984529D01*
X30333718Y-52006153D01*
X30321421Y-52026670D01*
X30307171Y-52045883D01*
X30291107Y-52063607D01*
X30273383Y-52079671D01*
X30254170Y-52093921D01*
X30233653Y-52106218D01*
X30212029Y-52116446D01*
X30189507Y-52124504D01*
X30166303Y-52130316D01*
X30142642Y-52133826D01*
X30118750Y-52135000D01*
X29631250Y-52135000D01*
X29607358Y-52133826D01*
X29583697Y-52130316D01*
X29560493Y-52124504D01*
X29537971Y-52116446D01*
X29516347Y-52106218D01*
X29495830Y-52093921D01*
X29476617Y-52079671D01*
X29458893Y-52063607D01*
X29442829Y-52045883D01*
X29428579Y-52026670D01*
X29416282Y-52006153D01*
X29406054Y-51984529D01*
X29397996Y-51962007D01*
X29392184Y-51938803D01*
X29388674Y-51915142D01*
X29387500Y-51891250D01*
X29387500Y-50978750D01*
X29388674Y-50954858D01*
X29392184Y-50931197D01*
X29397996Y-50907993D01*
X29406054Y-50885471D01*
X29416282Y-50863847D01*
X29428579Y-50843330D01*
X29442829Y-50824117D01*
X29458893Y-50806393D01*
X29476617Y-50790329D01*
X29495830Y-50776079D01*
X29516347Y-50763782D01*
X29537971Y-50753554D01*
X29560493Y-50745496D01*
X29583697Y-50739684D01*
X29607358Y-50736174D01*
X29631250Y-50735000D01*
X30118750Y-50735000D01*
X30142642Y-50736174D01*
X30142642Y-50736174D01*
G37*
D11*
X29875000Y-51435000D03*
D10*
G36*
X32017642Y-50736174D02*
G01*
X32041303Y-50739684D01*
X32064507Y-50745496D01*
X32087029Y-50753554D01*
X32108653Y-50763782D01*
X32129170Y-50776079D01*
X32148383Y-50790329D01*
X32166107Y-50806393D01*
X32182171Y-50824117D01*
X32196421Y-50843330D01*
X32208718Y-50863847D01*
X32218946Y-50885471D01*
X32227004Y-50907993D01*
X32232816Y-50931197D01*
X32236326Y-50954858D01*
X32237500Y-50978750D01*
X32237500Y-51891250D01*
X32236326Y-51915142D01*
X32232816Y-51938803D01*
X32227004Y-51962007D01*
X32218946Y-51984529D01*
X32208718Y-52006153D01*
X32196421Y-52026670D01*
X32182171Y-52045883D01*
X32166107Y-52063607D01*
X32148383Y-52079671D01*
X32129170Y-52093921D01*
X32108653Y-52106218D01*
X32087029Y-52116446D01*
X32064507Y-52124504D01*
X32041303Y-52130316D01*
X32017642Y-52133826D01*
X31993750Y-52135000D01*
X31506250Y-52135000D01*
X31482358Y-52133826D01*
X31458697Y-52130316D01*
X31435493Y-52124504D01*
X31412971Y-52116446D01*
X31391347Y-52106218D01*
X31370830Y-52093921D01*
X31351617Y-52079671D01*
X31333893Y-52063607D01*
X31317829Y-52045883D01*
X31303579Y-52026670D01*
X31291282Y-52006153D01*
X31281054Y-51984529D01*
X31272996Y-51962007D01*
X31267184Y-51938803D01*
X31263674Y-51915142D01*
X31262500Y-51891250D01*
X31262500Y-50978750D01*
X31263674Y-50954858D01*
X31267184Y-50931197D01*
X31272996Y-50907993D01*
X31281054Y-50885471D01*
X31291282Y-50863847D01*
X31303579Y-50843330D01*
X31317829Y-50824117D01*
X31333893Y-50806393D01*
X31351617Y-50790329D01*
X31370830Y-50776079D01*
X31391347Y-50763782D01*
X31412971Y-50753554D01*
X31435493Y-50745496D01*
X31458697Y-50739684D01*
X31482358Y-50736174D01*
X31506250Y-50735000D01*
X31993750Y-50735000D01*
X32017642Y-50736174D01*
X32017642Y-50736174D01*
G37*
D11*
X31750000Y-51435000D03*
D10*
G36*
X31987642Y-64071174D02*
G01*
X32011303Y-64074684D01*
X32034507Y-64080496D01*
X32057029Y-64088554D01*
X32078653Y-64098782D01*
X32099170Y-64111079D01*
X32118383Y-64125329D01*
X32136107Y-64141393D01*
X32152171Y-64159117D01*
X32166421Y-64178330D01*
X32178718Y-64198847D01*
X32188946Y-64220471D01*
X32197004Y-64242993D01*
X32202816Y-64266197D01*
X32206326Y-64289858D01*
X32207500Y-64313750D01*
X32207500Y-65226250D01*
X32206326Y-65250142D01*
X32202816Y-65273803D01*
X32197004Y-65297007D01*
X32188946Y-65319529D01*
X32178718Y-65341153D01*
X32166421Y-65361670D01*
X32152171Y-65380883D01*
X32136107Y-65398607D01*
X32118383Y-65414671D01*
X32099170Y-65428921D01*
X32078653Y-65441218D01*
X32057029Y-65451446D01*
X32034507Y-65459504D01*
X32011303Y-65465316D01*
X31987642Y-65468826D01*
X31963750Y-65470000D01*
X31476250Y-65470000D01*
X31452358Y-65468826D01*
X31428697Y-65465316D01*
X31405493Y-65459504D01*
X31382971Y-65451446D01*
X31361347Y-65441218D01*
X31340830Y-65428921D01*
X31321617Y-65414671D01*
X31303893Y-65398607D01*
X31287829Y-65380883D01*
X31273579Y-65361670D01*
X31261282Y-65341153D01*
X31251054Y-65319529D01*
X31242996Y-65297007D01*
X31237184Y-65273803D01*
X31233674Y-65250142D01*
X31232500Y-65226250D01*
X31232500Y-64313750D01*
X31233674Y-64289858D01*
X31237184Y-64266197D01*
X31242996Y-64242993D01*
X31251054Y-64220471D01*
X31261282Y-64198847D01*
X31273579Y-64178330D01*
X31287829Y-64159117D01*
X31303893Y-64141393D01*
X31321617Y-64125329D01*
X31340830Y-64111079D01*
X31361347Y-64098782D01*
X31382971Y-64088554D01*
X31405493Y-64080496D01*
X31428697Y-64074684D01*
X31452358Y-64071174D01*
X31476250Y-64070000D01*
X31963750Y-64070000D01*
X31987642Y-64071174D01*
X31987642Y-64071174D01*
G37*
D11*
X31720000Y-64770000D03*
D10*
G36*
X30112642Y-64071174D02*
G01*
X30136303Y-64074684D01*
X30159507Y-64080496D01*
X30182029Y-64088554D01*
X30203653Y-64098782D01*
X30224170Y-64111079D01*
X30243383Y-64125329D01*
X30261107Y-64141393D01*
X30277171Y-64159117D01*
X30291421Y-64178330D01*
X30303718Y-64198847D01*
X30313946Y-64220471D01*
X30322004Y-64242993D01*
X30327816Y-64266197D01*
X30331326Y-64289858D01*
X30332500Y-64313750D01*
X30332500Y-65226250D01*
X30331326Y-65250142D01*
X30327816Y-65273803D01*
X30322004Y-65297007D01*
X30313946Y-65319529D01*
X30303718Y-65341153D01*
X30291421Y-65361670D01*
X30277171Y-65380883D01*
X30261107Y-65398607D01*
X30243383Y-65414671D01*
X30224170Y-65428921D01*
X30203653Y-65441218D01*
X30182029Y-65451446D01*
X30159507Y-65459504D01*
X30136303Y-65465316D01*
X30112642Y-65468826D01*
X30088750Y-65470000D01*
X29601250Y-65470000D01*
X29577358Y-65468826D01*
X29553697Y-65465316D01*
X29530493Y-65459504D01*
X29507971Y-65451446D01*
X29486347Y-65441218D01*
X29465830Y-65428921D01*
X29446617Y-65414671D01*
X29428893Y-65398607D01*
X29412829Y-65380883D01*
X29398579Y-65361670D01*
X29386282Y-65341153D01*
X29376054Y-65319529D01*
X29367996Y-65297007D01*
X29362184Y-65273803D01*
X29358674Y-65250142D01*
X29357500Y-65226250D01*
X29357500Y-64313750D01*
X29358674Y-64289858D01*
X29362184Y-64266197D01*
X29367996Y-64242993D01*
X29376054Y-64220471D01*
X29386282Y-64198847D01*
X29398579Y-64178330D01*
X29412829Y-64159117D01*
X29428893Y-64141393D01*
X29446617Y-64125329D01*
X29465830Y-64111079D01*
X29486347Y-64098782D01*
X29507971Y-64088554D01*
X29530493Y-64080496D01*
X29553697Y-64074684D01*
X29577358Y-64071174D01*
X29601250Y-64070000D01*
X30088750Y-64070000D01*
X30112642Y-64071174D01*
X30112642Y-64071174D01*
G37*
D11*
X29845000Y-64770000D03*
D15*
X29210000Y-62865000D03*
X28709167Y-52260000D03*
X37465000Y-59055000D03*
X39370000Y-46990000D03*
X31750000Y-47625000D03*
X30480000Y-66040000D03*
X41910000Y-65405000D03*
X45720000Y-57150000D03*
X34290000Y-43180000D03*
X41910000Y-42545000D03*
X43815000Y-48895000D03*
X39370000Y-48895000D03*
X46355000Y-52070000D03*
X26670000Y-51435000D03*
X37655000Y-51435000D03*
X40640000Y-55880000D03*
X38100000Y-45085000D03*
X36195000Y-55880000D03*
D21*
X33984290Y-60060710D02*
X34355000Y-59690000D01*
X33243737Y-60801263D02*
X33984290Y-60060710D01*
X33243737Y-62308763D02*
X33243737Y-60801263D01*
X32687500Y-62865000D02*
X33243737Y-62308763D01*
X31720000Y-63832500D02*
X32687500Y-62865000D01*
X31720000Y-64770000D02*
X31720000Y-63832500D01*
X29845000Y-64770000D02*
X29210000Y-64135000D01*
X29210000Y-64135000D02*
X29210000Y-62865000D01*
X29050000Y-52260000D02*
X29875000Y-51435000D01*
X28709167Y-52260000D02*
X29050000Y-52260000D01*
X29875000Y-49530000D02*
X29875000Y-51435000D01*
X31750000Y-53310000D02*
X31720000Y-53340000D01*
X31750000Y-51435000D02*
X31750000Y-53310000D01*
X32990000Y-54610000D02*
X34355000Y-54610000D01*
X31720000Y-53340000D02*
X32990000Y-54610000D01*
X29210000Y-55245000D02*
X27305000Y-53340000D01*
X29845000Y-55245000D02*
X29210000Y-55245000D01*
X40640000Y-54610000D02*
X41910000Y-55880000D01*
X39305000Y-54610000D02*
X40640000Y-54610000D01*
X43180000Y-54610000D02*
X45720000Y-54610000D01*
X41910000Y-55880000D02*
X43180000Y-54610000D01*
X41305000Y-52070000D02*
X41910000Y-51465000D01*
X39305000Y-52070000D02*
X41305000Y-52070000D01*
X39975000Y-51400000D02*
X39305000Y-52070000D01*
X39975000Y-50165000D02*
X39975000Y-51400000D01*
X39305000Y-52070000D02*
X38215010Y-52070000D01*
X37580010Y-56500010D02*
X38230000Y-57150000D01*
X38230000Y-57150000D02*
X39305000Y-57150000D01*
X37580010Y-52705000D02*
X37580010Y-56500010D01*
X38215010Y-52070000D02*
X37580010Y-52705000D01*
X38100000Y-50165000D02*
X39370000Y-48895000D01*
X46355000Y-52100000D02*
X45720000Y-52735000D01*
X46355000Y-52070000D02*
X46355000Y-52100000D01*
X27940000Y-50770000D02*
X27335000Y-50770000D01*
X27335000Y-50770000D02*
X26670000Y-51435000D01*
X37655000Y-50610000D02*
X38100000Y-50165000D01*
X37655000Y-51435000D02*
X37655000Y-50610000D01*
X44765000Y-44450000D02*
X41270000Y-44450000D01*
X46355000Y-42860000D02*
X44765000Y-44450000D01*
X45085000Y-46990000D02*
X41270000Y-46990000D01*
X46355000Y-48260000D02*
X45085000Y-46990000D01*
X36195000Y-44450000D02*
X31750000Y-44450000D01*
X39305000Y-55880000D02*
X40640000Y-55880000D01*
X37465000Y-44450000D02*
X36195000Y-44450000D01*
X38100000Y-45085000D02*
X37465000Y-44450000D01*
X35530000Y-67915000D02*
X36195000Y-68580000D01*
X35530000Y-65405000D02*
X35530000Y-67915000D01*
X35530000Y-62390000D02*
X35370000Y-62230000D01*
X35530000Y-65405000D02*
X35530000Y-62390000D01*
X36703000Y-68072000D02*
X36195000Y-68580000D01*
X40005000Y-68072000D02*
X36703000Y-68072000D01*
X39370000Y-59755000D02*
X39305000Y-59690000D01*
X39370000Y-62230000D02*
X39370000Y-59755000D01*
X40640000Y-63500000D02*
X39370000Y-62230000D01*
X41940000Y-63500000D02*
X40640000Y-63500000D01*
X29845000Y-60960000D02*
X27305000Y-58420000D01*
X29875000Y-60960000D02*
X29845000Y-60960000D01*
X28154999Y-56729999D02*
X27305000Y-55880000D01*
X28862490Y-57437490D02*
X28154999Y-56729999D01*
X28862490Y-58072490D02*
X28862490Y-57437490D01*
X29845000Y-59055000D02*
X28862490Y-58072490D01*
X36195000Y-55880000D02*
X34355000Y-55880000D01*
X35430000Y-55880000D02*
X34355000Y-55880000D01*
X36830000Y-54480000D02*
X35430000Y-55880000D01*
X36830000Y-48895000D02*
X36830000Y-54480000D01*
X36195000Y-48260000D02*
X36830000Y-48895000D01*
X32355000Y-55880000D02*
X34355000Y-55880000D01*
X31720000Y-55245000D02*
X32355000Y-55880000D01*
X30812500Y-61897500D02*
X31750000Y-60960000D01*
X30812500Y-62865000D02*
X30812500Y-61897500D01*
X33280000Y-58420000D02*
X34355000Y-58420000D01*
X32732510Y-58967490D02*
X33280000Y-58420000D01*
X32732510Y-59977490D02*
X32732510Y-58967490D01*
X31750000Y-60960000D02*
X32732510Y-59977490D01*
X31750000Y-57150000D02*
X34355000Y-57150000D01*
X31720000Y-57180000D02*
X31750000Y-57150000D01*
X31720000Y-59055000D02*
X31720000Y-57180000D01*
X33685000Y-51400000D02*
X34355000Y-52070000D01*
X33685000Y-50165000D02*
X33685000Y-51400000D01*
X32385000Y-50165000D02*
X33685000Y-50165000D01*
X31750000Y-49530000D02*
X32385000Y-50165000D01*
X31193763Y-48973763D02*
X31750000Y-49530000D01*
X30480000Y-48260000D02*
X31193763Y-48973763D01*
X28575000Y-48260000D02*
X30480000Y-48260000D01*
X27940000Y-48895000D02*
X28575000Y-48260000D01*
X35560000Y-50965000D02*
X35560000Y-50165000D01*
X35855010Y-51260010D02*
X35560000Y-50965000D01*
X35855010Y-52499600D02*
X35855010Y-51260010D01*
X35385320Y-52969290D02*
X35855010Y-52499600D01*
X34725710Y-52969290D02*
X35385320Y-52969290D01*
X34355000Y-53340000D02*
X34725710Y-52969290D01*
X35560000Y-50165000D02*
X33655000Y-48260000D01*
X39305000Y-53340000D02*
X41910000Y-53340000D01*
X41910000Y-53340000D02*
X43815000Y-53340000D01*
X41275000Y-58420000D02*
X39305000Y-58420000D01*
X41910000Y-57785000D02*
X41275000Y-58420000D01*
X41910000Y-58585000D02*
X41910000Y-57785000D01*
X41910000Y-61545000D02*
X41910000Y-58585000D01*
X42055000Y-61690000D02*
X41910000Y-61545000D01*
X43105000Y-61690000D02*
X42055000Y-61690000D01*
X46355000Y-60960000D02*
X43815000Y-63500000D01*
X46355000Y-60690000D02*
X46355000Y-60960000D01*
X45355000Y-59690000D02*
X46355000Y-60690000D01*
X43105000Y-59690000D02*
X45355000Y-59690000D01*
D22*
G36*
X36602133Y-40263362D02*
G01*
X36371425Y-40706223D01*
X36231548Y-41185583D01*
X36187877Y-41683021D01*
X36242091Y-42179422D01*
X36392106Y-42655707D01*
X36602133Y-43048638D01*
X36958651Y-43252744D01*
X38555395Y-41656000D01*
X38541253Y-41641858D01*
X38720858Y-41462253D01*
X38735000Y-41476395D01*
X38749143Y-41462253D01*
X38928748Y-41641858D01*
X38914605Y-41656000D01*
X40511349Y-43252744D01*
X40867867Y-43048638D01*
X41098575Y-42605777D01*
X41238452Y-42126417D01*
X41282123Y-41628979D01*
X41227909Y-41132578D01*
X41077894Y-40656293D01*
X40867867Y-40263362D01*
X40547583Y-40080000D01*
X49455000Y-40080000D01*
X49455001Y-71045000D01*
X28425608Y-71045000D01*
X28319351Y-70938743D01*
X28675867Y-70734638D01*
X28906575Y-70291777D01*
X29046452Y-69812417D01*
X29090123Y-69314979D01*
X29035909Y-68818578D01*
X28885894Y-68342293D01*
X28675867Y-67949362D01*
X28319349Y-67745256D01*
X26722605Y-69342000D01*
X26736748Y-69356143D01*
X26557143Y-69535748D01*
X26543000Y-69521605D01*
X26528858Y-69535748D01*
X26349253Y-69356143D01*
X26363395Y-69342000D01*
X26349253Y-69327858D01*
X26528858Y-69148253D01*
X26543000Y-69162395D01*
X27975395Y-67730000D01*
X29626928Y-67730000D01*
X29626928Y-69430000D01*
X29639188Y-69554482D01*
X29675498Y-69674180D01*
X29734463Y-69784494D01*
X29813815Y-69881185D01*
X29910506Y-69960537D01*
X30020820Y-70019502D01*
X30140518Y-70055812D01*
X30265000Y-70068072D01*
X31965000Y-70068072D01*
X32089482Y-70055812D01*
X32209180Y-70019502D01*
X32319494Y-69960537D01*
X32416185Y-69881185D01*
X32495537Y-69784494D01*
X32554502Y-69674180D01*
X32578966Y-69593534D01*
X32654731Y-69677588D01*
X32888080Y-69851641D01*
X33150901Y-69976825D01*
X33298110Y-70021476D01*
X33528000Y-69900155D01*
X33528000Y-68707000D01*
X33508000Y-68707000D01*
X33508000Y-68453000D01*
X33528000Y-68453000D01*
X33528000Y-67259845D01*
X33298110Y-67138524D01*
X33150901Y-67183175D01*
X32888080Y-67308359D01*
X32654731Y-67482412D01*
X32578966Y-67566466D01*
X32554502Y-67485820D01*
X32495537Y-67375506D01*
X32416185Y-67278815D01*
X32319494Y-67199463D01*
X32209180Y-67140498D01*
X32089482Y-67104188D01*
X31965000Y-67091928D01*
X30265000Y-67091928D01*
X30140518Y-67104188D01*
X30020820Y-67140498D01*
X29910506Y-67199463D01*
X29813815Y-67278815D01*
X29734463Y-67375506D01*
X29675498Y-67485820D01*
X29639188Y-67605518D01*
X29626928Y-67730000D01*
X27975395Y-67730000D01*
X28139744Y-67565651D01*
X27935638Y-67209133D01*
X27492777Y-66978425D01*
X27013417Y-66838548D01*
X26515979Y-66794877D01*
X26019578Y-66849091D01*
X25543293Y-66999106D01*
X25150362Y-67209133D01*
X24946257Y-67565649D01*
X24840000Y-67459392D01*
X24840000Y-51342911D01*
X25735000Y-51342911D01*
X25735000Y-51527089D01*
X25770932Y-51707729D01*
X25841414Y-51877889D01*
X25943738Y-52031028D01*
X25980245Y-52067535D01*
X25924463Y-52135506D01*
X25865498Y-52245820D01*
X25829188Y-52365518D01*
X25816928Y-52490000D01*
X25820000Y-53054250D01*
X25978750Y-53213000D01*
X27178000Y-53213000D01*
X27178000Y-53193000D01*
X27432000Y-53193000D01*
X27432000Y-53213000D01*
X28631250Y-53213000D01*
X28649250Y-53195000D01*
X28801256Y-53195000D01*
X28852964Y-53184714D01*
X28881250Y-53213000D01*
X29718000Y-53213000D01*
X29718000Y-53193000D01*
X29972000Y-53193000D01*
X29972000Y-53213000D01*
X29992000Y-53213000D01*
X29992000Y-53467000D01*
X29972000Y-53467000D01*
X29972000Y-55118000D01*
X29992000Y-55118000D01*
X29992000Y-55372000D01*
X29972000Y-55372000D01*
X29972000Y-56421250D01*
X30002000Y-56451250D01*
X30002000Y-57023000D01*
X30022000Y-57023000D01*
X30022000Y-57277000D01*
X30002000Y-57277000D01*
X30002000Y-57297000D01*
X29748000Y-57297000D01*
X29748000Y-57277000D01*
X29728000Y-57277000D01*
X29728000Y-57023000D01*
X29748000Y-57023000D01*
X29748000Y-55973750D01*
X29718000Y-55943750D01*
X29718000Y-55372000D01*
X28881250Y-55372000D01*
X28744272Y-55508978D01*
X28683599Y-55308966D01*
X28545706Y-55050986D01*
X28360134Y-54824866D01*
X28330313Y-54800393D01*
X28399180Y-54779502D01*
X28509494Y-54720537D01*
X28606185Y-54641185D01*
X28685537Y-54544494D01*
X28727144Y-54466654D01*
X28719428Y-54545000D01*
X28722500Y-54959250D01*
X28881250Y-55118000D01*
X29718000Y-55118000D01*
X29718000Y-53467000D01*
X28881250Y-53467000D01*
X28756250Y-53592000D01*
X28631250Y-53467000D01*
X27432000Y-53467000D01*
X27432000Y-53487000D01*
X27178000Y-53487000D01*
X27178000Y-53467000D01*
X25978750Y-53467000D01*
X25820000Y-53625750D01*
X25816928Y-54190000D01*
X25829188Y-54314482D01*
X25865498Y-54434180D01*
X25924463Y-54544494D01*
X26003815Y-54641185D01*
X26100506Y-54720537D01*
X26210820Y-54779502D01*
X26279687Y-54800393D01*
X26249866Y-54824866D01*
X26064294Y-55050986D01*
X25926401Y-55308966D01*
X25841487Y-55588889D01*
X25812815Y-55880000D01*
X25841487Y-56171111D01*
X25926401Y-56451034D01*
X26064294Y-56709014D01*
X26249866Y-56935134D01*
X26475986Y-57120706D01*
X26530791Y-57150000D01*
X26475986Y-57179294D01*
X26249866Y-57364866D01*
X26064294Y-57590986D01*
X25926401Y-57848966D01*
X25841487Y-58128889D01*
X25812815Y-58420000D01*
X25841487Y-58711111D01*
X25926401Y-58991034D01*
X26064294Y-59249014D01*
X26249866Y-59475134D01*
X26475986Y-59660706D01*
X26733966Y-59798599D01*
X27013889Y-59883513D01*
X27232050Y-59905000D01*
X27377950Y-59905000D01*
X27556219Y-59887442D01*
X28749428Y-61080651D01*
X28749428Y-61416250D01*
X28766372Y-61588285D01*
X28816553Y-61753709D01*
X28898042Y-61906164D01*
X28945714Y-61964253D01*
X28937271Y-61965932D01*
X28767111Y-62036414D01*
X28613972Y-62138738D01*
X28483738Y-62268972D01*
X28381414Y-62422111D01*
X28310932Y-62592271D01*
X28275000Y-62772911D01*
X28275000Y-62957089D01*
X28310932Y-63137729D01*
X28350001Y-63232050D01*
X28350000Y-64092761D01*
X28345840Y-64135000D01*
X28350000Y-64177239D01*
X28350000Y-64177245D01*
X28350875Y-64186128D01*
X28362444Y-64303589D01*
X28369002Y-64325208D01*
X28411619Y-64465699D01*
X28491476Y-64615101D01*
X28598946Y-64746054D01*
X28631764Y-64772987D01*
X28719428Y-64860651D01*
X28719428Y-65226250D01*
X28736372Y-65398285D01*
X28786553Y-65563709D01*
X28868042Y-65716164D01*
X28977708Y-65849792D01*
X29111336Y-65959458D01*
X29263791Y-66040947D01*
X29429215Y-66091128D01*
X29601250Y-66108072D01*
X30088750Y-66108072D01*
X30260785Y-66091128D01*
X30426209Y-66040947D01*
X30578664Y-65959458D01*
X30712292Y-65849792D01*
X30782500Y-65764244D01*
X30852708Y-65849792D01*
X30986336Y-65959458D01*
X31138791Y-66040947D01*
X31304215Y-66091128D01*
X31476250Y-66108072D01*
X31963750Y-66108072D01*
X32135785Y-66091128D01*
X32301209Y-66040947D01*
X32453664Y-65959458D01*
X32530978Y-65896008D01*
X32529428Y-66105000D01*
X32541688Y-66229482D01*
X32577998Y-66349180D01*
X32636963Y-66459494D01*
X32716315Y-66556185D01*
X32813006Y-66635537D01*
X32923320Y-66694502D01*
X33043018Y-66730812D01*
X33167500Y-66743072D01*
X33369250Y-66740000D01*
X33528000Y-66581250D01*
X33528000Y-65532000D01*
X33508000Y-65532000D01*
X33508000Y-65278000D01*
X33528000Y-65278000D01*
X33528000Y-64228750D01*
X33377205Y-64077955D01*
X33421164Y-64054458D01*
X33554792Y-63944792D01*
X33664458Y-63811164D01*
X33745947Y-63658709D01*
X33749402Y-63647321D01*
X33765506Y-63660537D01*
X33875820Y-63719502D01*
X33995518Y-63755812D01*
X34120000Y-63768072D01*
X34670001Y-63768072D01*
X34670000Y-64319223D01*
X34662708Y-64325208D01*
X34657492Y-64331564D01*
X34593685Y-64253815D01*
X34496994Y-64174463D01*
X34386680Y-64115498D01*
X34266982Y-64079188D01*
X34142500Y-64066928D01*
X33940750Y-64070000D01*
X33782000Y-64228750D01*
X33782000Y-65278000D01*
X33802000Y-65278000D01*
X33802000Y-65532000D01*
X33782000Y-65532000D01*
X33782000Y-66581250D01*
X33940750Y-66740000D01*
X34142500Y-66743072D01*
X34266982Y-66730812D01*
X34386680Y-66694502D01*
X34496994Y-66635537D01*
X34593685Y-66556185D01*
X34657492Y-66478436D01*
X34662708Y-66484792D01*
X34670000Y-66490777D01*
X34670001Y-67498756D01*
X34655269Y-67482412D01*
X34421920Y-67308359D01*
X34159099Y-67183175D01*
X34011890Y-67138524D01*
X33782000Y-67259845D01*
X33782000Y-68453000D01*
X33802000Y-68453000D01*
X33802000Y-68707000D01*
X33782000Y-68707000D01*
X33782000Y-69900155D01*
X34011890Y-70021476D01*
X34159099Y-69976825D01*
X34421920Y-69851641D01*
X34655269Y-69677588D01*
X34850178Y-69461355D01*
X34919799Y-69344477D01*
X34954294Y-69409014D01*
X35139866Y-69635134D01*
X35365986Y-69820706D01*
X35623966Y-69958599D01*
X35903889Y-70043513D01*
X36122050Y-70065000D01*
X36267950Y-70065000D01*
X36486111Y-70043513D01*
X36766034Y-69958599D01*
X37024014Y-69820706D01*
X37250134Y-69635134D01*
X37435706Y-69409014D01*
X37573599Y-69151034D01*
X37640042Y-68932000D01*
X37675473Y-68932000D01*
X37684528Y-68961850D01*
X37766595Y-69115386D01*
X37877038Y-69249962D01*
X38011614Y-69360405D01*
X38165150Y-69442472D01*
X38331746Y-69493008D01*
X38505000Y-69510072D01*
X41505000Y-69510072D01*
X41678254Y-69493008D01*
X41844850Y-69442472D01*
X41998386Y-69360405D01*
X42132962Y-69249962D01*
X42243405Y-69115386D01*
X42325472Y-68961850D01*
X42352727Y-68872000D01*
X43016928Y-68872000D01*
X43029188Y-68996482D01*
X43065498Y-69116180D01*
X43124463Y-69226494D01*
X43203815Y-69323185D01*
X43300506Y-69402537D01*
X43410820Y-69461502D01*
X43530518Y-69497812D01*
X43655000Y-69510072D01*
X45119250Y-69507000D01*
X45278000Y-69348250D01*
X45278000Y-68199000D01*
X45532000Y-68199000D01*
X45532000Y-69348250D01*
X45690750Y-69507000D01*
X47155000Y-69510072D01*
X47279482Y-69497812D01*
X47399180Y-69461502D01*
X47509494Y-69402537D01*
X47606185Y-69323185D01*
X47685537Y-69226494D01*
X47744502Y-69116180D01*
X47780812Y-68996482D01*
X47793072Y-68872000D01*
X47790000Y-68357750D01*
X47631250Y-68199000D01*
X45532000Y-68199000D01*
X45278000Y-68199000D01*
X43178750Y-68199000D01*
X43020000Y-68357750D01*
X43016928Y-68872000D01*
X42352727Y-68872000D01*
X42376008Y-68795254D01*
X42393072Y-68622000D01*
X42393072Y-67522000D01*
X42376008Y-67348746D01*
X42352728Y-67272000D01*
X43016928Y-67272000D01*
X43020000Y-67786250D01*
X43178750Y-67945000D01*
X45278000Y-67945000D01*
X45278000Y-66795750D01*
X45532000Y-66795750D01*
X45532000Y-67945000D01*
X47631250Y-67945000D01*
X47790000Y-67786250D01*
X47793072Y-67272000D01*
X47780812Y-67147518D01*
X47744502Y-67027820D01*
X47685537Y-66917506D01*
X47606185Y-66820815D01*
X47509494Y-66741463D01*
X47399180Y-66682498D01*
X47279482Y-66646188D01*
X47155000Y-66633928D01*
X45690750Y-66637000D01*
X45532000Y-66795750D01*
X45278000Y-66795750D01*
X45119250Y-66637000D01*
X43655000Y-66633928D01*
X43530518Y-66646188D01*
X43410820Y-66682498D01*
X43300506Y-66741463D01*
X43203815Y-66820815D01*
X43124463Y-66917506D01*
X43065498Y-67027820D01*
X43029188Y-67147518D01*
X43016928Y-67272000D01*
X42352728Y-67272000D01*
X42325472Y-67182150D01*
X42243405Y-67028614D01*
X42132962Y-66894038D01*
X41998386Y-66783595D01*
X41844850Y-66701528D01*
X41678254Y-66650992D01*
X41505000Y-66633928D01*
X38505000Y-66633928D01*
X38331746Y-66650992D01*
X38165150Y-66701528D01*
X38011614Y-66783595D01*
X37877038Y-66894038D01*
X37766595Y-67028614D01*
X37684528Y-67182150D01*
X37675473Y-67212000D01*
X36785863Y-67212000D01*
X36766034Y-67201401D01*
X36486111Y-67116487D01*
X36390000Y-67107021D01*
X36390000Y-66490776D01*
X36397292Y-66484792D01*
X36506958Y-66351164D01*
X36588447Y-66198709D01*
X36638628Y-66033285D01*
X36655572Y-65861250D01*
X36655572Y-64948750D01*
X36638628Y-64776715D01*
X36588447Y-64611291D01*
X36506958Y-64458836D01*
X36397292Y-64325208D01*
X36390000Y-64319224D01*
X36390000Y-63768072D01*
X36620000Y-63768072D01*
X36744482Y-63755812D01*
X36864180Y-63719502D01*
X36974494Y-63660537D01*
X37071185Y-63581185D01*
X37150537Y-63484494D01*
X37209502Y-63374180D01*
X37245812Y-63254482D01*
X37258072Y-63130000D01*
X37258072Y-61330000D01*
X37245812Y-61205518D01*
X37209502Y-61085820D01*
X37150537Y-60975506D01*
X37071185Y-60878815D01*
X36974494Y-60799463D01*
X36864180Y-60740498D01*
X36744482Y-60704188D01*
X36620000Y-60691928D01*
X34569296Y-60691928D01*
X34622274Y-60638950D01*
X34622279Y-60638944D01*
X34633151Y-60628072D01*
X35180000Y-60628072D01*
X35333745Y-60612929D01*
X35481582Y-60568084D01*
X35617829Y-60495258D01*
X35737251Y-60397251D01*
X35835258Y-60277829D01*
X35908084Y-60141582D01*
X35952929Y-59993745D01*
X35968072Y-59840000D01*
X35968072Y-59540000D01*
X35952929Y-59386255D01*
X35908084Y-59238418D01*
X35835258Y-59102171D01*
X35796546Y-59055000D01*
X35835258Y-59007829D01*
X35908084Y-58871582D01*
X35952929Y-58723745D01*
X35968072Y-58570000D01*
X35968072Y-58270000D01*
X35952929Y-58116255D01*
X35908084Y-57968418D01*
X35835258Y-57832171D01*
X35796546Y-57785000D01*
X35835258Y-57737829D01*
X35908084Y-57601582D01*
X35952929Y-57453745D01*
X35968072Y-57300000D01*
X35968072Y-57000000D01*
X35952929Y-56846255D01*
X35933208Y-56781244D01*
X36102911Y-56815000D01*
X36287089Y-56815000D01*
X36467729Y-56779068D01*
X36637889Y-56708586D01*
X36730310Y-56646832D01*
X36732454Y-56668599D01*
X36781630Y-56830710D01*
X36861487Y-56980112D01*
X36934812Y-57069458D01*
X36968957Y-57111064D01*
X37001770Y-57137993D01*
X37592015Y-57728239D01*
X37618946Y-57761054D01*
X37749898Y-57868524D01*
X37792997Y-57891561D01*
X37751916Y-57968418D01*
X37707071Y-58116255D01*
X37691928Y-58270000D01*
X37691928Y-58570000D01*
X37707071Y-58723745D01*
X37751916Y-58871582D01*
X37824742Y-59007829D01*
X37863454Y-59055000D01*
X37824742Y-59102171D01*
X37751916Y-59238418D01*
X37707071Y-59386255D01*
X37691928Y-59540000D01*
X37691928Y-59840000D01*
X37707071Y-59993745D01*
X37751916Y-60141582D01*
X37824742Y-60277829D01*
X37922749Y-60397251D01*
X38042171Y-60495258D01*
X38178418Y-60568084D01*
X38326255Y-60612929D01*
X38480000Y-60628072D01*
X38510001Y-60628072D01*
X38510001Y-60691928D01*
X38120000Y-60691928D01*
X37995518Y-60704188D01*
X37875820Y-60740498D01*
X37765506Y-60799463D01*
X37668815Y-60878815D01*
X37589463Y-60975506D01*
X37530498Y-61085820D01*
X37494188Y-61205518D01*
X37481928Y-61330000D01*
X37481928Y-63130000D01*
X37494188Y-63254482D01*
X37530498Y-63374180D01*
X37589463Y-63484494D01*
X37668815Y-63581185D01*
X37765506Y-63660537D01*
X37875820Y-63719502D01*
X37995518Y-63755812D01*
X38120000Y-63768072D01*
X39691848Y-63768072D01*
X40002017Y-64078240D01*
X40028946Y-64111054D01*
X40159898Y-64218524D01*
X40309300Y-64298381D01*
X40422235Y-64332639D01*
X40471410Y-64347556D01*
X40488558Y-64349245D01*
X40597754Y-64360000D01*
X40597760Y-64360000D01*
X40639999Y-64364160D01*
X40682238Y-64360000D01*
X40916986Y-64360000D01*
X40963042Y-64446164D01*
X41072708Y-64579792D01*
X41206336Y-64689458D01*
X41358791Y-64770947D01*
X41524215Y-64821128D01*
X41696250Y-64838072D01*
X42183750Y-64838072D01*
X42355785Y-64821128D01*
X42521209Y-64770947D01*
X42673664Y-64689458D01*
X42807292Y-64579792D01*
X42877500Y-64494244D01*
X42947708Y-64579792D01*
X43081336Y-64689458D01*
X43233791Y-64770947D01*
X43399215Y-64821128D01*
X43571250Y-64838072D01*
X44058750Y-64838072D01*
X44230785Y-64821128D01*
X44396209Y-64770947D01*
X44548664Y-64689458D01*
X44682292Y-64579792D01*
X44791958Y-64446164D01*
X44873447Y-64293709D01*
X44923628Y-64128285D01*
X44940572Y-63956250D01*
X44940572Y-63590651D01*
X46403151Y-62128072D01*
X47105000Y-62128072D01*
X47229482Y-62115812D01*
X47349180Y-62079502D01*
X47459494Y-62020537D01*
X47556185Y-61941185D01*
X47635537Y-61844494D01*
X47694502Y-61734180D01*
X47730812Y-61614482D01*
X47743072Y-61490000D01*
X47743072Y-59890000D01*
X47730812Y-59765518D01*
X47694502Y-59645820D01*
X47635537Y-59535506D01*
X47556185Y-59438815D01*
X47459494Y-59359463D01*
X47349180Y-59300498D01*
X47229482Y-59264188D01*
X47105000Y-59251928D01*
X46133151Y-59251928D01*
X45992988Y-59111765D01*
X45966054Y-59078946D01*
X45835102Y-58971476D01*
X45685700Y-58891619D01*
X45523589Y-58842444D01*
X45397246Y-58830000D01*
X45397239Y-58830000D01*
X45355000Y-58825840D01*
X45312761Y-58830000D01*
X44808112Y-58830000D01*
X44862002Y-58729180D01*
X44898312Y-58609482D01*
X44910572Y-58485000D01*
X44907500Y-58070750D01*
X44748750Y-57912000D01*
X43912000Y-57912000D01*
X43912000Y-57932000D01*
X43658000Y-57932000D01*
X43658000Y-57912000D01*
X43638000Y-57912000D01*
X43638000Y-57658000D01*
X43658000Y-57658000D01*
X43658000Y-56007000D01*
X43912000Y-56007000D01*
X43912000Y-57658000D01*
X44748750Y-57658000D01*
X44907500Y-57499250D01*
X44910572Y-57085000D01*
X44898312Y-56960518D01*
X44862002Y-56840820D01*
X44857555Y-56832500D01*
X44862002Y-56824180D01*
X44898312Y-56704482D01*
X44910572Y-56580000D01*
X44907500Y-56165750D01*
X44748750Y-56007000D01*
X43912000Y-56007000D01*
X43658000Y-56007000D01*
X43638000Y-56007000D01*
X43638000Y-55753000D01*
X43658000Y-55753000D01*
X43658000Y-55733000D01*
X43912000Y-55733000D01*
X43912000Y-55753000D01*
X44748750Y-55753000D01*
X44865693Y-55636057D01*
X44926291Y-55668447D01*
X45091715Y-55718628D01*
X45263750Y-55735572D01*
X46176250Y-55735572D01*
X46348285Y-55718628D01*
X46513709Y-55668447D01*
X46666164Y-55586958D01*
X46799792Y-55477292D01*
X46909458Y-55343664D01*
X46990947Y-55191209D01*
X47041128Y-55025785D01*
X47058072Y-54853750D01*
X47058072Y-54366250D01*
X47041128Y-54194215D01*
X46990947Y-54028791D01*
X46909458Y-53876336D01*
X46799792Y-53742708D01*
X46714244Y-53672500D01*
X46799792Y-53602292D01*
X46909458Y-53468664D01*
X46990947Y-53316209D01*
X47041128Y-53150785D01*
X47058072Y-52978750D01*
X47058072Y-52689218D01*
X47081262Y-52666028D01*
X47183586Y-52512889D01*
X47254068Y-52342729D01*
X47290000Y-52162089D01*
X47290000Y-51977911D01*
X47254068Y-51797271D01*
X47183586Y-51627111D01*
X47081262Y-51473972D01*
X46951028Y-51343738D01*
X46797889Y-51241414D01*
X46627729Y-51170932D01*
X46447089Y-51135000D01*
X46262911Y-51135000D01*
X46082271Y-51170932D01*
X45912111Y-51241414D01*
X45758972Y-51343738D01*
X45628738Y-51473972D01*
X45538229Y-51609428D01*
X45263750Y-51609428D01*
X45091715Y-51626372D01*
X45041005Y-51641755D01*
X44991250Y-51592000D01*
X43942000Y-51592000D01*
X43942000Y-51612000D01*
X43688000Y-51612000D01*
X43688000Y-51592000D01*
X43668000Y-51592000D01*
X43668000Y-51338000D01*
X43688000Y-51338000D01*
X43688000Y-50501250D01*
X43942000Y-50501250D01*
X43942000Y-51338000D01*
X44991250Y-51338000D01*
X45150000Y-51179250D01*
X45153072Y-50977500D01*
X45140812Y-50853018D01*
X45104502Y-50733320D01*
X45045537Y-50623006D01*
X44966185Y-50526315D01*
X44869494Y-50446963D01*
X44759180Y-50387998D01*
X44639482Y-50351688D01*
X44515000Y-50339428D01*
X44100750Y-50342500D01*
X43942000Y-50501250D01*
X43688000Y-50501250D01*
X43529250Y-50342500D01*
X43115000Y-50339428D01*
X42990518Y-50351688D01*
X42870820Y-50387998D01*
X42769908Y-50441937D01*
X42703709Y-50406553D01*
X42538285Y-50356372D01*
X42366250Y-50339428D01*
X41453750Y-50339428D01*
X41281715Y-50356372D01*
X41116291Y-50406553D01*
X41100572Y-50414955D01*
X41100572Y-49708750D01*
X41083628Y-49536715D01*
X41033447Y-49371291D01*
X40954222Y-49223072D01*
X42095000Y-49223072D01*
X42251184Y-49207689D01*
X42401366Y-49162132D01*
X42539774Y-49088151D01*
X42661090Y-48988590D01*
X42760651Y-48867274D01*
X42834632Y-48728866D01*
X42880189Y-48578684D01*
X42895572Y-48422500D01*
X42895572Y-48097500D01*
X42880189Y-47941316D01*
X42852489Y-47850000D01*
X44728777Y-47850000D01*
X44916928Y-48038151D01*
X44916928Y-49760000D01*
X44933992Y-49933254D01*
X44984528Y-50099850D01*
X45066595Y-50253386D01*
X45177038Y-50387962D01*
X45311614Y-50498405D01*
X45465150Y-50580472D01*
X45631746Y-50631008D01*
X45805000Y-50648072D01*
X46905000Y-50648072D01*
X47078254Y-50631008D01*
X47244850Y-50580472D01*
X47398386Y-50498405D01*
X47532962Y-50387962D01*
X47643405Y-50253386D01*
X47725472Y-50099850D01*
X47776008Y-49933254D01*
X47793072Y-49760000D01*
X47793072Y-46760000D01*
X47776008Y-46586746D01*
X47725472Y-46420150D01*
X47643405Y-46266614D01*
X47532962Y-46132038D01*
X47398386Y-46021595D01*
X47244850Y-45939528D01*
X47078254Y-45888992D01*
X46905000Y-45871928D01*
X45805000Y-45871928D01*
X45631746Y-45888992D01*
X45465150Y-45939528D01*
X45311614Y-46021595D01*
X45177038Y-46132038D01*
X45174862Y-46134690D01*
X45127246Y-46130000D01*
X45127239Y-46130000D01*
X45085000Y-46125840D01*
X45042761Y-46130000D01*
X42887201Y-46130000D01*
X42895572Y-46045000D01*
X42892500Y-46005750D01*
X42733750Y-45847000D01*
X41397000Y-45847000D01*
X41397000Y-45867000D01*
X41143000Y-45867000D01*
X41143000Y-45847000D01*
X39806250Y-45847000D01*
X39647500Y-46005750D01*
X39644428Y-46045000D01*
X39656688Y-46169482D01*
X39692998Y-46289180D01*
X39751963Y-46399494D01*
X39763120Y-46413089D01*
X39705368Y-46521134D01*
X39659811Y-46671316D01*
X39644428Y-46827500D01*
X39644428Y-47152500D01*
X39659811Y-47308684D01*
X39705368Y-47458866D01*
X39779349Y-47597274D01*
X39802103Y-47625000D01*
X39779349Y-47652726D01*
X39705368Y-47791134D01*
X39659811Y-47941316D01*
X39653973Y-48000589D01*
X39642729Y-47995932D01*
X39462089Y-47960000D01*
X39277911Y-47960000D01*
X39097271Y-47995932D01*
X38927111Y-48066414D01*
X38773972Y-48168738D01*
X38643738Y-48298972D01*
X38541414Y-48452111D01*
X38502346Y-48546430D01*
X38221848Y-48826928D01*
X37856250Y-48826928D01*
X37698935Y-48842422D01*
X37759632Y-48728866D01*
X37805189Y-48578684D01*
X37820572Y-48422500D01*
X37820572Y-48097500D01*
X37805189Y-47941316D01*
X37759632Y-47791134D01*
X37685651Y-47652726D01*
X37662897Y-47625000D01*
X37685651Y-47597274D01*
X37759632Y-47458866D01*
X37805189Y-47308684D01*
X37820572Y-47152500D01*
X37820572Y-46827500D01*
X37805189Y-46671316D01*
X37759632Y-46521134D01*
X37685651Y-46382726D01*
X37662897Y-46355000D01*
X37685651Y-46327274D01*
X37759632Y-46188866D01*
X37805189Y-46038684D01*
X37811223Y-45977421D01*
X37827271Y-45984068D01*
X38007911Y-46020000D01*
X38192089Y-46020000D01*
X38372729Y-45984068D01*
X38542889Y-45913586D01*
X38696028Y-45811262D01*
X38826262Y-45681028D01*
X38928586Y-45527889D01*
X38999068Y-45357729D01*
X39035000Y-45177089D01*
X39035000Y-44992911D01*
X38999068Y-44812271D01*
X38928586Y-44642111D01*
X38826262Y-44488972D01*
X38696028Y-44358738D01*
X38542889Y-44256414D01*
X38448569Y-44217346D01*
X38402811Y-44171587D01*
X38762021Y-44203123D01*
X39258422Y-44148909D01*
X39696312Y-44010987D01*
X39659811Y-44131316D01*
X39644428Y-44287500D01*
X39644428Y-44612500D01*
X39659811Y-44768684D01*
X39705368Y-44918866D01*
X39763120Y-45026911D01*
X39751963Y-45040506D01*
X39692998Y-45150820D01*
X39656688Y-45270518D01*
X39644428Y-45395000D01*
X39647500Y-45434250D01*
X39806250Y-45593000D01*
X41143000Y-45593000D01*
X41143000Y-45573000D01*
X41397000Y-45573000D01*
X41397000Y-45593000D01*
X42733750Y-45593000D01*
X42892500Y-45434250D01*
X42895572Y-45395000D01*
X42887201Y-45310000D01*
X44722761Y-45310000D01*
X44765000Y-45314160D01*
X44807239Y-45310000D01*
X44807246Y-45310000D01*
X44933589Y-45297556D01*
X45095700Y-45248381D01*
X45245102Y-45168524D01*
X45323076Y-45104532D01*
X45465150Y-45180472D01*
X45631746Y-45231008D01*
X45805000Y-45248072D01*
X46905000Y-45248072D01*
X47078254Y-45231008D01*
X47244850Y-45180472D01*
X47398386Y-45098405D01*
X47532962Y-44987962D01*
X47643405Y-44853386D01*
X47725472Y-44699850D01*
X47776008Y-44533254D01*
X47793072Y-44360000D01*
X47793072Y-41360000D01*
X47776008Y-41186746D01*
X47725472Y-41020150D01*
X47643405Y-40866614D01*
X47532962Y-40732038D01*
X47398386Y-40621595D01*
X47244850Y-40539528D01*
X47078254Y-40488992D01*
X46905000Y-40471928D01*
X45805000Y-40471928D01*
X45631746Y-40488992D01*
X45465150Y-40539528D01*
X45311614Y-40621595D01*
X45177038Y-40732038D01*
X45066595Y-40866614D01*
X44984528Y-41020150D01*
X44933992Y-41186746D01*
X44916928Y-41360000D01*
X44916928Y-43081849D01*
X44408777Y-43590000D01*
X42480189Y-43590000D01*
X42401366Y-43547868D01*
X42251184Y-43502311D01*
X42095000Y-43486928D01*
X40445000Y-43486928D01*
X40291863Y-43502011D01*
X40331744Y-43432349D01*
X38735000Y-41835605D01*
X37138256Y-43432349D01*
X37178756Y-43503091D01*
X37176184Y-43502311D01*
X37020000Y-43486928D01*
X35370000Y-43486928D01*
X35213816Y-43502311D01*
X35063634Y-43547868D01*
X34984811Y-43590000D01*
X34079527Y-43590000D01*
X34070472Y-43560150D01*
X33988405Y-43406614D01*
X33877962Y-43272038D01*
X33743386Y-43161595D01*
X33589850Y-43079528D01*
X33423254Y-43028992D01*
X33250000Y-43011928D01*
X30250000Y-43011928D01*
X30076746Y-43028992D01*
X29910150Y-43079528D01*
X29756614Y-43161595D01*
X29622038Y-43272038D01*
X29511595Y-43406614D01*
X29429528Y-43560150D01*
X29378992Y-43726746D01*
X29361928Y-43900000D01*
X29361928Y-45000000D01*
X29378992Y-45173254D01*
X29429528Y-45339850D01*
X29511595Y-45493386D01*
X29622038Y-45627962D01*
X29756614Y-45738405D01*
X29910150Y-45820472D01*
X30076746Y-45871008D01*
X30250000Y-45888072D01*
X32317857Y-45888072D01*
X32316928Y-45897500D01*
X32320000Y-46099250D01*
X32478750Y-46258000D01*
X33528000Y-46258000D01*
X33528000Y-46238000D01*
X33782000Y-46238000D01*
X33782000Y-46258000D01*
X33802000Y-46258000D01*
X33802000Y-46512000D01*
X33782000Y-46512000D01*
X33782000Y-46532000D01*
X33528000Y-46532000D01*
X33528000Y-46512000D01*
X32478750Y-46512000D01*
X32320000Y-46670750D01*
X32316928Y-46872500D01*
X32329188Y-46996982D01*
X32365498Y-47116680D01*
X32424463Y-47226994D01*
X32503815Y-47323685D01*
X32581564Y-47387492D01*
X32575208Y-47392708D01*
X32465542Y-47526336D01*
X32384053Y-47678791D01*
X32333872Y-47844215D01*
X32316928Y-48016250D01*
X32316928Y-48254721D01*
X32165785Y-48208872D01*
X31993750Y-48191928D01*
X31628152Y-48191928D01*
X31117988Y-47681764D01*
X31091054Y-47648946D01*
X30960102Y-47541476D01*
X30810700Y-47461619D01*
X30648589Y-47412444D01*
X30522246Y-47400000D01*
X30522239Y-47400000D01*
X30480000Y-47395840D01*
X30437761Y-47400000D01*
X28617246Y-47400000D01*
X28575000Y-47395839D01*
X28406410Y-47412444D01*
X28244299Y-47461619D01*
X28228429Y-47470102D01*
X28094898Y-47541476D01*
X27963946Y-47648946D01*
X27937016Y-47681760D01*
X27849348Y-47769428D01*
X27483750Y-47769428D01*
X27311715Y-47786372D01*
X27146291Y-47836553D01*
X26993836Y-47918042D01*
X26860208Y-48027708D01*
X26750542Y-48161336D01*
X26669053Y-48313791D01*
X26618872Y-48479215D01*
X26601928Y-48651250D01*
X26601928Y-49138750D01*
X26618872Y-49310785D01*
X26669053Y-49476209D01*
X26750542Y-49628664D01*
X26860208Y-49762292D01*
X26945756Y-49832500D01*
X26860208Y-49902708D01*
X26750542Y-50036336D01*
X26669053Y-50188791D01*
X26655584Y-50233192D01*
X26321431Y-50567346D01*
X26227111Y-50606414D01*
X26073972Y-50708738D01*
X25943738Y-50838972D01*
X25841414Y-50992111D01*
X25770932Y-51162271D01*
X25735000Y-51342911D01*
X24840000Y-51342911D01*
X24840000Y-45887568D01*
X26064250Y-45885000D01*
X26223000Y-45726250D01*
X26223000Y-44577000D01*
X26477000Y-44577000D01*
X26477000Y-45726250D01*
X26635750Y-45885000D01*
X28100000Y-45888072D01*
X28224482Y-45875812D01*
X28344180Y-45839502D01*
X28454494Y-45780537D01*
X28551185Y-45701185D01*
X28630537Y-45604494D01*
X28689502Y-45494180D01*
X28725812Y-45374482D01*
X28738072Y-45250000D01*
X28735000Y-44735750D01*
X28576250Y-44577000D01*
X26477000Y-44577000D01*
X26223000Y-44577000D01*
X26203000Y-44577000D01*
X26203000Y-44323000D01*
X26223000Y-44323000D01*
X26223000Y-43173750D01*
X26477000Y-43173750D01*
X26477000Y-44323000D01*
X28576250Y-44323000D01*
X28735000Y-44164250D01*
X28738072Y-43650000D01*
X28725812Y-43525518D01*
X28689502Y-43405820D01*
X28630537Y-43295506D01*
X28551185Y-43198815D01*
X28454494Y-43119463D01*
X28344180Y-43060498D01*
X28224482Y-43024188D01*
X28100000Y-43011928D01*
X26635750Y-43015000D01*
X26477000Y-43173750D01*
X26223000Y-43173750D01*
X26064250Y-43015000D01*
X24840000Y-43012432D01*
X24840000Y-40080000D01*
X36922417Y-40080000D01*
X36602133Y-40263362D01*
X36602133Y-40263362D01*
G37*
X36602133Y-40263362D02*
X36371425Y-40706223D01*
X36231548Y-41185583D01*
X36187877Y-41683021D01*
X36242091Y-42179422D01*
X36392106Y-42655707D01*
X36602133Y-43048638D01*
X36958651Y-43252744D01*
X38555395Y-41656000D01*
X38541253Y-41641858D01*
X38720858Y-41462253D01*
X38735000Y-41476395D01*
X38749143Y-41462253D01*
X38928748Y-41641858D01*
X38914605Y-41656000D01*
X40511349Y-43252744D01*
X40867867Y-43048638D01*
X41098575Y-42605777D01*
X41238452Y-42126417D01*
X41282123Y-41628979D01*
X41227909Y-41132578D01*
X41077894Y-40656293D01*
X40867867Y-40263362D01*
X40547583Y-40080000D01*
X49455000Y-40080000D01*
X49455001Y-71045000D01*
X28425608Y-71045000D01*
X28319351Y-70938743D01*
X28675867Y-70734638D01*
X28906575Y-70291777D01*
X29046452Y-69812417D01*
X29090123Y-69314979D01*
X29035909Y-68818578D01*
X28885894Y-68342293D01*
X28675867Y-67949362D01*
X28319349Y-67745256D01*
X26722605Y-69342000D01*
X26736748Y-69356143D01*
X26557143Y-69535748D01*
X26543000Y-69521605D01*
X26528858Y-69535748D01*
X26349253Y-69356143D01*
X26363395Y-69342000D01*
X26349253Y-69327858D01*
X26528858Y-69148253D01*
X26543000Y-69162395D01*
X27975395Y-67730000D01*
X29626928Y-67730000D01*
X29626928Y-69430000D01*
X29639188Y-69554482D01*
X29675498Y-69674180D01*
X29734463Y-69784494D01*
X29813815Y-69881185D01*
X29910506Y-69960537D01*
X30020820Y-70019502D01*
X30140518Y-70055812D01*
X30265000Y-70068072D01*
X31965000Y-70068072D01*
X32089482Y-70055812D01*
X32209180Y-70019502D01*
X32319494Y-69960537D01*
X32416185Y-69881185D01*
X32495537Y-69784494D01*
X32554502Y-69674180D01*
X32578966Y-69593534D01*
X32654731Y-69677588D01*
X32888080Y-69851641D01*
X33150901Y-69976825D01*
X33298110Y-70021476D01*
X33528000Y-69900155D01*
X33528000Y-68707000D01*
X33508000Y-68707000D01*
X33508000Y-68453000D01*
X33528000Y-68453000D01*
X33528000Y-67259845D01*
X33298110Y-67138524D01*
X33150901Y-67183175D01*
X32888080Y-67308359D01*
X32654731Y-67482412D01*
X32578966Y-67566466D01*
X32554502Y-67485820D01*
X32495537Y-67375506D01*
X32416185Y-67278815D01*
X32319494Y-67199463D01*
X32209180Y-67140498D01*
X32089482Y-67104188D01*
X31965000Y-67091928D01*
X30265000Y-67091928D01*
X30140518Y-67104188D01*
X30020820Y-67140498D01*
X29910506Y-67199463D01*
X29813815Y-67278815D01*
X29734463Y-67375506D01*
X29675498Y-67485820D01*
X29639188Y-67605518D01*
X29626928Y-67730000D01*
X27975395Y-67730000D01*
X28139744Y-67565651D01*
X27935638Y-67209133D01*
X27492777Y-66978425D01*
X27013417Y-66838548D01*
X26515979Y-66794877D01*
X26019578Y-66849091D01*
X25543293Y-66999106D01*
X25150362Y-67209133D01*
X24946257Y-67565649D01*
X24840000Y-67459392D01*
X24840000Y-51342911D01*
X25735000Y-51342911D01*
X25735000Y-51527089D01*
X25770932Y-51707729D01*
X25841414Y-51877889D01*
X25943738Y-52031028D01*
X25980245Y-52067535D01*
X25924463Y-52135506D01*
X25865498Y-52245820D01*
X25829188Y-52365518D01*
X25816928Y-52490000D01*
X25820000Y-53054250D01*
X25978750Y-53213000D01*
X27178000Y-53213000D01*
X27178000Y-53193000D01*
X27432000Y-53193000D01*
X27432000Y-53213000D01*
X28631250Y-53213000D01*
X28649250Y-53195000D01*
X28801256Y-53195000D01*
X28852964Y-53184714D01*
X28881250Y-53213000D01*
X29718000Y-53213000D01*
X29718000Y-53193000D01*
X29972000Y-53193000D01*
X29972000Y-53213000D01*
X29992000Y-53213000D01*
X29992000Y-53467000D01*
X29972000Y-53467000D01*
X29972000Y-55118000D01*
X29992000Y-55118000D01*
X29992000Y-55372000D01*
X29972000Y-55372000D01*
X29972000Y-56421250D01*
X30002000Y-56451250D01*
X30002000Y-57023000D01*
X30022000Y-57023000D01*
X30022000Y-57277000D01*
X30002000Y-57277000D01*
X30002000Y-57297000D01*
X29748000Y-57297000D01*
X29748000Y-57277000D01*
X29728000Y-57277000D01*
X29728000Y-57023000D01*
X29748000Y-57023000D01*
X29748000Y-55973750D01*
X29718000Y-55943750D01*
X29718000Y-55372000D01*
X28881250Y-55372000D01*
X28744272Y-55508978D01*
X28683599Y-55308966D01*
X28545706Y-55050986D01*
X28360134Y-54824866D01*
X28330313Y-54800393D01*
X28399180Y-54779502D01*
X28509494Y-54720537D01*
X28606185Y-54641185D01*
X28685537Y-54544494D01*
X28727144Y-54466654D01*
X28719428Y-54545000D01*
X28722500Y-54959250D01*
X28881250Y-55118000D01*
X29718000Y-55118000D01*
X29718000Y-53467000D01*
X28881250Y-53467000D01*
X28756250Y-53592000D01*
X28631250Y-53467000D01*
X27432000Y-53467000D01*
X27432000Y-53487000D01*
X27178000Y-53487000D01*
X27178000Y-53467000D01*
X25978750Y-53467000D01*
X25820000Y-53625750D01*
X25816928Y-54190000D01*
X25829188Y-54314482D01*
X25865498Y-54434180D01*
X25924463Y-54544494D01*
X26003815Y-54641185D01*
X26100506Y-54720537D01*
X26210820Y-54779502D01*
X26279687Y-54800393D01*
X26249866Y-54824866D01*
X26064294Y-55050986D01*
X25926401Y-55308966D01*
X25841487Y-55588889D01*
X25812815Y-55880000D01*
X25841487Y-56171111D01*
X25926401Y-56451034D01*
X26064294Y-56709014D01*
X26249866Y-56935134D01*
X26475986Y-57120706D01*
X26530791Y-57150000D01*
X26475986Y-57179294D01*
X26249866Y-57364866D01*
X26064294Y-57590986D01*
X25926401Y-57848966D01*
X25841487Y-58128889D01*
X25812815Y-58420000D01*
X25841487Y-58711111D01*
X25926401Y-58991034D01*
X26064294Y-59249014D01*
X26249866Y-59475134D01*
X26475986Y-59660706D01*
X26733966Y-59798599D01*
X27013889Y-59883513D01*
X27232050Y-59905000D01*
X27377950Y-59905000D01*
X27556219Y-59887442D01*
X28749428Y-61080651D01*
X28749428Y-61416250D01*
X28766372Y-61588285D01*
X28816553Y-61753709D01*
X28898042Y-61906164D01*
X28945714Y-61964253D01*
X28937271Y-61965932D01*
X28767111Y-62036414D01*
X28613972Y-62138738D01*
X28483738Y-62268972D01*
X28381414Y-62422111D01*
X28310932Y-62592271D01*
X28275000Y-62772911D01*
X28275000Y-62957089D01*
X28310932Y-63137729D01*
X28350001Y-63232050D01*
X28350000Y-64092761D01*
X28345840Y-64135000D01*
X28350000Y-64177239D01*
X28350000Y-64177245D01*
X28350875Y-64186128D01*
X28362444Y-64303589D01*
X28369002Y-64325208D01*
X28411619Y-64465699D01*
X28491476Y-64615101D01*
X28598946Y-64746054D01*
X28631764Y-64772987D01*
X28719428Y-64860651D01*
X28719428Y-65226250D01*
X28736372Y-65398285D01*
X28786553Y-65563709D01*
X28868042Y-65716164D01*
X28977708Y-65849792D01*
X29111336Y-65959458D01*
X29263791Y-66040947D01*
X29429215Y-66091128D01*
X29601250Y-66108072D01*
X30088750Y-66108072D01*
X30260785Y-66091128D01*
X30426209Y-66040947D01*
X30578664Y-65959458D01*
X30712292Y-65849792D01*
X30782500Y-65764244D01*
X30852708Y-65849792D01*
X30986336Y-65959458D01*
X31138791Y-66040947D01*
X31304215Y-66091128D01*
X31476250Y-66108072D01*
X31963750Y-66108072D01*
X32135785Y-66091128D01*
X32301209Y-66040947D01*
X32453664Y-65959458D01*
X32530978Y-65896008D01*
X32529428Y-66105000D01*
X32541688Y-66229482D01*
X32577998Y-66349180D01*
X32636963Y-66459494D01*
X32716315Y-66556185D01*
X32813006Y-66635537D01*
X32923320Y-66694502D01*
X33043018Y-66730812D01*
X33167500Y-66743072D01*
X33369250Y-66740000D01*
X33528000Y-66581250D01*
X33528000Y-65532000D01*
X33508000Y-65532000D01*
X33508000Y-65278000D01*
X33528000Y-65278000D01*
X33528000Y-64228750D01*
X33377205Y-64077955D01*
X33421164Y-64054458D01*
X33554792Y-63944792D01*
X33664458Y-63811164D01*
X33745947Y-63658709D01*
X33749402Y-63647321D01*
X33765506Y-63660537D01*
X33875820Y-63719502D01*
X33995518Y-63755812D01*
X34120000Y-63768072D01*
X34670001Y-63768072D01*
X34670000Y-64319223D01*
X34662708Y-64325208D01*
X34657492Y-64331564D01*
X34593685Y-64253815D01*
X34496994Y-64174463D01*
X34386680Y-64115498D01*
X34266982Y-64079188D01*
X34142500Y-64066928D01*
X33940750Y-64070000D01*
X33782000Y-64228750D01*
X33782000Y-65278000D01*
X33802000Y-65278000D01*
X33802000Y-65532000D01*
X33782000Y-65532000D01*
X33782000Y-66581250D01*
X33940750Y-66740000D01*
X34142500Y-66743072D01*
X34266982Y-66730812D01*
X34386680Y-66694502D01*
X34496994Y-66635537D01*
X34593685Y-66556185D01*
X34657492Y-66478436D01*
X34662708Y-66484792D01*
X34670000Y-66490777D01*
X34670001Y-67498756D01*
X34655269Y-67482412D01*
X34421920Y-67308359D01*
X34159099Y-67183175D01*
X34011890Y-67138524D01*
X33782000Y-67259845D01*
X33782000Y-68453000D01*
X33802000Y-68453000D01*
X33802000Y-68707000D01*
X33782000Y-68707000D01*
X33782000Y-69900155D01*
X34011890Y-70021476D01*
X34159099Y-69976825D01*
X34421920Y-69851641D01*
X34655269Y-69677588D01*
X34850178Y-69461355D01*
X34919799Y-69344477D01*
X34954294Y-69409014D01*
X35139866Y-69635134D01*
X35365986Y-69820706D01*
X35623966Y-69958599D01*
X35903889Y-70043513D01*
X36122050Y-70065000D01*
X36267950Y-70065000D01*
X36486111Y-70043513D01*
X36766034Y-69958599D01*
X37024014Y-69820706D01*
X37250134Y-69635134D01*
X37435706Y-69409014D01*
X37573599Y-69151034D01*
X37640042Y-68932000D01*
X37675473Y-68932000D01*
X37684528Y-68961850D01*
X37766595Y-69115386D01*
X37877038Y-69249962D01*
X38011614Y-69360405D01*
X38165150Y-69442472D01*
X38331746Y-69493008D01*
X38505000Y-69510072D01*
X41505000Y-69510072D01*
X41678254Y-69493008D01*
X41844850Y-69442472D01*
X41998386Y-69360405D01*
X42132962Y-69249962D01*
X42243405Y-69115386D01*
X42325472Y-68961850D01*
X42352727Y-68872000D01*
X43016928Y-68872000D01*
X43029188Y-68996482D01*
X43065498Y-69116180D01*
X43124463Y-69226494D01*
X43203815Y-69323185D01*
X43300506Y-69402537D01*
X43410820Y-69461502D01*
X43530518Y-69497812D01*
X43655000Y-69510072D01*
X45119250Y-69507000D01*
X45278000Y-69348250D01*
X45278000Y-68199000D01*
X45532000Y-68199000D01*
X45532000Y-69348250D01*
X45690750Y-69507000D01*
X47155000Y-69510072D01*
X47279482Y-69497812D01*
X47399180Y-69461502D01*
X47509494Y-69402537D01*
X47606185Y-69323185D01*
X47685537Y-69226494D01*
X47744502Y-69116180D01*
X47780812Y-68996482D01*
X47793072Y-68872000D01*
X47790000Y-68357750D01*
X47631250Y-68199000D01*
X45532000Y-68199000D01*
X45278000Y-68199000D01*
X43178750Y-68199000D01*
X43020000Y-68357750D01*
X43016928Y-68872000D01*
X42352727Y-68872000D01*
X42376008Y-68795254D01*
X42393072Y-68622000D01*
X42393072Y-67522000D01*
X42376008Y-67348746D01*
X42352728Y-67272000D01*
X43016928Y-67272000D01*
X43020000Y-67786250D01*
X43178750Y-67945000D01*
X45278000Y-67945000D01*
X45278000Y-66795750D01*
X45532000Y-66795750D01*
X45532000Y-67945000D01*
X47631250Y-67945000D01*
X47790000Y-67786250D01*
X47793072Y-67272000D01*
X47780812Y-67147518D01*
X47744502Y-67027820D01*
X47685537Y-66917506D01*
X47606185Y-66820815D01*
X47509494Y-66741463D01*
X47399180Y-66682498D01*
X47279482Y-66646188D01*
X47155000Y-66633928D01*
X45690750Y-66637000D01*
X45532000Y-66795750D01*
X45278000Y-66795750D01*
X45119250Y-66637000D01*
X43655000Y-66633928D01*
X43530518Y-66646188D01*
X43410820Y-66682498D01*
X43300506Y-66741463D01*
X43203815Y-66820815D01*
X43124463Y-66917506D01*
X43065498Y-67027820D01*
X43029188Y-67147518D01*
X43016928Y-67272000D01*
X42352728Y-67272000D01*
X42325472Y-67182150D01*
X42243405Y-67028614D01*
X42132962Y-66894038D01*
X41998386Y-66783595D01*
X41844850Y-66701528D01*
X41678254Y-66650992D01*
X41505000Y-66633928D01*
X38505000Y-66633928D01*
X38331746Y-66650992D01*
X38165150Y-66701528D01*
X38011614Y-66783595D01*
X37877038Y-66894038D01*
X37766595Y-67028614D01*
X37684528Y-67182150D01*
X37675473Y-67212000D01*
X36785863Y-67212000D01*
X36766034Y-67201401D01*
X36486111Y-67116487D01*
X36390000Y-67107021D01*
X36390000Y-66490776D01*
X36397292Y-66484792D01*
X36506958Y-66351164D01*
X36588447Y-66198709D01*
X36638628Y-66033285D01*
X36655572Y-65861250D01*
X36655572Y-64948750D01*
X36638628Y-64776715D01*
X36588447Y-64611291D01*
X36506958Y-64458836D01*
X36397292Y-64325208D01*
X36390000Y-64319224D01*
X36390000Y-63768072D01*
X36620000Y-63768072D01*
X36744482Y-63755812D01*
X36864180Y-63719502D01*
X36974494Y-63660537D01*
X37071185Y-63581185D01*
X37150537Y-63484494D01*
X37209502Y-63374180D01*
X37245812Y-63254482D01*
X37258072Y-63130000D01*
X37258072Y-61330000D01*
X37245812Y-61205518D01*
X37209502Y-61085820D01*
X37150537Y-60975506D01*
X37071185Y-60878815D01*
X36974494Y-60799463D01*
X36864180Y-60740498D01*
X36744482Y-60704188D01*
X36620000Y-60691928D01*
X34569296Y-60691928D01*
X34622274Y-60638950D01*
X34622279Y-60638944D01*
X34633151Y-60628072D01*
X35180000Y-60628072D01*
X35333745Y-60612929D01*
X35481582Y-60568084D01*
X35617829Y-60495258D01*
X35737251Y-60397251D01*
X35835258Y-60277829D01*
X35908084Y-60141582D01*
X35952929Y-59993745D01*
X35968072Y-59840000D01*
X35968072Y-59540000D01*
X35952929Y-59386255D01*
X35908084Y-59238418D01*
X35835258Y-59102171D01*
X35796546Y-59055000D01*
X35835258Y-59007829D01*
X35908084Y-58871582D01*
X35952929Y-58723745D01*
X35968072Y-58570000D01*
X35968072Y-58270000D01*
X35952929Y-58116255D01*
X35908084Y-57968418D01*
X35835258Y-57832171D01*
X35796546Y-57785000D01*
X35835258Y-57737829D01*
X35908084Y-57601582D01*
X35952929Y-57453745D01*
X35968072Y-57300000D01*
X35968072Y-57000000D01*
X35952929Y-56846255D01*
X35933208Y-56781244D01*
X36102911Y-56815000D01*
X36287089Y-56815000D01*
X36467729Y-56779068D01*
X36637889Y-56708586D01*
X36730310Y-56646832D01*
X36732454Y-56668599D01*
X36781630Y-56830710D01*
X36861487Y-56980112D01*
X36934812Y-57069458D01*
X36968957Y-57111064D01*
X37001770Y-57137993D01*
X37592015Y-57728239D01*
X37618946Y-57761054D01*
X37749898Y-57868524D01*
X37792997Y-57891561D01*
X37751916Y-57968418D01*
X37707071Y-58116255D01*
X37691928Y-58270000D01*
X37691928Y-58570000D01*
X37707071Y-58723745D01*
X37751916Y-58871582D01*
X37824742Y-59007829D01*
X37863454Y-59055000D01*
X37824742Y-59102171D01*
X37751916Y-59238418D01*
X37707071Y-59386255D01*
X37691928Y-59540000D01*
X37691928Y-59840000D01*
X37707071Y-59993745D01*
X37751916Y-60141582D01*
X37824742Y-60277829D01*
X37922749Y-60397251D01*
X38042171Y-60495258D01*
X38178418Y-60568084D01*
X38326255Y-60612929D01*
X38480000Y-60628072D01*
X38510001Y-60628072D01*
X38510001Y-60691928D01*
X38120000Y-60691928D01*
X37995518Y-60704188D01*
X37875820Y-60740498D01*
X37765506Y-60799463D01*
X37668815Y-60878815D01*
X37589463Y-60975506D01*
X37530498Y-61085820D01*
X37494188Y-61205518D01*
X37481928Y-61330000D01*
X37481928Y-63130000D01*
X37494188Y-63254482D01*
X37530498Y-63374180D01*
X37589463Y-63484494D01*
X37668815Y-63581185D01*
X37765506Y-63660537D01*
X37875820Y-63719502D01*
X37995518Y-63755812D01*
X38120000Y-63768072D01*
X39691848Y-63768072D01*
X40002017Y-64078240D01*
X40028946Y-64111054D01*
X40159898Y-64218524D01*
X40309300Y-64298381D01*
X40422235Y-64332639D01*
X40471410Y-64347556D01*
X40488558Y-64349245D01*
X40597754Y-64360000D01*
X40597760Y-64360000D01*
X40639999Y-64364160D01*
X40682238Y-64360000D01*
X40916986Y-64360000D01*
X40963042Y-64446164D01*
X41072708Y-64579792D01*
X41206336Y-64689458D01*
X41358791Y-64770947D01*
X41524215Y-64821128D01*
X41696250Y-64838072D01*
X42183750Y-64838072D01*
X42355785Y-64821128D01*
X42521209Y-64770947D01*
X42673664Y-64689458D01*
X42807292Y-64579792D01*
X42877500Y-64494244D01*
X42947708Y-64579792D01*
X43081336Y-64689458D01*
X43233791Y-64770947D01*
X43399215Y-64821128D01*
X43571250Y-64838072D01*
X44058750Y-64838072D01*
X44230785Y-64821128D01*
X44396209Y-64770947D01*
X44548664Y-64689458D01*
X44682292Y-64579792D01*
X44791958Y-64446164D01*
X44873447Y-64293709D01*
X44923628Y-64128285D01*
X44940572Y-63956250D01*
X44940572Y-63590651D01*
X46403151Y-62128072D01*
X47105000Y-62128072D01*
X47229482Y-62115812D01*
X47349180Y-62079502D01*
X47459494Y-62020537D01*
X47556185Y-61941185D01*
X47635537Y-61844494D01*
X47694502Y-61734180D01*
X47730812Y-61614482D01*
X47743072Y-61490000D01*
X47743072Y-59890000D01*
X47730812Y-59765518D01*
X47694502Y-59645820D01*
X47635537Y-59535506D01*
X47556185Y-59438815D01*
X47459494Y-59359463D01*
X47349180Y-59300498D01*
X47229482Y-59264188D01*
X47105000Y-59251928D01*
X46133151Y-59251928D01*
X45992988Y-59111765D01*
X45966054Y-59078946D01*
X45835102Y-58971476D01*
X45685700Y-58891619D01*
X45523589Y-58842444D01*
X45397246Y-58830000D01*
X45397239Y-58830000D01*
X45355000Y-58825840D01*
X45312761Y-58830000D01*
X44808112Y-58830000D01*
X44862002Y-58729180D01*
X44898312Y-58609482D01*
X44910572Y-58485000D01*
X44907500Y-58070750D01*
X44748750Y-57912000D01*
X43912000Y-57912000D01*
X43912000Y-57932000D01*
X43658000Y-57932000D01*
X43658000Y-57912000D01*
X43638000Y-57912000D01*
X43638000Y-57658000D01*
X43658000Y-57658000D01*
X43658000Y-56007000D01*
X43912000Y-56007000D01*
X43912000Y-57658000D01*
X44748750Y-57658000D01*
X44907500Y-57499250D01*
X44910572Y-57085000D01*
X44898312Y-56960518D01*
X44862002Y-56840820D01*
X44857555Y-56832500D01*
X44862002Y-56824180D01*
X44898312Y-56704482D01*
X44910572Y-56580000D01*
X44907500Y-56165750D01*
X44748750Y-56007000D01*
X43912000Y-56007000D01*
X43658000Y-56007000D01*
X43638000Y-56007000D01*
X43638000Y-55753000D01*
X43658000Y-55753000D01*
X43658000Y-55733000D01*
X43912000Y-55733000D01*
X43912000Y-55753000D01*
X44748750Y-55753000D01*
X44865693Y-55636057D01*
X44926291Y-55668447D01*
X45091715Y-55718628D01*
X45263750Y-55735572D01*
X46176250Y-55735572D01*
X46348285Y-55718628D01*
X46513709Y-55668447D01*
X46666164Y-55586958D01*
X46799792Y-55477292D01*
X46909458Y-55343664D01*
X46990947Y-55191209D01*
X47041128Y-55025785D01*
X47058072Y-54853750D01*
X47058072Y-54366250D01*
X47041128Y-54194215D01*
X46990947Y-54028791D01*
X46909458Y-53876336D01*
X46799792Y-53742708D01*
X46714244Y-53672500D01*
X46799792Y-53602292D01*
X46909458Y-53468664D01*
X46990947Y-53316209D01*
X47041128Y-53150785D01*
X47058072Y-52978750D01*
X47058072Y-52689218D01*
X47081262Y-52666028D01*
X47183586Y-52512889D01*
X47254068Y-52342729D01*
X47290000Y-52162089D01*
X47290000Y-51977911D01*
X47254068Y-51797271D01*
X47183586Y-51627111D01*
X47081262Y-51473972D01*
X46951028Y-51343738D01*
X46797889Y-51241414D01*
X46627729Y-51170932D01*
X46447089Y-51135000D01*
X46262911Y-51135000D01*
X46082271Y-51170932D01*
X45912111Y-51241414D01*
X45758972Y-51343738D01*
X45628738Y-51473972D01*
X45538229Y-51609428D01*
X45263750Y-51609428D01*
X45091715Y-51626372D01*
X45041005Y-51641755D01*
X44991250Y-51592000D01*
X43942000Y-51592000D01*
X43942000Y-51612000D01*
X43688000Y-51612000D01*
X43688000Y-51592000D01*
X43668000Y-51592000D01*
X43668000Y-51338000D01*
X43688000Y-51338000D01*
X43688000Y-50501250D01*
X43942000Y-50501250D01*
X43942000Y-51338000D01*
X44991250Y-51338000D01*
X45150000Y-51179250D01*
X45153072Y-50977500D01*
X45140812Y-50853018D01*
X45104502Y-50733320D01*
X45045537Y-50623006D01*
X44966185Y-50526315D01*
X44869494Y-50446963D01*
X44759180Y-50387998D01*
X44639482Y-50351688D01*
X44515000Y-50339428D01*
X44100750Y-50342500D01*
X43942000Y-50501250D01*
X43688000Y-50501250D01*
X43529250Y-50342500D01*
X43115000Y-50339428D01*
X42990518Y-50351688D01*
X42870820Y-50387998D01*
X42769908Y-50441937D01*
X42703709Y-50406553D01*
X42538285Y-50356372D01*
X42366250Y-50339428D01*
X41453750Y-50339428D01*
X41281715Y-50356372D01*
X41116291Y-50406553D01*
X41100572Y-50414955D01*
X41100572Y-49708750D01*
X41083628Y-49536715D01*
X41033447Y-49371291D01*
X40954222Y-49223072D01*
X42095000Y-49223072D01*
X42251184Y-49207689D01*
X42401366Y-49162132D01*
X42539774Y-49088151D01*
X42661090Y-48988590D01*
X42760651Y-48867274D01*
X42834632Y-48728866D01*
X42880189Y-48578684D01*
X42895572Y-48422500D01*
X42895572Y-48097500D01*
X42880189Y-47941316D01*
X42852489Y-47850000D01*
X44728777Y-47850000D01*
X44916928Y-48038151D01*
X44916928Y-49760000D01*
X44933992Y-49933254D01*
X44984528Y-50099850D01*
X45066595Y-50253386D01*
X45177038Y-50387962D01*
X45311614Y-50498405D01*
X45465150Y-50580472D01*
X45631746Y-50631008D01*
X45805000Y-50648072D01*
X46905000Y-50648072D01*
X47078254Y-50631008D01*
X47244850Y-50580472D01*
X47398386Y-50498405D01*
X47532962Y-50387962D01*
X47643405Y-50253386D01*
X47725472Y-50099850D01*
X47776008Y-49933254D01*
X47793072Y-49760000D01*
X47793072Y-46760000D01*
X47776008Y-46586746D01*
X47725472Y-46420150D01*
X47643405Y-46266614D01*
X47532962Y-46132038D01*
X47398386Y-46021595D01*
X47244850Y-45939528D01*
X47078254Y-45888992D01*
X46905000Y-45871928D01*
X45805000Y-45871928D01*
X45631746Y-45888992D01*
X45465150Y-45939528D01*
X45311614Y-46021595D01*
X45177038Y-46132038D01*
X45174862Y-46134690D01*
X45127246Y-46130000D01*
X45127239Y-46130000D01*
X45085000Y-46125840D01*
X45042761Y-46130000D01*
X42887201Y-46130000D01*
X42895572Y-46045000D01*
X42892500Y-46005750D01*
X42733750Y-45847000D01*
X41397000Y-45847000D01*
X41397000Y-45867000D01*
X41143000Y-45867000D01*
X41143000Y-45847000D01*
X39806250Y-45847000D01*
X39647500Y-46005750D01*
X39644428Y-46045000D01*
X39656688Y-46169482D01*
X39692998Y-46289180D01*
X39751963Y-46399494D01*
X39763120Y-46413089D01*
X39705368Y-46521134D01*
X39659811Y-46671316D01*
X39644428Y-46827500D01*
X39644428Y-47152500D01*
X39659811Y-47308684D01*
X39705368Y-47458866D01*
X39779349Y-47597274D01*
X39802103Y-47625000D01*
X39779349Y-47652726D01*
X39705368Y-47791134D01*
X39659811Y-47941316D01*
X39653973Y-48000589D01*
X39642729Y-47995932D01*
X39462089Y-47960000D01*
X39277911Y-47960000D01*
X39097271Y-47995932D01*
X38927111Y-48066414D01*
X38773972Y-48168738D01*
X38643738Y-48298972D01*
X38541414Y-48452111D01*
X38502346Y-48546430D01*
X38221848Y-48826928D01*
X37856250Y-48826928D01*
X37698935Y-48842422D01*
X37759632Y-48728866D01*
X37805189Y-48578684D01*
X37820572Y-48422500D01*
X37820572Y-48097500D01*
X37805189Y-47941316D01*
X37759632Y-47791134D01*
X37685651Y-47652726D01*
X37662897Y-47625000D01*
X37685651Y-47597274D01*
X37759632Y-47458866D01*
X37805189Y-47308684D01*
X37820572Y-47152500D01*
X37820572Y-46827500D01*
X37805189Y-46671316D01*
X37759632Y-46521134D01*
X37685651Y-46382726D01*
X37662897Y-46355000D01*
X37685651Y-46327274D01*
X37759632Y-46188866D01*
X37805189Y-46038684D01*
X37811223Y-45977421D01*
X37827271Y-45984068D01*
X38007911Y-46020000D01*
X38192089Y-46020000D01*
X38372729Y-45984068D01*
X38542889Y-45913586D01*
X38696028Y-45811262D01*
X38826262Y-45681028D01*
X38928586Y-45527889D01*
X38999068Y-45357729D01*
X39035000Y-45177089D01*
X39035000Y-44992911D01*
X38999068Y-44812271D01*
X38928586Y-44642111D01*
X38826262Y-44488972D01*
X38696028Y-44358738D01*
X38542889Y-44256414D01*
X38448569Y-44217346D01*
X38402811Y-44171587D01*
X38762021Y-44203123D01*
X39258422Y-44148909D01*
X39696312Y-44010987D01*
X39659811Y-44131316D01*
X39644428Y-44287500D01*
X39644428Y-44612500D01*
X39659811Y-44768684D01*
X39705368Y-44918866D01*
X39763120Y-45026911D01*
X39751963Y-45040506D01*
X39692998Y-45150820D01*
X39656688Y-45270518D01*
X39644428Y-45395000D01*
X39647500Y-45434250D01*
X39806250Y-45593000D01*
X41143000Y-45593000D01*
X41143000Y-45573000D01*
X41397000Y-45573000D01*
X41397000Y-45593000D01*
X42733750Y-45593000D01*
X42892500Y-45434250D01*
X42895572Y-45395000D01*
X42887201Y-45310000D01*
X44722761Y-45310000D01*
X44765000Y-45314160D01*
X44807239Y-45310000D01*
X44807246Y-45310000D01*
X44933589Y-45297556D01*
X45095700Y-45248381D01*
X45245102Y-45168524D01*
X45323076Y-45104532D01*
X45465150Y-45180472D01*
X45631746Y-45231008D01*
X45805000Y-45248072D01*
X46905000Y-45248072D01*
X47078254Y-45231008D01*
X47244850Y-45180472D01*
X47398386Y-45098405D01*
X47532962Y-44987962D01*
X47643405Y-44853386D01*
X47725472Y-44699850D01*
X47776008Y-44533254D01*
X47793072Y-44360000D01*
X47793072Y-41360000D01*
X47776008Y-41186746D01*
X47725472Y-41020150D01*
X47643405Y-40866614D01*
X47532962Y-40732038D01*
X47398386Y-40621595D01*
X47244850Y-40539528D01*
X47078254Y-40488992D01*
X46905000Y-40471928D01*
X45805000Y-40471928D01*
X45631746Y-40488992D01*
X45465150Y-40539528D01*
X45311614Y-40621595D01*
X45177038Y-40732038D01*
X45066595Y-40866614D01*
X44984528Y-41020150D01*
X44933992Y-41186746D01*
X44916928Y-41360000D01*
X44916928Y-43081849D01*
X44408777Y-43590000D01*
X42480189Y-43590000D01*
X42401366Y-43547868D01*
X42251184Y-43502311D01*
X42095000Y-43486928D01*
X40445000Y-43486928D01*
X40291863Y-43502011D01*
X40331744Y-43432349D01*
X38735000Y-41835605D01*
X37138256Y-43432349D01*
X37178756Y-43503091D01*
X37176184Y-43502311D01*
X37020000Y-43486928D01*
X35370000Y-43486928D01*
X35213816Y-43502311D01*
X35063634Y-43547868D01*
X34984811Y-43590000D01*
X34079527Y-43590000D01*
X34070472Y-43560150D01*
X33988405Y-43406614D01*
X33877962Y-43272038D01*
X33743386Y-43161595D01*
X33589850Y-43079528D01*
X33423254Y-43028992D01*
X33250000Y-43011928D01*
X30250000Y-43011928D01*
X30076746Y-43028992D01*
X29910150Y-43079528D01*
X29756614Y-43161595D01*
X29622038Y-43272038D01*
X29511595Y-43406614D01*
X29429528Y-43560150D01*
X29378992Y-43726746D01*
X29361928Y-43900000D01*
X29361928Y-45000000D01*
X29378992Y-45173254D01*
X29429528Y-45339850D01*
X29511595Y-45493386D01*
X29622038Y-45627962D01*
X29756614Y-45738405D01*
X29910150Y-45820472D01*
X30076746Y-45871008D01*
X30250000Y-45888072D01*
X32317857Y-45888072D01*
X32316928Y-45897500D01*
X32320000Y-46099250D01*
X32478750Y-46258000D01*
X33528000Y-46258000D01*
X33528000Y-46238000D01*
X33782000Y-46238000D01*
X33782000Y-46258000D01*
X33802000Y-46258000D01*
X33802000Y-46512000D01*
X33782000Y-46512000D01*
X33782000Y-46532000D01*
X33528000Y-46532000D01*
X33528000Y-46512000D01*
X32478750Y-46512000D01*
X32320000Y-46670750D01*
X32316928Y-46872500D01*
X32329188Y-46996982D01*
X32365498Y-47116680D01*
X32424463Y-47226994D01*
X32503815Y-47323685D01*
X32581564Y-47387492D01*
X32575208Y-47392708D01*
X32465542Y-47526336D01*
X32384053Y-47678791D01*
X32333872Y-47844215D01*
X32316928Y-48016250D01*
X32316928Y-48254721D01*
X32165785Y-48208872D01*
X31993750Y-48191928D01*
X31628152Y-48191928D01*
X31117988Y-47681764D01*
X31091054Y-47648946D01*
X30960102Y-47541476D01*
X30810700Y-47461619D01*
X30648589Y-47412444D01*
X30522246Y-47400000D01*
X30522239Y-47400000D01*
X30480000Y-47395840D01*
X30437761Y-47400000D01*
X28617246Y-47400000D01*
X28575000Y-47395839D01*
X28406410Y-47412444D01*
X28244299Y-47461619D01*
X28228429Y-47470102D01*
X28094898Y-47541476D01*
X27963946Y-47648946D01*
X27937016Y-47681760D01*
X27849348Y-47769428D01*
X27483750Y-47769428D01*
X27311715Y-47786372D01*
X27146291Y-47836553D01*
X26993836Y-47918042D01*
X26860208Y-48027708D01*
X26750542Y-48161336D01*
X26669053Y-48313791D01*
X26618872Y-48479215D01*
X26601928Y-48651250D01*
X26601928Y-49138750D01*
X26618872Y-49310785D01*
X26669053Y-49476209D01*
X26750542Y-49628664D01*
X26860208Y-49762292D01*
X26945756Y-49832500D01*
X26860208Y-49902708D01*
X26750542Y-50036336D01*
X26669053Y-50188791D01*
X26655584Y-50233192D01*
X26321431Y-50567346D01*
X26227111Y-50606414D01*
X26073972Y-50708738D01*
X25943738Y-50838972D01*
X25841414Y-50992111D01*
X25770932Y-51162271D01*
X25735000Y-51342911D01*
X24840000Y-51342911D01*
X24840000Y-45887568D01*
X26064250Y-45885000D01*
X26223000Y-45726250D01*
X26223000Y-44577000D01*
X26477000Y-44577000D01*
X26477000Y-45726250D01*
X26635750Y-45885000D01*
X28100000Y-45888072D01*
X28224482Y-45875812D01*
X28344180Y-45839502D01*
X28454494Y-45780537D01*
X28551185Y-45701185D01*
X28630537Y-45604494D01*
X28689502Y-45494180D01*
X28725812Y-45374482D01*
X28738072Y-45250000D01*
X28735000Y-44735750D01*
X28576250Y-44577000D01*
X26477000Y-44577000D01*
X26223000Y-44577000D01*
X26203000Y-44577000D01*
X26203000Y-44323000D01*
X26223000Y-44323000D01*
X26223000Y-43173750D01*
X26477000Y-43173750D01*
X26477000Y-44323000D01*
X28576250Y-44323000D01*
X28735000Y-44164250D01*
X28738072Y-43650000D01*
X28725812Y-43525518D01*
X28689502Y-43405820D01*
X28630537Y-43295506D01*
X28551185Y-43198815D01*
X28454494Y-43119463D01*
X28344180Y-43060498D01*
X28224482Y-43024188D01*
X28100000Y-43011928D01*
X26635750Y-43015000D01*
X26477000Y-43173750D01*
X26223000Y-43173750D01*
X26064250Y-43015000D01*
X24840000Y-43012432D01*
X24840000Y-40080000D01*
X36922417Y-40080000D01*
X36602133Y-40263362D01*
M02*
