G04 #@! TF.GenerationSoftware,KiCad,Pcbnew,5.1.5-52549c5~84~ubuntu19.10.1*
G04 #@! TF.CreationDate,2020-04-03T18:50:05+02:00*
G04 #@! TF.ProjectId,OpenEMG2,4f70656e-454d-4473-922e-6b696361645f,G*
G04 #@! TF.SameCoordinates,Original*
G04 #@! TF.FileFunction,Legend,Top*
G04 #@! TF.FilePolarity,Positive*
%FSLAX46Y46*%
G04 Gerber Fmt 4.6, Leading zero omitted, Abs format (unit mm)*
G04 Created by KiCad (PCBNEW 5.1.5-52549c5~84~ubuntu19.10.1) date 2020-04-03 18:50:05*
%MOMM*%
%LPD*%
G04 APERTURE LIST*
%ADD10C,0.150000*%
%ADD11C,0.010000*%
%ADD12C,0.120000*%
G04 APERTURE END LIST*
D10*
X19050000Y-19050000D02*
X19050000Y-66040000D01*
X52705000Y-19050000D02*
X19050000Y-19050000D01*
X52705000Y-66040000D02*
X52705000Y-19050000D01*
X19050000Y-66040000D02*
X52705000Y-66040000D01*
D11*
G36*
X22963910Y-58837348D02*
G01*
X23042454Y-58837778D01*
X23099298Y-58838942D01*
X23138105Y-58841207D01*
X23162538Y-58844940D01*
X23176262Y-58850506D01*
X23182940Y-58858273D01*
X23186236Y-58868605D01*
X23186556Y-58869943D01*
X23191562Y-58894079D01*
X23200829Y-58941701D01*
X23213392Y-59007741D01*
X23228287Y-59087128D01*
X23244551Y-59174796D01*
X23245119Y-59177875D01*
X23261410Y-59263789D01*
X23276652Y-59339696D01*
X23289861Y-59401045D01*
X23300054Y-59443282D01*
X23306248Y-59461855D01*
X23306543Y-59462184D01*
X23324788Y-59471253D01*
X23362405Y-59486367D01*
X23411271Y-59504262D01*
X23411543Y-59504358D01*
X23473093Y-59527493D01*
X23545657Y-59556965D01*
X23614057Y-59586597D01*
X23617294Y-59588062D01*
X23728702Y-59638626D01*
X23975399Y-59470160D01*
X24051077Y-59418803D01*
X24119631Y-59372889D01*
X24177088Y-59335030D01*
X24219476Y-59307837D01*
X24242825Y-59293921D01*
X24245042Y-59292889D01*
X24262010Y-59297484D01*
X24293701Y-59319655D01*
X24341352Y-59360447D01*
X24406198Y-59420905D01*
X24472397Y-59485227D01*
X24536214Y-59548612D01*
X24593329Y-59606451D01*
X24640305Y-59655175D01*
X24673703Y-59691210D01*
X24690085Y-59710984D01*
X24690694Y-59712002D01*
X24692505Y-59725572D01*
X24685683Y-59747733D01*
X24668540Y-59781478D01*
X24639393Y-59829800D01*
X24596555Y-59895692D01*
X24539448Y-59980517D01*
X24488766Y-60055177D01*
X24443461Y-60122140D01*
X24406150Y-60177516D01*
X24379452Y-60217420D01*
X24365985Y-60237962D01*
X24365137Y-60239356D01*
X24366781Y-60259038D01*
X24379245Y-60297293D01*
X24400048Y-60346889D01*
X24407462Y-60362728D01*
X24439814Y-60433290D01*
X24474328Y-60513353D01*
X24502365Y-60582629D01*
X24522568Y-60634045D01*
X24538615Y-60673119D01*
X24547888Y-60693541D01*
X24549041Y-60695114D01*
X24566096Y-60697721D01*
X24606298Y-60704863D01*
X24664302Y-60715523D01*
X24734763Y-60728685D01*
X24812335Y-60743333D01*
X24891672Y-60758449D01*
X24967431Y-60773018D01*
X25034264Y-60786022D01*
X25086828Y-60796445D01*
X25119776Y-60803270D01*
X25127857Y-60805199D01*
X25136205Y-60809962D01*
X25142506Y-60820718D01*
X25147045Y-60841098D01*
X25150104Y-60874734D01*
X25151967Y-60925255D01*
X25152918Y-60996292D01*
X25153240Y-61091476D01*
X25153257Y-61130492D01*
X25153257Y-61447799D01*
X25077057Y-61462839D01*
X25034663Y-61470995D01*
X24971400Y-61482899D01*
X24894962Y-61497116D01*
X24813043Y-61512210D01*
X24790400Y-61516355D01*
X24714806Y-61531053D01*
X24648953Y-61545505D01*
X24598366Y-61558375D01*
X24568574Y-61568322D01*
X24563612Y-61571287D01*
X24551426Y-61592283D01*
X24533953Y-61632967D01*
X24514577Y-61685322D01*
X24510734Y-61696600D01*
X24485339Y-61766523D01*
X24453817Y-61845418D01*
X24422969Y-61916266D01*
X24422817Y-61916595D01*
X24371447Y-62027733D01*
X24540399Y-62276253D01*
X24709352Y-62524772D01*
X24492429Y-62742058D01*
X24426819Y-62806726D01*
X24366979Y-62863733D01*
X24316267Y-62910033D01*
X24278046Y-62942584D01*
X24255675Y-62958343D01*
X24252466Y-62959343D01*
X24233626Y-62951469D01*
X24195180Y-62929578D01*
X24141330Y-62896267D01*
X24076276Y-62854131D01*
X24005940Y-62806943D01*
X23934555Y-62758810D01*
X23870908Y-62716928D01*
X23819041Y-62683871D01*
X23782995Y-62662218D01*
X23766867Y-62654543D01*
X23747189Y-62661037D01*
X23709875Y-62678150D01*
X23662621Y-62702326D01*
X23657612Y-62705013D01*
X23593977Y-62736927D01*
X23550341Y-62752579D01*
X23523202Y-62752745D01*
X23509057Y-62738204D01*
X23508975Y-62738000D01*
X23501905Y-62720779D01*
X23485042Y-62679899D01*
X23459695Y-62618525D01*
X23427171Y-62539819D01*
X23388778Y-62446947D01*
X23345822Y-62343072D01*
X23304222Y-62242502D01*
X23258504Y-62131516D01*
X23216526Y-62028703D01*
X23179548Y-61937215D01*
X23148827Y-61860201D01*
X23125622Y-61800815D01*
X23111190Y-61762209D01*
X23106743Y-61747800D01*
X23117896Y-61731272D01*
X23147069Y-61704930D01*
X23185971Y-61675887D01*
X23296757Y-61584039D01*
X23383351Y-61478759D01*
X23444716Y-61362266D01*
X23479815Y-61236776D01*
X23487608Y-61104507D01*
X23481943Y-61043457D01*
X23451078Y-60916795D01*
X23397920Y-60804941D01*
X23325767Y-60709001D01*
X23237917Y-60630076D01*
X23137665Y-60569270D01*
X23028310Y-60527687D01*
X22913147Y-60506428D01*
X22795475Y-60506599D01*
X22678590Y-60529301D01*
X22565789Y-60575638D01*
X22460369Y-60646713D01*
X22416368Y-60686911D01*
X22331979Y-60790129D01*
X22273222Y-60902925D01*
X22239704Y-61022010D01*
X22231035Y-61144095D01*
X22246823Y-61265893D01*
X22286678Y-61384116D01*
X22350207Y-61495475D01*
X22437021Y-61596684D01*
X22534029Y-61675887D01*
X22574437Y-61706162D01*
X22602982Y-61732219D01*
X22613257Y-61747825D01*
X22607877Y-61764843D01*
X22592575Y-61805500D01*
X22568612Y-61866642D01*
X22537244Y-61945119D01*
X22499732Y-62037780D01*
X22457333Y-62141472D01*
X22415663Y-62242526D01*
X22369690Y-62353607D01*
X22327107Y-62456541D01*
X22289221Y-62548165D01*
X22257340Y-62625316D01*
X22232771Y-62684831D01*
X22216820Y-62723544D01*
X22210910Y-62738000D01*
X22196948Y-62752685D01*
X22169940Y-62752642D01*
X22126413Y-62737099D01*
X22062890Y-62705284D01*
X22062388Y-62705013D01*
X22014560Y-62680323D01*
X21975897Y-62662338D01*
X21954095Y-62654614D01*
X21953133Y-62654543D01*
X21936721Y-62662378D01*
X21900487Y-62684165D01*
X21848474Y-62717328D01*
X21784725Y-62759291D01*
X21714060Y-62806943D01*
X21642116Y-62855191D01*
X21577274Y-62897151D01*
X21523735Y-62930227D01*
X21485697Y-62951821D01*
X21467533Y-62959343D01*
X21450808Y-62949457D01*
X21417180Y-62921826D01*
X21370010Y-62879495D01*
X21312658Y-62825505D01*
X21248484Y-62762899D01*
X21227497Y-62741983D01*
X21010499Y-62524623D01*
X21175668Y-62282220D01*
X21225864Y-62207781D01*
X21269919Y-62140972D01*
X21305362Y-62085665D01*
X21329719Y-62045729D01*
X21340522Y-62025036D01*
X21340838Y-62023563D01*
X21335143Y-62004058D01*
X21319826Y-61964822D01*
X21297537Y-61912430D01*
X21281893Y-61877355D01*
X21252641Y-61810201D01*
X21225094Y-61742358D01*
X21203737Y-61685034D01*
X21197935Y-61667572D01*
X21181452Y-61620938D01*
X21165340Y-61584905D01*
X21156490Y-61571287D01*
X21136960Y-61562952D01*
X21094334Y-61551137D01*
X21034145Y-61537181D01*
X20961922Y-61522422D01*
X20929600Y-61516355D01*
X20847522Y-61501273D01*
X20768795Y-61486669D01*
X20701109Y-61473980D01*
X20652160Y-61464642D01*
X20642943Y-61462839D01*
X20566743Y-61447799D01*
X20566743Y-61130492D01*
X20566914Y-61026154D01*
X20567616Y-60947213D01*
X20569134Y-60890038D01*
X20571749Y-60850999D01*
X20575746Y-60826465D01*
X20581409Y-60812805D01*
X20589020Y-60806389D01*
X20592143Y-60805199D01*
X20610978Y-60800980D01*
X20652588Y-60792562D01*
X20711630Y-60780961D01*
X20782757Y-60767195D01*
X20860625Y-60752280D01*
X20939887Y-60737232D01*
X21015198Y-60723069D01*
X21081213Y-60710806D01*
X21132587Y-60701461D01*
X21163975Y-60696050D01*
X21170959Y-60695114D01*
X21177285Y-60682596D01*
X21191290Y-60649246D01*
X21210355Y-60601377D01*
X21217634Y-60582629D01*
X21246996Y-60510195D01*
X21281571Y-60430170D01*
X21312537Y-60362728D01*
X21335323Y-60311159D01*
X21350482Y-60268785D01*
X21355542Y-60242834D01*
X21354736Y-60239356D01*
X21344041Y-60222936D01*
X21319620Y-60186417D01*
X21284095Y-60133687D01*
X21240087Y-60068635D01*
X21190217Y-59995151D01*
X21180356Y-59980645D01*
X21122492Y-59894704D01*
X21079956Y-59829261D01*
X21051054Y-59781304D01*
X21034090Y-59747820D01*
X21027367Y-59725795D01*
X21029190Y-59712217D01*
X21029236Y-59712131D01*
X21043586Y-59694297D01*
X21075323Y-59659817D01*
X21121010Y-59612268D01*
X21177204Y-59555222D01*
X21240468Y-59492255D01*
X21247602Y-59485227D01*
X21327330Y-59408020D01*
X21388857Y-59351330D01*
X21433421Y-59314110D01*
X21462257Y-59295315D01*
X21474958Y-59292889D01*
X21493494Y-59303471D01*
X21531961Y-59327916D01*
X21586386Y-59363612D01*
X21652798Y-59407947D01*
X21727225Y-59458311D01*
X21744601Y-59470160D01*
X21991297Y-59638626D01*
X22102706Y-59588062D01*
X22170457Y-59558595D01*
X22243183Y-59528959D01*
X22305703Y-59505330D01*
X22308457Y-59504358D01*
X22357360Y-59486457D01*
X22395057Y-59471320D01*
X22413425Y-59462210D01*
X22413456Y-59462184D01*
X22419285Y-59445717D01*
X22429192Y-59405219D01*
X22442195Y-59345242D01*
X22457309Y-59270340D01*
X22473552Y-59185064D01*
X22474881Y-59177875D01*
X22491175Y-59090014D01*
X22506133Y-59010260D01*
X22518791Y-58943681D01*
X22528186Y-58895347D01*
X22533354Y-58870325D01*
X22533444Y-58869943D01*
X22536589Y-58859299D01*
X22542704Y-58851262D01*
X22555453Y-58845467D01*
X22578500Y-58841547D01*
X22615509Y-58839135D01*
X22670144Y-58837865D01*
X22746067Y-58837371D01*
X22846944Y-58837286D01*
X22860000Y-58837286D01*
X22963910Y-58837348D01*
G37*
X22963910Y-58837348D02*
X23042454Y-58837778D01*
X23099298Y-58838942D01*
X23138105Y-58841207D01*
X23162538Y-58844940D01*
X23176262Y-58850506D01*
X23182940Y-58858273D01*
X23186236Y-58868605D01*
X23186556Y-58869943D01*
X23191562Y-58894079D01*
X23200829Y-58941701D01*
X23213392Y-59007741D01*
X23228287Y-59087128D01*
X23244551Y-59174796D01*
X23245119Y-59177875D01*
X23261410Y-59263789D01*
X23276652Y-59339696D01*
X23289861Y-59401045D01*
X23300054Y-59443282D01*
X23306248Y-59461855D01*
X23306543Y-59462184D01*
X23324788Y-59471253D01*
X23362405Y-59486367D01*
X23411271Y-59504262D01*
X23411543Y-59504358D01*
X23473093Y-59527493D01*
X23545657Y-59556965D01*
X23614057Y-59586597D01*
X23617294Y-59588062D01*
X23728702Y-59638626D01*
X23975399Y-59470160D01*
X24051077Y-59418803D01*
X24119631Y-59372889D01*
X24177088Y-59335030D01*
X24219476Y-59307837D01*
X24242825Y-59293921D01*
X24245042Y-59292889D01*
X24262010Y-59297484D01*
X24293701Y-59319655D01*
X24341352Y-59360447D01*
X24406198Y-59420905D01*
X24472397Y-59485227D01*
X24536214Y-59548612D01*
X24593329Y-59606451D01*
X24640305Y-59655175D01*
X24673703Y-59691210D01*
X24690085Y-59710984D01*
X24690694Y-59712002D01*
X24692505Y-59725572D01*
X24685683Y-59747733D01*
X24668540Y-59781478D01*
X24639393Y-59829800D01*
X24596555Y-59895692D01*
X24539448Y-59980517D01*
X24488766Y-60055177D01*
X24443461Y-60122140D01*
X24406150Y-60177516D01*
X24379452Y-60217420D01*
X24365985Y-60237962D01*
X24365137Y-60239356D01*
X24366781Y-60259038D01*
X24379245Y-60297293D01*
X24400048Y-60346889D01*
X24407462Y-60362728D01*
X24439814Y-60433290D01*
X24474328Y-60513353D01*
X24502365Y-60582629D01*
X24522568Y-60634045D01*
X24538615Y-60673119D01*
X24547888Y-60693541D01*
X24549041Y-60695114D01*
X24566096Y-60697721D01*
X24606298Y-60704863D01*
X24664302Y-60715523D01*
X24734763Y-60728685D01*
X24812335Y-60743333D01*
X24891672Y-60758449D01*
X24967431Y-60773018D01*
X25034264Y-60786022D01*
X25086828Y-60796445D01*
X25119776Y-60803270D01*
X25127857Y-60805199D01*
X25136205Y-60809962D01*
X25142506Y-60820718D01*
X25147045Y-60841098D01*
X25150104Y-60874734D01*
X25151967Y-60925255D01*
X25152918Y-60996292D01*
X25153240Y-61091476D01*
X25153257Y-61130492D01*
X25153257Y-61447799D01*
X25077057Y-61462839D01*
X25034663Y-61470995D01*
X24971400Y-61482899D01*
X24894962Y-61497116D01*
X24813043Y-61512210D01*
X24790400Y-61516355D01*
X24714806Y-61531053D01*
X24648953Y-61545505D01*
X24598366Y-61558375D01*
X24568574Y-61568322D01*
X24563612Y-61571287D01*
X24551426Y-61592283D01*
X24533953Y-61632967D01*
X24514577Y-61685322D01*
X24510734Y-61696600D01*
X24485339Y-61766523D01*
X24453817Y-61845418D01*
X24422969Y-61916266D01*
X24422817Y-61916595D01*
X24371447Y-62027733D01*
X24540399Y-62276253D01*
X24709352Y-62524772D01*
X24492429Y-62742058D01*
X24426819Y-62806726D01*
X24366979Y-62863733D01*
X24316267Y-62910033D01*
X24278046Y-62942584D01*
X24255675Y-62958343D01*
X24252466Y-62959343D01*
X24233626Y-62951469D01*
X24195180Y-62929578D01*
X24141330Y-62896267D01*
X24076276Y-62854131D01*
X24005940Y-62806943D01*
X23934555Y-62758810D01*
X23870908Y-62716928D01*
X23819041Y-62683871D01*
X23782995Y-62662218D01*
X23766867Y-62654543D01*
X23747189Y-62661037D01*
X23709875Y-62678150D01*
X23662621Y-62702326D01*
X23657612Y-62705013D01*
X23593977Y-62736927D01*
X23550341Y-62752579D01*
X23523202Y-62752745D01*
X23509057Y-62738204D01*
X23508975Y-62738000D01*
X23501905Y-62720779D01*
X23485042Y-62679899D01*
X23459695Y-62618525D01*
X23427171Y-62539819D01*
X23388778Y-62446947D01*
X23345822Y-62343072D01*
X23304222Y-62242502D01*
X23258504Y-62131516D01*
X23216526Y-62028703D01*
X23179548Y-61937215D01*
X23148827Y-61860201D01*
X23125622Y-61800815D01*
X23111190Y-61762209D01*
X23106743Y-61747800D01*
X23117896Y-61731272D01*
X23147069Y-61704930D01*
X23185971Y-61675887D01*
X23296757Y-61584039D01*
X23383351Y-61478759D01*
X23444716Y-61362266D01*
X23479815Y-61236776D01*
X23487608Y-61104507D01*
X23481943Y-61043457D01*
X23451078Y-60916795D01*
X23397920Y-60804941D01*
X23325767Y-60709001D01*
X23237917Y-60630076D01*
X23137665Y-60569270D01*
X23028310Y-60527687D01*
X22913147Y-60506428D01*
X22795475Y-60506599D01*
X22678590Y-60529301D01*
X22565789Y-60575638D01*
X22460369Y-60646713D01*
X22416368Y-60686911D01*
X22331979Y-60790129D01*
X22273222Y-60902925D01*
X22239704Y-61022010D01*
X22231035Y-61144095D01*
X22246823Y-61265893D01*
X22286678Y-61384116D01*
X22350207Y-61495475D01*
X22437021Y-61596684D01*
X22534029Y-61675887D01*
X22574437Y-61706162D01*
X22602982Y-61732219D01*
X22613257Y-61747825D01*
X22607877Y-61764843D01*
X22592575Y-61805500D01*
X22568612Y-61866642D01*
X22537244Y-61945119D01*
X22499732Y-62037780D01*
X22457333Y-62141472D01*
X22415663Y-62242526D01*
X22369690Y-62353607D01*
X22327107Y-62456541D01*
X22289221Y-62548165D01*
X22257340Y-62625316D01*
X22232771Y-62684831D01*
X22216820Y-62723544D01*
X22210910Y-62738000D01*
X22196948Y-62752685D01*
X22169940Y-62752642D01*
X22126413Y-62737099D01*
X22062890Y-62705284D01*
X22062388Y-62705013D01*
X22014560Y-62680323D01*
X21975897Y-62662338D01*
X21954095Y-62654614D01*
X21953133Y-62654543D01*
X21936721Y-62662378D01*
X21900487Y-62684165D01*
X21848474Y-62717328D01*
X21784725Y-62759291D01*
X21714060Y-62806943D01*
X21642116Y-62855191D01*
X21577274Y-62897151D01*
X21523735Y-62930227D01*
X21485697Y-62951821D01*
X21467533Y-62959343D01*
X21450808Y-62949457D01*
X21417180Y-62921826D01*
X21370010Y-62879495D01*
X21312658Y-62825505D01*
X21248484Y-62762899D01*
X21227497Y-62741983D01*
X21010499Y-62524623D01*
X21175668Y-62282220D01*
X21225864Y-62207781D01*
X21269919Y-62140972D01*
X21305362Y-62085665D01*
X21329719Y-62045729D01*
X21340522Y-62025036D01*
X21340838Y-62023563D01*
X21335143Y-62004058D01*
X21319826Y-61964822D01*
X21297537Y-61912430D01*
X21281893Y-61877355D01*
X21252641Y-61810201D01*
X21225094Y-61742358D01*
X21203737Y-61685034D01*
X21197935Y-61667572D01*
X21181452Y-61620938D01*
X21165340Y-61584905D01*
X21156490Y-61571287D01*
X21136960Y-61562952D01*
X21094334Y-61551137D01*
X21034145Y-61537181D01*
X20961922Y-61522422D01*
X20929600Y-61516355D01*
X20847522Y-61501273D01*
X20768795Y-61486669D01*
X20701109Y-61473980D01*
X20652160Y-61464642D01*
X20642943Y-61462839D01*
X20566743Y-61447799D01*
X20566743Y-61130492D01*
X20566914Y-61026154D01*
X20567616Y-60947213D01*
X20569134Y-60890038D01*
X20571749Y-60850999D01*
X20575746Y-60826465D01*
X20581409Y-60812805D01*
X20589020Y-60806389D01*
X20592143Y-60805199D01*
X20610978Y-60800980D01*
X20652588Y-60792562D01*
X20711630Y-60780961D01*
X20782757Y-60767195D01*
X20860625Y-60752280D01*
X20939887Y-60737232D01*
X21015198Y-60723069D01*
X21081213Y-60710806D01*
X21132587Y-60701461D01*
X21163975Y-60696050D01*
X21170959Y-60695114D01*
X21177285Y-60682596D01*
X21191290Y-60649246D01*
X21210355Y-60601377D01*
X21217634Y-60582629D01*
X21246996Y-60510195D01*
X21281571Y-60430170D01*
X21312537Y-60362728D01*
X21335323Y-60311159D01*
X21350482Y-60268785D01*
X21355542Y-60242834D01*
X21354736Y-60239356D01*
X21344041Y-60222936D01*
X21319620Y-60186417D01*
X21284095Y-60133687D01*
X21240087Y-60068635D01*
X21190217Y-59995151D01*
X21180356Y-59980645D01*
X21122492Y-59894704D01*
X21079956Y-59829261D01*
X21051054Y-59781304D01*
X21034090Y-59747820D01*
X21027367Y-59725795D01*
X21029190Y-59712217D01*
X21029236Y-59712131D01*
X21043586Y-59694297D01*
X21075323Y-59659817D01*
X21121010Y-59612268D01*
X21177204Y-59555222D01*
X21240468Y-59492255D01*
X21247602Y-59485227D01*
X21327330Y-59408020D01*
X21388857Y-59351330D01*
X21433421Y-59314110D01*
X21462257Y-59295315D01*
X21474958Y-59292889D01*
X21493494Y-59303471D01*
X21531961Y-59327916D01*
X21586386Y-59363612D01*
X21652798Y-59407947D01*
X21727225Y-59458311D01*
X21744601Y-59470160D01*
X21991297Y-59638626D01*
X22102706Y-59588062D01*
X22170457Y-59558595D01*
X22243183Y-59528959D01*
X22305703Y-59505330D01*
X22308457Y-59504358D01*
X22357360Y-59486457D01*
X22395057Y-59471320D01*
X22413425Y-59462210D01*
X22413456Y-59462184D01*
X22419285Y-59445717D01*
X22429192Y-59405219D01*
X22442195Y-59345242D01*
X22457309Y-59270340D01*
X22473552Y-59185064D01*
X22474881Y-59177875D01*
X22491175Y-59090014D01*
X22506133Y-59010260D01*
X22518791Y-58943681D01*
X22528186Y-58895347D01*
X22533354Y-58870325D01*
X22533444Y-58869943D01*
X22536589Y-58859299D01*
X22542704Y-58851262D01*
X22555453Y-58845467D01*
X22578500Y-58841547D01*
X22615509Y-58839135D01*
X22670144Y-58837865D01*
X22746067Y-58837371D01*
X22846944Y-58837286D01*
X22860000Y-58837286D01*
X22963910Y-58837348D01*
G36*
X26013595Y-63561966D02*
G01*
X26071021Y-63599497D01*
X26098719Y-63633096D01*
X26120662Y-63694064D01*
X26122405Y-63742308D01*
X26118457Y-63806816D01*
X25969686Y-63871934D01*
X25897349Y-63905202D01*
X25850084Y-63931964D01*
X25825507Y-63955144D01*
X25821237Y-63977667D01*
X25834889Y-64002455D01*
X25849943Y-64018886D01*
X25893746Y-64045235D01*
X25941389Y-64047081D01*
X25985145Y-64026546D01*
X26017289Y-63985752D01*
X26023038Y-63971347D01*
X26050576Y-63926356D01*
X26082258Y-63907182D01*
X26125714Y-63890779D01*
X26125714Y-63952966D01*
X26121872Y-63995283D01*
X26106823Y-64030969D01*
X26075280Y-64071943D01*
X26070592Y-64077267D01*
X26035506Y-64113720D01*
X26005347Y-64133283D01*
X25967615Y-64142283D01*
X25936335Y-64145230D01*
X25880385Y-64145965D01*
X25840555Y-64136660D01*
X25815708Y-64122846D01*
X25776656Y-64092467D01*
X25749625Y-64059613D01*
X25732517Y-64018294D01*
X25723238Y-63962521D01*
X25719693Y-63886305D01*
X25719410Y-63847622D01*
X25720372Y-63801247D01*
X25808007Y-63801247D01*
X25809023Y-63826126D01*
X25811556Y-63830200D01*
X25828274Y-63824665D01*
X25864249Y-63810017D01*
X25912331Y-63789190D01*
X25922386Y-63784714D01*
X25983152Y-63753814D01*
X26016632Y-63726657D01*
X26023990Y-63701220D01*
X26006391Y-63675481D01*
X25991856Y-63664109D01*
X25939410Y-63641364D01*
X25890322Y-63645122D01*
X25849227Y-63672884D01*
X25820758Y-63722152D01*
X25811631Y-63761257D01*
X25808007Y-63801247D01*
X25720372Y-63801247D01*
X25721285Y-63757249D01*
X25728196Y-63690384D01*
X25741884Y-63641695D01*
X25764096Y-63605849D01*
X25796574Y-63577513D01*
X25810733Y-63568355D01*
X25875053Y-63544507D01*
X25945473Y-63543006D01*
X26013595Y-63561966D01*
G37*
X26013595Y-63561966D02*
X26071021Y-63599497D01*
X26098719Y-63633096D01*
X26120662Y-63694064D01*
X26122405Y-63742308D01*
X26118457Y-63806816D01*
X25969686Y-63871934D01*
X25897349Y-63905202D01*
X25850084Y-63931964D01*
X25825507Y-63955144D01*
X25821237Y-63977667D01*
X25834889Y-64002455D01*
X25849943Y-64018886D01*
X25893746Y-64045235D01*
X25941389Y-64047081D01*
X25985145Y-64026546D01*
X26017289Y-63985752D01*
X26023038Y-63971347D01*
X26050576Y-63926356D01*
X26082258Y-63907182D01*
X26125714Y-63890779D01*
X26125714Y-63952966D01*
X26121872Y-63995283D01*
X26106823Y-64030969D01*
X26075280Y-64071943D01*
X26070592Y-64077267D01*
X26035506Y-64113720D01*
X26005347Y-64133283D01*
X25967615Y-64142283D01*
X25936335Y-64145230D01*
X25880385Y-64145965D01*
X25840555Y-64136660D01*
X25815708Y-64122846D01*
X25776656Y-64092467D01*
X25749625Y-64059613D01*
X25732517Y-64018294D01*
X25723238Y-63962521D01*
X25719693Y-63886305D01*
X25719410Y-63847622D01*
X25720372Y-63801247D01*
X25808007Y-63801247D01*
X25809023Y-63826126D01*
X25811556Y-63830200D01*
X25828274Y-63824665D01*
X25864249Y-63810017D01*
X25912331Y-63789190D01*
X25922386Y-63784714D01*
X25983152Y-63753814D01*
X26016632Y-63726657D01*
X26023990Y-63701220D01*
X26006391Y-63675481D01*
X25991856Y-63664109D01*
X25939410Y-63641364D01*
X25890322Y-63645122D01*
X25849227Y-63672884D01*
X25820758Y-63722152D01*
X25811631Y-63761257D01*
X25808007Y-63801247D01*
X25720372Y-63801247D01*
X25721285Y-63757249D01*
X25728196Y-63690384D01*
X25741884Y-63641695D01*
X25764096Y-63605849D01*
X25796574Y-63577513D01*
X25810733Y-63568355D01*
X25875053Y-63544507D01*
X25945473Y-63543006D01*
X26013595Y-63561966D01*
G36*
X25512600Y-63553752D02*
G01*
X25529948Y-63561334D01*
X25571356Y-63594128D01*
X25606765Y-63641547D01*
X25628664Y-63692151D01*
X25632229Y-63717098D01*
X25620279Y-63751927D01*
X25594067Y-63770357D01*
X25565964Y-63781516D01*
X25553095Y-63783572D01*
X25546829Y-63768649D01*
X25534456Y-63736175D01*
X25529028Y-63721502D01*
X25498590Y-63670744D01*
X25454520Y-63645427D01*
X25398010Y-63646206D01*
X25393825Y-63647203D01*
X25363655Y-63661507D01*
X25341476Y-63689393D01*
X25326327Y-63734287D01*
X25317250Y-63799615D01*
X25313286Y-63888804D01*
X25312914Y-63936261D01*
X25312730Y-64011071D01*
X25311522Y-64062069D01*
X25308309Y-64094471D01*
X25302109Y-64113495D01*
X25291940Y-64124356D01*
X25276819Y-64132272D01*
X25275946Y-64132670D01*
X25246828Y-64144981D01*
X25232403Y-64149514D01*
X25230186Y-64135809D01*
X25228289Y-64097925D01*
X25226847Y-64040715D01*
X25225998Y-63969027D01*
X25225829Y-63916565D01*
X25226692Y-63815047D01*
X25230070Y-63738032D01*
X25237142Y-63681023D01*
X25249088Y-63639526D01*
X25267090Y-63609043D01*
X25292327Y-63585080D01*
X25317247Y-63568355D01*
X25377171Y-63546097D01*
X25446911Y-63541076D01*
X25512600Y-63553752D01*
G37*
X25512600Y-63553752D02*
X25529948Y-63561334D01*
X25571356Y-63594128D01*
X25606765Y-63641547D01*
X25628664Y-63692151D01*
X25632229Y-63717098D01*
X25620279Y-63751927D01*
X25594067Y-63770357D01*
X25565964Y-63781516D01*
X25553095Y-63783572D01*
X25546829Y-63768649D01*
X25534456Y-63736175D01*
X25529028Y-63721502D01*
X25498590Y-63670744D01*
X25454520Y-63645427D01*
X25398010Y-63646206D01*
X25393825Y-63647203D01*
X25363655Y-63661507D01*
X25341476Y-63689393D01*
X25326327Y-63734287D01*
X25317250Y-63799615D01*
X25313286Y-63888804D01*
X25312914Y-63936261D01*
X25312730Y-64011071D01*
X25311522Y-64062069D01*
X25308309Y-64094471D01*
X25302109Y-64113495D01*
X25291940Y-64124356D01*
X25276819Y-64132272D01*
X25275946Y-64132670D01*
X25246828Y-64144981D01*
X25232403Y-64149514D01*
X25230186Y-64135809D01*
X25228289Y-64097925D01*
X25226847Y-64040715D01*
X25225998Y-63969027D01*
X25225829Y-63916565D01*
X25226692Y-63815047D01*
X25230070Y-63738032D01*
X25237142Y-63681023D01*
X25249088Y-63639526D01*
X25267090Y-63609043D01*
X25292327Y-63585080D01*
X25317247Y-63568355D01*
X25377171Y-63546097D01*
X25446911Y-63541076D01*
X25512600Y-63553752D01*
G36*
X25004876Y-63551335D02*
G01*
X25046667Y-63570344D01*
X25079469Y-63593378D01*
X25103503Y-63619133D01*
X25120097Y-63652358D01*
X25130577Y-63697800D01*
X25136271Y-63760207D01*
X25138507Y-63844327D01*
X25138743Y-63899721D01*
X25138743Y-64115826D01*
X25101774Y-64132670D01*
X25072656Y-64144981D01*
X25058231Y-64149514D01*
X25055472Y-64136025D01*
X25053282Y-64099653D01*
X25051942Y-64046542D01*
X25051657Y-64004372D01*
X25050434Y-63943447D01*
X25047136Y-63895115D01*
X25042321Y-63865518D01*
X25038496Y-63859229D01*
X25012783Y-63865652D01*
X24972418Y-63882125D01*
X24925679Y-63904458D01*
X24880845Y-63928457D01*
X24846193Y-63949930D01*
X24830002Y-63964685D01*
X24829938Y-63964845D01*
X24831330Y-63992152D01*
X24843818Y-64018219D01*
X24865743Y-64039392D01*
X24897743Y-64046474D01*
X24925092Y-64045649D01*
X24963826Y-64045042D01*
X24984158Y-64054116D01*
X24996369Y-64078092D01*
X24997909Y-64082613D01*
X25003203Y-64116806D01*
X24989047Y-64137568D01*
X24952148Y-64147462D01*
X24912289Y-64149292D01*
X24840562Y-64135727D01*
X24803432Y-64116355D01*
X24757576Y-64070845D01*
X24733256Y-64014983D01*
X24731073Y-63955957D01*
X24751629Y-63900953D01*
X24782549Y-63866486D01*
X24813420Y-63847189D01*
X24861942Y-63822759D01*
X24918485Y-63797985D01*
X24927910Y-63794199D01*
X24990019Y-63766791D01*
X25025822Y-63742634D01*
X25037337Y-63718619D01*
X25026580Y-63691635D01*
X25008114Y-63670543D01*
X24964469Y-63644572D01*
X24916446Y-63642624D01*
X24872406Y-63662637D01*
X24840709Y-63702551D01*
X24836549Y-63712848D01*
X24812327Y-63750724D01*
X24776965Y-63778842D01*
X24732343Y-63801917D01*
X24732343Y-63736485D01*
X24734969Y-63696506D01*
X24746230Y-63664997D01*
X24771199Y-63631378D01*
X24795169Y-63605484D01*
X24832441Y-63568817D01*
X24861401Y-63549121D01*
X24892505Y-63541220D01*
X24927713Y-63539914D01*
X25004876Y-63551335D01*
G37*
X25004876Y-63551335D02*
X25046667Y-63570344D01*
X25079469Y-63593378D01*
X25103503Y-63619133D01*
X25120097Y-63652358D01*
X25130577Y-63697800D01*
X25136271Y-63760207D01*
X25138507Y-63844327D01*
X25138743Y-63899721D01*
X25138743Y-64115826D01*
X25101774Y-64132670D01*
X25072656Y-64144981D01*
X25058231Y-64149514D01*
X25055472Y-64136025D01*
X25053282Y-64099653D01*
X25051942Y-64046542D01*
X25051657Y-64004372D01*
X25050434Y-63943447D01*
X25047136Y-63895115D01*
X25042321Y-63865518D01*
X25038496Y-63859229D01*
X25012783Y-63865652D01*
X24972418Y-63882125D01*
X24925679Y-63904458D01*
X24880845Y-63928457D01*
X24846193Y-63949930D01*
X24830002Y-63964685D01*
X24829938Y-63964845D01*
X24831330Y-63992152D01*
X24843818Y-64018219D01*
X24865743Y-64039392D01*
X24897743Y-64046474D01*
X24925092Y-64045649D01*
X24963826Y-64045042D01*
X24984158Y-64054116D01*
X24996369Y-64078092D01*
X24997909Y-64082613D01*
X25003203Y-64116806D01*
X24989047Y-64137568D01*
X24952148Y-64147462D01*
X24912289Y-64149292D01*
X24840562Y-64135727D01*
X24803432Y-64116355D01*
X24757576Y-64070845D01*
X24733256Y-64014983D01*
X24731073Y-63955957D01*
X24751629Y-63900953D01*
X24782549Y-63866486D01*
X24813420Y-63847189D01*
X24861942Y-63822759D01*
X24918485Y-63797985D01*
X24927910Y-63794199D01*
X24990019Y-63766791D01*
X25025822Y-63742634D01*
X25037337Y-63718619D01*
X25026580Y-63691635D01*
X25008114Y-63670543D01*
X24964469Y-63644572D01*
X24916446Y-63642624D01*
X24872406Y-63662637D01*
X24840709Y-63702551D01*
X24836549Y-63712848D01*
X24812327Y-63750724D01*
X24776965Y-63778842D01*
X24732343Y-63801917D01*
X24732343Y-63736485D01*
X24734969Y-63696506D01*
X24746230Y-63664997D01*
X24771199Y-63631378D01*
X24795169Y-63605484D01*
X24832441Y-63568817D01*
X24861401Y-63549121D01*
X24892505Y-63541220D01*
X24927713Y-63539914D01*
X25004876Y-63551335D01*
G36*
X24639833Y-63553663D02*
G01*
X24642048Y-63591850D01*
X24643784Y-63649886D01*
X24644899Y-63723180D01*
X24645257Y-63800055D01*
X24645257Y-64060196D01*
X24599326Y-64106127D01*
X24567675Y-64134429D01*
X24539890Y-64145893D01*
X24501915Y-64145168D01*
X24486840Y-64143321D01*
X24439726Y-64137948D01*
X24400756Y-64134869D01*
X24391257Y-64134585D01*
X24359233Y-64136445D01*
X24313432Y-64141114D01*
X24295674Y-64143321D01*
X24252057Y-64146735D01*
X24222745Y-64139320D01*
X24193680Y-64116427D01*
X24183188Y-64106127D01*
X24137257Y-64060196D01*
X24137257Y-63573602D01*
X24174226Y-63556758D01*
X24206059Y-63544282D01*
X24224683Y-63539914D01*
X24229458Y-63553718D01*
X24233921Y-63592286D01*
X24237775Y-63651356D01*
X24240722Y-63726663D01*
X24242143Y-63790286D01*
X24246114Y-64040657D01*
X24280759Y-64045556D01*
X24312268Y-64042131D01*
X24327708Y-64031041D01*
X24332023Y-64010308D01*
X24335708Y-63966145D01*
X24338469Y-63904146D01*
X24340012Y-63829909D01*
X24340235Y-63791706D01*
X24340457Y-63571783D01*
X24386166Y-63555849D01*
X24418518Y-63545015D01*
X24436115Y-63539962D01*
X24436623Y-63539914D01*
X24438388Y-63553648D01*
X24440329Y-63591730D01*
X24442282Y-63649482D01*
X24444084Y-63722227D01*
X24445343Y-63790286D01*
X24449314Y-64040657D01*
X24536400Y-64040657D01*
X24540396Y-63812240D01*
X24544392Y-63583822D01*
X24586847Y-63561868D01*
X24618192Y-63546793D01*
X24636744Y-63539951D01*
X24637279Y-63539914D01*
X24639833Y-63553663D01*
G37*
X24639833Y-63553663D02*
X24642048Y-63591850D01*
X24643784Y-63649886D01*
X24644899Y-63723180D01*
X24645257Y-63800055D01*
X24645257Y-64060196D01*
X24599326Y-64106127D01*
X24567675Y-64134429D01*
X24539890Y-64145893D01*
X24501915Y-64145168D01*
X24486840Y-64143321D01*
X24439726Y-64137948D01*
X24400756Y-64134869D01*
X24391257Y-64134585D01*
X24359233Y-64136445D01*
X24313432Y-64141114D01*
X24295674Y-64143321D01*
X24252057Y-64146735D01*
X24222745Y-64139320D01*
X24193680Y-64116427D01*
X24183188Y-64106127D01*
X24137257Y-64060196D01*
X24137257Y-63573602D01*
X24174226Y-63556758D01*
X24206059Y-63544282D01*
X24224683Y-63539914D01*
X24229458Y-63553718D01*
X24233921Y-63592286D01*
X24237775Y-63651356D01*
X24240722Y-63726663D01*
X24242143Y-63790286D01*
X24246114Y-64040657D01*
X24280759Y-64045556D01*
X24312268Y-64042131D01*
X24327708Y-64031041D01*
X24332023Y-64010308D01*
X24335708Y-63966145D01*
X24338469Y-63904146D01*
X24340012Y-63829909D01*
X24340235Y-63791706D01*
X24340457Y-63571783D01*
X24386166Y-63555849D01*
X24418518Y-63545015D01*
X24436115Y-63539962D01*
X24436623Y-63539914D01*
X24438388Y-63553648D01*
X24440329Y-63591730D01*
X24442282Y-63649482D01*
X24444084Y-63722227D01*
X24445343Y-63790286D01*
X24449314Y-64040657D01*
X24536400Y-64040657D01*
X24540396Y-63812240D01*
X24544392Y-63583822D01*
X24586847Y-63561868D01*
X24618192Y-63546793D01*
X24636744Y-63539951D01*
X24637279Y-63539914D01*
X24639833Y-63553663D01*
G36*
X24050117Y-63660358D02*
G01*
X24049933Y-63768837D01*
X24049219Y-63852287D01*
X24047675Y-63914704D01*
X24045001Y-63960085D01*
X24040894Y-63992429D01*
X24035055Y-64015733D01*
X24027182Y-64033995D01*
X24021221Y-64044418D01*
X23971855Y-64100945D01*
X23909264Y-64136377D01*
X23840013Y-64149090D01*
X23770668Y-64137463D01*
X23729375Y-64116568D01*
X23686025Y-64080422D01*
X23656481Y-64036276D01*
X23638655Y-63978462D01*
X23630463Y-63901313D01*
X23629302Y-63844714D01*
X23629458Y-63840647D01*
X23730857Y-63840647D01*
X23731476Y-63905550D01*
X23734314Y-63948514D01*
X23740840Y-63976622D01*
X23752523Y-63996953D01*
X23766483Y-64012288D01*
X23813365Y-64041890D01*
X23863701Y-64044419D01*
X23911276Y-64019705D01*
X23914979Y-64016356D01*
X23930783Y-63998935D01*
X23940693Y-63978209D01*
X23946058Y-63947362D01*
X23948228Y-63899577D01*
X23948571Y-63846748D01*
X23947827Y-63780381D01*
X23944748Y-63736106D01*
X23938061Y-63707009D01*
X23926496Y-63686173D01*
X23917013Y-63675107D01*
X23872960Y-63647198D01*
X23822224Y-63643843D01*
X23773796Y-63665159D01*
X23764450Y-63673073D01*
X23748540Y-63690647D01*
X23738610Y-63711587D01*
X23733278Y-63742782D01*
X23731163Y-63791122D01*
X23730857Y-63840647D01*
X23629458Y-63840647D01*
X23632810Y-63753568D01*
X23644726Y-63685086D01*
X23667135Y-63633600D01*
X23702124Y-63593443D01*
X23729375Y-63572861D01*
X23778907Y-63550625D01*
X23836316Y-63540304D01*
X23889682Y-63543067D01*
X23919543Y-63554212D01*
X23931261Y-63557383D01*
X23939037Y-63545557D01*
X23944465Y-63513866D01*
X23948571Y-63465593D01*
X23953067Y-63411829D01*
X23959313Y-63379482D01*
X23970676Y-63360985D01*
X23990528Y-63348770D01*
X24003000Y-63343362D01*
X24050171Y-63323601D01*
X24050117Y-63660358D01*
G37*
X24050117Y-63660358D02*
X24049933Y-63768837D01*
X24049219Y-63852287D01*
X24047675Y-63914704D01*
X24045001Y-63960085D01*
X24040894Y-63992429D01*
X24035055Y-64015733D01*
X24027182Y-64033995D01*
X24021221Y-64044418D01*
X23971855Y-64100945D01*
X23909264Y-64136377D01*
X23840013Y-64149090D01*
X23770668Y-64137463D01*
X23729375Y-64116568D01*
X23686025Y-64080422D01*
X23656481Y-64036276D01*
X23638655Y-63978462D01*
X23630463Y-63901313D01*
X23629302Y-63844714D01*
X23629458Y-63840647D01*
X23730857Y-63840647D01*
X23731476Y-63905550D01*
X23734314Y-63948514D01*
X23740840Y-63976622D01*
X23752523Y-63996953D01*
X23766483Y-64012288D01*
X23813365Y-64041890D01*
X23863701Y-64044419D01*
X23911276Y-64019705D01*
X23914979Y-64016356D01*
X23930783Y-63998935D01*
X23940693Y-63978209D01*
X23946058Y-63947362D01*
X23948228Y-63899577D01*
X23948571Y-63846748D01*
X23947827Y-63780381D01*
X23944748Y-63736106D01*
X23938061Y-63707009D01*
X23926496Y-63686173D01*
X23917013Y-63675107D01*
X23872960Y-63647198D01*
X23822224Y-63643843D01*
X23773796Y-63665159D01*
X23764450Y-63673073D01*
X23748540Y-63690647D01*
X23738610Y-63711587D01*
X23733278Y-63742782D01*
X23731163Y-63791122D01*
X23730857Y-63840647D01*
X23629458Y-63840647D01*
X23632810Y-63753568D01*
X23644726Y-63685086D01*
X23667135Y-63633600D01*
X23702124Y-63593443D01*
X23729375Y-63572861D01*
X23778907Y-63550625D01*
X23836316Y-63540304D01*
X23889682Y-63543067D01*
X23919543Y-63554212D01*
X23931261Y-63557383D01*
X23939037Y-63545557D01*
X23944465Y-63513866D01*
X23948571Y-63465593D01*
X23953067Y-63411829D01*
X23959313Y-63379482D01*
X23970676Y-63360985D01*
X23990528Y-63348770D01*
X24003000Y-63343362D01*
X24050171Y-63323601D01*
X24050117Y-63660358D01*
G36*
X23389926Y-63544755D02*
G01*
X23455858Y-63569084D01*
X23509273Y-63612117D01*
X23530164Y-63642409D01*
X23552939Y-63697994D01*
X23552466Y-63738186D01*
X23528562Y-63765217D01*
X23519717Y-63769813D01*
X23481530Y-63784144D01*
X23462028Y-63780472D01*
X23455422Y-63756407D01*
X23455086Y-63743114D01*
X23442992Y-63694210D01*
X23411471Y-63659999D01*
X23367659Y-63643476D01*
X23318695Y-63647634D01*
X23278894Y-63669227D01*
X23265450Y-63681544D01*
X23255921Y-63696487D01*
X23249485Y-63719075D01*
X23245317Y-63754328D01*
X23242597Y-63807266D01*
X23240502Y-63882907D01*
X23239960Y-63906857D01*
X23237981Y-63988790D01*
X23235731Y-64046455D01*
X23232357Y-64084608D01*
X23227006Y-64108004D01*
X23218824Y-64121398D01*
X23206959Y-64129545D01*
X23199362Y-64133144D01*
X23167102Y-64145452D01*
X23148111Y-64149514D01*
X23141836Y-64135948D01*
X23138006Y-64094934D01*
X23136600Y-64025999D01*
X23137598Y-63928669D01*
X23137908Y-63913657D01*
X23140101Y-63824859D01*
X23142693Y-63760019D01*
X23146382Y-63714067D01*
X23151864Y-63681935D01*
X23159835Y-63658553D01*
X23170993Y-63638852D01*
X23176830Y-63630410D01*
X23210296Y-63593057D01*
X23247727Y-63564003D01*
X23252309Y-63561467D01*
X23319426Y-63541443D01*
X23389926Y-63544755D01*
G37*
X23389926Y-63544755D02*
X23455858Y-63569084D01*
X23509273Y-63612117D01*
X23530164Y-63642409D01*
X23552939Y-63697994D01*
X23552466Y-63738186D01*
X23528562Y-63765217D01*
X23519717Y-63769813D01*
X23481530Y-63784144D01*
X23462028Y-63780472D01*
X23455422Y-63756407D01*
X23455086Y-63743114D01*
X23442992Y-63694210D01*
X23411471Y-63659999D01*
X23367659Y-63643476D01*
X23318695Y-63647634D01*
X23278894Y-63669227D01*
X23265450Y-63681544D01*
X23255921Y-63696487D01*
X23249485Y-63719075D01*
X23245317Y-63754328D01*
X23242597Y-63807266D01*
X23240502Y-63882907D01*
X23239960Y-63906857D01*
X23237981Y-63988790D01*
X23235731Y-64046455D01*
X23232357Y-64084608D01*
X23227006Y-64108004D01*
X23218824Y-64121398D01*
X23206959Y-64129545D01*
X23199362Y-64133144D01*
X23167102Y-64145452D01*
X23148111Y-64149514D01*
X23141836Y-64135948D01*
X23138006Y-64094934D01*
X23136600Y-64025999D01*
X23137598Y-63928669D01*
X23137908Y-63913657D01*
X23140101Y-63824859D01*
X23142693Y-63760019D01*
X23146382Y-63714067D01*
X23151864Y-63681935D01*
X23159835Y-63658553D01*
X23170993Y-63638852D01*
X23176830Y-63630410D01*
X23210296Y-63593057D01*
X23247727Y-63564003D01*
X23252309Y-63561467D01*
X23319426Y-63541443D01*
X23389926Y-63544755D01*
G36*
X22899744Y-63545968D02*
G01*
X22956616Y-63567087D01*
X22957267Y-63567493D01*
X22992440Y-63593380D01*
X23018407Y-63623633D01*
X23036670Y-63663058D01*
X23048732Y-63716462D01*
X23056096Y-63788651D01*
X23060264Y-63884432D01*
X23060629Y-63898078D01*
X23065876Y-64103842D01*
X23021716Y-64126678D01*
X22989763Y-64142110D01*
X22970470Y-64149423D01*
X22969578Y-64149514D01*
X22966239Y-64136022D01*
X22963587Y-64099626D01*
X22961956Y-64046452D01*
X22961600Y-64003393D01*
X22961592Y-63933641D01*
X22958403Y-63889837D01*
X22947288Y-63868944D01*
X22923501Y-63867925D01*
X22882296Y-63883741D01*
X22820086Y-63912815D01*
X22774341Y-63936963D01*
X22750813Y-63957913D01*
X22743896Y-63980747D01*
X22743886Y-63981877D01*
X22755299Y-64021212D01*
X22789092Y-64042462D01*
X22840809Y-64045539D01*
X22878061Y-64045006D01*
X22897703Y-64055735D01*
X22909952Y-64081505D01*
X22917002Y-64114337D01*
X22906842Y-64132966D01*
X22903017Y-64135632D01*
X22867001Y-64146340D01*
X22816566Y-64147856D01*
X22764626Y-64140759D01*
X22727822Y-64127788D01*
X22676938Y-64084585D01*
X22648014Y-64024446D01*
X22642286Y-63977462D01*
X22646657Y-63935082D01*
X22662475Y-63900488D01*
X22693797Y-63869763D01*
X22744678Y-63838990D01*
X22819176Y-63804252D01*
X22823714Y-63802288D01*
X22890821Y-63771287D01*
X22932232Y-63745862D01*
X22949981Y-63723014D01*
X22946107Y-63699745D01*
X22922643Y-63673056D01*
X22915627Y-63666914D01*
X22868630Y-63643100D01*
X22819933Y-63644103D01*
X22777522Y-63667451D01*
X22749384Y-63710675D01*
X22746769Y-63719160D01*
X22721308Y-63760308D01*
X22689001Y-63780128D01*
X22642286Y-63799770D01*
X22642286Y-63748950D01*
X22656496Y-63675082D01*
X22698675Y-63607327D01*
X22720624Y-63584661D01*
X22770517Y-63555569D01*
X22833967Y-63542400D01*
X22899744Y-63545968D01*
G37*
X22899744Y-63545968D02*
X22956616Y-63567087D01*
X22957267Y-63567493D01*
X22992440Y-63593380D01*
X23018407Y-63623633D01*
X23036670Y-63663058D01*
X23048732Y-63716462D01*
X23056096Y-63788651D01*
X23060264Y-63884432D01*
X23060629Y-63898078D01*
X23065876Y-64103842D01*
X23021716Y-64126678D01*
X22989763Y-64142110D01*
X22970470Y-64149423D01*
X22969578Y-64149514D01*
X22966239Y-64136022D01*
X22963587Y-64099626D01*
X22961956Y-64046452D01*
X22961600Y-64003393D01*
X22961592Y-63933641D01*
X22958403Y-63889837D01*
X22947288Y-63868944D01*
X22923501Y-63867925D01*
X22882296Y-63883741D01*
X22820086Y-63912815D01*
X22774341Y-63936963D01*
X22750813Y-63957913D01*
X22743896Y-63980747D01*
X22743886Y-63981877D01*
X22755299Y-64021212D01*
X22789092Y-64042462D01*
X22840809Y-64045539D01*
X22878061Y-64045006D01*
X22897703Y-64055735D01*
X22909952Y-64081505D01*
X22917002Y-64114337D01*
X22906842Y-64132966D01*
X22903017Y-64135632D01*
X22867001Y-64146340D01*
X22816566Y-64147856D01*
X22764626Y-64140759D01*
X22727822Y-64127788D01*
X22676938Y-64084585D01*
X22648014Y-64024446D01*
X22642286Y-63977462D01*
X22646657Y-63935082D01*
X22662475Y-63900488D01*
X22693797Y-63869763D01*
X22744678Y-63838990D01*
X22819176Y-63804252D01*
X22823714Y-63802288D01*
X22890821Y-63771287D01*
X22932232Y-63745862D01*
X22949981Y-63723014D01*
X22946107Y-63699745D01*
X22922643Y-63673056D01*
X22915627Y-63666914D01*
X22868630Y-63643100D01*
X22819933Y-63644103D01*
X22777522Y-63667451D01*
X22749384Y-63710675D01*
X22746769Y-63719160D01*
X22721308Y-63760308D01*
X22689001Y-63780128D01*
X22642286Y-63799770D01*
X22642286Y-63748950D01*
X22656496Y-63675082D01*
X22698675Y-63607327D01*
X22720624Y-63584661D01*
X22770517Y-63555569D01*
X22833967Y-63542400D01*
X22899744Y-63545968D01*
G36*
X22235886Y-63446289D02*
G01*
X22240139Y-63505613D01*
X22245025Y-63540572D01*
X22251795Y-63555820D01*
X22261702Y-63556015D01*
X22264914Y-63554195D01*
X22307644Y-63541015D01*
X22363227Y-63541785D01*
X22419737Y-63555333D01*
X22455082Y-63572861D01*
X22491321Y-63600861D01*
X22517813Y-63632549D01*
X22535999Y-63672813D01*
X22547322Y-63726543D01*
X22553222Y-63798626D01*
X22555143Y-63893951D01*
X22555177Y-63912237D01*
X22555200Y-64117646D01*
X22509491Y-64133580D01*
X22477027Y-64144420D01*
X22459215Y-64149468D01*
X22458691Y-64149514D01*
X22456937Y-64135828D01*
X22455444Y-64098076D01*
X22454326Y-64041224D01*
X22453697Y-63970234D01*
X22453600Y-63927073D01*
X22453398Y-63841973D01*
X22452358Y-63780981D01*
X22449831Y-63739177D01*
X22445164Y-63711642D01*
X22437707Y-63693456D01*
X22426811Y-63679698D01*
X22420007Y-63673073D01*
X22373272Y-63646375D01*
X22322272Y-63644375D01*
X22276001Y-63666955D01*
X22267444Y-63675107D01*
X22254893Y-63690436D01*
X22246188Y-63708618D01*
X22240631Y-63734909D01*
X22237526Y-63774562D01*
X22236176Y-63832832D01*
X22235886Y-63913173D01*
X22235886Y-64117646D01*
X22190177Y-64133580D01*
X22157713Y-64144420D01*
X22139901Y-64149468D01*
X22139377Y-64149514D01*
X22138037Y-64135623D01*
X22136828Y-64096439D01*
X22135801Y-64035700D01*
X22135002Y-63957141D01*
X22134481Y-63864498D01*
X22134286Y-63761509D01*
X22134286Y-63364342D01*
X22181457Y-63344444D01*
X22228629Y-63324547D01*
X22235886Y-63446289D01*
G37*
X22235886Y-63446289D02*
X22240139Y-63505613D01*
X22245025Y-63540572D01*
X22251795Y-63555820D01*
X22261702Y-63556015D01*
X22264914Y-63554195D01*
X22307644Y-63541015D01*
X22363227Y-63541785D01*
X22419737Y-63555333D01*
X22455082Y-63572861D01*
X22491321Y-63600861D01*
X22517813Y-63632549D01*
X22535999Y-63672813D01*
X22547322Y-63726543D01*
X22553222Y-63798626D01*
X22555143Y-63893951D01*
X22555177Y-63912237D01*
X22555200Y-64117646D01*
X22509491Y-64133580D01*
X22477027Y-64144420D01*
X22459215Y-64149468D01*
X22458691Y-64149514D01*
X22456937Y-64135828D01*
X22455444Y-64098076D01*
X22454326Y-64041224D01*
X22453697Y-63970234D01*
X22453600Y-63927073D01*
X22453398Y-63841973D01*
X22452358Y-63780981D01*
X22449831Y-63739177D01*
X22445164Y-63711642D01*
X22437707Y-63693456D01*
X22426811Y-63679698D01*
X22420007Y-63673073D01*
X22373272Y-63646375D01*
X22322272Y-63644375D01*
X22276001Y-63666955D01*
X22267444Y-63675107D01*
X22254893Y-63690436D01*
X22246188Y-63708618D01*
X22240631Y-63734909D01*
X22237526Y-63774562D01*
X22236176Y-63832832D01*
X22235886Y-63913173D01*
X22235886Y-64117646D01*
X22190177Y-64133580D01*
X22157713Y-64144420D01*
X22139901Y-64149468D01*
X22139377Y-64149514D01*
X22138037Y-64135623D01*
X22136828Y-64096439D01*
X22135801Y-64035700D01*
X22135002Y-63957141D01*
X22134481Y-63864498D01*
X22134286Y-63761509D01*
X22134286Y-63364342D01*
X22181457Y-63344444D01*
X22228629Y-63324547D01*
X22235886Y-63446289D01*
G36*
X21028303Y-63526239D02*
G01*
X21085527Y-63564735D01*
X21129749Y-63620335D01*
X21156167Y-63691086D01*
X21161510Y-63743162D01*
X21160903Y-63764893D01*
X21155822Y-63781531D01*
X21141855Y-63796437D01*
X21114589Y-63812973D01*
X21069612Y-63834498D01*
X21002511Y-63864374D01*
X21002171Y-63864524D01*
X20940407Y-63892813D01*
X20889759Y-63917933D01*
X20855404Y-63937179D01*
X20842518Y-63947848D01*
X20842514Y-63947934D01*
X20853872Y-63971166D01*
X20880431Y-63996774D01*
X20910923Y-64015221D01*
X20926370Y-64018886D01*
X20968515Y-64006212D01*
X21004808Y-63974471D01*
X21022517Y-63939572D01*
X21039552Y-63913845D01*
X21072922Y-63884546D01*
X21112149Y-63859235D01*
X21146756Y-63845471D01*
X21153993Y-63844714D01*
X21162139Y-63857160D01*
X21162630Y-63888972D01*
X21156643Y-63931866D01*
X21145357Y-63977558D01*
X21129950Y-64017761D01*
X21129171Y-64019322D01*
X21082804Y-64084062D01*
X21022711Y-64128097D01*
X20954465Y-64149711D01*
X20883638Y-64147185D01*
X20815804Y-64118804D01*
X20812788Y-64116808D01*
X20759427Y-64068448D01*
X20724340Y-64005352D01*
X20704922Y-63922387D01*
X20702316Y-63899078D01*
X20697701Y-63789055D01*
X20703233Y-63737748D01*
X20842514Y-63737748D01*
X20844324Y-63769753D01*
X20854222Y-63779093D01*
X20878898Y-63772105D01*
X20917795Y-63755587D01*
X20961275Y-63734881D01*
X20962356Y-63734333D01*
X20999209Y-63714949D01*
X21014000Y-63702013D01*
X21010353Y-63688451D01*
X20994995Y-63670632D01*
X20955923Y-63644845D01*
X20913846Y-63642950D01*
X20876103Y-63661717D01*
X20850034Y-63697915D01*
X20842514Y-63737748D01*
X20703233Y-63737748D01*
X20707194Y-63701027D01*
X20731550Y-63631212D01*
X20765456Y-63582302D01*
X20826653Y-63532878D01*
X20894063Y-63508359D01*
X20962880Y-63506797D01*
X21028303Y-63526239D01*
G37*
X21028303Y-63526239D02*
X21085527Y-63564735D01*
X21129749Y-63620335D01*
X21156167Y-63691086D01*
X21161510Y-63743162D01*
X21160903Y-63764893D01*
X21155822Y-63781531D01*
X21141855Y-63796437D01*
X21114589Y-63812973D01*
X21069612Y-63834498D01*
X21002511Y-63864374D01*
X21002171Y-63864524D01*
X20940407Y-63892813D01*
X20889759Y-63917933D01*
X20855404Y-63937179D01*
X20842518Y-63947848D01*
X20842514Y-63947934D01*
X20853872Y-63971166D01*
X20880431Y-63996774D01*
X20910923Y-64015221D01*
X20926370Y-64018886D01*
X20968515Y-64006212D01*
X21004808Y-63974471D01*
X21022517Y-63939572D01*
X21039552Y-63913845D01*
X21072922Y-63884546D01*
X21112149Y-63859235D01*
X21146756Y-63845471D01*
X21153993Y-63844714D01*
X21162139Y-63857160D01*
X21162630Y-63888972D01*
X21156643Y-63931866D01*
X21145357Y-63977558D01*
X21129950Y-64017761D01*
X21129171Y-64019322D01*
X21082804Y-64084062D01*
X21022711Y-64128097D01*
X20954465Y-64149711D01*
X20883638Y-64147185D01*
X20815804Y-64118804D01*
X20812788Y-64116808D01*
X20759427Y-64068448D01*
X20724340Y-64005352D01*
X20704922Y-63922387D01*
X20702316Y-63899078D01*
X20697701Y-63789055D01*
X20703233Y-63737748D01*
X20842514Y-63737748D01*
X20844324Y-63769753D01*
X20854222Y-63779093D01*
X20878898Y-63772105D01*
X20917795Y-63755587D01*
X20961275Y-63734881D01*
X20962356Y-63734333D01*
X20999209Y-63714949D01*
X21014000Y-63702013D01*
X21010353Y-63688451D01*
X20994995Y-63670632D01*
X20955923Y-63644845D01*
X20913846Y-63642950D01*
X20876103Y-63661717D01*
X20850034Y-63697915D01*
X20842514Y-63737748D01*
X20703233Y-63737748D01*
X20707194Y-63701027D01*
X20731550Y-63631212D01*
X20765456Y-63582302D01*
X20826653Y-63532878D01*
X20894063Y-63508359D01*
X20962880Y-63506797D01*
X21028303Y-63526239D01*
G36*
X19901115Y-63516962D02*
G01*
X19969145Y-63552733D01*
X20019351Y-63610301D01*
X20037185Y-63647312D01*
X20051063Y-63702882D01*
X20058167Y-63773096D01*
X20058840Y-63849727D01*
X20053427Y-63924552D01*
X20042270Y-63989342D01*
X20025714Y-64035873D01*
X20020626Y-64043887D01*
X19960355Y-64103707D01*
X19888769Y-64139535D01*
X19811092Y-64150020D01*
X19732548Y-64133810D01*
X19710689Y-64124092D01*
X19668122Y-64094143D01*
X19630763Y-64054433D01*
X19627232Y-64049397D01*
X19612881Y-64025124D01*
X19603394Y-63999178D01*
X19597790Y-63965022D01*
X19595086Y-63916119D01*
X19594299Y-63845935D01*
X19594286Y-63830200D01*
X19594322Y-63825192D01*
X19739429Y-63825192D01*
X19740273Y-63891430D01*
X19743596Y-63935386D01*
X19750583Y-63963779D01*
X19762416Y-63983325D01*
X19768457Y-63989857D01*
X19803186Y-64014680D01*
X19836903Y-64013548D01*
X19870995Y-63992016D01*
X19891329Y-63969029D01*
X19903371Y-63935478D01*
X19910134Y-63882569D01*
X19910598Y-63876399D01*
X19911752Y-63780513D01*
X19899688Y-63709299D01*
X19874570Y-63663194D01*
X19836560Y-63642635D01*
X19822992Y-63641514D01*
X19787364Y-63647152D01*
X19762994Y-63666686D01*
X19748093Y-63704042D01*
X19740875Y-63763150D01*
X19739429Y-63825192D01*
X19594322Y-63825192D01*
X19594826Y-63755413D01*
X19597096Y-63703159D01*
X19602068Y-63666949D01*
X19610713Y-63640299D01*
X19624005Y-63616722D01*
X19626943Y-63612338D01*
X19676313Y-63553249D01*
X19730109Y-63518947D01*
X19795602Y-63505331D01*
X19817842Y-63504665D01*
X19901115Y-63516962D01*
G37*
X19901115Y-63516962D02*
X19969145Y-63552733D01*
X20019351Y-63610301D01*
X20037185Y-63647312D01*
X20051063Y-63702882D01*
X20058167Y-63773096D01*
X20058840Y-63849727D01*
X20053427Y-63924552D01*
X20042270Y-63989342D01*
X20025714Y-64035873D01*
X20020626Y-64043887D01*
X19960355Y-64103707D01*
X19888769Y-64139535D01*
X19811092Y-64150020D01*
X19732548Y-64133810D01*
X19710689Y-64124092D01*
X19668122Y-64094143D01*
X19630763Y-64054433D01*
X19627232Y-64049397D01*
X19612881Y-64025124D01*
X19603394Y-63999178D01*
X19597790Y-63965022D01*
X19595086Y-63916119D01*
X19594299Y-63845935D01*
X19594286Y-63830200D01*
X19594322Y-63825192D01*
X19739429Y-63825192D01*
X19740273Y-63891430D01*
X19743596Y-63935386D01*
X19750583Y-63963779D01*
X19762416Y-63983325D01*
X19768457Y-63989857D01*
X19803186Y-64014680D01*
X19836903Y-64013548D01*
X19870995Y-63992016D01*
X19891329Y-63969029D01*
X19903371Y-63935478D01*
X19910134Y-63882569D01*
X19910598Y-63876399D01*
X19911752Y-63780513D01*
X19899688Y-63709299D01*
X19874570Y-63663194D01*
X19836560Y-63642635D01*
X19822992Y-63641514D01*
X19787364Y-63647152D01*
X19762994Y-63666686D01*
X19748093Y-63704042D01*
X19740875Y-63763150D01*
X19739429Y-63825192D01*
X19594322Y-63825192D01*
X19594826Y-63755413D01*
X19597096Y-63703159D01*
X19602068Y-63666949D01*
X19610713Y-63640299D01*
X19624005Y-63616722D01*
X19626943Y-63612338D01*
X19676313Y-63553249D01*
X19730109Y-63518947D01*
X19795602Y-63505331D01*
X19817842Y-63504665D01*
X19901115Y-63516962D01*
G36*
X21576093Y-63522780D02*
G01*
X21622672Y-63549723D01*
X21655057Y-63576466D01*
X21678742Y-63604484D01*
X21695059Y-63638748D01*
X21705339Y-63684227D01*
X21710914Y-63745892D01*
X21713116Y-63828711D01*
X21713371Y-63888246D01*
X21713371Y-64107391D01*
X21651686Y-64135044D01*
X21590000Y-64162697D01*
X21582743Y-63922670D01*
X21579744Y-63833028D01*
X21576598Y-63767962D01*
X21572701Y-63723026D01*
X21567447Y-63693770D01*
X21560231Y-63675748D01*
X21550450Y-63664511D01*
X21547312Y-63662079D01*
X21499761Y-63643083D01*
X21451697Y-63650600D01*
X21423086Y-63670543D01*
X21411447Y-63684675D01*
X21403391Y-63703220D01*
X21398271Y-63731334D01*
X21395441Y-63774173D01*
X21394256Y-63836895D01*
X21394057Y-63902261D01*
X21394018Y-63984268D01*
X21392614Y-64042316D01*
X21387914Y-64081465D01*
X21377987Y-64106780D01*
X21360903Y-64123323D01*
X21334732Y-64136156D01*
X21299775Y-64149491D01*
X21261596Y-64164007D01*
X21266141Y-63906389D01*
X21267971Y-63813519D01*
X21270112Y-63744889D01*
X21273181Y-63695711D01*
X21277794Y-63661198D01*
X21284568Y-63636562D01*
X21294119Y-63617016D01*
X21305634Y-63599770D01*
X21361190Y-63544680D01*
X21428980Y-63512822D01*
X21502713Y-63505191D01*
X21576093Y-63522780D01*
G37*
X21576093Y-63522780D02*
X21622672Y-63549723D01*
X21655057Y-63576466D01*
X21678742Y-63604484D01*
X21695059Y-63638748D01*
X21705339Y-63684227D01*
X21710914Y-63745892D01*
X21713116Y-63828711D01*
X21713371Y-63888246D01*
X21713371Y-64107391D01*
X21651686Y-64135044D01*
X21590000Y-64162697D01*
X21582743Y-63922670D01*
X21579744Y-63833028D01*
X21576598Y-63767962D01*
X21572701Y-63723026D01*
X21567447Y-63693770D01*
X21560231Y-63675748D01*
X21550450Y-63664511D01*
X21547312Y-63662079D01*
X21499761Y-63643083D01*
X21451697Y-63650600D01*
X21423086Y-63670543D01*
X21411447Y-63684675D01*
X21403391Y-63703220D01*
X21398271Y-63731334D01*
X21395441Y-63774173D01*
X21394256Y-63836895D01*
X21394057Y-63902261D01*
X21394018Y-63984268D01*
X21392614Y-64042316D01*
X21387914Y-64081465D01*
X21377987Y-64106780D01*
X21360903Y-64123323D01*
X21334732Y-64136156D01*
X21299775Y-64149491D01*
X21261596Y-64164007D01*
X21266141Y-63906389D01*
X21267971Y-63813519D01*
X21270112Y-63744889D01*
X21273181Y-63695711D01*
X21277794Y-63661198D01*
X21284568Y-63636562D01*
X21294119Y-63617016D01*
X21305634Y-63599770D01*
X21361190Y-63544680D01*
X21428980Y-63512822D01*
X21502713Y-63505191D01*
X21576093Y-63522780D01*
G36*
X20459744Y-63514918D02*
G01*
X20515201Y-63542568D01*
X20564148Y-63593480D01*
X20577629Y-63612338D01*
X20592314Y-63637015D01*
X20601842Y-63663816D01*
X20607293Y-63699587D01*
X20609747Y-63751169D01*
X20610286Y-63819267D01*
X20607852Y-63912588D01*
X20599394Y-63982657D01*
X20583174Y-64034931D01*
X20557454Y-64074869D01*
X20520497Y-64107929D01*
X20517782Y-64109886D01*
X20481360Y-64129908D01*
X20437502Y-64139815D01*
X20381724Y-64142257D01*
X20291048Y-64142257D01*
X20291010Y-64230283D01*
X20290166Y-64279308D01*
X20285024Y-64308065D01*
X20271587Y-64325311D01*
X20245858Y-64339808D01*
X20239679Y-64342769D01*
X20210764Y-64356648D01*
X20188376Y-64365414D01*
X20171729Y-64366171D01*
X20160036Y-64356023D01*
X20152510Y-64332073D01*
X20148366Y-64291426D01*
X20146815Y-64231186D01*
X20147071Y-64148455D01*
X20148349Y-64040339D01*
X20148748Y-64008000D01*
X20150185Y-63896524D01*
X20151472Y-63823603D01*
X20290971Y-63823603D01*
X20291755Y-63885499D01*
X20295240Y-63925997D01*
X20303124Y-63952708D01*
X20317105Y-63973244D01*
X20326597Y-63983260D01*
X20365404Y-64012567D01*
X20399763Y-64014952D01*
X20435216Y-63990750D01*
X20436114Y-63989857D01*
X20450539Y-63971153D01*
X20459313Y-63945732D01*
X20463739Y-63906584D01*
X20465118Y-63846697D01*
X20465143Y-63833430D01*
X20461812Y-63750901D01*
X20450969Y-63693691D01*
X20431340Y-63658766D01*
X20401650Y-63643094D01*
X20384491Y-63641514D01*
X20343766Y-63648926D01*
X20315832Y-63673330D01*
X20299017Y-63717980D01*
X20291650Y-63786130D01*
X20290971Y-63823603D01*
X20151472Y-63823603D01*
X20151708Y-63810245D01*
X20153677Y-63745333D01*
X20156450Y-63697958D01*
X20160388Y-63664290D01*
X20165849Y-63640498D01*
X20173192Y-63622753D01*
X20182777Y-63607224D01*
X20186887Y-63601381D01*
X20241405Y-63546185D01*
X20310336Y-63514890D01*
X20390072Y-63506165D01*
X20459744Y-63514918D01*
G37*
X20459744Y-63514918D02*
X20515201Y-63542568D01*
X20564148Y-63593480D01*
X20577629Y-63612338D01*
X20592314Y-63637015D01*
X20601842Y-63663816D01*
X20607293Y-63699587D01*
X20609747Y-63751169D01*
X20610286Y-63819267D01*
X20607852Y-63912588D01*
X20599394Y-63982657D01*
X20583174Y-64034931D01*
X20557454Y-64074869D01*
X20520497Y-64107929D01*
X20517782Y-64109886D01*
X20481360Y-64129908D01*
X20437502Y-64139815D01*
X20381724Y-64142257D01*
X20291048Y-64142257D01*
X20291010Y-64230283D01*
X20290166Y-64279308D01*
X20285024Y-64308065D01*
X20271587Y-64325311D01*
X20245858Y-64339808D01*
X20239679Y-64342769D01*
X20210764Y-64356648D01*
X20188376Y-64365414D01*
X20171729Y-64366171D01*
X20160036Y-64356023D01*
X20152510Y-64332073D01*
X20148366Y-64291426D01*
X20146815Y-64231186D01*
X20147071Y-64148455D01*
X20148349Y-64040339D01*
X20148748Y-64008000D01*
X20150185Y-63896524D01*
X20151472Y-63823603D01*
X20290971Y-63823603D01*
X20291755Y-63885499D01*
X20295240Y-63925997D01*
X20303124Y-63952708D01*
X20317105Y-63973244D01*
X20326597Y-63983260D01*
X20365404Y-64012567D01*
X20399763Y-64014952D01*
X20435216Y-63990750D01*
X20436114Y-63989857D01*
X20450539Y-63971153D01*
X20459313Y-63945732D01*
X20463739Y-63906584D01*
X20465118Y-63846697D01*
X20465143Y-63833430D01*
X20461812Y-63750901D01*
X20450969Y-63693691D01*
X20431340Y-63658766D01*
X20401650Y-63643094D01*
X20384491Y-63641514D01*
X20343766Y-63648926D01*
X20315832Y-63673330D01*
X20299017Y-63717980D01*
X20291650Y-63786130D01*
X20290971Y-63823603D01*
X20151472Y-63823603D01*
X20151708Y-63810245D01*
X20153677Y-63745333D01*
X20156450Y-63697958D01*
X20160388Y-63664290D01*
X20165849Y-63640498D01*
X20173192Y-63622753D01*
X20182777Y-63607224D01*
X20186887Y-63601381D01*
X20241405Y-63546185D01*
X20310336Y-63514890D01*
X20390072Y-63506165D01*
X20459744Y-63514918D01*
D12*
X43664000Y-31842000D02*
X43664000Y-28102000D01*
X50904000Y-31842000D02*
X50904000Y-28102000D01*
X50904000Y-28102000D02*
X43664000Y-28102000D01*
X50904000Y-31842000D02*
X43664000Y-31842000D01*
X50824000Y-40802000D02*
X50824000Y-44542000D01*
X43584000Y-40802000D02*
X43584000Y-44542000D01*
X43584000Y-44542000D02*
X50824000Y-44542000D01*
X43584000Y-40802000D02*
X50824000Y-40802000D01*
X21693000Y-38319000D02*
X21693000Y-34579000D01*
X28933000Y-38319000D02*
X28933000Y-34579000D01*
X28933000Y-34579000D02*
X21693000Y-34579000D01*
X28933000Y-38319000D02*
X21693000Y-38319000D01*
X25746000Y-57428000D02*
X22006000Y-57428000D01*
X25746000Y-50188000D02*
X22006000Y-50188000D01*
X22006000Y-50188000D02*
X22006000Y-57428000D01*
X25746000Y-50188000D02*
X25746000Y-57428000D01*
X51227000Y-50788000D02*
X51227000Y-52752000D01*
X51227000Y-48012000D02*
X51227000Y-49798000D01*
X44277000Y-50788000D02*
X44277000Y-52752000D01*
X44277000Y-48012000D02*
X44277000Y-49798000D01*
X44277000Y-52752000D02*
X51227000Y-52752000D01*
X44277000Y-48012000D02*
X51227000Y-48012000D01*
X38212000Y-57308000D02*
X42052000Y-57308000D01*
X38212000Y-55468000D02*
X42052000Y-55468000D01*
X49688000Y-58816000D02*
X49688000Y-54976000D01*
X47848000Y-58816000D02*
X47848000Y-54976000D01*
X48656000Y-45308000D02*
X44816000Y-45308000D01*
X48656000Y-47148000D02*
X44816000Y-47148000D01*
X43403000Y-33894000D02*
X43403000Y-37734000D01*
X45243000Y-33894000D02*
X45243000Y-37734000D01*
X47783000Y-37734000D02*
X47783000Y-33894000D01*
X45943000Y-37734000D02*
X45943000Y-33894000D01*
X50704000Y-38496000D02*
X50704000Y-34656000D01*
X48864000Y-38496000D02*
X48864000Y-34656000D01*
X39258000Y-31084000D02*
X35418000Y-31084000D01*
X39258000Y-32924000D02*
X35418000Y-32924000D01*
X29433000Y-32624000D02*
X29433000Y-36464000D01*
X31273000Y-32624000D02*
X31273000Y-36464000D01*
X26558000Y-31084000D02*
X22718000Y-31084000D01*
X26558000Y-32924000D02*
X22718000Y-32924000D01*
X26020000Y-30384000D02*
X29860000Y-30384000D01*
X26020000Y-28544000D02*
X29860000Y-28544000D01*
X27828000Y-38704000D02*
X23988000Y-38704000D01*
X27828000Y-40544000D02*
X23988000Y-40544000D01*
X30480000Y-51332000D02*
X30480000Y-52102000D01*
X30480000Y-59412000D02*
X30480000Y-58642000D01*
X29110000Y-52102000D02*
X29110000Y-58642000D01*
X31850000Y-52102000D02*
X29110000Y-52102000D01*
X31850000Y-58642000D02*
X31850000Y-52102000D01*
X29110000Y-58642000D02*
X31850000Y-58642000D01*
X27432000Y-54380000D02*
X27432000Y-55150000D01*
X27432000Y-62460000D02*
X27432000Y-61690000D01*
X26062000Y-55150000D02*
X26062000Y-61690000D01*
X28802000Y-55150000D02*
X26062000Y-55150000D01*
X28802000Y-61690000D02*
X28802000Y-55150000D01*
X26062000Y-61690000D02*
X28802000Y-61690000D01*
X29860000Y-43784000D02*
X26020000Y-43784000D01*
X29860000Y-45624000D02*
X26020000Y-45624000D01*
X29860000Y-46324000D02*
X26020000Y-46324000D01*
X29860000Y-48164000D02*
X26020000Y-48164000D01*
X47148000Y-58816000D02*
X47148000Y-54976000D01*
X45308000Y-58816000D02*
X45308000Y-54976000D01*
X44905000Y-59655225D02*
X44405000Y-59655225D01*
X44655000Y-59405225D02*
X44655000Y-59905225D01*
X43464000Y-64811000D02*
X42896000Y-64811000D01*
X43698000Y-64771000D02*
X42662000Y-64771000D01*
X43857000Y-64731000D02*
X42503000Y-64731000D01*
X43985000Y-64691000D02*
X42375000Y-64691000D01*
X44095000Y-64651000D02*
X42265000Y-64651000D01*
X44191000Y-64611000D02*
X42169000Y-64611000D01*
X44278000Y-64571000D02*
X42082000Y-64571000D01*
X44358000Y-64531000D02*
X42002000Y-64531000D01*
X42140000Y-64491000D02*
X41929000Y-64491000D01*
X44431000Y-64491000D02*
X44220000Y-64491000D01*
X42140000Y-64451000D02*
X41861000Y-64451000D01*
X44499000Y-64451000D02*
X44220000Y-64451000D01*
X42140000Y-64411000D02*
X41797000Y-64411000D01*
X44563000Y-64411000D02*
X44220000Y-64411000D01*
X42140000Y-64371000D02*
X41737000Y-64371000D01*
X44623000Y-64371000D02*
X44220000Y-64371000D01*
X42140000Y-64331000D02*
X41680000Y-64331000D01*
X44680000Y-64331000D02*
X44220000Y-64331000D01*
X42140000Y-64291000D02*
X41626000Y-64291000D01*
X44734000Y-64291000D02*
X44220000Y-64291000D01*
X42140000Y-64251000D02*
X41575000Y-64251000D01*
X44785000Y-64251000D02*
X44220000Y-64251000D01*
X42140000Y-64211000D02*
X41527000Y-64211000D01*
X44833000Y-64211000D02*
X44220000Y-64211000D01*
X42140000Y-64171000D02*
X41481000Y-64171000D01*
X44879000Y-64171000D02*
X44220000Y-64171000D01*
X42140000Y-64131000D02*
X41437000Y-64131000D01*
X44923000Y-64131000D02*
X44220000Y-64131000D01*
X42140000Y-64091000D02*
X41395000Y-64091000D01*
X44965000Y-64091000D02*
X44220000Y-64091000D01*
X42140000Y-64051000D02*
X41354000Y-64051000D01*
X45006000Y-64051000D02*
X44220000Y-64051000D01*
X42140000Y-64011000D02*
X41316000Y-64011000D01*
X45044000Y-64011000D02*
X44220000Y-64011000D01*
X42140000Y-63971000D02*
X41279000Y-63971000D01*
X45081000Y-63971000D02*
X44220000Y-63971000D01*
X42140000Y-63931000D02*
X41243000Y-63931000D01*
X45117000Y-63931000D02*
X44220000Y-63931000D01*
X42140000Y-63891000D02*
X41209000Y-63891000D01*
X45151000Y-63891000D02*
X44220000Y-63891000D01*
X42140000Y-63851000D02*
X41176000Y-63851000D01*
X45184000Y-63851000D02*
X44220000Y-63851000D01*
X42140000Y-63811000D02*
X41145000Y-63811000D01*
X45215000Y-63811000D02*
X44220000Y-63811000D01*
X42140000Y-63771000D02*
X41115000Y-63771000D01*
X45245000Y-63771000D02*
X44220000Y-63771000D01*
X42140000Y-63731000D02*
X41085000Y-63731000D01*
X45275000Y-63731000D02*
X44220000Y-63731000D01*
X42140000Y-63691000D02*
X41058000Y-63691000D01*
X45302000Y-63691000D02*
X44220000Y-63691000D01*
X42140000Y-63651000D02*
X41031000Y-63651000D01*
X45329000Y-63651000D02*
X44220000Y-63651000D01*
X42140000Y-63611000D02*
X41005000Y-63611000D01*
X45355000Y-63611000D02*
X44220000Y-63611000D01*
X42140000Y-63571000D02*
X40980000Y-63571000D01*
X45380000Y-63571000D02*
X44220000Y-63571000D01*
X42140000Y-63531000D02*
X40956000Y-63531000D01*
X45404000Y-63531000D02*
X44220000Y-63531000D01*
X42140000Y-63491000D02*
X40933000Y-63491000D01*
X45427000Y-63491000D02*
X44220000Y-63491000D01*
X42140000Y-63451000D02*
X40912000Y-63451000D01*
X45448000Y-63451000D02*
X44220000Y-63451000D01*
X42140000Y-63411000D02*
X40890000Y-63411000D01*
X45470000Y-63411000D02*
X44220000Y-63411000D01*
X42140000Y-63371000D02*
X40870000Y-63371000D01*
X45490000Y-63371000D02*
X44220000Y-63371000D01*
X42140000Y-63331000D02*
X40851000Y-63331000D01*
X45509000Y-63331000D02*
X44220000Y-63331000D01*
X42140000Y-63291000D02*
X40832000Y-63291000D01*
X45528000Y-63291000D02*
X44220000Y-63291000D01*
X42140000Y-63251000D02*
X40815000Y-63251000D01*
X45545000Y-63251000D02*
X44220000Y-63251000D01*
X42140000Y-63211000D02*
X40798000Y-63211000D01*
X45562000Y-63211000D02*
X44220000Y-63211000D01*
X42140000Y-63171000D02*
X40782000Y-63171000D01*
X45578000Y-63171000D02*
X44220000Y-63171000D01*
X42140000Y-63131000D02*
X40766000Y-63131000D01*
X45594000Y-63131000D02*
X44220000Y-63131000D01*
X42140000Y-63091000D02*
X40752000Y-63091000D01*
X45608000Y-63091000D02*
X44220000Y-63091000D01*
X42140000Y-63051000D02*
X40738000Y-63051000D01*
X45622000Y-63051000D02*
X44220000Y-63051000D01*
X42140000Y-63011000D02*
X40725000Y-63011000D01*
X45635000Y-63011000D02*
X44220000Y-63011000D01*
X42140000Y-62971000D02*
X40712000Y-62971000D01*
X45648000Y-62971000D02*
X44220000Y-62971000D01*
X42140000Y-62931000D02*
X40700000Y-62931000D01*
X45660000Y-62931000D02*
X44220000Y-62931000D01*
X42140000Y-62890000D02*
X40689000Y-62890000D01*
X45671000Y-62890000D02*
X44220000Y-62890000D01*
X42140000Y-62850000D02*
X40679000Y-62850000D01*
X45681000Y-62850000D02*
X44220000Y-62850000D01*
X42140000Y-62810000D02*
X40669000Y-62810000D01*
X45691000Y-62810000D02*
X44220000Y-62810000D01*
X42140000Y-62770000D02*
X40660000Y-62770000D01*
X45700000Y-62770000D02*
X44220000Y-62770000D01*
X42140000Y-62730000D02*
X40652000Y-62730000D01*
X45708000Y-62730000D02*
X44220000Y-62730000D01*
X42140000Y-62690000D02*
X40644000Y-62690000D01*
X45716000Y-62690000D02*
X44220000Y-62690000D01*
X42140000Y-62650000D02*
X40637000Y-62650000D01*
X45723000Y-62650000D02*
X44220000Y-62650000D01*
X42140000Y-62610000D02*
X40630000Y-62610000D01*
X45730000Y-62610000D02*
X44220000Y-62610000D01*
X42140000Y-62570000D02*
X40624000Y-62570000D01*
X45736000Y-62570000D02*
X44220000Y-62570000D01*
X42140000Y-62530000D02*
X40619000Y-62530000D01*
X45741000Y-62530000D02*
X44220000Y-62530000D01*
X42140000Y-62490000D02*
X40615000Y-62490000D01*
X45745000Y-62490000D02*
X44220000Y-62490000D01*
X42140000Y-62450000D02*
X40611000Y-62450000D01*
X45749000Y-62450000D02*
X44220000Y-62450000D01*
X45753000Y-62410000D02*
X40607000Y-62410000D01*
X45756000Y-62370000D02*
X40604000Y-62370000D01*
X45758000Y-62330000D02*
X40602000Y-62330000D01*
X45759000Y-62290000D02*
X40601000Y-62290000D01*
X45760000Y-62250000D02*
X40600000Y-62250000D01*
X45760000Y-62210000D02*
X40600000Y-62210000D01*
X45800000Y-62210000D02*
G75*
G03X45800000Y-62210000I-2620000J0D01*
G01*
X27231000Y-25688775D02*
X27731000Y-25688775D01*
X27481000Y-25938775D02*
X27481000Y-25438775D01*
X28672000Y-20533000D02*
X29240000Y-20533000D01*
X28438000Y-20573000D02*
X29474000Y-20573000D01*
X28279000Y-20613000D02*
X29633000Y-20613000D01*
X28151000Y-20653000D02*
X29761000Y-20653000D01*
X28041000Y-20693000D02*
X29871000Y-20693000D01*
X27945000Y-20733000D02*
X29967000Y-20733000D01*
X27858000Y-20773000D02*
X30054000Y-20773000D01*
X27778000Y-20813000D02*
X30134000Y-20813000D01*
X29996000Y-20853000D02*
X30207000Y-20853000D01*
X27705000Y-20853000D02*
X27916000Y-20853000D01*
X29996000Y-20893000D02*
X30275000Y-20893000D01*
X27637000Y-20893000D02*
X27916000Y-20893000D01*
X29996000Y-20933000D02*
X30339000Y-20933000D01*
X27573000Y-20933000D02*
X27916000Y-20933000D01*
X29996000Y-20973000D02*
X30399000Y-20973000D01*
X27513000Y-20973000D02*
X27916000Y-20973000D01*
X29996000Y-21013000D02*
X30456000Y-21013000D01*
X27456000Y-21013000D02*
X27916000Y-21013000D01*
X29996000Y-21053000D02*
X30510000Y-21053000D01*
X27402000Y-21053000D02*
X27916000Y-21053000D01*
X29996000Y-21093000D02*
X30561000Y-21093000D01*
X27351000Y-21093000D02*
X27916000Y-21093000D01*
X29996000Y-21133000D02*
X30609000Y-21133000D01*
X27303000Y-21133000D02*
X27916000Y-21133000D01*
X29996000Y-21173000D02*
X30655000Y-21173000D01*
X27257000Y-21173000D02*
X27916000Y-21173000D01*
X29996000Y-21213000D02*
X30699000Y-21213000D01*
X27213000Y-21213000D02*
X27916000Y-21213000D01*
X29996000Y-21253000D02*
X30741000Y-21253000D01*
X27171000Y-21253000D02*
X27916000Y-21253000D01*
X29996000Y-21293000D02*
X30782000Y-21293000D01*
X27130000Y-21293000D02*
X27916000Y-21293000D01*
X29996000Y-21333000D02*
X30820000Y-21333000D01*
X27092000Y-21333000D02*
X27916000Y-21333000D01*
X29996000Y-21373000D02*
X30857000Y-21373000D01*
X27055000Y-21373000D02*
X27916000Y-21373000D01*
X29996000Y-21413000D02*
X30893000Y-21413000D01*
X27019000Y-21413000D02*
X27916000Y-21413000D01*
X29996000Y-21453000D02*
X30927000Y-21453000D01*
X26985000Y-21453000D02*
X27916000Y-21453000D01*
X29996000Y-21493000D02*
X30960000Y-21493000D01*
X26952000Y-21493000D02*
X27916000Y-21493000D01*
X29996000Y-21533000D02*
X30991000Y-21533000D01*
X26921000Y-21533000D02*
X27916000Y-21533000D01*
X29996000Y-21573000D02*
X31021000Y-21573000D01*
X26891000Y-21573000D02*
X27916000Y-21573000D01*
X29996000Y-21613000D02*
X31051000Y-21613000D01*
X26861000Y-21613000D02*
X27916000Y-21613000D01*
X29996000Y-21653000D02*
X31078000Y-21653000D01*
X26834000Y-21653000D02*
X27916000Y-21653000D01*
X29996000Y-21693000D02*
X31105000Y-21693000D01*
X26807000Y-21693000D02*
X27916000Y-21693000D01*
X29996000Y-21733000D02*
X31131000Y-21733000D01*
X26781000Y-21733000D02*
X27916000Y-21733000D01*
X29996000Y-21773000D02*
X31156000Y-21773000D01*
X26756000Y-21773000D02*
X27916000Y-21773000D01*
X29996000Y-21813000D02*
X31180000Y-21813000D01*
X26732000Y-21813000D02*
X27916000Y-21813000D01*
X29996000Y-21853000D02*
X31203000Y-21853000D01*
X26709000Y-21853000D02*
X27916000Y-21853000D01*
X29996000Y-21893000D02*
X31224000Y-21893000D01*
X26688000Y-21893000D02*
X27916000Y-21893000D01*
X29996000Y-21933000D02*
X31246000Y-21933000D01*
X26666000Y-21933000D02*
X27916000Y-21933000D01*
X29996000Y-21973000D02*
X31266000Y-21973000D01*
X26646000Y-21973000D02*
X27916000Y-21973000D01*
X29996000Y-22013000D02*
X31285000Y-22013000D01*
X26627000Y-22013000D02*
X27916000Y-22013000D01*
X29996000Y-22053000D02*
X31304000Y-22053000D01*
X26608000Y-22053000D02*
X27916000Y-22053000D01*
X29996000Y-22093000D02*
X31321000Y-22093000D01*
X26591000Y-22093000D02*
X27916000Y-22093000D01*
X29996000Y-22133000D02*
X31338000Y-22133000D01*
X26574000Y-22133000D02*
X27916000Y-22133000D01*
X29996000Y-22173000D02*
X31354000Y-22173000D01*
X26558000Y-22173000D02*
X27916000Y-22173000D01*
X29996000Y-22213000D02*
X31370000Y-22213000D01*
X26542000Y-22213000D02*
X27916000Y-22213000D01*
X29996000Y-22253000D02*
X31384000Y-22253000D01*
X26528000Y-22253000D02*
X27916000Y-22253000D01*
X29996000Y-22293000D02*
X31398000Y-22293000D01*
X26514000Y-22293000D02*
X27916000Y-22293000D01*
X29996000Y-22333000D02*
X31411000Y-22333000D01*
X26501000Y-22333000D02*
X27916000Y-22333000D01*
X29996000Y-22373000D02*
X31424000Y-22373000D01*
X26488000Y-22373000D02*
X27916000Y-22373000D01*
X29996000Y-22413000D02*
X31436000Y-22413000D01*
X26476000Y-22413000D02*
X27916000Y-22413000D01*
X29996000Y-22454000D02*
X31447000Y-22454000D01*
X26465000Y-22454000D02*
X27916000Y-22454000D01*
X29996000Y-22494000D02*
X31457000Y-22494000D01*
X26455000Y-22494000D02*
X27916000Y-22494000D01*
X29996000Y-22534000D02*
X31467000Y-22534000D01*
X26445000Y-22534000D02*
X27916000Y-22534000D01*
X29996000Y-22574000D02*
X31476000Y-22574000D01*
X26436000Y-22574000D02*
X27916000Y-22574000D01*
X29996000Y-22614000D02*
X31484000Y-22614000D01*
X26428000Y-22614000D02*
X27916000Y-22614000D01*
X29996000Y-22654000D02*
X31492000Y-22654000D01*
X26420000Y-22654000D02*
X27916000Y-22654000D01*
X29996000Y-22694000D02*
X31499000Y-22694000D01*
X26413000Y-22694000D02*
X27916000Y-22694000D01*
X29996000Y-22734000D02*
X31506000Y-22734000D01*
X26406000Y-22734000D02*
X27916000Y-22734000D01*
X29996000Y-22774000D02*
X31512000Y-22774000D01*
X26400000Y-22774000D02*
X27916000Y-22774000D01*
X29996000Y-22814000D02*
X31517000Y-22814000D01*
X26395000Y-22814000D02*
X27916000Y-22814000D01*
X29996000Y-22854000D02*
X31521000Y-22854000D01*
X26391000Y-22854000D02*
X27916000Y-22854000D01*
X29996000Y-22894000D02*
X31525000Y-22894000D01*
X26387000Y-22894000D02*
X27916000Y-22894000D01*
X26383000Y-22934000D02*
X31529000Y-22934000D01*
X26380000Y-22974000D02*
X31532000Y-22974000D01*
X26378000Y-23014000D02*
X31534000Y-23014000D01*
X26377000Y-23054000D02*
X31535000Y-23054000D01*
X26376000Y-23094000D02*
X31536000Y-23094000D01*
X26376000Y-23134000D02*
X31536000Y-23134000D01*
X31576000Y-23134000D02*
G75*
G03X31576000Y-23134000I-2620000J0D01*
G01*
X43995000Y-25688775D02*
X44495000Y-25688775D01*
X44245000Y-25938775D02*
X44245000Y-25438775D01*
X45436000Y-20533000D02*
X46004000Y-20533000D01*
X45202000Y-20573000D02*
X46238000Y-20573000D01*
X45043000Y-20613000D02*
X46397000Y-20613000D01*
X44915000Y-20653000D02*
X46525000Y-20653000D01*
X44805000Y-20693000D02*
X46635000Y-20693000D01*
X44709000Y-20733000D02*
X46731000Y-20733000D01*
X44622000Y-20773000D02*
X46818000Y-20773000D01*
X44542000Y-20813000D02*
X46898000Y-20813000D01*
X46760000Y-20853000D02*
X46971000Y-20853000D01*
X44469000Y-20853000D02*
X44680000Y-20853000D01*
X46760000Y-20893000D02*
X47039000Y-20893000D01*
X44401000Y-20893000D02*
X44680000Y-20893000D01*
X46760000Y-20933000D02*
X47103000Y-20933000D01*
X44337000Y-20933000D02*
X44680000Y-20933000D01*
X46760000Y-20973000D02*
X47163000Y-20973000D01*
X44277000Y-20973000D02*
X44680000Y-20973000D01*
X46760000Y-21013000D02*
X47220000Y-21013000D01*
X44220000Y-21013000D02*
X44680000Y-21013000D01*
X46760000Y-21053000D02*
X47274000Y-21053000D01*
X44166000Y-21053000D02*
X44680000Y-21053000D01*
X46760000Y-21093000D02*
X47325000Y-21093000D01*
X44115000Y-21093000D02*
X44680000Y-21093000D01*
X46760000Y-21133000D02*
X47373000Y-21133000D01*
X44067000Y-21133000D02*
X44680000Y-21133000D01*
X46760000Y-21173000D02*
X47419000Y-21173000D01*
X44021000Y-21173000D02*
X44680000Y-21173000D01*
X46760000Y-21213000D02*
X47463000Y-21213000D01*
X43977000Y-21213000D02*
X44680000Y-21213000D01*
X46760000Y-21253000D02*
X47505000Y-21253000D01*
X43935000Y-21253000D02*
X44680000Y-21253000D01*
X46760000Y-21293000D02*
X47546000Y-21293000D01*
X43894000Y-21293000D02*
X44680000Y-21293000D01*
X46760000Y-21333000D02*
X47584000Y-21333000D01*
X43856000Y-21333000D02*
X44680000Y-21333000D01*
X46760000Y-21373000D02*
X47621000Y-21373000D01*
X43819000Y-21373000D02*
X44680000Y-21373000D01*
X46760000Y-21413000D02*
X47657000Y-21413000D01*
X43783000Y-21413000D02*
X44680000Y-21413000D01*
X46760000Y-21453000D02*
X47691000Y-21453000D01*
X43749000Y-21453000D02*
X44680000Y-21453000D01*
X46760000Y-21493000D02*
X47724000Y-21493000D01*
X43716000Y-21493000D02*
X44680000Y-21493000D01*
X46760000Y-21533000D02*
X47755000Y-21533000D01*
X43685000Y-21533000D02*
X44680000Y-21533000D01*
X46760000Y-21573000D02*
X47785000Y-21573000D01*
X43655000Y-21573000D02*
X44680000Y-21573000D01*
X46760000Y-21613000D02*
X47815000Y-21613000D01*
X43625000Y-21613000D02*
X44680000Y-21613000D01*
X46760000Y-21653000D02*
X47842000Y-21653000D01*
X43598000Y-21653000D02*
X44680000Y-21653000D01*
X46760000Y-21693000D02*
X47869000Y-21693000D01*
X43571000Y-21693000D02*
X44680000Y-21693000D01*
X46760000Y-21733000D02*
X47895000Y-21733000D01*
X43545000Y-21733000D02*
X44680000Y-21733000D01*
X46760000Y-21773000D02*
X47920000Y-21773000D01*
X43520000Y-21773000D02*
X44680000Y-21773000D01*
X46760000Y-21813000D02*
X47944000Y-21813000D01*
X43496000Y-21813000D02*
X44680000Y-21813000D01*
X46760000Y-21853000D02*
X47967000Y-21853000D01*
X43473000Y-21853000D02*
X44680000Y-21853000D01*
X46760000Y-21893000D02*
X47988000Y-21893000D01*
X43452000Y-21893000D02*
X44680000Y-21893000D01*
X46760000Y-21933000D02*
X48010000Y-21933000D01*
X43430000Y-21933000D02*
X44680000Y-21933000D01*
X46760000Y-21973000D02*
X48030000Y-21973000D01*
X43410000Y-21973000D02*
X44680000Y-21973000D01*
X46760000Y-22013000D02*
X48049000Y-22013000D01*
X43391000Y-22013000D02*
X44680000Y-22013000D01*
X46760000Y-22053000D02*
X48068000Y-22053000D01*
X43372000Y-22053000D02*
X44680000Y-22053000D01*
X46760000Y-22093000D02*
X48085000Y-22093000D01*
X43355000Y-22093000D02*
X44680000Y-22093000D01*
X46760000Y-22133000D02*
X48102000Y-22133000D01*
X43338000Y-22133000D02*
X44680000Y-22133000D01*
X46760000Y-22173000D02*
X48118000Y-22173000D01*
X43322000Y-22173000D02*
X44680000Y-22173000D01*
X46760000Y-22213000D02*
X48134000Y-22213000D01*
X43306000Y-22213000D02*
X44680000Y-22213000D01*
X46760000Y-22253000D02*
X48148000Y-22253000D01*
X43292000Y-22253000D02*
X44680000Y-22253000D01*
X46760000Y-22293000D02*
X48162000Y-22293000D01*
X43278000Y-22293000D02*
X44680000Y-22293000D01*
X46760000Y-22333000D02*
X48175000Y-22333000D01*
X43265000Y-22333000D02*
X44680000Y-22333000D01*
X46760000Y-22373000D02*
X48188000Y-22373000D01*
X43252000Y-22373000D02*
X44680000Y-22373000D01*
X46760000Y-22413000D02*
X48200000Y-22413000D01*
X43240000Y-22413000D02*
X44680000Y-22413000D01*
X46760000Y-22454000D02*
X48211000Y-22454000D01*
X43229000Y-22454000D02*
X44680000Y-22454000D01*
X46760000Y-22494000D02*
X48221000Y-22494000D01*
X43219000Y-22494000D02*
X44680000Y-22494000D01*
X46760000Y-22534000D02*
X48231000Y-22534000D01*
X43209000Y-22534000D02*
X44680000Y-22534000D01*
X46760000Y-22574000D02*
X48240000Y-22574000D01*
X43200000Y-22574000D02*
X44680000Y-22574000D01*
X46760000Y-22614000D02*
X48248000Y-22614000D01*
X43192000Y-22614000D02*
X44680000Y-22614000D01*
X46760000Y-22654000D02*
X48256000Y-22654000D01*
X43184000Y-22654000D02*
X44680000Y-22654000D01*
X46760000Y-22694000D02*
X48263000Y-22694000D01*
X43177000Y-22694000D02*
X44680000Y-22694000D01*
X46760000Y-22734000D02*
X48270000Y-22734000D01*
X43170000Y-22734000D02*
X44680000Y-22734000D01*
X46760000Y-22774000D02*
X48276000Y-22774000D01*
X43164000Y-22774000D02*
X44680000Y-22774000D01*
X46760000Y-22814000D02*
X48281000Y-22814000D01*
X43159000Y-22814000D02*
X44680000Y-22814000D01*
X46760000Y-22854000D02*
X48285000Y-22854000D01*
X43155000Y-22854000D02*
X44680000Y-22854000D01*
X46760000Y-22894000D02*
X48289000Y-22894000D01*
X43151000Y-22894000D02*
X44680000Y-22894000D01*
X43147000Y-22934000D02*
X48293000Y-22934000D01*
X43144000Y-22974000D02*
X48296000Y-22974000D01*
X43142000Y-23014000D02*
X48298000Y-23014000D01*
X43141000Y-23054000D02*
X48299000Y-23054000D01*
X43140000Y-23094000D02*
X48300000Y-23094000D01*
X43140000Y-23134000D02*
X48300000Y-23134000D01*
X48340000Y-23134000D02*
G75*
G03X48340000Y-23134000I-2620000J0D01*
G01*
X32198000Y-60766000D02*
X32198000Y-59436000D01*
X33528000Y-60766000D02*
X32198000Y-60766000D01*
X34798000Y-60766000D02*
X34798000Y-58106000D01*
X34798000Y-58106000D02*
X39938000Y-58106000D01*
X34798000Y-60766000D02*
X39938000Y-60766000D01*
X39938000Y-60766000D02*
X39938000Y-58106000D01*
X21022000Y-40834000D02*
X22352000Y-40834000D01*
X21022000Y-42164000D02*
X21022000Y-40834000D01*
X21022000Y-43434000D02*
X23682000Y-43434000D01*
X23682000Y-43434000D02*
X23682000Y-48574000D01*
X21022000Y-43434000D02*
X21022000Y-48574000D01*
X21022000Y-48574000D02*
X23682000Y-48574000D01*
X35088000Y-30794000D02*
X36338000Y-30794000D01*
X35088000Y-20514000D02*
X35088000Y-30794000D01*
X39588000Y-20514000D02*
X35088000Y-20514000D01*
X39588000Y-30794000D02*
X39588000Y-20514000D01*
X38338000Y-30794000D02*
X39588000Y-30794000D01*
X36338000Y-30794000D02*
G75*
G02X38338000Y-30794000I1000000J0D01*
G01*
X39588000Y-33214000D02*
X38338000Y-33214000D01*
X39588000Y-51114000D02*
X39588000Y-33214000D01*
X35088000Y-51114000D02*
X39588000Y-51114000D01*
X35088000Y-33214000D02*
X35088000Y-51114000D01*
X36338000Y-33214000D02*
X35088000Y-33214000D01*
X38338000Y-33214000D02*
G75*
G02X36338000Y-33214000I-1000000J0D01*
G01*
M02*
