M48
; DRILL file {KiCad 5.1.2-f72e74a~84~ubuntu18.04.1} date mar. 28 mai 2019 19:34:27 CEST
; FORMAT={-:-/ absolute / inch / decimal}
; #@! TF.CreationDate,2019-05-28T19:34:27+02:00
; #@! TF.GenerationSoftware,Kicad,Pcbnew,5.1.2-f72e74a~84~ubuntu18.04.1
; #@! TF.FileFunction,Plated,1,2,PTH
FMAT,2
INCH
T1C0.0276
T2C0.0315
T3C0.0394
T4C0.0866
%
G90
G05
T1
X1.0Y-1.16
X1.2Y-1.16
X0.87Y-1.26
X1.07Y-1.26
X1.48Y-2.22
X1.68Y-2.22
X1.96Y-1.34
X1.96Y-1.54
X1.845Y-1.31
X1.845Y-1.51
X1.82Y-2.14
X1.82Y-2.34
X1.74Y-1.82
X1.94Y-1.82
X1.92Y-2.14
X1.92Y-2.34
X1.745Y-1.31
X1.745Y-1.51
X1.37Y-1.26
X1.57Y-1.26
X1.0Y-1.76
X1.2Y-1.76
X1.0Y-1.86
X1.2Y-1.86
X1.195Y-1.26
X1.195Y-1.46
X0.92Y-1.56
X1.12Y-1.56
T2
X1.32Y-0.86
X1.32Y-0.96
X1.32Y-1.06
X1.32Y-1.16
X1.62Y-0.86
X1.62Y-0.96
X1.62Y-1.06
X1.62Y-1.16
X1.7Y-2.4
X1.7Y-2.4984
X1.8Y-0.8616
X1.8Y-0.96
X1.2Y-1.98
X1.2Y-2.38
X1.08Y-2.1
X1.08Y-2.5
X1.32Y-1.36
X1.32Y-1.46
X1.32Y-1.56
X1.32Y-1.66
X1.32Y-1.76
X1.32Y-1.86
X1.32Y-1.96
X1.62Y-1.36
X1.62Y-1.46
X1.62Y-1.56
X1.62Y-1.66
X1.62Y-1.76
X1.62Y-1.86
X1.62Y-1.96
X1.78Y-1.98
X1.88Y-1.98
X1.98Y-1.98
X0.8981Y-1.435
X1.095Y-1.435
X1.7631Y-1.18
X1.96Y-1.18
X1.14Y-0.8616
X1.14Y-0.96
X1.76Y-1.68
X1.9569Y-1.68
X0.94Y-2.02
X0.94Y-2.2169
T3
X1.32Y-2.34
X1.42Y-2.34
X1.52Y-2.34
X0.88Y-1.66
X0.88Y-1.76
X0.88Y-1.86
T4
X0.88Y-0.88
X1.96Y-2.48
T0
M30
