G04 #@! TF.GenerationSoftware,KiCad,Pcbnew,5.1.5-52549c5~84~ubuntu19.10.1*
G04 #@! TF.CreationDate,2020-04-03T18:50:05+02:00*
G04 #@! TF.ProjectId,OpenEMG2,4f70656e-454d-4473-922e-6b696361645f,G*
G04 #@! TF.SameCoordinates,Original*
G04 #@! TF.FileFunction,Copper,L1,Top*
G04 #@! TF.FilePolarity,Positive*
%FSLAX46Y46*%
G04 Gerber Fmt 4.6, Leading zero omitted, Abs format (unit mm)*
G04 Created by KiCad (PCBNEW 5.1.5-52549c5~84~ubuntu19.10.1) date 2020-04-03 18:50:05*
%MOMM*%
%LPD*%
G04 APERTURE LIST*
%ADD10C,0.150000*%
%ADD11C,1.600000*%
%ADD12C,1.440000*%
%ADD13O,1.400000X1.400000*%
%ADD14C,1.400000*%
%ADD15O,1.600000X1.600000*%
%ADD16R,1.600000X1.600000*%
%ADD17O,1.700000X1.700000*%
%ADD18R,1.700000X1.700000*%
%ADD19O,2.400000X1.600000*%
%ADD20R,2.400000X1.600000*%
%ADD21C,3.800000*%
%ADD22C,0.450000*%
%ADD23C,0.254000*%
G04 APERTURE END LIST*
D10*
X19050000Y-19050000D02*
X19050000Y-66040000D01*
X52705000Y-19050000D02*
X19050000Y-19050000D01*
X52705000Y-66040000D02*
X52705000Y-19050000D01*
X19050000Y-66040000D02*
X52705000Y-66040000D01*
D11*
X44784000Y-29972000D03*
X49784000Y-29972000D03*
X49704000Y-42672000D03*
X44704000Y-42672000D03*
X22813000Y-36449000D03*
X27813000Y-36449000D03*
X23876000Y-56308000D03*
X23876000Y-51308000D03*
D12*
X45212000Y-50292000D03*
X47752000Y-50292000D03*
X50292000Y-50292000D03*
D13*
X42672000Y-56388000D03*
D14*
X37592000Y-56388000D03*
D13*
X48768000Y-54356000D03*
D14*
X48768000Y-59436000D03*
D13*
X44196000Y-46228000D03*
D14*
X49276000Y-46228000D03*
D13*
X44323000Y-38354000D03*
D14*
X44323000Y-33274000D03*
D13*
X46863000Y-33274000D03*
D14*
X46863000Y-38354000D03*
D13*
X49784000Y-34036000D03*
D14*
X49784000Y-39116000D03*
D13*
X34798000Y-32004000D03*
D14*
X39878000Y-32004000D03*
D13*
X30353000Y-37084000D03*
D14*
X30353000Y-32004000D03*
D13*
X22098000Y-32004000D03*
D14*
X27178000Y-32004000D03*
D13*
X30480000Y-29464000D03*
D14*
X25400000Y-29464000D03*
D13*
X23368000Y-39624000D03*
D14*
X28448000Y-39624000D03*
D15*
X30480000Y-50292000D03*
D11*
X30480000Y-60452000D03*
D15*
X27432000Y-53340000D03*
D11*
X27432000Y-63500000D03*
D13*
X25400000Y-44704000D03*
D14*
X30480000Y-44704000D03*
D13*
X25400000Y-47244000D03*
D14*
X30480000Y-47244000D03*
D13*
X46228000Y-54356000D03*
D14*
X46228000Y-59436000D03*
D11*
X43180000Y-63460000D03*
D16*
X43180000Y-60960000D03*
D11*
X28956000Y-21884000D03*
D16*
X28956000Y-24384000D03*
D11*
X45720000Y-21884000D03*
D16*
X45720000Y-24384000D03*
D17*
X38608000Y-59436000D03*
X36068000Y-59436000D03*
D18*
X33528000Y-59436000D03*
D17*
X22352000Y-47244000D03*
X22352000Y-44704000D03*
D18*
X22352000Y-42164000D03*
D19*
X33528000Y-29464000D03*
X41148000Y-21844000D03*
X33528000Y-26924000D03*
X41148000Y-24384000D03*
X33528000Y-24384000D03*
X41148000Y-26924000D03*
X33528000Y-21844000D03*
D20*
X41148000Y-29464000D03*
D19*
X41148000Y-34544000D03*
X33528000Y-49784000D03*
X41148000Y-37084000D03*
X33528000Y-47244000D03*
X41148000Y-39624000D03*
X33528000Y-44704000D03*
X41148000Y-42164000D03*
X33528000Y-42164000D03*
X41148000Y-44704000D03*
X33528000Y-39624000D03*
X41148000Y-47244000D03*
X33528000Y-37084000D03*
X41148000Y-49784000D03*
D20*
X33528000Y-34544000D03*
D21*
X49784000Y-62992000D03*
X22352000Y-22352000D03*
D22*
X23876000Y-51308000D02*
X26416000Y-51308000D01*
X27432000Y-41068000D02*
X22813000Y-36449000D01*
X27432000Y-50292000D02*
X27432000Y-41068000D01*
X26416000Y-51308000D02*
X27432000Y-50292000D01*
X22813000Y-36449000D02*
X23368000Y-36449000D01*
X23368000Y-36449000D02*
X24638000Y-35179000D01*
X24638000Y-35179000D02*
X24638000Y-30734000D01*
X24638000Y-30734000D02*
X25400000Y-29464000D01*
X30480000Y-60452000D02*
X30480000Y-59944000D01*
X30480000Y-59944000D02*
X26844000Y-56308000D01*
X26844000Y-56308000D02*
X23876000Y-56308000D01*
X30480000Y-60452000D02*
X30480000Y-52832000D01*
X30480000Y-52832000D02*
X33528000Y-49784000D01*
X28448000Y-39624000D02*
X33528000Y-39624000D01*
X27813000Y-36449000D02*
X27813000Y-38989000D01*
X27813000Y-38989000D02*
X28448000Y-39624000D01*
X44704000Y-42672000D02*
X45212000Y-42672000D01*
X45212000Y-42672000D02*
X48768000Y-39116000D01*
X48768000Y-39116000D02*
X49784000Y-39116000D01*
X41148000Y-39624000D02*
X41656000Y-39624000D01*
X41656000Y-39624000D02*
X44704000Y-42672000D01*
X49784000Y-29972000D02*
X49276000Y-29972000D01*
X49276000Y-29972000D02*
X47244000Y-27940000D01*
X42672000Y-32004000D02*
X39878000Y-32004000D01*
X43180000Y-31496000D02*
X42672000Y-32004000D01*
X43180000Y-28956000D02*
X43180000Y-31496000D01*
X44196000Y-27940000D02*
X43180000Y-28956000D01*
X47244000Y-27940000D02*
X44196000Y-27940000D01*
X49784000Y-29972000D02*
X49784000Y-34036000D01*
X49784000Y-34036000D02*
X49911000Y-33147000D01*
X39878000Y-32004000D02*
X39878000Y-31369000D01*
X44323000Y-33274000D02*
X44323000Y-30433000D01*
X44323000Y-30433000D02*
X44784000Y-29972000D01*
X51308000Y-38100000D02*
X51308000Y-40640000D01*
X45212000Y-34544000D02*
X47244000Y-36576000D01*
X47244000Y-36576000D02*
X49784000Y-36576000D01*
X49784000Y-36576000D02*
X51308000Y-38100000D01*
X41148000Y-34544000D02*
X45212000Y-34544000D01*
X45212000Y-44704000D02*
X41148000Y-44704000D01*
X45720000Y-44196000D02*
X45212000Y-44704000D01*
X48768000Y-41148000D02*
X45720000Y-44196000D01*
X50800000Y-41148000D02*
X48768000Y-41148000D01*
X51308000Y-40640000D02*
X50800000Y-41148000D01*
X44323000Y-33274000D02*
X44323000Y-32639000D01*
X44323000Y-33909000D02*
X44323000Y-33274000D01*
X41148000Y-34544000D02*
X43053000Y-34544000D01*
X43053000Y-34544000D02*
X44323000Y-33274000D01*
X44403000Y-33194000D02*
X44323000Y-33274000D01*
X41148000Y-49784000D02*
X42164000Y-49784000D01*
X42164000Y-49784000D02*
X46228000Y-53848000D01*
X46228000Y-53848000D02*
X46228000Y-54356000D01*
X46228000Y-54356000D02*
X48768000Y-54356000D01*
X22352000Y-44704000D02*
X25400000Y-44704000D01*
X22352000Y-47244000D02*
X25400000Y-47244000D01*
X33528000Y-29464000D02*
X35560000Y-29464000D01*
X35560000Y-42164000D02*
X33528000Y-42164000D01*
X36576000Y-41148000D02*
X35560000Y-42164000D01*
X36576000Y-30480000D02*
X36576000Y-41148000D01*
X35560000Y-29464000D02*
X36576000Y-30480000D01*
X33528000Y-59436000D02*
X33528000Y-57404000D01*
X36068000Y-44704000D02*
X33528000Y-42164000D01*
X36068000Y-54864000D02*
X36068000Y-44704000D01*
X33528000Y-57404000D02*
X36068000Y-54864000D01*
X30480000Y-50292000D02*
X30480000Y-47244000D01*
X30226000Y-50038000D02*
X30480000Y-50292000D01*
X33528000Y-47244000D02*
X30480000Y-47244000D01*
X30480000Y-44704000D02*
X29972000Y-44704000D01*
X29972000Y-44704000D02*
X28448000Y-46228000D01*
X28448000Y-52324000D02*
X27432000Y-53340000D01*
X28448000Y-46228000D02*
X28448000Y-52324000D01*
X30480000Y-44704000D02*
X33528000Y-44704000D01*
X34798000Y-32004000D02*
X34798000Y-33274000D01*
X34798000Y-33274000D02*
X33528000Y-34544000D01*
X30353000Y-32004000D02*
X30988000Y-32004000D01*
X30988000Y-32004000D02*
X33528000Y-34544000D01*
X30480000Y-29464000D02*
X30480000Y-30099000D01*
X30480000Y-30099000D02*
X30353000Y-32004000D01*
X27178000Y-32004000D02*
X30353000Y-35179000D01*
X30353000Y-35179000D02*
X30353000Y-37084000D01*
X30353000Y-37084000D02*
X33528000Y-37084000D01*
X46863000Y-38354000D02*
X44323000Y-38354000D01*
X44323000Y-38354000D02*
X43053000Y-37084000D01*
X43053000Y-37084000D02*
X41148000Y-37084000D01*
X44196000Y-46228000D02*
X44196000Y-49276000D01*
X44196000Y-49276000D02*
X45212000Y-50292000D01*
X41148000Y-47244000D02*
X43180000Y-47244000D01*
X43180000Y-47244000D02*
X44196000Y-46228000D01*
X44196000Y-46228000D02*
X43688000Y-46228000D01*
X48768000Y-59436000D02*
X48768000Y-57404000D01*
X50292000Y-55880000D02*
X50292000Y-50292000D01*
X48768000Y-57404000D02*
X50292000Y-55880000D01*
X50292000Y-50292000D02*
X47752000Y-50292000D01*
X45720000Y-24384000D02*
X43688000Y-26416000D01*
X43688000Y-26416000D02*
X41656000Y-26416000D01*
X41656000Y-26416000D02*
X41148000Y-26924000D01*
X41148000Y-21844000D02*
X45680000Y-21844000D01*
X45680000Y-21844000D02*
X45720000Y-21884000D01*
X46228000Y-59436000D02*
X45720000Y-59436000D01*
X45720000Y-59436000D02*
X42672000Y-57404000D01*
X42672000Y-57404000D02*
X42672000Y-56388000D01*
X46228000Y-59436000D02*
X44196000Y-59436000D01*
X44196000Y-59436000D02*
X43180000Y-60960000D01*
X43180000Y-60960000D02*
X43688000Y-60960000D01*
X46228000Y-59436000D02*
X38608000Y-59436000D01*
X28956000Y-21884000D02*
X33488000Y-21884000D01*
X33488000Y-21884000D02*
X33528000Y-21844000D01*
X33528000Y-21844000D02*
X35052000Y-21844000D01*
X38100000Y-39116000D02*
X41148000Y-42164000D01*
X38100000Y-24892000D02*
X38100000Y-39116000D01*
X35052000Y-21844000D02*
X38100000Y-24892000D01*
D23*
G36*
X50856636Y-19829844D02*
G01*
X51161905Y-20056247D01*
X51443516Y-20311484D01*
X51698753Y-20593095D01*
X51925156Y-20898364D01*
X51995001Y-21014893D01*
X51995001Y-37581487D01*
X51919054Y-37488946D01*
X51886236Y-37462013D01*
X50421988Y-35997765D01*
X50395054Y-35964946D01*
X50264102Y-35857476D01*
X50114700Y-35777619D01*
X49952589Y-35728444D01*
X49826246Y-35716000D01*
X49826239Y-35716000D01*
X49784000Y-35711840D01*
X49741761Y-35716000D01*
X47600224Y-35716000D01*
X45849988Y-33965765D01*
X45823054Y-33932946D01*
X45692102Y-33825476D01*
X45567214Y-33758722D01*
X45606696Y-33663405D01*
X45658000Y-33405486D01*
X45658000Y-33142514D01*
X45606696Y-32884595D01*
X45506061Y-32641641D01*
X45359962Y-32422987D01*
X45183000Y-32246025D01*
X45183000Y-31355747D01*
X45202574Y-31351853D01*
X45463727Y-31243680D01*
X45698759Y-31086637D01*
X45898637Y-30886759D01*
X46055680Y-30651727D01*
X46163853Y-30390574D01*
X46219000Y-30113335D01*
X46219000Y-29830665D01*
X46163853Y-29553426D01*
X46055680Y-29292273D01*
X45898637Y-29057241D01*
X45698759Y-28857363D01*
X45612909Y-28800000D01*
X46887777Y-28800000D01*
X48385722Y-30297946D01*
X48404147Y-30390574D01*
X48512320Y-30651727D01*
X48669363Y-30886759D01*
X48869241Y-31086637D01*
X48924000Y-31123226D01*
X48924001Y-33008024D01*
X48747038Y-33184987D01*
X48600939Y-33403641D01*
X48500304Y-33646595D01*
X48449000Y-33904514D01*
X48449000Y-34167486D01*
X48500304Y-34425405D01*
X48600939Y-34668359D01*
X48747038Y-34887013D01*
X48932987Y-35072962D01*
X49151641Y-35219061D01*
X49394595Y-35319696D01*
X49652514Y-35371000D01*
X49915486Y-35371000D01*
X50173405Y-35319696D01*
X50416359Y-35219061D01*
X50635013Y-35072962D01*
X50820962Y-34887013D01*
X50967061Y-34668359D01*
X51067696Y-34425405D01*
X51119000Y-34167486D01*
X51119000Y-33904514D01*
X51067696Y-33646595D01*
X50967061Y-33403641D01*
X50820962Y-33184987D01*
X50772289Y-33136314D01*
X50773879Y-33099968D01*
X50748124Y-32932532D01*
X50690199Y-32773338D01*
X50644000Y-32697190D01*
X50644000Y-31123226D01*
X50698759Y-31086637D01*
X50898637Y-30886759D01*
X51055680Y-30651727D01*
X51163853Y-30390574D01*
X51219000Y-30113335D01*
X51219000Y-29830665D01*
X51163853Y-29553426D01*
X51055680Y-29292273D01*
X50898637Y-29057241D01*
X50698759Y-28857363D01*
X50463727Y-28700320D01*
X50202574Y-28592147D01*
X49925335Y-28537000D01*
X49642665Y-28537000D01*
X49365426Y-28592147D01*
X49186489Y-28666265D01*
X47881988Y-27361765D01*
X47855054Y-27328946D01*
X47724102Y-27221476D01*
X47574700Y-27141619D01*
X47412589Y-27092444D01*
X47286246Y-27080000D01*
X47286239Y-27080000D01*
X47244000Y-27075840D01*
X47201761Y-27080000D01*
X44238239Y-27080000D01*
X44234936Y-27079675D01*
X44299054Y-27027054D01*
X44325988Y-26994235D01*
X45498152Y-25822072D01*
X46520000Y-25822072D01*
X46644482Y-25809812D01*
X46764180Y-25773502D01*
X46874494Y-25714537D01*
X46971185Y-25635185D01*
X47050537Y-25538494D01*
X47109502Y-25428180D01*
X47145812Y-25308482D01*
X47158072Y-25184000D01*
X47158072Y-23584000D01*
X47145812Y-23459518D01*
X47109502Y-23339820D01*
X47050537Y-23229506D01*
X46971185Y-23132815D01*
X46874494Y-23053463D01*
X46764180Y-22994498D01*
X46668057Y-22965339D01*
X46834637Y-22798759D01*
X46991680Y-22563727D01*
X47099853Y-22302574D01*
X47155000Y-22025335D01*
X47155000Y-21742665D01*
X47099853Y-21465426D01*
X46991680Y-21204273D01*
X46834637Y-20969241D01*
X46634759Y-20769363D01*
X46399727Y-20612320D01*
X46138574Y-20504147D01*
X45861335Y-20449000D01*
X45578665Y-20449000D01*
X45301426Y-20504147D01*
X45040273Y-20612320D01*
X44805241Y-20769363D01*
X44605363Y-20969241D01*
X44595501Y-20984000D01*
X42698595Y-20984000D01*
X42567608Y-20824392D01*
X42349101Y-20645068D01*
X42099808Y-20511818D01*
X41829309Y-20429764D01*
X41618492Y-20409000D01*
X40677508Y-20409000D01*
X40466691Y-20429764D01*
X40196192Y-20511818D01*
X39946899Y-20645068D01*
X39728392Y-20824392D01*
X39549068Y-21042899D01*
X39415818Y-21292192D01*
X39333764Y-21562691D01*
X39306057Y-21844000D01*
X39333764Y-22125309D01*
X39415818Y-22395808D01*
X39549068Y-22645101D01*
X39728392Y-22863608D01*
X39946899Y-23042932D01*
X40196192Y-23176182D01*
X40466691Y-23258236D01*
X40677508Y-23279000D01*
X41618492Y-23279000D01*
X41829309Y-23258236D01*
X42099808Y-23176182D01*
X42349101Y-23042932D01*
X42567608Y-22863608D01*
X42698595Y-22704000D01*
X44542047Y-22704000D01*
X44605363Y-22798759D01*
X44771943Y-22965339D01*
X44675820Y-22994498D01*
X44565506Y-23053463D01*
X44468815Y-23132815D01*
X44389463Y-23229506D01*
X44330498Y-23339820D01*
X44294188Y-23459518D01*
X44281928Y-23584000D01*
X44281928Y-24605848D01*
X43331777Y-25556000D01*
X41981730Y-25556000D01*
X41829309Y-25509764D01*
X41618492Y-25489000D01*
X40677508Y-25489000D01*
X40466691Y-25509764D01*
X40196192Y-25591818D01*
X39946899Y-25725068D01*
X39728392Y-25904392D01*
X39549068Y-26122899D01*
X39415818Y-26372192D01*
X39333764Y-26642691D01*
X39306057Y-26924000D01*
X39333764Y-27205309D01*
X39415818Y-27475808D01*
X39549068Y-27725101D01*
X39728392Y-27943608D01*
X39841482Y-28036419D01*
X39823518Y-28038188D01*
X39703820Y-28074498D01*
X39593506Y-28133463D01*
X39496815Y-28212815D01*
X39417463Y-28309506D01*
X39358498Y-28419820D01*
X39322188Y-28539518D01*
X39309928Y-28664000D01*
X39309928Y-30264000D01*
X39322188Y-30388482D01*
X39358498Y-30508180D01*
X39417463Y-30618494D01*
X39429742Y-30633456D01*
X39397899Y-30650476D01*
X39266947Y-30757946D01*
X39178350Y-30865901D01*
X39026987Y-30967038D01*
X38960000Y-31034025D01*
X38960000Y-24934239D01*
X38964160Y-24892000D01*
X38960000Y-24849761D01*
X38960000Y-24849754D01*
X38947556Y-24723411D01*
X38898381Y-24561300D01*
X38818524Y-24411898D01*
X38711054Y-24280946D01*
X38678242Y-24254018D01*
X35689988Y-21265765D01*
X35663054Y-21232946D01*
X35532102Y-21125476D01*
X35382700Y-21045619D01*
X35220589Y-20996444D01*
X35094246Y-20984000D01*
X35094239Y-20984000D01*
X35077219Y-20982324D01*
X34947608Y-20824392D01*
X34729101Y-20645068D01*
X34479808Y-20511818D01*
X34209309Y-20429764D01*
X33998492Y-20409000D01*
X33057508Y-20409000D01*
X32846691Y-20429764D01*
X32576192Y-20511818D01*
X32326899Y-20645068D01*
X32108392Y-20824392D01*
X31944578Y-21024000D01*
X30107226Y-21024000D01*
X30070637Y-20969241D01*
X29870759Y-20769363D01*
X29635727Y-20612320D01*
X29374574Y-20504147D01*
X29097335Y-20449000D01*
X28814665Y-20449000D01*
X28537426Y-20504147D01*
X28276273Y-20612320D01*
X28041241Y-20769363D01*
X27841363Y-20969241D01*
X27684320Y-21204273D01*
X27576147Y-21465426D01*
X27521000Y-21742665D01*
X27521000Y-22025335D01*
X27576147Y-22302574D01*
X27684320Y-22563727D01*
X27841363Y-22798759D01*
X28041241Y-22998637D01*
X28276273Y-23155680D01*
X28537426Y-23263853D01*
X28814665Y-23319000D01*
X29097335Y-23319000D01*
X29374574Y-23263853D01*
X29635727Y-23155680D01*
X29870759Y-22998637D01*
X30070637Y-22798759D01*
X30107226Y-22744000D01*
X32010232Y-22744000D01*
X32108392Y-22863608D01*
X32326899Y-23042932D01*
X32459858Y-23114000D01*
X32326899Y-23185068D01*
X32108392Y-23364392D01*
X31929068Y-23582899D01*
X31795818Y-23832192D01*
X31713764Y-24102691D01*
X31686057Y-24384000D01*
X31713764Y-24665309D01*
X31795818Y-24935808D01*
X31929068Y-25185101D01*
X32108392Y-25403608D01*
X32326899Y-25582932D01*
X32459858Y-25654000D01*
X32326899Y-25725068D01*
X32108392Y-25904392D01*
X31929068Y-26122899D01*
X31795818Y-26372192D01*
X31713764Y-26642691D01*
X31686057Y-26924000D01*
X31713764Y-27205309D01*
X31795818Y-27475808D01*
X31929068Y-27725101D01*
X32108392Y-27943608D01*
X32326899Y-28122932D01*
X32459858Y-28194000D01*
X32326899Y-28265068D01*
X32108392Y-28444392D01*
X31929068Y-28662899D01*
X31795818Y-28912192D01*
X31753801Y-29050706D01*
X31663061Y-28831641D01*
X31516962Y-28612987D01*
X31331013Y-28427038D01*
X31112359Y-28280939D01*
X30869405Y-28180304D01*
X30611486Y-28129000D01*
X30348514Y-28129000D01*
X30090595Y-28180304D01*
X29847641Y-28280939D01*
X29628987Y-28427038D01*
X29443038Y-28612987D01*
X29296939Y-28831641D01*
X29196304Y-29074595D01*
X29145000Y-29332514D01*
X29145000Y-29595486D01*
X29196304Y-29853405D01*
X29296939Y-30096359D01*
X29443038Y-30315013D01*
X29593650Y-30465625D01*
X29562937Y-30926313D01*
X29501987Y-30967038D01*
X29316038Y-31152987D01*
X29169939Y-31371641D01*
X29069304Y-31614595D01*
X29018000Y-31872514D01*
X29018000Y-32135486D01*
X29069304Y-32393405D01*
X29169939Y-32636359D01*
X29316038Y-32855013D01*
X29501987Y-33040962D01*
X29720641Y-33187061D01*
X29963595Y-33287696D01*
X30221514Y-33339000D01*
X30484486Y-33339000D01*
X30742405Y-33287696D01*
X30963777Y-33196000D01*
X31689928Y-33922151D01*
X31689928Y-35344000D01*
X31702188Y-35468482D01*
X31738498Y-35588180D01*
X31797463Y-35698494D01*
X31876815Y-35795185D01*
X31973506Y-35874537D01*
X32083820Y-35933502D01*
X32203518Y-35969812D01*
X32221482Y-35971581D01*
X32108392Y-36064392D01*
X31977405Y-36224000D01*
X31380975Y-36224000D01*
X31213000Y-36056025D01*
X31213000Y-35221238D01*
X31217160Y-35178999D01*
X31213000Y-35136760D01*
X31213000Y-35136754D01*
X31201904Y-35024101D01*
X31200556Y-35010410D01*
X31185639Y-34961235D01*
X31151381Y-34848300D01*
X31071524Y-34698898D01*
X30964054Y-34567946D01*
X30931240Y-34541016D01*
X28513000Y-32122777D01*
X28513000Y-31872514D01*
X28461696Y-31614595D01*
X28361061Y-31371641D01*
X28214962Y-31152987D01*
X28029013Y-30967038D01*
X27810359Y-30820939D01*
X27567405Y-30720304D01*
X27309486Y-30669000D01*
X27046514Y-30669000D01*
X26788595Y-30720304D01*
X26545641Y-30820939D01*
X26326987Y-30967038D01*
X26141038Y-31152987D01*
X25994939Y-31371641D01*
X25894304Y-31614595D01*
X25843000Y-31872514D01*
X25843000Y-32135486D01*
X25894304Y-32393405D01*
X25994939Y-32636359D01*
X26141038Y-32855013D01*
X26326987Y-33040962D01*
X26545641Y-33187061D01*
X26788595Y-33287696D01*
X27046514Y-33339000D01*
X27296777Y-33339000D01*
X29493000Y-35535224D01*
X29493000Y-36056025D01*
X29316038Y-36232987D01*
X29248000Y-36334814D01*
X29248000Y-36307665D01*
X29192853Y-36030426D01*
X29084680Y-35769273D01*
X28927637Y-35534241D01*
X28727759Y-35334363D01*
X28492727Y-35177320D01*
X28231574Y-35069147D01*
X27954335Y-35014000D01*
X27671665Y-35014000D01*
X27394426Y-35069147D01*
X27133273Y-35177320D01*
X26898241Y-35334363D01*
X26698363Y-35534241D01*
X26541320Y-35769273D01*
X26433147Y-36030426D01*
X26378000Y-36307665D01*
X26378000Y-36590335D01*
X26433147Y-36867574D01*
X26541320Y-37128727D01*
X26698363Y-37363759D01*
X26898241Y-37563637D01*
X26953000Y-37600226D01*
X26953001Y-38946752D01*
X26948840Y-38989000D01*
X26965444Y-39157589D01*
X26988804Y-39234595D01*
X27014620Y-39319700D01*
X27094477Y-39469102D01*
X27113135Y-39491836D01*
X27113000Y-39492514D01*
X27113000Y-39532777D01*
X24306723Y-36726500D01*
X25216242Y-35816982D01*
X25249054Y-35790054D01*
X25356524Y-35659102D01*
X25436381Y-35509700D01*
X25472219Y-35391556D01*
X25485556Y-35347590D01*
X25493934Y-35262523D01*
X25498000Y-35221246D01*
X25498000Y-35221240D01*
X25502160Y-35179001D01*
X25498000Y-35136762D01*
X25498000Y-30972205D01*
X25611469Y-30783090D01*
X25789405Y-30747696D01*
X26032359Y-30647061D01*
X26251013Y-30500962D01*
X26436962Y-30315013D01*
X26583061Y-30096359D01*
X26683696Y-29853405D01*
X26735000Y-29595486D01*
X26735000Y-29332514D01*
X26683696Y-29074595D01*
X26583061Y-28831641D01*
X26436962Y-28612987D01*
X26251013Y-28427038D01*
X26032359Y-28280939D01*
X25789405Y-28180304D01*
X25531486Y-28129000D01*
X25268514Y-28129000D01*
X25010595Y-28180304D01*
X24767641Y-28280939D01*
X24548987Y-28427038D01*
X24363038Y-28612987D01*
X24216939Y-28831641D01*
X24116304Y-29074595D01*
X24065000Y-29332514D01*
X24065000Y-29595486D01*
X24116304Y-29853405D01*
X24135552Y-29899874D01*
X23933092Y-30237308D01*
X23919477Y-30253898D01*
X23889595Y-30309803D01*
X23878821Y-30327760D01*
X23869691Y-30347042D01*
X23839620Y-30403300D01*
X23833504Y-30423461D01*
X23824489Y-30442500D01*
X23808960Y-30504374D01*
X23790445Y-30565411D01*
X23788380Y-30586372D01*
X23783251Y-30606810D01*
X23780091Y-30670533D01*
X23778001Y-30691754D01*
X23778001Y-30712684D01*
X23774861Y-30776006D01*
X23778001Y-30797241D01*
X23778000Y-34822776D01*
X23443745Y-35157031D01*
X23231574Y-35069147D01*
X22954335Y-35014000D01*
X22671665Y-35014000D01*
X22394426Y-35069147D01*
X22133273Y-35177320D01*
X21898241Y-35334363D01*
X21698363Y-35534241D01*
X21541320Y-35769273D01*
X21433147Y-36030426D01*
X21378000Y-36307665D01*
X21378000Y-36590335D01*
X21433147Y-36867574D01*
X21541320Y-37128727D01*
X21698363Y-37363759D01*
X21898241Y-37563637D01*
X22133273Y-37720680D01*
X22394426Y-37828853D01*
X22671665Y-37884000D01*
X22954335Y-37884000D01*
X23018928Y-37871151D01*
X26572001Y-41424224D01*
X26572001Y-44055088D01*
X26436962Y-43852987D01*
X26251013Y-43667038D01*
X26032359Y-43520939D01*
X25789405Y-43420304D01*
X25531486Y-43369000D01*
X25268514Y-43369000D01*
X25010595Y-43420304D01*
X24767641Y-43520939D01*
X24548987Y-43667038D01*
X24372025Y-43844000D01*
X23563361Y-43844000D01*
X23505475Y-43757368D01*
X23298632Y-43550525D01*
X23055411Y-43388010D01*
X22785158Y-43276068D01*
X22498260Y-43219000D01*
X22205740Y-43219000D01*
X21918842Y-43276068D01*
X21648589Y-43388010D01*
X21405368Y-43550525D01*
X21198525Y-43757368D01*
X21036010Y-44000589D01*
X20924068Y-44270842D01*
X20867000Y-44557740D01*
X20867000Y-44850260D01*
X20924068Y-45137158D01*
X21036010Y-45407411D01*
X21198525Y-45650632D01*
X21405368Y-45857475D01*
X21579760Y-45974000D01*
X21405368Y-46090525D01*
X21198525Y-46297368D01*
X21036010Y-46540589D01*
X20924068Y-46810842D01*
X20867000Y-47097740D01*
X20867000Y-47390260D01*
X20924068Y-47677158D01*
X21036010Y-47947411D01*
X21198525Y-48190632D01*
X21405368Y-48397475D01*
X21648589Y-48559990D01*
X21918842Y-48671932D01*
X22205740Y-48729000D01*
X22498260Y-48729000D01*
X22785158Y-48671932D01*
X23055411Y-48559990D01*
X23298632Y-48397475D01*
X23505475Y-48190632D01*
X23563361Y-48104000D01*
X24372025Y-48104000D01*
X24548987Y-48280962D01*
X24767641Y-48427061D01*
X25010595Y-48527696D01*
X25268514Y-48579000D01*
X25531486Y-48579000D01*
X25789405Y-48527696D01*
X26032359Y-48427061D01*
X26251013Y-48280962D01*
X26436962Y-48095013D01*
X26572000Y-47892913D01*
X26572000Y-49935776D01*
X26059777Y-50448000D01*
X25027226Y-50448000D01*
X24990637Y-50393241D01*
X24790759Y-50193363D01*
X24555727Y-50036320D01*
X24294574Y-49928147D01*
X24017335Y-49873000D01*
X23734665Y-49873000D01*
X23457426Y-49928147D01*
X23196273Y-50036320D01*
X22961241Y-50193363D01*
X22761363Y-50393241D01*
X22604320Y-50628273D01*
X22496147Y-50889426D01*
X22441000Y-51166665D01*
X22441000Y-51449335D01*
X22496147Y-51726574D01*
X22604320Y-51987727D01*
X22761363Y-52222759D01*
X22961241Y-52422637D01*
X23196273Y-52579680D01*
X23457426Y-52687853D01*
X23734665Y-52743000D01*
X24017335Y-52743000D01*
X24294574Y-52687853D01*
X24555727Y-52579680D01*
X24790759Y-52422637D01*
X24990637Y-52222759D01*
X25027226Y-52168000D01*
X26373761Y-52168000D01*
X26416000Y-52172160D01*
X26458239Y-52168000D01*
X26458246Y-52168000D01*
X26584589Y-52155556D01*
X26652583Y-52134931D01*
X26517241Y-52225363D01*
X26317363Y-52425241D01*
X26160320Y-52660273D01*
X26052147Y-52921426D01*
X25997000Y-53198665D01*
X25997000Y-53481335D01*
X26052147Y-53758574D01*
X26160320Y-54019727D01*
X26317363Y-54254759D01*
X26517241Y-54454637D01*
X26752273Y-54611680D01*
X27013426Y-54719853D01*
X27290665Y-54775000D01*
X27573335Y-54775000D01*
X27850574Y-54719853D01*
X28111727Y-54611680D01*
X28346759Y-54454637D01*
X28546637Y-54254759D01*
X28703680Y-54019727D01*
X28811853Y-53758574D01*
X28867000Y-53481335D01*
X28867000Y-53198665D01*
X28854152Y-53134072D01*
X29026240Y-52961984D01*
X29059054Y-52935054D01*
X29166524Y-52804102D01*
X29246381Y-52654700D01*
X29295556Y-52492589D01*
X29308000Y-52366246D01*
X29308000Y-52366239D01*
X29312160Y-52324000D01*
X29308000Y-52281761D01*
X29308000Y-51120909D01*
X29365363Y-51206759D01*
X29565241Y-51406637D01*
X29800273Y-51563680D01*
X30061426Y-51671853D01*
X30338665Y-51727000D01*
X30368777Y-51727000D01*
X29901760Y-52194017D01*
X29868947Y-52220946D01*
X29842018Y-52253759D01*
X29842016Y-52253761D01*
X29761477Y-52351898D01*
X29681620Y-52501300D01*
X29632444Y-52663411D01*
X29615840Y-52832000D01*
X29620001Y-52874249D01*
X29620000Y-57867777D01*
X27481988Y-55729765D01*
X27455054Y-55696946D01*
X27324102Y-55589476D01*
X27174700Y-55509619D01*
X27012589Y-55460444D01*
X26886246Y-55448000D01*
X26886239Y-55448000D01*
X26844000Y-55443840D01*
X26801761Y-55448000D01*
X25027226Y-55448000D01*
X24990637Y-55393241D01*
X24790759Y-55193363D01*
X24555727Y-55036320D01*
X24294574Y-54928147D01*
X24017335Y-54873000D01*
X23734665Y-54873000D01*
X23457426Y-54928147D01*
X23196273Y-55036320D01*
X22961241Y-55193363D01*
X22761363Y-55393241D01*
X22604320Y-55628273D01*
X22496147Y-55889426D01*
X22441000Y-56166665D01*
X22441000Y-56449335D01*
X22496147Y-56726574D01*
X22604320Y-56987727D01*
X22761363Y-57222759D01*
X22961241Y-57422637D01*
X23196273Y-57579680D01*
X23457426Y-57687853D01*
X23734665Y-57743000D01*
X24017335Y-57743000D01*
X24294574Y-57687853D01*
X24555727Y-57579680D01*
X24790759Y-57422637D01*
X24990637Y-57222759D01*
X25027226Y-57168000D01*
X26487777Y-57168000D01*
X29174265Y-59854489D01*
X29100147Y-60033426D01*
X29045000Y-60310665D01*
X29045000Y-60593335D01*
X29100147Y-60870574D01*
X29208320Y-61131727D01*
X29365363Y-61366759D01*
X29565241Y-61566637D01*
X29800273Y-61723680D01*
X30061426Y-61831853D01*
X30338665Y-61887000D01*
X30621335Y-61887000D01*
X30898574Y-61831853D01*
X31159727Y-61723680D01*
X31394759Y-61566637D01*
X31594637Y-61366759D01*
X31751680Y-61131727D01*
X31859853Y-60870574D01*
X31915000Y-60593335D01*
X31915000Y-60310665D01*
X31859853Y-60033426D01*
X31751680Y-59772273D01*
X31594637Y-59537241D01*
X31394759Y-59337363D01*
X31340000Y-59300774D01*
X31340000Y-53188223D01*
X33309224Y-51219000D01*
X33998492Y-51219000D01*
X34209309Y-51198236D01*
X34479808Y-51116182D01*
X34729101Y-50982932D01*
X34947608Y-50803608D01*
X35126932Y-50585101D01*
X35208000Y-50433433D01*
X35208000Y-54507777D01*
X32949760Y-56766017D01*
X32916947Y-56792946D01*
X32890018Y-56825759D01*
X32890016Y-56825761D01*
X32809477Y-56923898D01*
X32729620Y-57073300D01*
X32680444Y-57235411D01*
X32663840Y-57404000D01*
X32668001Y-57446245D01*
X32668001Y-57948913D01*
X32553518Y-57960188D01*
X32433820Y-57996498D01*
X32323506Y-58055463D01*
X32226815Y-58134815D01*
X32147463Y-58231506D01*
X32088498Y-58341820D01*
X32052188Y-58461518D01*
X32039928Y-58586000D01*
X32039928Y-60286000D01*
X32052188Y-60410482D01*
X32088498Y-60530180D01*
X32147463Y-60640494D01*
X32226815Y-60737185D01*
X32323506Y-60816537D01*
X32433820Y-60875502D01*
X32553518Y-60911812D01*
X32678000Y-60924072D01*
X34378000Y-60924072D01*
X34502482Y-60911812D01*
X34622180Y-60875502D01*
X34732494Y-60816537D01*
X34829185Y-60737185D01*
X34908537Y-60640494D01*
X34967502Y-60530180D01*
X35003812Y-60410482D01*
X35016072Y-60286000D01*
X35016072Y-58586000D01*
X35003812Y-58461518D01*
X34967502Y-58341820D01*
X34908537Y-58231506D01*
X34829185Y-58134815D01*
X34732494Y-58055463D01*
X34622180Y-57996498D01*
X34502482Y-57960188D01*
X34388000Y-57948913D01*
X34388000Y-57760223D01*
X36646236Y-55501987D01*
X36679054Y-55475054D01*
X36786524Y-55344102D01*
X36866381Y-55194700D01*
X36900683Y-55081620D01*
X36915556Y-55032591D01*
X36922011Y-54967054D01*
X36928000Y-54906246D01*
X36928000Y-54906240D01*
X36932160Y-54864001D01*
X36928000Y-54821762D01*
X36928000Y-44746238D01*
X36932160Y-44703999D01*
X36928000Y-44661760D01*
X36928000Y-44661754D01*
X36915556Y-44535411D01*
X36915556Y-44535409D01*
X36881363Y-44422691D01*
X36866381Y-44373300D01*
X36786524Y-44223898D01*
X36679054Y-44092946D01*
X36646235Y-44066012D01*
X35604046Y-43023823D01*
X35728589Y-43011556D01*
X35890700Y-42962381D01*
X36040102Y-42882524D01*
X36171054Y-42775054D01*
X36197988Y-42742235D01*
X37154240Y-41785984D01*
X37187054Y-41759054D01*
X37294524Y-41628102D01*
X37374381Y-41478700D01*
X37423556Y-41316589D01*
X37436000Y-41190246D01*
X37436000Y-41190239D01*
X37440160Y-41148000D01*
X37436000Y-41105761D01*
X37436000Y-39662538D01*
X37457717Y-39689000D01*
X37488947Y-39727054D01*
X37521760Y-39753983D01*
X39407474Y-41639698D01*
X39333764Y-41882691D01*
X39306057Y-42164000D01*
X39333764Y-42445309D01*
X39415818Y-42715808D01*
X39549068Y-42965101D01*
X39728392Y-43183608D01*
X39946899Y-43362932D01*
X40079858Y-43434000D01*
X39946899Y-43505068D01*
X39728392Y-43684392D01*
X39549068Y-43902899D01*
X39415818Y-44152192D01*
X39333764Y-44422691D01*
X39306057Y-44704000D01*
X39333764Y-44985309D01*
X39415818Y-45255808D01*
X39549068Y-45505101D01*
X39728392Y-45723608D01*
X39946899Y-45902932D01*
X40079858Y-45974000D01*
X39946899Y-46045068D01*
X39728392Y-46224392D01*
X39549068Y-46442899D01*
X39415818Y-46692192D01*
X39333764Y-46962691D01*
X39306057Y-47244000D01*
X39333764Y-47525309D01*
X39415818Y-47795808D01*
X39549068Y-48045101D01*
X39728392Y-48263608D01*
X39946899Y-48442932D01*
X40079858Y-48514000D01*
X39946899Y-48585068D01*
X39728392Y-48764392D01*
X39549068Y-48982899D01*
X39415818Y-49232192D01*
X39333764Y-49502691D01*
X39306057Y-49784000D01*
X39333764Y-50065309D01*
X39415818Y-50335808D01*
X39549068Y-50585101D01*
X39728392Y-50803608D01*
X39946899Y-50982932D01*
X40196192Y-51116182D01*
X40466691Y-51198236D01*
X40677508Y-51219000D01*
X41618492Y-51219000D01*
X41829309Y-51198236D01*
X42099808Y-51116182D01*
X42217207Y-51053431D01*
X44998802Y-53835026D01*
X44944304Y-53966595D01*
X44893000Y-54224514D01*
X44893000Y-54487486D01*
X44944304Y-54745405D01*
X45044939Y-54988359D01*
X45191038Y-55207013D01*
X45376987Y-55392962D01*
X45595641Y-55539061D01*
X45838595Y-55639696D01*
X46096514Y-55691000D01*
X46359486Y-55691000D01*
X46617405Y-55639696D01*
X46860359Y-55539061D01*
X47079013Y-55392962D01*
X47255975Y-55216000D01*
X47740025Y-55216000D01*
X47916987Y-55392962D01*
X48135641Y-55539061D01*
X48378595Y-55639696D01*
X48636514Y-55691000D01*
X48899486Y-55691000D01*
X49157405Y-55639696D01*
X49400359Y-55539061D01*
X49432000Y-55517919D01*
X49432000Y-55523777D01*
X48189760Y-56766017D01*
X48156947Y-56792946D01*
X48130018Y-56825759D01*
X48130016Y-56825761D01*
X48049477Y-56923898D01*
X47969620Y-57073300D01*
X47920444Y-57235411D01*
X47903840Y-57404000D01*
X47908001Y-57446245D01*
X47908001Y-58408024D01*
X47731038Y-58584987D01*
X47584939Y-58803641D01*
X47498000Y-59013530D01*
X47411061Y-58803641D01*
X47264962Y-58584987D01*
X47079013Y-58399038D01*
X46860359Y-58252939D01*
X46617405Y-58152304D01*
X46359486Y-58101000D01*
X46096514Y-58101000D01*
X45838595Y-58152304D01*
X45595641Y-58252939D01*
X45545775Y-58286258D01*
X43790919Y-57116355D01*
X43855061Y-57020359D01*
X43955696Y-56777405D01*
X44007000Y-56519486D01*
X44007000Y-56256514D01*
X43955696Y-55998595D01*
X43855061Y-55755641D01*
X43708962Y-55536987D01*
X43523013Y-55351038D01*
X43304359Y-55204939D01*
X43061405Y-55104304D01*
X42803486Y-55053000D01*
X42540514Y-55053000D01*
X42282595Y-55104304D01*
X42039641Y-55204939D01*
X41820987Y-55351038D01*
X41635038Y-55536987D01*
X41488939Y-55755641D01*
X41388304Y-55998595D01*
X41337000Y-56256514D01*
X41337000Y-56519486D01*
X41388304Y-56777405D01*
X41488939Y-57020359D01*
X41635038Y-57239013D01*
X41808604Y-57412579D01*
X41816157Y-57488446D01*
X41824444Y-57572588D01*
X41824576Y-57573023D01*
X41824621Y-57573475D01*
X41849115Y-57653918D01*
X41873619Y-57734699D01*
X41873834Y-57735101D01*
X41873966Y-57735535D01*
X41913734Y-57809749D01*
X41953476Y-57884101D01*
X41953764Y-57884452D01*
X41953979Y-57884853D01*
X42007255Y-57949631D01*
X42060946Y-58015054D01*
X42061301Y-58015345D01*
X42061586Y-58015692D01*
X42125956Y-58068406D01*
X42191898Y-58122524D01*
X42229745Y-58142753D01*
X42879614Y-58576000D01*
X39819361Y-58576000D01*
X39761475Y-58489368D01*
X39554632Y-58282525D01*
X39311411Y-58120010D01*
X39041158Y-58008068D01*
X38754260Y-57951000D01*
X38461740Y-57951000D01*
X38174842Y-58008068D01*
X37904589Y-58120010D01*
X37661368Y-58282525D01*
X37454525Y-58489368D01*
X37292010Y-58732589D01*
X37180068Y-59002842D01*
X37123000Y-59289740D01*
X37123000Y-59582260D01*
X37180068Y-59869158D01*
X37292010Y-60139411D01*
X37454525Y-60382632D01*
X37661368Y-60589475D01*
X37904589Y-60751990D01*
X38174842Y-60863932D01*
X38461740Y-60921000D01*
X38754260Y-60921000D01*
X39041158Y-60863932D01*
X39311411Y-60751990D01*
X39554632Y-60589475D01*
X39761475Y-60382632D01*
X39819361Y-60296000D01*
X41741928Y-60296000D01*
X41741928Y-61760000D01*
X41754188Y-61884482D01*
X41790498Y-62004180D01*
X41849463Y-62114494D01*
X41928815Y-62211185D01*
X42025506Y-62290537D01*
X42135820Y-62349502D01*
X42255518Y-62385812D01*
X42380000Y-62398072D01*
X43980000Y-62398072D01*
X44104482Y-62385812D01*
X44224180Y-62349502D01*
X44334494Y-62290537D01*
X44431185Y-62211185D01*
X44510537Y-62114494D01*
X44569502Y-62004180D01*
X44605812Y-61884482D01*
X44618072Y-61760000D01*
X44618072Y-60353279D01*
X44656258Y-60296000D01*
X45200025Y-60296000D01*
X45376987Y-60472962D01*
X45595641Y-60619061D01*
X45838595Y-60719696D01*
X46096514Y-60771000D01*
X46359486Y-60771000D01*
X46617405Y-60719696D01*
X46860359Y-60619061D01*
X47079013Y-60472962D01*
X47264962Y-60287013D01*
X47411061Y-60068359D01*
X47498000Y-59858470D01*
X47584939Y-60068359D01*
X47731038Y-60287013D01*
X47916987Y-60472962D01*
X48135641Y-60619061D01*
X48378595Y-60719696D01*
X48636514Y-60771000D01*
X48899486Y-60771000D01*
X49157405Y-60719696D01*
X49400359Y-60619061D01*
X49619013Y-60472962D01*
X49804962Y-60287013D01*
X49951061Y-60068359D01*
X50051696Y-59825405D01*
X50103000Y-59567486D01*
X50103000Y-59304514D01*
X50051696Y-59046595D01*
X49951061Y-58803641D01*
X49804962Y-58584987D01*
X49628000Y-58408025D01*
X49628000Y-57760223D01*
X50870236Y-56517987D01*
X50903054Y-56491054D01*
X51010524Y-56360102D01*
X51090381Y-56210700D01*
X51136914Y-56057300D01*
X51139556Y-56048591D01*
X51144480Y-55998595D01*
X51152000Y-55922246D01*
X51152000Y-55922240D01*
X51156160Y-55880001D01*
X51152000Y-55837762D01*
X51152000Y-51347011D01*
X51155762Y-51344497D01*
X51344497Y-51155762D01*
X51492785Y-50933833D01*
X51594928Y-50687239D01*
X51647000Y-50425456D01*
X51647000Y-50158544D01*
X51594928Y-49896761D01*
X51492785Y-49650167D01*
X51344497Y-49428238D01*
X51155762Y-49239503D01*
X50933833Y-49091215D01*
X50687239Y-48989072D01*
X50425456Y-48937000D01*
X50158544Y-48937000D01*
X49896761Y-48989072D01*
X49650167Y-49091215D01*
X49428238Y-49239503D01*
X49239503Y-49428238D01*
X49236989Y-49432000D01*
X48807011Y-49432000D01*
X48804497Y-49428238D01*
X48615762Y-49239503D01*
X48393833Y-49091215D01*
X48147239Y-48989072D01*
X47885456Y-48937000D01*
X47618544Y-48937000D01*
X47356761Y-48989072D01*
X47110167Y-49091215D01*
X46888238Y-49239503D01*
X46699503Y-49428238D01*
X46551215Y-49650167D01*
X46482000Y-49817266D01*
X46412785Y-49650167D01*
X46264497Y-49428238D01*
X46075762Y-49239503D01*
X45853833Y-49091215D01*
X45607239Y-48989072D01*
X45345456Y-48937000D01*
X45078544Y-48937000D01*
X45074106Y-48937883D01*
X45056000Y-48919777D01*
X45056000Y-47255975D01*
X45232962Y-47079013D01*
X45379061Y-46860359D01*
X45479696Y-46617405D01*
X45531000Y-46359486D01*
X45531000Y-46096514D01*
X45479696Y-45838595D01*
X45379061Y-45595641D01*
X45351518Y-45554419D01*
X45380589Y-45551556D01*
X45542700Y-45502381D01*
X45692102Y-45422524D01*
X45823054Y-45315054D01*
X45849988Y-45282235D01*
X46298234Y-44833988D01*
X46298239Y-44833984D01*
X49124224Y-42008000D01*
X50757761Y-42008000D01*
X50800000Y-42012160D01*
X50842239Y-42008000D01*
X50842246Y-42008000D01*
X50968589Y-41995556D01*
X51130700Y-41946381D01*
X51280102Y-41866524D01*
X51411054Y-41759054D01*
X51437988Y-41726235D01*
X51886230Y-41277992D01*
X51919054Y-41251054D01*
X51995001Y-41158513D01*
X51995000Y-64075109D01*
X51925156Y-64191636D01*
X51698753Y-64496905D01*
X51443516Y-64778516D01*
X51161905Y-65033753D01*
X50856636Y-65260156D01*
X50740109Y-65330000D01*
X21014891Y-65330000D01*
X20898364Y-65260156D01*
X20593095Y-65033753D01*
X20311484Y-64778516D01*
X20056247Y-64496905D01*
X19829844Y-64191636D01*
X19760000Y-64075109D01*
X19760000Y-21014891D01*
X19829844Y-20898364D01*
X20056247Y-20593095D01*
X20311484Y-20311484D01*
X20593095Y-20056247D01*
X20898364Y-19829844D01*
X21014891Y-19760000D01*
X50740109Y-19760000D01*
X50856636Y-19829844D01*
G37*
X50856636Y-19829844D02*
X51161905Y-20056247D01*
X51443516Y-20311484D01*
X51698753Y-20593095D01*
X51925156Y-20898364D01*
X51995001Y-21014893D01*
X51995001Y-37581487D01*
X51919054Y-37488946D01*
X51886236Y-37462013D01*
X50421988Y-35997765D01*
X50395054Y-35964946D01*
X50264102Y-35857476D01*
X50114700Y-35777619D01*
X49952589Y-35728444D01*
X49826246Y-35716000D01*
X49826239Y-35716000D01*
X49784000Y-35711840D01*
X49741761Y-35716000D01*
X47600224Y-35716000D01*
X45849988Y-33965765D01*
X45823054Y-33932946D01*
X45692102Y-33825476D01*
X45567214Y-33758722D01*
X45606696Y-33663405D01*
X45658000Y-33405486D01*
X45658000Y-33142514D01*
X45606696Y-32884595D01*
X45506061Y-32641641D01*
X45359962Y-32422987D01*
X45183000Y-32246025D01*
X45183000Y-31355747D01*
X45202574Y-31351853D01*
X45463727Y-31243680D01*
X45698759Y-31086637D01*
X45898637Y-30886759D01*
X46055680Y-30651727D01*
X46163853Y-30390574D01*
X46219000Y-30113335D01*
X46219000Y-29830665D01*
X46163853Y-29553426D01*
X46055680Y-29292273D01*
X45898637Y-29057241D01*
X45698759Y-28857363D01*
X45612909Y-28800000D01*
X46887777Y-28800000D01*
X48385722Y-30297946D01*
X48404147Y-30390574D01*
X48512320Y-30651727D01*
X48669363Y-30886759D01*
X48869241Y-31086637D01*
X48924000Y-31123226D01*
X48924001Y-33008024D01*
X48747038Y-33184987D01*
X48600939Y-33403641D01*
X48500304Y-33646595D01*
X48449000Y-33904514D01*
X48449000Y-34167486D01*
X48500304Y-34425405D01*
X48600939Y-34668359D01*
X48747038Y-34887013D01*
X48932987Y-35072962D01*
X49151641Y-35219061D01*
X49394595Y-35319696D01*
X49652514Y-35371000D01*
X49915486Y-35371000D01*
X50173405Y-35319696D01*
X50416359Y-35219061D01*
X50635013Y-35072962D01*
X50820962Y-34887013D01*
X50967061Y-34668359D01*
X51067696Y-34425405D01*
X51119000Y-34167486D01*
X51119000Y-33904514D01*
X51067696Y-33646595D01*
X50967061Y-33403641D01*
X50820962Y-33184987D01*
X50772289Y-33136314D01*
X50773879Y-33099968D01*
X50748124Y-32932532D01*
X50690199Y-32773338D01*
X50644000Y-32697190D01*
X50644000Y-31123226D01*
X50698759Y-31086637D01*
X50898637Y-30886759D01*
X51055680Y-30651727D01*
X51163853Y-30390574D01*
X51219000Y-30113335D01*
X51219000Y-29830665D01*
X51163853Y-29553426D01*
X51055680Y-29292273D01*
X50898637Y-29057241D01*
X50698759Y-28857363D01*
X50463727Y-28700320D01*
X50202574Y-28592147D01*
X49925335Y-28537000D01*
X49642665Y-28537000D01*
X49365426Y-28592147D01*
X49186489Y-28666265D01*
X47881988Y-27361765D01*
X47855054Y-27328946D01*
X47724102Y-27221476D01*
X47574700Y-27141619D01*
X47412589Y-27092444D01*
X47286246Y-27080000D01*
X47286239Y-27080000D01*
X47244000Y-27075840D01*
X47201761Y-27080000D01*
X44238239Y-27080000D01*
X44234936Y-27079675D01*
X44299054Y-27027054D01*
X44325988Y-26994235D01*
X45498152Y-25822072D01*
X46520000Y-25822072D01*
X46644482Y-25809812D01*
X46764180Y-25773502D01*
X46874494Y-25714537D01*
X46971185Y-25635185D01*
X47050537Y-25538494D01*
X47109502Y-25428180D01*
X47145812Y-25308482D01*
X47158072Y-25184000D01*
X47158072Y-23584000D01*
X47145812Y-23459518D01*
X47109502Y-23339820D01*
X47050537Y-23229506D01*
X46971185Y-23132815D01*
X46874494Y-23053463D01*
X46764180Y-22994498D01*
X46668057Y-22965339D01*
X46834637Y-22798759D01*
X46991680Y-22563727D01*
X47099853Y-22302574D01*
X47155000Y-22025335D01*
X47155000Y-21742665D01*
X47099853Y-21465426D01*
X46991680Y-21204273D01*
X46834637Y-20969241D01*
X46634759Y-20769363D01*
X46399727Y-20612320D01*
X46138574Y-20504147D01*
X45861335Y-20449000D01*
X45578665Y-20449000D01*
X45301426Y-20504147D01*
X45040273Y-20612320D01*
X44805241Y-20769363D01*
X44605363Y-20969241D01*
X44595501Y-20984000D01*
X42698595Y-20984000D01*
X42567608Y-20824392D01*
X42349101Y-20645068D01*
X42099808Y-20511818D01*
X41829309Y-20429764D01*
X41618492Y-20409000D01*
X40677508Y-20409000D01*
X40466691Y-20429764D01*
X40196192Y-20511818D01*
X39946899Y-20645068D01*
X39728392Y-20824392D01*
X39549068Y-21042899D01*
X39415818Y-21292192D01*
X39333764Y-21562691D01*
X39306057Y-21844000D01*
X39333764Y-22125309D01*
X39415818Y-22395808D01*
X39549068Y-22645101D01*
X39728392Y-22863608D01*
X39946899Y-23042932D01*
X40196192Y-23176182D01*
X40466691Y-23258236D01*
X40677508Y-23279000D01*
X41618492Y-23279000D01*
X41829309Y-23258236D01*
X42099808Y-23176182D01*
X42349101Y-23042932D01*
X42567608Y-22863608D01*
X42698595Y-22704000D01*
X44542047Y-22704000D01*
X44605363Y-22798759D01*
X44771943Y-22965339D01*
X44675820Y-22994498D01*
X44565506Y-23053463D01*
X44468815Y-23132815D01*
X44389463Y-23229506D01*
X44330498Y-23339820D01*
X44294188Y-23459518D01*
X44281928Y-23584000D01*
X44281928Y-24605848D01*
X43331777Y-25556000D01*
X41981730Y-25556000D01*
X41829309Y-25509764D01*
X41618492Y-25489000D01*
X40677508Y-25489000D01*
X40466691Y-25509764D01*
X40196192Y-25591818D01*
X39946899Y-25725068D01*
X39728392Y-25904392D01*
X39549068Y-26122899D01*
X39415818Y-26372192D01*
X39333764Y-26642691D01*
X39306057Y-26924000D01*
X39333764Y-27205309D01*
X39415818Y-27475808D01*
X39549068Y-27725101D01*
X39728392Y-27943608D01*
X39841482Y-28036419D01*
X39823518Y-28038188D01*
X39703820Y-28074498D01*
X39593506Y-28133463D01*
X39496815Y-28212815D01*
X39417463Y-28309506D01*
X39358498Y-28419820D01*
X39322188Y-28539518D01*
X39309928Y-28664000D01*
X39309928Y-30264000D01*
X39322188Y-30388482D01*
X39358498Y-30508180D01*
X39417463Y-30618494D01*
X39429742Y-30633456D01*
X39397899Y-30650476D01*
X39266947Y-30757946D01*
X39178350Y-30865901D01*
X39026987Y-30967038D01*
X38960000Y-31034025D01*
X38960000Y-24934239D01*
X38964160Y-24892000D01*
X38960000Y-24849761D01*
X38960000Y-24849754D01*
X38947556Y-24723411D01*
X38898381Y-24561300D01*
X38818524Y-24411898D01*
X38711054Y-24280946D01*
X38678242Y-24254018D01*
X35689988Y-21265765D01*
X35663054Y-21232946D01*
X35532102Y-21125476D01*
X35382700Y-21045619D01*
X35220589Y-20996444D01*
X35094246Y-20984000D01*
X35094239Y-20984000D01*
X35077219Y-20982324D01*
X34947608Y-20824392D01*
X34729101Y-20645068D01*
X34479808Y-20511818D01*
X34209309Y-20429764D01*
X33998492Y-20409000D01*
X33057508Y-20409000D01*
X32846691Y-20429764D01*
X32576192Y-20511818D01*
X32326899Y-20645068D01*
X32108392Y-20824392D01*
X31944578Y-21024000D01*
X30107226Y-21024000D01*
X30070637Y-20969241D01*
X29870759Y-20769363D01*
X29635727Y-20612320D01*
X29374574Y-20504147D01*
X29097335Y-20449000D01*
X28814665Y-20449000D01*
X28537426Y-20504147D01*
X28276273Y-20612320D01*
X28041241Y-20769363D01*
X27841363Y-20969241D01*
X27684320Y-21204273D01*
X27576147Y-21465426D01*
X27521000Y-21742665D01*
X27521000Y-22025335D01*
X27576147Y-22302574D01*
X27684320Y-22563727D01*
X27841363Y-22798759D01*
X28041241Y-22998637D01*
X28276273Y-23155680D01*
X28537426Y-23263853D01*
X28814665Y-23319000D01*
X29097335Y-23319000D01*
X29374574Y-23263853D01*
X29635727Y-23155680D01*
X29870759Y-22998637D01*
X30070637Y-22798759D01*
X30107226Y-22744000D01*
X32010232Y-22744000D01*
X32108392Y-22863608D01*
X32326899Y-23042932D01*
X32459858Y-23114000D01*
X32326899Y-23185068D01*
X32108392Y-23364392D01*
X31929068Y-23582899D01*
X31795818Y-23832192D01*
X31713764Y-24102691D01*
X31686057Y-24384000D01*
X31713764Y-24665309D01*
X31795818Y-24935808D01*
X31929068Y-25185101D01*
X32108392Y-25403608D01*
X32326899Y-25582932D01*
X32459858Y-25654000D01*
X32326899Y-25725068D01*
X32108392Y-25904392D01*
X31929068Y-26122899D01*
X31795818Y-26372192D01*
X31713764Y-26642691D01*
X31686057Y-26924000D01*
X31713764Y-27205309D01*
X31795818Y-27475808D01*
X31929068Y-27725101D01*
X32108392Y-27943608D01*
X32326899Y-28122932D01*
X32459858Y-28194000D01*
X32326899Y-28265068D01*
X32108392Y-28444392D01*
X31929068Y-28662899D01*
X31795818Y-28912192D01*
X31753801Y-29050706D01*
X31663061Y-28831641D01*
X31516962Y-28612987D01*
X31331013Y-28427038D01*
X31112359Y-28280939D01*
X30869405Y-28180304D01*
X30611486Y-28129000D01*
X30348514Y-28129000D01*
X30090595Y-28180304D01*
X29847641Y-28280939D01*
X29628987Y-28427038D01*
X29443038Y-28612987D01*
X29296939Y-28831641D01*
X29196304Y-29074595D01*
X29145000Y-29332514D01*
X29145000Y-29595486D01*
X29196304Y-29853405D01*
X29296939Y-30096359D01*
X29443038Y-30315013D01*
X29593650Y-30465625D01*
X29562937Y-30926313D01*
X29501987Y-30967038D01*
X29316038Y-31152987D01*
X29169939Y-31371641D01*
X29069304Y-31614595D01*
X29018000Y-31872514D01*
X29018000Y-32135486D01*
X29069304Y-32393405D01*
X29169939Y-32636359D01*
X29316038Y-32855013D01*
X29501987Y-33040962D01*
X29720641Y-33187061D01*
X29963595Y-33287696D01*
X30221514Y-33339000D01*
X30484486Y-33339000D01*
X30742405Y-33287696D01*
X30963777Y-33196000D01*
X31689928Y-33922151D01*
X31689928Y-35344000D01*
X31702188Y-35468482D01*
X31738498Y-35588180D01*
X31797463Y-35698494D01*
X31876815Y-35795185D01*
X31973506Y-35874537D01*
X32083820Y-35933502D01*
X32203518Y-35969812D01*
X32221482Y-35971581D01*
X32108392Y-36064392D01*
X31977405Y-36224000D01*
X31380975Y-36224000D01*
X31213000Y-36056025D01*
X31213000Y-35221238D01*
X31217160Y-35178999D01*
X31213000Y-35136760D01*
X31213000Y-35136754D01*
X31201904Y-35024101D01*
X31200556Y-35010410D01*
X31185639Y-34961235D01*
X31151381Y-34848300D01*
X31071524Y-34698898D01*
X30964054Y-34567946D01*
X30931240Y-34541016D01*
X28513000Y-32122777D01*
X28513000Y-31872514D01*
X28461696Y-31614595D01*
X28361061Y-31371641D01*
X28214962Y-31152987D01*
X28029013Y-30967038D01*
X27810359Y-30820939D01*
X27567405Y-30720304D01*
X27309486Y-30669000D01*
X27046514Y-30669000D01*
X26788595Y-30720304D01*
X26545641Y-30820939D01*
X26326987Y-30967038D01*
X26141038Y-31152987D01*
X25994939Y-31371641D01*
X25894304Y-31614595D01*
X25843000Y-31872514D01*
X25843000Y-32135486D01*
X25894304Y-32393405D01*
X25994939Y-32636359D01*
X26141038Y-32855013D01*
X26326987Y-33040962D01*
X26545641Y-33187061D01*
X26788595Y-33287696D01*
X27046514Y-33339000D01*
X27296777Y-33339000D01*
X29493000Y-35535224D01*
X29493000Y-36056025D01*
X29316038Y-36232987D01*
X29248000Y-36334814D01*
X29248000Y-36307665D01*
X29192853Y-36030426D01*
X29084680Y-35769273D01*
X28927637Y-35534241D01*
X28727759Y-35334363D01*
X28492727Y-35177320D01*
X28231574Y-35069147D01*
X27954335Y-35014000D01*
X27671665Y-35014000D01*
X27394426Y-35069147D01*
X27133273Y-35177320D01*
X26898241Y-35334363D01*
X26698363Y-35534241D01*
X26541320Y-35769273D01*
X26433147Y-36030426D01*
X26378000Y-36307665D01*
X26378000Y-36590335D01*
X26433147Y-36867574D01*
X26541320Y-37128727D01*
X26698363Y-37363759D01*
X26898241Y-37563637D01*
X26953000Y-37600226D01*
X26953001Y-38946752D01*
X26948840Y-38989000D01*
X26965444Y-39157589D01*
X26988804Y-39234595D01*
X27014620Y-39319700D01*
X27094477Y-39469102D01*
X27113135Y-39491836D01*
X27113000Y-39492514D01*
X27113000Y-39532777D01*
X24306723Y-36726500D01*
X25216242Y-35816982D01*
X25249054Y-35790054D01*
X25356524Y-35659102D01*
X25436381Y-35509700D01*
X25472219Y-35391556D01*
X25485556Y-35347590D01*
X25493934Y-35262523D01*
X25498000Y-35221246D01*
X25498000Y-35221240D01*
X25502160Y-35179001D01*
X25498000Y-35136762D01*
X25498000Y-30972205D01*
X25611469Y-30783090D01*
X25789405Y-30747696D01*
X26032359Y-30647061D01*
X26251013Y-30500962D01*
X26436962Y-30315013D01*
X26583061Y-30096359D01*
X26683696Y-29853405D01*
X26735000Y-29595486D01*
X26735000Y-29332514D01*
X26683696Y-29074595D01*
X26583061Y-28831641D01*
X26436962Y-28612987D01*
X26251013Y-28427038D01*
X26032359Y-28280939D01*
X25789405Y-28180304D01*
X25531486Y-28129000D01*
X25268514Y-28129000D01*
X25010595Y-28180304D01*
X24767641Y-28280939D01*
X24548987Y-28427038D01*
X24363038Y-28612987D01*
X24216939Y-28831641D01*
X24116304Y-29074595D01*
X24065000Y-29332514D01*
X24065000Y-29595486D01*
X24116304Y-29853405D01*
X24135552Y-29899874D01*
X23933092Y-30237308D01*
X23919477Y-30253898D01*
X23889595Y-30309803D01*
X23878821Y-30327760D01*
X23869691Y-30347042D01*
X23839620Y-30403300D01*
X23833504Y-30423461D01*
X23824489Y-30442500D01*
X23808960Y-30504374D01*
X23790445Y-30565411D01*
X23788380Y-30586372D01*
X23783251Y-30606810D01*
X23780091Y-30670533D01*
X23778001Y-30691754D01*
X23778001Y-30712684D01*
X23774861Y-30776006D01*
X23778001Y-30797241D01*
X23778000Y-34822776D01*
X23443745Y-35157031D01*
X23231574Y-35069147D01*
X22954335Y-35014000D01*
X22671665Y-35014000D01*
X22394426Y-35069147D01*
X22133273Y-35177320D01*
X21898241Y-35334363D01*
X21698363Y-35534241D01*
X21541320Y-35769273D01*
X21433147Y-36030426D01*
X21378000Y-36307665D01*
X21378000Y-36590335D01*
X21433147Y-36867574D01*
X21541320Y-37128727D01*
X21698363Y-37363759D01*
X21898241Y-37563637D01*
X22133273Y-37720680D01*
X22394426Y-37828853D01*
X22671665Y-37884000D01*
X22954335Y-37884000D01*
X23018928Y-37871151D01*
X26572001Y-41424224D01*
X26572001Y-44055088D01*
X26436962Y-43852987D01*
X26251013Y-43667038D01*
X26032359Y-43520939D01*
X25789405Y-43420304D01*
X25531486Y-43369000D01*
X25268514Y-43369000D01*
X25010595Y-43420304D01*
X24767641Y-43520939D01*
X24548987Y-43667038D01*
X24372025Y-43844000D01*
X23563361Y-43844000D01*
X23505475Y-43757368D01*
X23298632Y-43550525D01*
X23055411Y-43388010D01*
X22785158Y-43276068D01*
X22498260Y-43219000D01*
X22205740Y-43219000D01*
X21918842Y-43276068D01*
X21648589Y-43388010D01*
X21405368Y-43550525D01*
X21198525Y-43757368D01*
X21036010Y-44000589D01*
X20924068Y-44270842D01*
X20867000Y-44557740D01*
X20867000Y-44850260D01*
X20924068Y-45137158D01*
X21036010Y-45407411D01*
X21198525Y-45650632D01*
X21405368Y-45857475D01*
X21579760Y-45974000D01*
X21405368Y-46090525D01*
X21198525Y-46297368D01*
X21036010Y-46540589D01*
X20924068Y-46810842D01*
X20867000Y-47097740D01*
X20867000Y-47390260D01*
X20924068Y-47677158D01*
X21036010Y-47947411D01*
X21198525Y-48190632D01*
X21405368Y-48397475D01*
X21648589Y-48559990D01*
X21918842Y-48671932D01*
X22205740Y-48729000D01*
X22498260Y-48729000D01*
X22785158Y-48671932D01*
X23055411Y-48559990D01*
X23298632Y-48397475D01*
X23505475Y-48190632D01*
X23563361Y-48104000D01*
X24372025Y-48104000D01*
X24548987Y-48280962D01*
X24767641Y-48427061D01*
X25010595Y-48527696D01*
X25268514Y-48579000D01*
X25531486Y-48579000D01*
X25789405Y-48527696D01*
X26032359Y-48427061D01*
X26251013Y-48280962D01*
X26436962Y-48095013D01*
X26572000Y-47892913D01*
X26572000Y-49935776D01*
X26059777Y-50448000D01*
X25027226Y-50448000D01*
X24990637Y-50393241D01*
X24790759Y-50193363D01*
X24555727Y-50036320D01*
X24294574Y-49928147D01*
X24017335Y-49873000D01*
X23734665Y-49873000D01*
X23457426Y-49928147D01*
X23196273Y-50036320D01*
X22961241Y-50193363D01*
X22761363Y-50393241D01*
X22604320Y-50628273D01*
X22496147Y-50889426D01*
X22441000Y-51166665D01*
X22441000Y-51449335D01*
X22496147Y-51726574D01*
X22604320Y-51987727D01*
X22761363Y-52222759D01*
X22961241Y-52422637D01*
X23196273Y-52579680D01*
X23457426Y-52687853D01*
X23734665Y-52743000D01*
X24017335Y-52743000D01*
X24294574Y-52687853D01*
X24555727Y-52579680D01*
X24790759Y-52422637D01*
X24990637Y-52222759D01*
X25027226Y-52168000D01*
X26373761Y-52168000D01*
X26416000Y-52172160D01*
X26458239Y-52168000D01*
X26458246Y-52168000D01*
X26584589Y-52155556D01*
X26652583Y-52134931D01*
X26517241Y-52225363D01*
X26317363Y-52425241D01*
X26160320Y-52660273D01*
X26052147Y-52921426D01*
X25997000Y-53198665D01*
X25997000Y-53481335D01*
X26052147Y-53758574D01*
X26160320Y-54019727D01*
X26317363Y-54254759D01*
X26517241Y-54454637D01*
X26752273Y-54611680D01*
X27013426Y-54719853D01*
X27290665Y-54775000D01*
X27573335Y-54775000D01*
X27850574Y-54719853D01*
X28111727Y-54611680D01*
X28346759Y-54454637D01*
X28546637Y-54254759D01*
X28703680Y-54019727D01*
X28811853Y-53758574D01*
X28867000Y-53481335D01*
X28867000Y-53198665D01*
X28854152Y-53134072D01*
X29026240Y-52961984D01*
X29059054Y-52935054D01*
X29166524Y-52804102D01*
X29246381Y-52654700D01*
X29295556Y-52492589D01*
X29308000Y-52366246D01*
X29308000Y-52366239D01*
X29312160Y-52324000D01*
X29308000Y-52281761D01*
X29308000Y-51120909D01*
X29365363Y-51206759D01*
X29565241Y-51406637D01*
X29800273Y-51563680D01*
X30061426Y-51671853D01*
X30338665Y-51727000D01*
X30368777Y-51727000D01*
X29901760Y-52194017D01*
X29868947Y-52220946D01*
X29842018Y-52253759D01*
X29842016Y-52253761D01*
X29761477Y-52351898D01*
X29681620Y-52501300D01*
X29632444Y-52663411D01*
X29615840Y-52832000D01*
X29620001Y-52874249D01*
X29620000Y-57867777D01*
X27481988Y-55729765D01*
X27455054Y-55696946D01*
X27324102Y-55589476D01*
X27174700Y-55509619D01*
X27012589Y-55460444D01*
X26886246Y-55448000D01*
X26886239Y-55448000D01*
X26844000Y-55443840D01*
X26801761Y-55448000D01*
X25027226Y-55448000D01*
X24990637Y-55393241D01*
X24790759Y-55193363D01*
X24555727Y-55036320D01*
X24294574Y-54928147D01*
X24017335Y-54873000D01*
X23734665Y-54873000D01*
X23457426Y-54928147D01*
X23196273Y-55036320D01*
X22961241Y-55193363D01*
X22761363Y-55393241D01*
X22604320Y-55628273D01*
X22496147Y-55889426D01*
X22441000Y-56166665D01*
X22441000Y-56449335D01*
X22496147Y-56726574D01*
X22604320Y-56987727D01*
X22761363Y-57222759D01*
X22961241Y-57422637D01*
X23196273Y-57579680D01*
X23457426Y-57687853D01*
X23734665Y-57743000D01*
X24017335Y-57743000D01*
X24294574Y-57687853D01*
X24555727Y-57579680D01*
X24790759Y-57422637D01*
X24990637Y-57222759D01*
X25027226Y-57168000D01*
X26487777Y-57168000D01*
X29174265Y-59854489D01*
X29100147Y-60033426D01*
X29045000Y-60310665D01*
X29045000Y-60593335D01*
X29100147Y-60870574D01*
X29208320Y-61131727D01*
X29365363Y-61366759D01*
X29565241Y-61566637D01*
X29800273Y-61723680D01*
X30061426Y-61831853D01*
X30338665Y-61887000D01*
X30621335Y-61887000D01*
X30898574Y-61831853D01*
X31159727Y-61723680D01*
X31394759Y-61566637D01*
X31594637Y-61366759D01*
X31751680Y-61131727D01*
X31859853Y-60870574D01*
X31915000Y-60593335D01*
X31915000Y-60310665D01*
X31859853Y-60033426D01*
X31751680Y-59772273D01*
X31594637Y-59537241D01*
X31394759Y-59337363D01*
X31340000Y-59300774D01*
X31340000Y-53188223D01*
X33309224Y-51219000D01*
X33998492Y-51219000D01*
X34209309Y-51198236D01*
X34479808Y-51116182D01*
X34729101Y-50982932D01*
X34947608Y-50803608D01*
X35126932Y-50585101D01*
X35208000Y-50433433D01*
X35208000Y-54507777D01*
X32949760Y-56766017D01*
X32916947Y-56792946D01*
X32890018Y-56825759D01*
X32890016Y-56825761D01*
X32809477Y-56923898D01*
X32729620Y-57073300D01*
X32680444Y-57235411D01*
X32663840Y-57404000D01*
X32668001Y-57446245D01*
X32668001Y-57948913D01*
X32553518Y-57960188D01*
X32433820Y-57996498D01*
X32323506Y-58055463D01*
X32226815Y-58134815D01*
X32147463Y-58231506D01*
X32088498Y-58341820D01*
X32052188Y-58461518D01*
X32039928Y-58586000D01*
X32039928Y-60286000D01*
X32052188Y-60410482D01*
X32088498Y-60530180D01*
X32147463Y-60640494D01*
X32226815Y-60737185D01*
X32323506Y-60816537D01*
X32433820Y-60875502D01*
X32553518Y-60911812D01*
X32678000Y-60924072D01*
X34378000Y-60924072D01*
X34502482Y-60911812D01*
X34622180Y-60875502D01*
X34732494Y-60816537D01*
X34829185Y-60737185D01*
X34908537Y-60640494D01*
X34967502Y-60530180D01*
X35003812Y-60410482D01*
X35016072Y-60286000D01*
X35016072Y-58586000D01*
X35003812Y-58461518D01*
X34967502Y-58341820D01*
X34908537Y-58231506D01*
X34829185Y-58134815D01*
X34732494Y-58055463D01*
X34622180Y-57996498D01*
X34502482Y-57960188D01*
X34388000Y-57948913D01*
X34388000Y-57760223D01*
X36646236Y-55501987D01*
X36679054Y-55475054D01*
X36786524Y-55344102D01*
X36866381Y-55194700D01*
X36900683Y-55081620D01*
X36915556Y-55032591D01*
X36922011Y-54967054D01*
X36928000Y-54906246D01*
X36928000Y-54906240D01*
X36932160Y-54864001D01*
X36928000Y-54821762D01*
X36928000Y-44746238D01*
X36932160Y-44703999D01*
X36928000Y-44661760D01*
X36928000Y-44661754D01*
X36915556Y-44535411D01*
X36915556Y-44535409D01*
X36881363Y-44422691D01*
X36866381Y-44373300D01*
X36786524Y-44223898D01*
X36679054Y-44092946D01*
X36646235Y-44066012D01*
X35604046Y-43023823D01*
X35728589Y-43011556D01*
X35890700Y-42962381D01*
X36040102Y-42882524D01*
X36171054Y-42775054D01*
X36197988Y-42742235D01*
X37154240Y-41785984D01*
X37187054Y-41759054D01*
X37294524Y-41628102D01*
X37374381Y-41478700D01*
X37423556Y-41316589D01*
X37436000Y-41190246D01*
X37436000Y-41190239D01*
X37440160Y-41148000D01*
X37436000Y-41105761D01*
X37436000Y-39662538D01*
X37457717Y-39689000D01*
X37488947Y-39727054D01*
X37521760Y-39753983D01*
X39407474Y-41639698D01*
X39333764Y-41882691D01*
X39306057Y-42164000D01*
X39333764Y-42445309D01*
X39415818Y-42715808D01*
X39549068Y-42965101D01*
X39728392Y-43183608D01*
X39946899Y-43362932D01*
X40079858Y-43434000D01*
X39946899Y-43505068D01*
X39728392Y-43684392D01*
X39549068Y-43902899D01*
X39415818Y-44152192D01*
X39333764Y-44422691D01*
X39306057Y-44704000D01*
X39333764Y-44985309D01*
X39415818Y-45255808D01*
X39549068Y-45505101D01*
X39728392Y-45723608D01*
X39946899Y-45902932D01*
X40079858Y-45974000D01*
X39946899Y-46045068D01*
X39728392Y-46224392D01*
X39549068Y-46442899D01*
X39415818Y-46692192D01*
X39333764Y-46962691D01*
X39306057Y-47244000D01*
X39333764Y-47525309D01*
X39415818Y-47795808D01*
X39549068Y-48045101D01*
X39728392Y-48263608D01*
X39946899Y-48442932D01*
X40079858Y-48514000D01*
X39946899Y-48585068D01*
X39728392Y-48764392D01*
X39549068Y-48982899D01*
X39415818Y-49232192D01*
X39333764Y-49502691D01*
X39306057Y-49784000D01*
X39333764Y-50065309D01*
X39415818Y-50335808D01*
X39549068Y-50585101D01*
X39728392Y-50803608D01*
X39946899Y-50982932D01*
X40196192Y-51116182D01*
X40466691Y-51198236D01*
X40677508Y-51219000D01*
X41618492Y-51219000D01*
X41829309Y-51198236D01*
X42099808Y-51116182D01*
X42217207Y-51053431D01*
X44998802Y-53835026D01*
X44944304Y-53966595D01*
X44893000Y-54224514D01*
X44893000Y-54487486D01*
X44944304Y-54745405D01*
X45044939Y-54988359D01*
X45191038Y-55207013D01*
X45376987Y-55392962D01*
X45595641Y-55539061D01*
X45838595Y-55639696D01*
X46096514Y-55691000D01*
X46359486Y-55691000D01*
X46617405Y-55639696D01*
X46860359Y-55539061D01*
X47079013Y-55392962D01*
X47255975Y-55216000D01*
X47740025Y-55216000D01*
X47916987Y-55392962D01*
X48135641Y-55539061D01*
X48378595Y-55639696D01*
X48636514Y-55691000D01*
X48899486Y-55691000D01*
X49157405Y-55639696D01*
X49400359Y-55539061D01*
X49432000Y-55517919D01*
X49432000Y-55523777D01*
X48189760Y-56766017D01*
X48156947Y-56792946D01*
X48130018Y-56825759D01*
X48130016Y-56825761D01*
X48049477Y-56923898D01*
X47969620Y-57073300D01*
X47920444Y-57235411D01*
X47903840Y-57404000D01*
X47908001Y-57446245D01*
X47908001Y-58408024D01*
X47731038Y-58584987D01*
X47584939Y-58803641D01*
X47498000Y-59013530D01*
X47411061Y-58803641D01*
X47264962Y-58584987D01*
X47079013Y-58399038D01*
X46860359Y-58252939D01*
X46617405Y-58152304D01*
X46359486Y-58101000D01*
X46096514Y-58101000D01*
X45838595Y-58152304D01*
X45595641Y-58252939D01*
X45545775Y-58286258D01*
X43790919Y-57116355D01*
X43855061Y-57020359D01*
X43955696Y-56777405D01*
X44007000Y-56519486D01*
X44007000Y-56256514D01*
X43955696Y-55998595D01*
X43855061Y-55755641D01*
X43708962Y-55536987D01*
X43523013Y-55351038D01*
X43304359Y-55204939D01*
X43061405Y-55104304D01*
X42803486Y-55053000D01*
X42540514Y-55053000D01*
X42282595Y-55104304D01*
X42039641Y-55204939D01*
X41820987Y-55351038D01*
X41635038Y-55536987D01*
X41488939Y-55755641D01*
X41388304Y-55998595D01*
X41337000Y-56256514D01*
X41337000Y-56519486D01*
X41388304Y-56777405D01*
X41488939Y-57020359D01*
X41635038Y-57239013D01*
X41808604Y-57412579D01*
X41816157Y-57488446D01*
X41824444Y-57572588D01*
X41824576Y-57573023D01*
X41824621Y-57573475D01*
X41849115Y-57653918D01*
X41873619Y-57734699D01*
X41873834Y-57735101D01*
X41873966Y-57735535D01*
X41913734Y-57809749D01*
X41953476Y-57884101D01*
X41953764Y-57884452D01*
X41953979Y-57884853D01*
X42007255Y-57949631D01*
X42060946Y-58015054D01*
X42061301Y-58015345D01*
X42061586Y-58015692D01*
X42125956Y-58068406D01*
X42191898Y-58122524D01*
X42229745Y-58142753D01*
X42879614Y-58576000D01*
X39819361Y-58576000D01*
X39761475Y-58489368D01*
X39554632Y-58282525D01*
X39311411Y-58120010D01*
X39041158Y-58008068D01*
X38754260Y-57951000D01*
X38461740Y-57951000D01*
X38174842Y-58008068D01*
X37904589Y-58120010D01*
X37661368Y-58282525D01*
X37454525Y-58489368D01*
X37292010Y-58732589D01*
X37180068Y-59002842D01*
X37123000Y-59289740D01*
X37123000Y-59582260D01*
X37180068Y-59869158D01*
X37292010Y-60139411D01*
X37454525Y-60382632D01*
X37661368Y-60589475D01*
X37904589Y-60751990D01*
X38174842Y-60863932D01*
X38461740Y-60921000D01*
X38754260Y-60921000D01*
X39041158Y-60863932D01*
X39311411Y-60751990D01*
X39554632Y-60589475D01*
X39761475Y-60382632D01*
X39819361Y-60296000D01*
X41741928Y-60296000D01*
X41741928Y-61760000D01*
X41754188Y-61884482D01*
X41790498Y-62004180D01*
X41849463Y-62114494D01*
X41928815Y-62211185D01*
X42025506Y-62290537D01*
X42135820Y-62349502D01*
X42255518Y-62385812D01*
X42380000Y-62398072D01*
X43980000Y-62398072D01*
X44104482Y-62385812D01*
X44224180Y-62349502D01*
X44334494Y-62290537D01*
X44431185Y-62211185D01*
X44510537Y-62114494D01*
X44569502Y-62004180D01*
X44605812Y-61884482D01*
X44618072Y-61760000D01*
X44618072Y-60353279D01*
X44656258Y-60296000D01*
X45200025Y-60296000D01*
X45376987Y-60472962D01*
X45595641Y-60619061D01*
X45838595Y-60719696D01*
X46096514Y-60771000D01*
X46359486Y-60771000D01*
X46617405Y-60719696D01*
X46860359Y-60619061D01*
X47079013Y-60472962D01*
X47264962Y-60287013D01*
X47411061Y-60068359D01*
X47498000Y-59858470D01*
X47584939Y-60068359D01*
X47731038Y-60287013D01*
X47916987Y-60472962D01*
X48135641Y-60619061D01*
X48378595Y-60719696D01*
X48636514Y-60771000D01*
X48899486Y-60771000D01*
X49157405Y-60719696D01*
X49400359Y-60619061D01*
X49619013Y-60472962D01*
X49804962Y-60287013D01*
X49951061Y-60068359D01*
X50051696Y-59825405D01*
X50103000Y-59567486D01*
X50103000Y-59304514D01*
X50051696Y-59046595D01*
X49951061Y-58803641D01*
X49804962Y-58584987D01*
X49628000Y-58408025D01*
X49628000Y-57760223D01*
X50870236Y-56517987D01*
X50903054Y-56491054D01*
X51010524Y-56360102D01*
X51090381Y-56210700D01*
X51136914Y-56057300D01*
X51139556Y-56048591D01*
X51144480Y-55998595D01*
X51152000Y-55922246D01*
X51152000Y-55922240D01*
X51156160Y-55880001D01*
X51152000Y-55837762D01*
X51152000Y-51347011D01*
X51155762Y-51344497D01*
X51344497Y-51155762D01*
X51492785Y-50933833D01*
X51594928Y-50687239D01*
X51647000Y-50425456D01*
X51647000Y-50158544D01*
X51594928Y-49896761D01*
X51492785Y-49650167D01*
X51344497Y-49428238D01*
X51155762Y-49239503D01*
X50933833Y-49091215D01*
X50687239Y-48989072D01*
X50425456Y-48937000D01*
X50158544Y-48937000D01*
X49896761Y-48989072D01*
X49650167Y-49091215D01*
X49428238Y-49239503D01*
X49239503Y-49428238D01*
X49236989Y-49432000D01*
X48807011Y-49432000D01*
X48804497Y-49428238D01*
X48615762Y-49239503D01*
X48393833Y-49091215D01*
X48147239Y-48989072D01*
X47885456Y-48937000D01*
X47618544Y-48937000D01*
X47356761Y-48989072D01*
X47110167Y-49091215D01*
X46888238Y-49239503D01*
X46699503Y-49428238D01*
X46551215Y-49650167D01*
X46482000Y-49817266D01*
X46412785Y-49650167D01*
X46264497Y-49428238D01*
X46075762Y-49239503D01*
X45853833Y-49091215D01*
X45607239Y-48989072D01*
X45345456Y-48937000D01*
X45078544Y-48937000D01*
X45074106Y-48937883D01*
X45056000Y-48919777D01*
X45056000Y-47255975D01*
X45232962Y-47079013D01*
X45379061Y-46860359D01*
X45479696Y-46617405D01*
X45531000Y-46359486D01*
X45531000Y-46096514D01*
X45479696Y-45838595D01*
X45379061Y-45595641D01*
X45351518Y-45554419D01*
X45380589Y-45551556D01*
X45542700Y-45502381D01*
X45692102Y-45422524D01*
X45823054Y-45315054D01*
X45849988Y-45282235D01*
X46298234Y-44833988D01*
X46298239Y-44833984D01*
X49124224Y-42008000D01*
X50757761Y-42008000D01*
X50800000Y-42012160D01*
X50842239Y-42008000D01*
X50842246Y-42008000D01*
X50968589Y-41995556D01*
X51130700Y-41946381D01*
X51280102Y-41866524D01*
X51411054Y-41759054D01*
X51437988Y-41726235D01*
X51886230Y-41277992D01*
X51919054Y-41251054D01*
X51995001Y-41158513D01*
X51995000Y-64075109D01*
X51925156Y-64191636D01*
X51698753Y-64496905D01*
X51443516Y-64778516D01*
X51161905Y-65033753D01*
X50856636Y-65260156D01*
X50740109Y-65330000D01*
X21014891Y-65330000D01*
X20898364Y-65260156D01*
X20593095Y-65033753D01*
X20311484Y-64778516D01*
X20056247Y-64496905D01*
X19829844Y-64191636D01*
X19760000Y-64075109D01*
X19760000Y-21014891D01*
X19829844Y-20898364D01*
X20056247Y-20593095D01*
X20311484Y-20311484D01*
X20593095Y-20056247D01*
X20898364Y-19829844D01*
X21014891Y-19760000D01*
X50740109Y-19760000D01*
X50856636Y-19829844D01*
M02*
